<svg width="160" height="105" viewBox="0 0 160 105" fill="none" xmlns="http://www.w3.org/2000/svg">
<g clip-path="url(#clip0_356_3166)">
<rect width="160" height="105" rx="9.30233" fill="#F1F7FF"/>
<g opacity="0.8" filter="url(#filter0_dd_356_3166)">
<ellipse cx="131" cy="27" rx="15.9998" ry="16" fill="white"/>
</g>
<path d="M137.634 34.4153V32.8544C137.634 32.0264 137.305 31.2323 136.72 30.6468C136.134 30.0613 135.34 29.7324 134.512 29.7324H128.268C127.44 29.7324 126.646 30.0613 126.061 30.6468C125.475 31.2323 125.146 32.0264 125.146 32.8544V34.4153" stroke="#4D7CCF" stroke-width="1.56097" stroke-linecap="round" stroke-linejoin="round"/>
<path d="M131.39 26.6111C133.115 26.6111 134.512 25.2133 134.512 23.4891C134.512 21.7649 133.115 20.3672 131.39 20.3672C129.666 20.3672 128.269 21.7649 128.269 23.4891C128.269 25.2133 129.666 26.6111 131.39 26.6111Z" stroke="#4D7CCF" stroke-width="1.56097" stroke-linecap="round" stroke-linejoin="round"/>
<g opacity="0.8" filter="url(#filter1_dd_356_3166)">
<ellipse cx="131" cy="78" rx="15.9998" ry="16" fill="white"/>
</g>
<path d="M137.634 85.4153V83.8544C137.634 83.0264 137.305 82.2323 136.72 81.6468C136.134 81.0613 135.34 80.7324 134.512 80.7324H128.268C127.44 80.7324 126.646 81.0613 126.061 81.6468C125.475 82.2323 125.146 83.0264 125.146 83.8544V85.4153" stroke="#4D7CCF" stroke-width="1.56097" stroke-linecap="round" stroke-linejoin="round"/>
<path d="M131.39 77.6111C133.115 77.6111 134.512 76.2133 134.512 74.4891C134.512 72.7649 133.115 71.3672 131.39 71.3672C129.666 71.3672 128.269 72.7649 128.269 74.4891C128.269 76.2133 129.666 77.6111 131.39 77.6111Z" stroke="#4D7CCF" stroke-width="1.56097" stroke-linecap="round" stroke-linejoin="round"/>
<g opacity="0.8" filter="url(#filter2_dd_356_3166)">
<ellipse cx="28.9998" cy="53" rx="15.9998" ry="16" fill="white"/>
</g>
<g clip-path="url(#clip1_356_3166)">
<path d="M29.3906 44.8027V61.9735" stroke="#5CB432" stroke-width="1.56097" stroke-linecap="round" stroke-linejoin="round"/>
<path d="M33.2923 47.9238H27.4387C26.7142 47.9238 26.0194 48.2116 25.5071 48.7239C24.9948 49.2362 24.707 49.931 24.707 50.6555C24.707 51.38 24.9948 52.0748 25.5071 52.5871C26.0194 53.0994 26.7142 53.3872 27.4387 53.3872H31.3411C32.0656 53.3872 32.7604 53.675 33.2727 54.1873C33.785 54.6996 34.0728 55.3945 34.0728 56.119C34.0728 56.8434 33.785 57.5383 33.2727 58.0506C32.7604 58.5629 32.0656 58.8507 31.3411 58.8507H24.707" stroke="#5CB432" stroke-width="1.56097" stroke-linecap="round" stroke-linejoin="round"/>
</g>
<path d="M29 24V23.25C28.5858 23.25 28.25 23.5858 28.25 24L29 24ZM108.53 24.5303C108.823 24.2374 108.823 23.7626 108.53 23.4697L103.757 18.6967C103.464 18.4038 102.99 18.4038 102.697 18.6967C102.404 18.9896 102.404 19.4645 102.697 19.7574L106.939 24L102.697 28.2426C102.404 28.5355 102.404 29.0104 102.697 29.3033C102.99 29.5962 103.464 29.5962 103.757 29.3033L108.53 24.5303ZM28.25 34C28.25 34.4142 28.5858 34.75 29 34.75C29.4142 34.75 29.75 34.4142 29.75 34H28.25ZM29.75 32.75C29.75 32.3358 29.4142 32 29 32C28.5858 32 28.25 32.3358 28.25 32.75H29.75ZM28.25 30.25C28.25 30.6642 28.5858 31 29 31C29.4142 31 29.75 30.6642 29.75 30.25H28.25ZM29.75 27.75C29.75 27.3358 29.4142 27 29 27C28.5858 27 28.25 27.3358 28.25 27.75H29.75ZM28.25 25.25C28.25 25.6642 28.5858 26 29 26C29.4142 26 29.75 25.6642 29.75 25.25H28.25ZM30.5192 24.75C30.9334 24.75 31.2692 24.4142 31.2692 24C31.2692 23.5858 30.9334 23.25 30.5192 23.25V24.75ZM33.5577 23.25C33.1435 23.25 32.8077 23.5858 32.8077 24C32.8077 24.4142 33.1435 24.75 33.5577 24.75V23.25ZM36.5962 24.75C37.0104 24.75 37.3462 24.4142 37.3462 24C37.3462 23.5858 37.0104 23.25 36.5962 23.25V24.75ZM39.6346 23.25C39.2204 23.25 38.8846 23.5858 38.8846 24C38.8846 24.4142 39.2204 24.75 39.6346 24.75V23.25ZM42.6731 24.75C43.0873 24.75 43.4231 24.4142 43.4231 24C43.4231 23.5858 43.0873 23.25 42.6731 23.25V24.75ZM45.7115 23.25C45.2973 23.25 44.9615 23.5858 44.9615 24C44.9615 24.4142 45.2973 24.75 45.7115 24.75V23.25ZM48.75 24.75C49.1642 24.75 49.5 24.4142 49.5 24C49.5 23.5858 49.1642 23.25 48.75 23.25V24.75ZM51.7885 23.25C51.3742 23.25 51.0385 23.5858 51.0385 24C51.0385 24.4142 51.3742 24.75 51.7885 24.75V23.25ZM54.8269 24.75C55.2411 24.75 55.5769 24.4142 55.5769 24C55.5769 23.5858 55.2411 23.25 54.8269 23.25V24.75ZM57.8654 23.25C57.4512 23.25 57.1154 23.5858 57.1154 24C57.1154 24.4142 57.4512 24.75 57.8654 24.75V23.25ZM60.9038 24.75C61.3181 24.75 61.6538 24.4142 61.6538 24C61.6538 23.5858 61.3181 23.25 60.9038 23.25V24.75ZM63.9423 23.25C63.5281 23.25 63.1923 23.5858 63.1923 24C63.1923 24.4142 63.5281 24.75 63.9423 24.75V23.25ZM66.9808 24.75C67.395 24.75 67.7308 24.4142 67.7308 24C67.7308 23.5858 67.395 23.25 66.9808 23.25V24.75ZM70.0192 23.25C69.605 23.25 69.2692 23.5858 69.2692 24C69.2692 24.4142 69.605 24.75 70.0192 24.75V23.25ZM73.0577 24.75C73.4719 24.75 73.8077 24.4142 73.8077 24C73.8077 23.5858 73.4719 23.25 73.0577 23.25V24.75ZM76.0961 23.25C75.6819 23.25 75.3461 23.5858 75.3461 24C75.3461 24.4142 75.6819 24.75 76.0961 24.75V23.25ZM79.1346 24.75C79.5488 24.75 79.8846 24.4142 79.8846 24C79.8846 23.5858 79.5488 23.25 79.1346 23.25V24.75ZM82.1731 23.25C81.7589 23.25 81.4231 23.5858 81.4231 24C81.4231 24.4142 81.7589 24.75 82.1731 24.75V23.25ZM85.2115 24.75C85.6257 24.75 85.9615 24.4142 85.9615 24C85.9615 23.5858 85.6257 23.25 85.2115 23.25V24.75ZM88.25 23.25C87.8358 23.25 87.5 23.5858 87.5 24C87.5 24.4142 87.8358 24.75 88.25 24.75V23.25ZM91.2884 24.75C91.7027 24.75 92.0384 24.4142 92.0384 24C92.0384 23.5858 91.7027 23.25 91.2884 23.25V24.75ZM94.3269 23.25C93.9127 23.25 93.5769 23.5858 93.5769 24C93.5769 24.4142 93.9127 24.75 94.3269 24.75V23.25ZM97.3654 24.75C97.7796 24.75 98.1154 24.4142 98.1154 24C98.1154 23.5858 97.7796 23.25 97.3654 23.25V24.75ZM100.404 23.25C99.9896 23.25 99.6538 23.5858 99.6538 24C99.6538 24.4142 99.9896 24.75 100.404 24.75V23.25ZM103.442 24.75C103.856 24.75 104.192 24.4142 104.192 24C104.192 23.5858 103.856 23.25 103.442 23.25V24.75ZM106.481 23.25C106.067 23.25 105.731 23.5858 105.731 24C105.731 24.4142 106.067 24.75 106.481 24.75V23.25ZM29.75 34V32.75H28.25V34H29.75ZM29.75 30.25V27.75H28.25V30.25H29.75ZM29.75 25.25V24L28.25 24V25.25H29.75ZM29 24.75H30.5192V23.25H29V24.75ZM33.5577 24.75H36.5962V23.25H33.5577V24.75ZM39.6346 24.75H42.6731V23.25H39.6346V24.75ZM45.7115 24.75H48.75V23.25H45.7115V24.75ZM51.7885 24.75H54.8269V23.25H51.7885V24.75ZM57.8654 24.75H60.9038V23.25H57.8654V24.75ZM63.9423 24.75H66.9808V23.25H63.9423V24.75ZM70.0192 24.75H73.0577V23.25H70.0192V24.75ZM76.0961 24.75H79.1346V23.25H76.0961V24.75ZM82.1731 24.75H85.2115V23.25H82.1731V24.75ZM88.25 24.75H91.2884V23.25H88.25V24.75ZM94.3269 24.75H97.3654V23.25H94.3269V24.75ZM100.404 24.75H103.442V23.25H100.404V24.75ZM106.481 24.75H108V23.25H106.481V24.75Z" fill="#333333"/>
<path d="M29 83V83.75C28.5858 83.75 28.25 83.4142 28.25 83L29 83ZM108.53 82.4697C108.823 82.7626 108.823 83.2374 108.53 83.5303L103.757 88.3033C103.464 88.5962 102.99 88.5962 102.697 88.3033C102.404 88.0104 102.404 87.5355 102.697 87.2426L106.939 83L102.697 78.7574C102.404 78.4645 102.404 77.9896 102.697 77.6967C102.99 77.4038 103.464 77.4038 103.757 77.6967L108.53 82.4697ZM28.25 73C28.25 72.5858 28.5858 72.25 29 72.25C29.4142 72.25 29.75 72.5858 29.75 73H28.25ZM29.75 74.25C29.75 74.6642 29.4142 75 29 75C28.5858 75 28.25 74.6642 28.25 74.25H29.75ZM28.25 76.75C28.25 76.3358 28.5858 76 29 76C29.4142 76 29.75 76.3358 29.75 76.75H28.25ZM29.75 79.25C29.75 79.6642 29.4142 80 29 80C28.5858 80 28.25 79.6642 28.25 79.25H29.75ZM28.25 81.75C28.25 81.3358 28.5858 81 29 81C29.4142 81 29.75 81.3358 29.75 81.75H28.25ZM30.5192 82.25C30.9334 82.25 31.2692 82.5858 31.2692 83C31.2692 83.4142 30.9334 83.75 30.5192 83.75V82.25ZM33.5577 83.75C33.1435 83.75 32.8077 83.4142 32.8077 83C32.8077 82.5858 33.1435 82.25 33.5577 82.25V83.75ZM36.5962 82.25C37.0104 82.25 37.3462 82.5858 37.3462 83C37.3462 83.4142 37.0104 83.75 36.5962 83.75V82.25ZM39.6346 83.75C39.2204 83.75 38.8846 83.4142 38.8846 83C38.8846 82.5858 39.2204 82.25 39.6346 82.25V83.75ZM42.6731 82.25C43.0873 82.25 43.4231 82.5858 43.4231 83C43.4231 83.4142 43.0873 83.75 42.6731 83.75V82.25ZM45.7115 83.75C45.2973 83.75 44.9615 83.4142 44.9615 83C44.9615 82.5858 45.2973 82.25 45.7115 82.25V83.75ZM48.75 82.25C49.1642 82.25 49.5 82.5858 49.5 83C49.5 83.4142 49.1642 83.75 48.75 83.75V82.25ZM51.7885 83.75C51.3742 83.75 51.0385 83.4142 51.0385 83C51.0385 82.5858 51.3742 82.25 51.7885 82.25V83.75ZM54.8269 82.25C55.2411 82.25 55.5769 82.5858 55.5769 83C55.5769 83.4142 55.2411 83.75 54.8269 83.75V82.25ZM57.8654 83.75C57.4512 83.75 57.1154 83.4142 57.1154 83C57.1154 82.5858 57.4512 82.25 57.8654 82.25V83.75ZM60.9038 82.25C61.3181 82.25 61.6538 82.5858 61.6538 83C61.6538 83.4142 61.3181 83.75 60.9038 83.75V82.25ZM63.9423 83.75C63.5281 83.75 63.1923 83.4142 63.1923 83C63.1923 82.5858 63.5281 82.25 63.9423 82.25V83.75ZM66.9808 82.25C67.395 82.25 67.7308 82.5858 67.7308 83C67.7308 83.4142 67.395 83.75 66.9808 83.75V82.25ZM70.0192 83.75C69.605 83.75 69.2692 83.4142 69.2692 83C69.2692 82.5858 69.605 82.25 70.0192 82.25V83.75ZM73.0577 82.25C73.4719 82.25 73.8077 82.5858 73.8077 83C73.8077 83.4142 73.4719 83.75 73.0577 83.75V82.25ZM76.0961 83.75C75.6819 83.75 75.3461 83.4142 75.3461 83C75.3461 82.5858 75.6819 82.25 76.0961 82.25V83.75ZM79.1346 82.25C79.5488 82.25 79.8846 82.5858 79.8846 83C79.8846 83.4142 79.5488 83.75 79.1346 83.75V82.25ZM82.1731 83.75C81.7589 83.75 81.4231 83.4142 81.4231 83C81.4231 82.5858 81.7589 82.25 82.1731 82.25V83.75ZM85.2115 82.25C85.6257 82.25 85.9615 82.5858 85.9615 83C85.9615 83.4142 85.6257 83.75 85.2115 83.75V82.25ZM88.25 83.75C87.8358 83.75 87.5 83.4142 87.5 83C87.5 82.5858 87.8358 82.25 88.25 82.25V83.75ZM91.2884 82.25C91.7027 82.25 92.0384 82.5858 92.0384 83C92.0384 83.4142 91.7027 83.75 91.2884 83.75V82.25ZM94.3269 83.75C93.9127 83.75 93.5769 83.4142 93.5769 83C93.5769 82.5858 93.9127 82.25 94.3269 82.25V83.75ZM97.3654 82.25C97.7796 82.25 98.1154 82.5858 98.1154 83C98.1154 83.4142 97.7796 83.75 97.3654 83.75V82.25ZM100.404 83.75C99.9896 83.75 99.6538 83.4142 99.6538 83C99.6538 82.5858 99.9896 82.25 100.404 82.25V83.75ZM103.442 82.25C103.856 82.25 104.192 82.5858 104.192 83C104.192 83.4142 103.856 83.75 103.442 83.75V82.25ZM106.481 83.75C106.067 83.75 105.731 83.4142 105.731 83C105.731 82.5858 106.067 82.25 106.481 82.25V83.75ZM29.75 73V74.25H28.25V73H29.75ZM29.75 76.75V79.25H28.25V76.75H29.75ZM29.75 81.75V83L28.25 83V81.75H29.75ZM29 82.25H30.5192V83.75H29V82.25ZM33.5577 82.25H36.5962V83.75H33.5577V82.25ZM39.6346 82.25H42.6731V83.75H39.6346V82.25ZM45.7115 82.25H48.75V83.75H45.7115V82.25ZM51.7885 82.25H54.8269V83.75H51.7885V82.25ZM57.8654 82.25H60.9038V83.75H57.8654V82.25ZM63.9423 82.25H66.9808V83.75H63.9423V82.25ZM70.0192 82.25H73.0577V83.75H70.0192V82.25ZM76.0961 82.25H79.1346V83.75H76.0961V82.25ZM82.1731 82.25H85.2115V83.75H82.1731V82.25ZM88.25 82.25H91.2884V83.75H88.25V82.25ZM94.3269 82.25H97.3654V83.75H94.3269V82.25ZM100.404 82.25H103.442V83.75H100.404V82.25ZM106.481 82.25H108V83.75H106.481V82.25Z" fill="#333333"/>
</g>
<defs>
<filter id="filter0_dd_356_3166" x="88.8629" y="-0.61649" width="84.2742" height="84.2742" filterUnits="userSpaceOnUse" color-interpolation-filters="sRGB">
<feFlood flood-opacity="0" result="BackgroundImageFix"/>
<feColorMatrix in="SourceAlpha" type="matrix" values="0 0 0 0 0 0 0 0 0 0 0 0 0 0 0 0 0 0 127 0" result="hardAlpha"/>
<feMorphology radius="2.90412" operator="erode" in="SourceAlpha" result="effect1_dropShadow_356_3166"/>
<feOffset dy="14.5206"/>
<feGaussianBlur stdDeviation="14.5206"/>
<feColorMatrix type="matrix" values="0 0 0 0 0 0 0 0 0 0.458431 0 0 0 0 0.916862 0 0 0 0.2 0"/>
<feBlend mode="normal" in2="BackgroundImageFix" result="effect1_dropShadow_356_3166"/>
<feColorMatrix in="SourceAlpha" type="matrix" values="0 0 0 0 0 0 0 0 0 0 0 0 0 0 0 0 0 0 127 0" result="hardAlpha"/>
<feOffset/>
<feGaussianBlur stdDeviation="5.80825"/>
<feColorMatrix type="matrix" values="0 0 0 0 0 0 0 0 0 0.458824 0 0 0 0 0.917647 0 0 0 0.1 0"/>
<feBlend mode="normal" in2="effect1_dropShadow_356_3166" result="effect2_dropShadow_356_3166"/>
<feBlend mode="normal" in="SourceGraphic" in2="effect2_dropShadow_356_3166" result="shape"/>
</filter>
<filter id="filter1_dd_356_3166" x="88.8629" y="50.3835" width="84.2742" height="84.2742" filterUnits="userSpaceOnUse" color-interpolation-filters="sRGB">
<feFlood flood-opacity="0" result="BackgroundImageFix"/>
<feColorMatrix in="SourceAlpha" type="matrix" values="0 0 0 0 0 0 0 0 0 0 0 0 0 0 0 0 0 0 127 0" result="hardAlpha"/>
<feMorphology radius="2.90412" operator="erode" in="SourceAlpha" result="effect1_dropShadow_356_3166"/>
<feOffset dy="14.5206"/>
<feGaussianBlur stdDeviation="14.5206"/>
<feColorMatrix type="matrix" values="0 0 0 0 0 0 0 0 0 0.458431 0 0 0 0 0.916862 0 0 0 0.2 0"/>
<feBlend mode="normal" in2="BackgroundImageFix" result="effect1_dropShadow_356_3166"/>
<feColorMatrix in="SourceAlpha" type="matrix" values="0 0 0 0 0 0 0 0 0 0 0 0 0 0 0 0 0 0 127 0" result="hardAlpha"/>
<feOffset/>
<feGaussianBlur stdDeviation="5.80825"/>
<feColorMatrix type="matrix" values="0 0 0 0 0 0 0 0 0 0.458824 0 0 0 0 0.917647 0 0 0 0.1 0"/>
<feBlend mode="normal" in2="effect1_dropShadow_356_3166" result="effect2_dropShadow_356_3166"/>
<feBlend mode="normal" in="SourceGraphic" in2="effect2_dropShadow_356_3166" result="shape"/>
</filter>
<filter id="filter2_dd_356_3166" x="-13.1371" y="25.3835" width="84.2742" height="84.2742" filterUnits="userSpaceOnUse" color-interpolation-filters="sRGB">
<feFlood flood-opacity="0" result="BackgroundImageFix"/>
<feColorMatrix in="SourceAlpha" type="matrix" values="0 0 0 0 0 0 0 0 0 0 0 0 0 0 0 0 0 0 127 0" result="hardAlpha"/>
<feMorphology radius="2.90412" operator="erode" in="SourceAlpha" result="effect1_dropShadow_356_3166"/>
<feOffset dy="14.5206"/>
<feGaussianBlur stdDeviation="14.5206"/>
<feColorMatrix type="matrix" values="0 0 0 0 0 0 0 0 0 0.458431 0 0 0 0 0.916862 0 0 0 0.2 0"/>
<feBlend mode="normal" in2="BackgroundImageFix" result="effect1_dropShadow_356_3166"/>
<feColorMatrix in="SourceAlpha" type="matrix" values="0 0 0 0 0 0 0 0 0 0 0 0 0 0 0 0 0 0 127 0" result="hardAlpha"/>
<feOffset/>
<feGaussianBlur stdDeviation="5.80825"/>
<feColorMatrix type="matrix" values="0 0 0 0 0 0 0 0 0 0.458824 0 0 0 0 0.917647 0 0 0 0.1 0"/>
<feBlend mode="normal" in2="effect1_dropShadow_356_3166" result="effect2_dropShadow_356_3166"/>
<feBlend mode="normal" in="SourceGraphic" in2="effect2_dropShadow_356_3166" result="shape"/>
</filter>
<clipPath id="clip0_356_3166">
<rect width="160" height="105" rx="9.30233" fill="white"/>
</clipPath>
<clipPath id="clip1_356_3166">
<rect width="18.7315" height="18.7317" fill="white" transform="translate(20.0244 44.0234)"/>
</clipPath>
</defs>
</svg>
