<svg width="160" height="105" viewBox="0 0 160 105" fill="none" xmlns="http://www.w3.org/2000/svg">
<g clip-path="url(#clip0_356_3141)">
<rect width="160" height="105" rx="9.30233" fill="#F1F7FF"/>
<g opacity="0.8" filter="url(#filter0_dd_356_3141)">
<ellipse cx="131" cy="53" rx="15.9998" ry="16" fill="white"/>
</g>
<path d="M137.634 60.4153V58.8544C137.634 58.0264 137.305 57.2323 136.72 56.6468C136.134 56.0613 135.34 55.7324 134.512 55.7324H128.268C127.44 55.7324 126.646 56.0613 126.061 56.6468C125.475 57.2323 125.146 58.0264 125.146 58.8544V60.4153" stroke="#4D7CCF" stroke-width="1.56097" stroke-linecap="round" stroke-linejoin="round"/>
<path d="M131.39 52.6111C133.115 52.6111 134.512 51.2133 134.512 49.4891C134.512 47.7649 133.115 46.3672 131.39 46.3672C129.666 46.3672 128.269 47.7649 128.269 49.4891C128.269 51.2133 129.666 52.6111 131.39 52.6111Z" stroke="#4D7CCF" stroke-width="1.56097" stroke-linecap="round" stroke-linejoin="round"/>
<path d="M106.53 53.5303C106.823 53.2374 106.823 52.7626 106.53 52.4697L101.757 47.6967C101.464 47.4038 100.99 47.4038 100.697 47.6967C100.404 47.9896 100.404 48.4645 100.697 48.7574L104.939 53L100.697 57.2426C100.404 57.5355 100.404 58.0104 100.697 58.3033C100.99 58.5962 101.464 58.5962 101.757 58.3033L106.53 53.5303ZM52 52.25C51.5858 52.25 51.25 52.5858 51.25 53C51.25 53.4142 51.5858 53.75 52 53.75V52.25ZM104.5 52.25C104.086 52.25 103.75 52.5858 103.75 53C103.75 53.4142 104.086 53.75 104.5 53.75V52.25ZM101.5 53.75C101.914 53.75 102.25 53.4142 102.25 53C102.25 52.5858 101.914 52.25 101.5 52.25V53.75ZM98.5 52.25C98.0858 52.25 97.75 52.5858 97.75 53C97.75 53.4142 98.0858 53.75 98.5 53.75V52.25ZM95.5 53.75C95.9142 53.75 96.25 53.4142 96.25 53C96.25 52.5858 95.9142 52.25 95.5 52.25V53.75ZM92.5 52.25C92.0858 52.25 91.75 52.5858 91.75 53C91.75 53.4142 92.0858 53.75 92.5 53.75V52.25ZM89.5 53.75C89.9142 53.75 90.25 53.4142 90.25 53C90.25 52.5858 89.9142 52.25 89.5 52.25V53.75ZM86.5 52.25C86.0858 52.25 85.75 52.5858 85.75 53C85.75 53.4142 86.0858 53.75 86.5 53.75V52.25ZM83.5 53.75C83.9142 53.75 84.25 53.4142 84.25 53C84.25 52.5858 83.9142 52.25 83.5 52.25V53.75ZM80.5 52.25C80.0858 52.25 79.75 52.5858 79.75 53C79.75 53.4142 80.0858 53.75 80.5 53.75V52.25ZM77.5 53.75C77.9142 53.75 78.25 53.4142 78.25 53C78.25 52.5858 77.9142 52.25 77.5 52.25V53.75ZM74.5 52.25C74.0858 52.25 73.75 52.5858 73.75 53C73.75 53.4142 74.0858 53.75 74.5 53.75V52.25ZM71.5 53.75C71.9142 53.75 72.25 53.4142 72.25 53C72.25 52.5858 71.9142 52.25 71.5 52.25V53.75ZM68.5 52.25C68.0858 52.25 67.75 52.5858 67.75 53C67.75 53.4142 68.0858 53.75 68.5 53.75V52.25ZM65.5 53.75C65.9142 53.75 66.25 53.4142 66.25 53C66.25 52.5858 65.9142 52.25 65.5 52.25V53.75ZM62.5 52.25C62.0858 52.25 61.75 52.5858 61.75 53C61.75 53.4142 62.0858 53.75 62.5 53.75V52.25ZM59.5 53.75C59.9142 53.75 60.25 53.4142 60.25 53C60.25 52.5858 59.9142 52.25 59.5 52.25V53.75ZM56.5 52.25C56.0858 52.25 55.75 52.5858 55.75 53C55.75 53.4142 56.0858 53.75 56.5 53.75V52.25ZM53.5 53.75C53.9142 53.75 54.25 53.4142 54.25 53C54.25 52.5858 53.9142 52.25 53.5 52.25V53.75ZM106 52.25H104.5V53.75H106V52.25ZM101.5 52.25H98.5V53.75H101.5V52.25ZM95.5 52.25H92.5V53.75H95.5V52.25ZM89.5 52.25H86.5V53.75H89.5V52.25ZM83.5 52.25H80.5V53.75H83.5V52.25ZM77.5 52.25H74.5V53.75H77.5V52.25ZM71.5 52.25H68.5V53.75H71.5V52.25ZM65.5 52.25H62.5V53.75H65.5V52.25ZM59.5 52.25H56.5V53.75H59.5V52.25ZM53.5 52.25H52V53.75H53.5V52.25Z" fill="#333333"/>
<g opacity="0.8" filter="url(#filter1_dd_356_3141)">
<ellipse cx="28.9998" cy="53" rx="15.9998" ry="16" fill="white"/>
</g>
<g clip-path="url(#clip1_356_3141)">
<path d="M29.3906 44.8027V61.9735" stroke="#5CB432" stroke-width="1.56097" stroke-linecap="round" stroke-linejoin="round"/>
<path d="M33.2923 47.9238H27.4387C26.7142 47.9238 26.0194 48.2116 25.5071 48.7239C24.9948 49.2362 24.707 49.931 24.707 50.6555C24.707 51.38 24.9948 52.0748 25.5071 52.5871C26.0194 53.0994 26.7142 53.3872 27.4387 53.3872H31.3411C32.0656 53.3872 32.7604 53.675 33.2727 54.1873C33.785 54.6996 34.0728 55.3945 34.0728 56.119C34.0728 56.8434 33.785 57.5383 33.2727 58.0506C32.7604 58.5629 32.0656 58.8507 31.3411 58.8507H24.707" stroke="#5CB432" stroke-width="1.56097" stroke-linecap="round" stroke-linejoin="round"/>
</g>
</g>
<defs>
<filter id="filter0_dd_356_3141" x="88.8629" y="25.3835" width="84.2742" height="84.2742" filterUnits="userSpaceOnUse" color-interpolation-filters="sRGB">
<feFlood flood-opacity="0" result="BackgroundImageFix"/>
<feColorMatrix in="SourceAlpha" type="matrix" values="0 0 0 0 0 0 0 0 0 0 0 0 0 0 0 0 0 0 127 0" result="hardAlpha"/>
<feMorphology radius="2.90412" operator="erode" in="SourceAlpha" result="effect1_dropShadow_356_3141"/>
<feOffset dy="14.5206"/>
<feGaussianBlur stdDeviation="14.5206"/>
<feColorMatrix type="matrix" values="0 0 0 0 0 0 0 0 0 0.458431 0 0 0 0 0.916862 0 0 0 0.2 0"/>
<feBlend mode="normal" in2="BackgroundImageFix" result="effect1_dropShadow_356_3141"/>
<feColorMatrix in="SourceAlpha" type="matrix" values="0 0 0 0 0 0 0 0 0 0 0 0 0 0 0 0 0 0 127 0" result="hardAlpha"/>
<feOffset/>
<feGaussianBlur stdDeviation="5.80825"/>
<feColorMatrix type="matrix" values="0 0 0 0 0 0 0 0 0 0.458824 0 0 0 0 0.917647 0 0 0 0.1 0"/>
<feBlend mode="normal" in2="effect1_dropShadow_356_3141" result="effect2_dropShadow_356_3141"/>
<feBlend mode="normal" in="SourceGraphic" in2="effect2_dropShadow_356_3141" result="shape"/>
</filter>
<filter id="filter1_dd_356_3141" x="-13.1371" y="25.3835" width="84.2742" height="84.2742" filterUnits="userSpaceOnUse" color-interpolation-filters="sRGB">
<feFlood flood-opacity="0" result="BackgroundImageFix"/>
<feColorMatrix in="SourceAlpha" type="matrix" values="0 0 0 0 0 0 0 0 0 0 0 0 0 0 0 0 0 0 127 0" result="hardAlpha"/>
<feMorphology radius="2.90412" operator="erode" in="SourceAlpha" result="effect1_dropShadow_356_3141"/>
<feOffset dy="14.5206"/>
<feGaussianBlur stdDeviation="14.5206"/>
<feColorMatrix type="matrix" values="0 0 0 0 0 0 0 0 0 0.458431 0 0 0 0 0.916862 0 0 0 0.2 0"/>
<feBlend mode="normal" in2="BackgroundImageFix" result="effect1_dropShadow_356_3141"/>
<feColorMatrix in="SourceAlpha" type="matrix" values="0 0 0 0 0 0 0 0 0 0 0 0 0 0 0 0 0 0 127 0" result="hardAlpha"/>
<feOffset/>
<feGaussianBlur stdDeviation="5.80825"/>
<feColorMatrix type="matrix" values="0 0 0 0 0 0 0 0 0 0.458824 0 0 0 0 0.917647 0 0 0 0.1 0"/>
<feBlend mode="normal" in2="effect1_dropShadow_356_3141" result="effect2_dropShadow_356_3141"/>
<feBlend mode="normal" in="SourceGraphic" in2="effect2_dropShadow_356_3141" result="shape"/>
</filter>
<clipPath id="clip0_356_3141">
<rect width="160" height="105" rx="9.30233" fill="white"/>
</clipPath>
<clipPath id="clip1_356_3141">
<rect width="18.7315" height="18.7317" fill="white" transform="translate(20.0244 44.0234)"/>
</clipPath>
</defs>
</svg>
