<svg width="160" height="105" viewBox="0 0 160 105" fill="none" xmlns="http://www.w3.org/2000/svg">
<g clip-path="url(#clip0_356_3111)">
<rect width="160" height="105" rx="9.30233" fill="#F1F7FF"/>
<g opacity="0.8" filter="url(#filter0_dd_356_3111)">
<ellipse cx="131" cy="28" rx="15.9998" ry="16" fill="white"/>
</g>
<path d="M137.634 35.4153V33.8544C137.634 33.0264 137.305 32.2323 136.72 31.6468C136.134 31.0613 135.34 30.7324 134.512 30.7324H128.268C127.44 30.7324 126.646 31.0613 126.061 31.6468C125.475 32.2323 125.146 33.0264 125.146 33.8544V35.4153" stroke="#4D7CCF" stroke-width="1.56097" stroke-linecap="round" stroke-linejoin="round"/>
<path d="M131.39 27.6111C133.115 27.6111 134.512 26.2133 134.512 24.4891C134.512 22.7649 133.115 21.3672 131.39 21.3672C129.666 21.3672 128.269 22.7649 128.269 24.4891C128.269 26.2133 129.666 27.6111 131.39 27.6111Z" stroke="#4D7CCF" stroke-width="1.56097" stroke-linecap="round" stroke-linejoin="round"/>
<g opacity="0.8" filter="url(#filter1_dd_356_3111)">
<ellipse cx="131" cy="79" rx="15.9998" ry="16" fill="white"/>
</g>
<path d="M137.634 86.4153V84.8544C137.634 84.0264 137.305 83.2323 136.72 82.6468C136.134 82.0613 135.34 81.7324 134.512 81.7324H128.268C127.44 81.7324 126.646 82.0613 126.061 82.6468C125.475 83.2323 125.146 84.0264 125.146 84.8544V86.4153" stroke="#4D7CCF" stroke-width="1.56097" stroke-linecap="round" stroke-linejoin="round"/>
<path d="M131.39 78.6111C133.115 78.6111 134.512 77.2133 134.512 75.4891C134.512 73.7649 133.115 72.3672 131.39 72.3672C129.666 72.3672 128.269 73.7649 128.269 75.4891C128.269 77.2133 129.666 78.6111 131.39 78.6111Z" stroke="#4D7CCF" stroke-width="1.56097" stroke-linecap="round" stroke-linejoin="round"/>
<g opacity="0.8" filter="url(#filter2_dd_356_3111)">
<ellipse cx="28.9998" cy="53" rx="15.9998" ry="16" fill="white"/>
</g>
<g clip-path="url(#clip1_356_3111)">
<path d="M29.3906 44.8027V61.9735" stroke="#5CB432" stroke-width="1.56097" stroke-linecap="round" stroke-linejoin="round"/>
<path d="M33.2923 47.9238H27.4387C26.7142 47.9238 26.0194 48.2116 25.5071 48.7239C24.9948 49.2362 24.707 49.931 24.707 50.6555C24.707 51.38 24.9948 52.0748 25.5071 52.5871C26.0194 53.0994 26.7142 53.3872 27.4387 53.3872H31.3411C32.0656 53.3872 32.7604 53.675 33.2727 54.1873C33.785 54.6996 34.0728 55.3945 34.0728 56.119C34.0728 56.8434 33.785 57.5383 33.2727 58.0506C32.7604 58.5629 32.0656 58.8507 31.3411 58.8507H24.707" stroke="#5CB432" stroke-width="1.56097" stroke-linecap="round" stroke-linejoin="round"/>
</g>
<path d="M71 26V25.25C70.5858 25.25 70.25 25.5858 70.25 26H71ZM108.53 26.5303C108.823 26.2374 108.823 25.7626 108.53 25.4697L103.757 20.6967C103.464 20.4038 102.99 20.4038 102.697 20.6967C102.404 20.9896 102.404 21.4645 102.697 21.7574L106.939 26L102.697 30.2426C102.404 30.5355 102.404 31.0104 102.697 31.3033C102.99 31.5962 103.464 31.5962 103.757 31.3033L108.53 26.5303ZM108.53 79.5303C108.823 79.2374 108.823 78.7626 108.53 78.4697L103.757 73.6967C103.464 73.4038 102.99 73.4038 102.697 73.6967C102.404 73.9896 102.404 74.4645 102.697 74.7574L106.939 79L102.697 83.2426C102.404 83.5355 102.404 84.0104 102.697 84.3033C102.99 84.5962 103.464 84.5962 103.757 84.3033L108.53 79.5303ZM71 79H70.25C70.25 79.4142 70.5858 79.75 71 79.75V79ZM106.458 25.25C106.044 25.25 105.708 25.5858 105.708 26C105.708 26.4142 106.044 26.75 106.458 26.75V25.25ZM103.375 26.75C103.789 26.75 104.125 26.4142 104.125 26C104.125 25.5858 103.789 25.25 103.375 25.25V26.75ZM100.292 25.25C99.8775 25.25 99.5417 25.5858 99.5417 26C99.5417 26.4142 99.8775 26.75 100.292 26.75V25.25ZM97.2083 26.75C97.6225 26.75 97.9583 26.4142 97.9583 26C97.9583 25.5858 97.6225 25.25 97.2083 25.25V26.75ZM94.125 25.25C93.7108 25.25 93.375 25.5858 93.375 26C93.375 26.4142 93.7108 26.75 94.125 26.75V25.25ZM91.0417 26.75C91.4559 26.75 91.7917 26.4142 91.7917 26C91.7917 25.5858 91.4559 25.25 91.0417 25.25V26.75ZM87.9583 25.25C87.5441 25.25 87.2083 25.5858 87.2083 26C87.2083 26.4142 87.5441 26.75 87.9583 26.75V25.25ZM84.875 26.75C85.2892 26.75 85.625 26.4142 85.625 26C85.625 25.5858 85.2892 25.25 84.875 25.25V26.75ZM81.7917 25.25C81.3775 25.25 81.0417 25.5858 81.0417 26C81.0417 26.4142 81.3775 26.75 81.7917 26.75V25.25ZM78.7083 26.75C79.1225 26.75 79.4583 26.4142 79.4583 26C79.4583 25.5858 79.1225 25.25 78.7083 25.25V26.75ZM75.625 25.25C75.2108 25.25 74.875 25.5858 74.875 26C74.875 26.4142 75.2108 26.75 75.625 26.75V25.25ZM72.5417 26.75C72.9559 26.75 73.2917 26.4142 73.2917 26C73.2917 25.5858 72.9559 25.25 72.5417 25.25V26.75ZM70.25 27.4722C70.25 27.8864 70.5858 28.2222 71 28.2222C71.4142 28.2222 71.75 27.8864 71.75 27.4722H70.25ZM71.75 30.4167C71.75 30.0025 71.4142 29.6667 71 29.6667C70.5858 29.6667 70.25 30.0025 70.25 30.4167H71.75ZM70.25 33.3611C70.25 33.7753 70.5858 34.1111 71 34.1111C71.4142 34.1111 71.75 33.7753 71.75 33.3611H70.25ZM71.75 36.3056C71.75 35.8913 71.4142 35.5556 71 35.5556C70.5858 35.5556 70.25 35.8913 70.25 36.3056H71.75ZM70.25 39.25C70.25 39.6642 70.5858 40 71 40C71.4142 40 71.75 39.6642 71.75 39.25H70.25ZM71.75 42.1944C71.75 41.7802 71.4142 41.4444 71 41.4444C70.5858 41.4444 70.25 41.7802 70.25 42.1944H71.75ZM70.25 45.1389C70.25 45.5531 70.5858 45.8889 71 45.8889C71.4142 45.8889 71.75 45.5531 71.75 45.1389H70.25ZM71.75 48.0833C71.75 47.6691 71.4142 47.3333 71 47.3333C70.5858 47.3333 70.25 47.6691 70.25 48.0833H71.75ZM70.25 51.0278C70.25 51.442 70.5858 51.7778 71 51.7778C71.4142 51.7778 71.75 51.442 71.75 51.0278H70.25ZM71.75 53.9722C71.75 53.558 71.4142 53.2222 71 53.2222C70.5858 53.2222 70.25 53.558 70.25 53.9722H71.75ZM70.25 56.9167C70.25 57.3309 70.5858 57.6667 71 57.6667C71.4142 57.6667 71.75 57.3309 71.75 56.9167H70.25ZM71.75 59.8611C71.75 59.4469 71.4142 59.1111 71 59.1111C70.5858 59.1111 70.25 59.4469 70.25 59.8611H71.75ZM70.25 62.8056C70.25 63.2198 70.5858 63.5556 71 63.5556C71.4142 63.5556 71.75 63.2198 71.75 62.8056H70.25ZM71.75 65.75C71.75 65.3358 71.4142 65 71 65C70.5858 65 70.25 65.3358 70.25 65.75H71.75ZM70.25 68.6944C70.25 69.1087 70.5858 69.4444 71 69.4444C71.4142 69.4444 71.75 69.1087 71.75 68.6944H70.25ZM71.75 71.6389C71.75 71.2247 71.4142 70.8889 71 70.8889C70.5858 70.8889 70.25 71.2247 70.25 71.6389H71.75ZM70.25 74.5833C70.25 74.9975 70.5858 75.3333 71 75.3333C71.4142 75.3333 71.75 74.9975 71.75 74.5833H70.25ZM71.75 77.5278C71.75 77.1136 71.4142 76.7778 71 76.7778C70.5858 76.7778 70.25 77.1136 70.25 77.5278H71.75ZM72.5417 79.75C72.9559 79.75 73.2917 79.4142 73.2917 79C73.2917 78.5858 72.9559 78.25 72.5417 78.25V79.75ZM75.625 78.25C75.2108 78.25 74.875 78.5858 74.875 79C74.875 79.4142 75.2108 79.75 75.625 79.75V78.25ZM78.7083 79.75C79.1225 79.75 79.4583 79.4142 79.4583 79C79.4583 78.5858 79.1225 78.25 78.7083 78.25V79.75ZM81.7917 78.25C81.3775 78.25 81.0417 78.5858 81.0417 79C81.0417 79.4142 81.3775 79.75 81.7917 79.75V78.25ZM84.875 79.75C85.2892 79.75 85.625 79.4142 85.625 79C85.625 78.5858 85.2892 78.25 84.875 78.25V79.75ZM87.9583 78.25C87.5441 78.25 87.2083 78.5858 87.2083 79C87.2083 79.4142 87.5441 79.75 87.9583 79.75V78.25ZM91.0417 79.75C91.4559 79.75 91.7917 79.4142 91.7917 79C91.7917 78.5858 91.4559 78.25 91.0417 78.25V79.75ZM94.125 78.25C93.7108 78.25 93.375 78.5858 93.375 79C93.375 79.4142 93.7108 79.75 94.125 79.75V78.25ZM97.2083 79.75C97.6225 79.75 97.9583 79.4142 97.9583 79C97.9583 78.5858 97.6225 78.25 97.2083 78.25V79.75ZM100.292 78.25C99.8775 78.25 99.5417 78.5858 99.5417 79C99.5417 79.4142 99.8775 79.75 100.292 79.75V78.25ZM103.375 79.75C103.789 79.75 104.125 79.4142 104.125 79C104.125 78.5858 103.789 78.25 103.375 78.25V79.75ZM106.458 78.25C106.044 78.25 105.708 78.5858 105.708 79C105.708 79.4142 106.044 79.75 106.458 79.75V78.25ZM108 25.25H106.458V26.75H108V25.25ZM103.375 25.25H100.292V26.75H103.375V25.25ZM97.2083 25.25H94.125V26.75H97.2083V25.25ZM91.0417 25.25H87.9583V26.75H91.0417V25.25ZM84.875 25.25H81.7917V26.75H84.875V25.25ZM78.7083 25.25H75.625V26.75H78.7083V25.25ZM72.5417 25.25H71V26.75H72.5417V25.25ZM70.25 26V27.4722H71.75V26H70.25ZM70.25 30.4167V33.3611H71.75V30.4167H70.25ZM70.25 36.3056V39.25H71.75V36.3056H70.25ZM70.25 42.1944V45.1389H71.75V42.1944H70.25ZM70.25 48.0833V51.0278H71.75V48.0833H70.25ZM70.25 53.9722V56.9167H71.75V53.9722H70.25ZM70.25 59.8611V62.8056H71.75V59.8611H70.25ZM70.25 65.75V68.6944H71.75V65.75H70.25ZM70.25 71.6389V74.5833H71.75V71.6389H70.25ZM70.25 77.5278V79H71.75V77.5278H70.25ZM71 79.75H72.5417V78.25H71V79.75ZM75.625 79.75H78.7083V78.25H75.625V79.75ZM81.7917 79.75H84.875V78.25H81.7917V79.75ZM87.9583 79.75H91.0417V78.25H87.9583V79.75ZM94.125 79.75H97.2083V78.25H94.125V79.75ZM100.292 79.75H103.375V78.25H100.292V79.75ZM106.458 79.75H108V78.25H106.458V79.75Z" fill="#333333"/>
<path d="M71 53H49" stroke="black" stroke-width="1.5" stroke-linecap="round" stroke-dasharray="3 3"/>
</g>
<defs>
<filter id="filter0_dd_356_3111" x="88.8629" y="0.38351" width="84.2742" height="84.2742" filterUnits="userSpaceOnUse" color-interpolation-filters="sRGB">
<feFlood flood-opacity="0" result="BackgroundImageFix"/>
<feColorMatrix in="SourceAlpha" type="matrix" values="0 0 0 0 0 0 0 0 0 0 0 0 0 0 0 0 0 0 127 0" result="hardAlpha"/>
<feMorphology radius="2.90412" operator="erode" in="SourceAlpha" result="effect1_dropShadow_356_3111"/>
<feOffset dy="14.5206"/>
<feGaussianBlur stdDeviation="14.5206"/>
<feColorMatrix type="matrix" values="0 0 0 0 0 0 0 0 0 0.458431 0 0 0 0 0.916862 0 0 0 0.2 0"/>
<feBlend mode="normal" in2="BackgroundImageFix" result="effect1_dropShadow_356_3111"/>
<feColorMatrix in="SourceAlpha" type="matrix" values="0 0 0 0 0 0 0 0 0 0 0 0 0 0 0 0 0 0 127 0" result="hardAlpha"/>
<feOffset/>
<feGaussianBlur stdDeviation="5.80825"/>
<feColorMatrix type="matrix" values="0 0 0 0 0 0 0 0 0 0.458824 0 0 0 0 0.917647 0 0 0 0.1 0"/>
<feBlend mode="normal" in2="effect1_dropShadow_356_3111" result="effect2_dropShadow_356_3111"/>
<feBlend mode="normal" in="SourceGraphic" in2="effect2_dropShadow_356_3111" result="shape"/>
</filter>
<filter id="filter1_dd_356_3111" x="88.8629" y="51.3835" width="84.2742" height="84.2742" filterUnits="userSpaceOnUse" color-interpolation-filters="sRGB">
<feFlood flood-opacity="0" result="BackgroundImageFix"/>
<feColorMatrix in="SourceAlpha" type="matrix" values="0 0 0 0 0 0 0 0 0 0 0 0 0 0 0 0 0 0 127 0" result="hardAlpha"/>
<feMorphology radius="2.90412" operator="erode" in="SourceAlpha" result="effect1_dropShadow_356_3111"/>
<feOffset dy="14.5206"/>
<feGaussianBlur stdDeviation="14.5206"/>
<feColorMatrix type="matrix" values="0 0 0 0 0 0 0 0 0 0.458431 0 0 0 0 0.916862 0 0 0 0.2 0"/>
<feBlend mode="normal" in2="BackgroundImageFix" result="effect1_dropShadow_356_3111"/>
<feColorMatrix in="SourceAlpha" type="matrix" values="0 0 0 0 0 0 0 0 0 0 0 0 0 0 0 0 0 0 127 0" result="hardAlpha"/>
<feOffset/>
<feGaussianBlur stdDeviation="5.80825"/>
<feColorMatrix type="matrix" values="0 0 0 0 0 0 0 0 0 0.458824 0 0 0 0 0.917647 0 0 0 0.1 0"/>
<feBlend mode="normal" in2="effect1_dropShadow_356_3111" result="effect2_dropShadow_356_3111"/>
<feBlend mode="normal" in="SourceGraphic" in2="effect2_dropShadow_356_3111" result="shape"/>
</filter>
<filter id="filter2_dd_356_3111" x="-13.1371" y="25.3835" width="84.2742" height="84.2742" filterUnits="userSpaceOnUse" color-interpolation-filters="sRGB">
<feFlood flood-opacity="0" result="BackgroundImageFix"/>
<feColorMatrix in="SourceAlpha" type="matrix" values="0 0 0 0 0 0 0 0 0 0 0 0 0 0 0 0 0 0 127 0" result="hardAlpha"/>
<feMorphology radius="2.90412" operator="erode" in="SourceAlpha" result="effect1_dropShadow_356_3111"/>
<feOffset dy="14.5206"/>
<feGaussianBlur stdDeviation="14.5206"/>
<feColorMatrix type="matrix" values="0 0 0 0 0 0 0 0 0 0.458431 0 0 0 0 0.916862 0 0 0 0.2 0"/>
<feBlend mode="normal" in2="BackgroundImageFix" result="effect1_dropShadow_356_3111"/>
<feColorMatrix in="SourceAlpha" type="matrix" values="0 0 0 0 0 0 0 0 0 0 0 0 0 0 0 0 0 0 127 0" result="hardAlpha"/>
<feOffset/>
<feGaussianBlur stdDeviation="5.80825"/>
<feColorMatrix type="matrix" values="0 0 0 0 0 0 0 0 0 0.458824 0 0 0 0 0.917647 0 0 0 0.1 0"/>
<feBlend mode="normal" in2="effect1_dropShadow_356_3111" result="effect2_dropShadow_356_3111"/>
<feBlend mode="normal" in="SourceGraphic" in2="effect2_dropShadow_356_3111" result="shape"/>
</filter>
<clipPath id="clip0_356_3111">
<rect width="160" height="105" rx="9.30233" fill="white"/>
</clipPath>
<clipPath id="clip1_356_3111">
<rect width="18.7315" height="18.7317" fill="white" transform="translate(20.0244 44.0234)"/>
</clipPath>
</defs>
</svg>
