<?xml version="1.0" standalone="no"?>
<!DOCTYPE svg PUBLIC "-//W3C//DTD SVG 20010904//EN"
 "http://www.w3.org/TR/2001/REC-SVG-20010904/DTD/svg10.dtd">
<svg version="1.0" xmlns="http://www.w3.org/2000/svg"
 width="700.000000pt" height="700.000000pt" viewBox="0 0 700.000000 700.000000"
 preserveAspectRatio="xMidYMid meet">
<metadata>
Created by potrace 1.14, written by Peter Selinger 2001-2017
</metadata>
<g transform="translate(0.000000,700.000000) scale(0.100000,-0.100000)"
fill="#000000" stroke="none">
<path d="M515 6972 c-264 -68 -462 -282 -502 -542 -7 -48 -7 -179 0 -220 36
-194 149 -358 316 -460 200 -120 429 -128 651 -21 100 48 229 175 282 276 105
203 108 416 8 616 -88 178 -251 306 -451 355 -63 16 -235 13 -304 -4z"/>
<path d="M1876 5688 c-101 -13 -222 -62 -305 -125 -127 -96 -232 -265 -257
-416 -9 -55 -12 -3215 -3 -3285 35 -263 234 -484 496 -553 77 -20 101 -20
1678 -21 880 0 1625 3 1655 7 216 26 424 184 515 388 59 135 56 42 56 1812 0
1582 0 1622 -20 1696 -65 253 -265 440 -526 496 -43 9 -3218 10 -3289 1z"/>
</g>
</svg>
