<svg viewBox="0 0 20 20" xmlns="http://www.w3.org/2000/svg"><path d="m9.9986.627563c.4142 0 .75.335787.75.749997v1.32653c0 .41422-.3358.75-.75.75-.41421 0-.75-.33578-.75-.75v-1.32653c0-.41421.33579-.749997.75-.749997zm-6.63245 2.739987c.2929-.29289.76777-.29289 1.06066 0l.94184.94184c.29289.29289.29289.76776 0 1.06066-.29289.29289-.76777.29289-1.06066 0l-.94184-.94184c-.29289-.29289-.29289-.76777 0-1.06066zm13.26645 0c.2929.29289.2929.76777 0 1.06066l-.9418.94184c-.2929.29289-.7678.29289-1.0607 0-.2929-.2929-.2929-.76777 0-1.06066l.9418-.94184c.2929-.29289.7678-.29289 1.0607 0zm-11.69482 6.63245c0-2.79519 2.26598-5.06117 5.06122-5.06117.1989 0 .3897.07901.5303.21966.1407.14066.2197.33142.2197.53034v8.62247c0 .4142-.3358.75-.75.75-2.79524 0-5.06122-2.266-5.06122-5.0613zm4.31122-3.48206c-1.60667.3444-2.81122 1.77258-2.81122 3.48206 0 1.7096 1.20455 3.1378 2.81122 3.4822zm7.2959 3.48206c0-.41421.3358-.75.75-.75h1.3266c.4142 0 .75.33579.75.75 0 .4142-.3358.75-.75.75h-1.3266c-.4142 0-.75-.3358-.75-.75zm-15.917947 0c0-.4142.335787-.74999.749997-.74999h1.32653c.41422 0 .75.33579.75.74999s-.33578.75-.75.75h-1.32653c-.41421 0-.749997-.3358-.749997-.75zm4.741697 4.6298c.29289.2929.29289.7677 0 1.0606l-.94184.9419c-.29289.2928-.76776.2928-1.06066 0-.29289-.2929-.29289-.7678 0-1.0607l.94184-.9418c.29289-.2929.76777-.2929 1.06066 0zm9.26145 0c.2929-.2929.7678-.2929 1.0607 0l.9418.9418c.2929.2929.2929.7678 0 1.0607-.2929.2928-.7678.2928-1.0607 0l-.9418-.9419c-.2929-.2929-.2929-.7678 0-1.0606zm-4.6315 1.9162c.4142 0 .75.3358.75.75v1.3265c0 .4142-.3358.75-.75.75-.41421 0-.75-.3358-.75-.75v-1.3265c0-.4142.33579-.75.75-.75z"/></svg>