<svg viewBox="0 0 20 20" xmlns="http://www.w3.org/2000/svg"><path d="m1.75 5c0-.41421.33579-.75.75-.75h15c.4142 0 .75.33579.75.75s-.3358.75-.75.75h-15c-.41421 0-.75-.33579-.75-.75zm2.5 3.33333c0-.41421.33579-.75.75-.75h10c.4142 0 .75.33579.75.75 0 .41422-.3358.75-.75.75h-10c-.41421 0-.75-.33578-.75-.75zm-2.5 3.33337c0-.4142.33579-.75.75-.75h15c.4142 0 .75.3358.75.75s-.3358.75-.75.75h-15c-.41421 0-.75-.3358-.75-.75zm2.5 3.3333c0-.4142.33579-.75.75-.75h10c.4142 0 .75.3358.75.75s-.3358.75-.75.75h-10c-.41421 0-.75-.3358-.75-.75z"/></svg>