<svg viewBox="0 0 20 20" xmlns="http://www.w3.org/2000/svg"><path d="m.75 4.2424c0-1.15834.93902-2.09738 2.09738-2.09738h8.69912c.9074 0 1.6801.57616 1.9724 1.38256h1.8632c.8015 0 1.5328.45677 1.8846 1.1769v.00003l1.8762 3.84114c.0492.10086.0752.21148.0761.32372l.0027.37338c.0003.00951.0005.01907.0005.02867 0 .00588-.0001.01174-.0002.01759l.0281 3.86529v.0001c.0085 1.1645-.933 2.1127-2.0972 2.1127h-.2755c-.1208.4314-.3508.8288-.6732 1.1512-.4934.4934-1.1626.7706-1.8604.7706-.6977 0-1.3669-.2772-1.8603-.7706-.3225-.3224-.5526-.72-.6733-1.1515h-3.47066c-.02828.1011-.06264.2006-.10297.298-.13222.3192-.32601.6093-.57032.8536-.2443.2443-.53434.4381-.85353.5703-.3192.1322-.66132.2002-1.00682.2002s-.68762-.068-1.00682-.2002-.60923-.326-.85353-.5703c-.24431-.2443-.4381-.5344-.57032-.8536-.04032-.0973-.07467-.1968-.10294-.2978h-.42491c-1.15835 0-2.09738-.939-2.09738-2.0974zm2.5467 9.5246c.12604-.3998.34698-.7675.64885-1.0694.49339-.4933 1.16258-.7705 1.86035-.7705s1.36696.2772 1.86035.7705c.30184.3019.52277.6695.64881 1.0692h3.51954c.0726-.23.1766-.4495.3093-.6518v-8.67459c-.0116-.05242-.0177-.10691-.0177-.16283 0-.04329.0036-.08573.0107-.12701-.0442-.28632-.2917-.50555-.5904-.50555h-8.69912c-.32993 0-.59738.26746-.59738.59738v8.9272c0 .3299.26744.5974.59738.5974zm10.3472-8.73942v3.49384h3.8178l-1.5428-3.1586-.0001-.00003c-.1002-.20515-.3085-.33521-.5367-.33521zm4.0834 4.99382h-4.0834v2.0004c.226-.0624.4613-.0948.6999-.0948.6978 0 1.367.2772 1.8604.7706.3019.3019.5229.6697.6489 1.0695h.2998c.3316 0 .5997-.2701.5972-.6017v-.0001zm-4.3016 3.8761c.0338-.0339.0644-.0711.0912-.1111.0089-.0095.018-.0189.0272-.0282.2121-.212.4998-.3312.7997-.3312.3 0 .5876.1192.7997.3312.2121.2121.3313.4998.3313.7997 0 .3-.1192.5876-.3313.7997s-.4997.3313-.7997.3313c-.2999 0-.5876-.1192-.7997-.3313s-.3312-.4997-.3312-.7997c0-.001 0-.0021 0-.0032.0006-.0125.0009-.0252.0009-.0379 0-.0015 0-.0031 0-.0047.009-.2221.0833-.4357.2119-.6146zm-6.22918-8.3827c.41421 0 .75.33578.75.75v1.26975h1.27062c.41421 0 .75.33578.75.75 0 .41421-.33579.75-.75.75h-1.27062v1.26965c0 .4142-.33579.75-.75.75s-.75-.3358-.75-.75v-1.26965h-1.26879c-.41421 0-.75-.33579-.75-.75 0-.41422.33579-.75.75-.75h1.26879v-1.26975c0-.41422.33579-.75.75-.75zm-1.39062 7.9123c-.29994 0-.5876.1191-.79969.3312s-.33125.4998-.33125.7997c0 .1485.02926.2956.08609.4328.05684.1372.14014.2619.24516.3669s.22969.1883.3669.2452c.13721.0568.28427.086.43279.086.14851 0 .29558-.0292.43279-.086.13721-.0569.26188-.1402.3669-.2452s.18832-.2297.24516-.3669c.05683-.1372.08608-.2843.08608-.4328 0-.2999-.11915-.5876-.33124-.7997s-.49975-.3312-.79969-.3312z"/></svg>