<svg viewBox="0 0 20 20" xmlns="http://www.w3.org/2000/svg"><path d="m9.99935 2.41663c-.9665 0-1.75.7835-1.75 1.75 0 .96649.7835 1.75 1.75 1.75.96645 0 1.74995-.78351 1.74995-1.75 0-.9665-.7835-1.75-1.74995-1.75zm-3.25 1.75c0-1.79493 1.45507-3.250004 3.25-3.250004 1.79495 0 3.24995 1.455074 3.24995 3.250004 0 1.53679-1.0666 2.82445-2.5 3.16303v10.21644c1.7359-.1724 3.368-.9396 4.6123-2.1839 1.2442-1.2443 2.0115-2.8764 2.1839-4.6122h-1.7128c-.4142 0-.75-.3358-.75-.75004 0-.41422.3358-.75.75-.75h2.5c.4142 0 .75.33578.75.75 0 2.40904-.957 4.71944-2.6605 6.42284-1.7034 1.7035-4.0138 2.6605-6.42285 2.6605s-4.71943-.957-6.42289-2.6605c-1.70345-1.7034-2.660444-4.0138-2.660444-6.42284 0-.19891.079017-.38968.219674-.53033.14065-.14065.33141-.21967.53033-.21967h2.5c.41421 0 .75.33578.75.75 0 .41424-.33579.75004-.75.75004h-1.71285c.17246 1.7358.93969 3.3679 2.18395 4.6122 1.24427 1.2443 2.87641 2.0115 4.61223 2.1839v-10.21644c-1.43335-.33858-2.5-1.62624-2.5-3.16303z"/></svg>