<svg viewBox="0 0 20 20" xmlns="http://www.w3.org/2000/svg"><path d="m4.6946 1.70942c.29289-.2929.76777-.2929 1.06066 0l1.63147 1.63146c.79648-.42759 1.69325-.65726 2.61367-.65726.9206 0 1.8176.22974 2.6141.65747l1.6317-1.63167c.2929-.2929.7678-.2929 1.0607 0 .2929.29289.2929.76776 0 1.06066l-1.4662 1.46618c.0225.0217.0447.04362.0669.06574 1.001 1.00098 1.5782 2.34643 1.6163 3.75771.7772.03743 1.5149.36265 2.0677.91538.5885.58846.919 1.38661.919 2.21871v2.3878c0 .4142-.3357.75-.75.75-.4142 0-.75-.3358-.75-.75v-2.3878c0-.4343-.1725-.8509-.4796-1.158-.2709-.27089-.6269-.43707-1.0051-.47256v8.19696c0 .4142-.3357.75-.75.75-.4142 0-.75-.3358-.75-.75v-2.2347h-8.05097v2.2347c0 .4142-.33579.75-.75.75-.41422 0-.75-.3358-.75-.75v-8.19696c-.37821.03548-.73415.20167-1.005.47256-.30714.3071-.4797.7237-.4797 1.158v2.3878c0 .4142-.33578.75-.75.75-.41421 0-.75-.3358-.75-.75v-2.3878c0-.8322.33059-1.63026.91903-2.21869.55274-.55276 1.29049-.87798 2.06769-.9154.03814-1.41129.61541-2.75674 1.61636-3.7577.02222-.02222.04462-.04424.06718-.06605l-1.46589-1.46588c-.29289-.2929-.29289-.76777 0-1.06066zm2.93349 3.24751c-.16728.12202-.32589.2575-.47412.40574-.71877.71878-1.13766 1.68138-1.17613 2.6934h8.04516c-.0384-1.01203-.4573-1.97463-1.1761-2.6934-.1487-.1487-.3078-.28457-.4757-.40689-.0514-.02735-.1004-.06111-.1456-.10129-.6548-.43429-1.4278-.67087-2.2252-.67087-.7964 0-1.56851.23602-2.22277.66933-.04636.04142-.09664.07608-.14954.10398zm6.39781 4.59914h-8.05097v4.46943h8.05097z"/></svg>