<svg viewBox="0 0 20 20" xmlns="http://www.w3.org/2000/svg"><path d="m13.7324 1.70966c.2929.29289.2929.76777 0 1.06066l-1.7884 1.7884c-.2929.2929-.7678.2929-1.0607.00001-.2929-.2929-.2929-.76777 0-1.06067l1.7884-1.7884c.2929-.29289.7678-.29289 1.0607 0zm-1.6958 3.56026c.5831-.11075 1.1829-.09726 1.7604.03956v.00001c.5774.13685 1.1196.39397 1.591.7546.4712.36059.8612.81655 1.1444 1.33814.1068.19677.1201.43098.0363.6386-.0839.20762-.2561.36692-.4696.43437-.449.14187-.8414.42298-1.1201.80266-.2788.37967-.4295.83814-.4303 1.30914v.0119l-.0001-.0001c-.0094.5395.1791 1.0638.53 1.4737l.0001.0001c.3507.4098.8396.677 1.3742.7509.2116.0292.4007.1473.5198.3247.1192.1773.157.3971.1041.6041-.3787 1.4804-1.1453 2.8332-2.2206 3.9187-.0116.0116-.0235.0229-.0357.0337-.5678.5026-1.295.7876-2.0529.8048-.7515.017-1.4847-.2308-2.0718-.6991-.1398-.1002-.3076-.1542-.4799-.1542-.1753 0-.34595.0559-.48723.1596-.61176.4616-1.36734.6916-2.13263.6492-.76705-.0426-1.49404-.3562-2.05137-.8849-.0099-.0094-.01953-.0191-.0289-.029-1.40611-1.4877-2.28761-3.3939-2.51079-5.4282-.26941-1.526-.01479-3.09837.72276-4.46148.27949-.54701.66961-1.03004 1.14566-1.41839.47875-.39055 1.03383-.67676 1.62967-.84024.59583-.16348 1.21925-.20064 1.83028-.10909h.00001c.6044.09057 1.18348.30507 1.70094.63.0648.03527.1375.0538.2114.0538.0701 0 .1391-.01666.2013-.04846.4789-.32648 1.0199-.55092 1.5896-.65912m1.4145 1.49915c-.3722-.08819-.7588-.09688-1.1346-.0255-.3757.07137-.7322.22122-1.0462.43975-.0173.01207-.0351.0234-.0534.03397-.2953.17048-.6302.26021-.9712.26021-.3409 0-.67585-.08973-.97112-.26021-.00902-.00521-.01792-.0106-.02671-.01617-.34525-.21898-.73245-.36339-1.13679-.42398-.40432-.06057-.81685-.03598-1.21112.07219-.39426.10818-.76157.29756-1.07838.556-.31679.25844-.57608.58023-.76124.94475l-.00957.01822c-.58273 1.0732-.78199 2.3131-.56488 3.5148.00322.0178.00579.0357.00771.0537.18272 1.7107.91931 3.3147 2.09736 4.5681.29757.2762.68245.4398 1.08818.4624.41219.0228.81909-.1014 1.14817-.3505l.00654-.0049h.00002c.40003-.296.88447-.4557 1.38203-.4557.4976 0 .982.1597 1.382.4557.0086.0063.0169.0128.0252.0194.3139.2535.7074.3877 1.1106.3786.3957-.009.7757-.1551 1.0752-.4132.7041-.716 1.2463-1.5714 1.5935-2.508-.5616-.2202-1.0653-.5758-1.4633-1.0407m-.4879-6.27893c.3721.08821.7215.25393 1.0253.48631.0902.06902.1757.14346.2563.22281-.3708.24236-.6976.55051-.9629.91196-.466.63472-.7185 1.40097-.7211 2.18835-.0144.9041.3022 1.7824.8902 2.4694"/></svg>