<svg viewBox="0 0 20 20" xmlns="http://www.w3.org/2000/svg"><path d="m.0839844 2.5c0-.41421.3357866-.75.7499996-.75h18.333316c.4142 0 .75.33579.75.75v4.16667c0 .41421-.3358.75-.75.75h-.9166v10.08333c0 .4142-.3358.75-.75.75h-15.00005c-.41421 0-.75-.3358-.75-.75v-10.08333h-.916666c-.414213 0-.7499996-.33579-.7499996-.75zm3.1666656 4.91667v9.33333h13.50005v-9.33333zm-1.66667-1.5v-2.66667h16.83332v2.66667zm6 4.08333c0-.41421.33579-.75.75-.75h3.33332c.4142 0 .75.33579.75.75 0 .4142-.3358.75-.75.75h-3.33332c-.41421 0-.75-.3358-.75-.75z" fill-rule="evenodd"/></svg>