<svg viewBox="0 0 20 20" xmlns="http://www.w3.org/2000/svg"><path d="m9.99937 5.91675c.41423 0 .75003.33578.75003.75v2.03394l1.7611-1.01679c.3587-.20711.8174-.0842 1.0245.27452.2071.35871.0842.81741-.2745 1.02451l-1.7617 1.01717 1.7617 1.0171c.3587.2071.4816.6658.2745 1.0245-.2071.3588-.6658.4817-1.0245.2746l-1.7611-1.0168v2.0339c0 .4142-.3358.75-.75003.75-.41421 0-.75-.3358-.75-.75v-2.0346l-1.76237 1.0175c-.35872.2071-.81741.0842-1.02452-.2746-.2071-.3587-.0842-.8174.27452-1.0245l1.76175-1.0171-1.76175-1.01717c-.35872-.2071-.48162-.6658-.27452-1.02452.20711-.35871.6658-.48162 1.02452-.27451l1.76237 1.0175v-2.03465c0-.41422.33579-.75.75-.75z"/></svg>