<svg viewBox="0 0 20 20" xmlns="http://www.w3.org/2000/svg"><path d="m9.49553 3.49296c.25732.12585.42049.38728.42049.67373v11.66671c0 .2864-.16317.5478-.42049.6737-.25732.1258-.56386.0941-.78997-.0817l-7.5-5.8334c-.18269-.1421-.289544-.3605-.289544-.592 0-.23142.106854-.4499.289544-.59199l7.5-5.83333c.22611-.17586.53265-.20758.78997-.08172zm9.16667 0c.2573.12585.4205.38728.4205.67373v11.66671c0 .2864-.1632.5478-.4205.6737-.2573.1258-.5639.0941-.79-.0817l-7.5-5.8334c-.1827-.1421-.2895-.3605-.2895-.592 0-.23142.1068-.4499.2895-.59199l7.5-5.83333c.2261-.17586.5327-.20758.79-.08172zm-15.77457 6.50704 5.52839 4.2999v-8.59973zm9.16667 0 5.5284 4.2999v-8.59973z"/></svg>