<svg viewBox="0 0 20 20" xmlns="http://www.w3.org/2000/svg"><path d="m4.13281 5.19439c-1.07289 1.30821-1.71679 2.98172-1.71679 4.80561 0 4.1882 3.39517 7.5834 7.58333 7.5834 1.82395 0 3.49745-.644 4.80565-1.7168zm1.06063-1.06068 10.67226 10.67219c1.073-1.3082 1.717-2.9818 1.717-4.8059 0-4.18814-3.3952-7.58331-7.58335-7.58331-1.82404 0-3.49766.64399-4.80591 1.71702zm-4.277424 5.86629c0-5.01657 4.066744-9.083313 9.083334-9.083313 5.01655 0 9.08335 4.066743 9.08335 9.083313 0 5.0166-4.0668 9.0834-9.08335 9.0834-5.01659 0-9.083334-4.0668-9.083334-9.0834z"/></svg>