<svg viewBox="0 0 20 20" xmlns="http://www.w3.org/2000/svg"><path d="m1.32919 1.24404c.26205-.262045.61746-.409262.98805-.409262h5.17858c.41421 0 .75.335782.75.750002 0 .41421-.33579.75-.75.75h-5.0759v5.07589c0 .41422-.33578.75-.75.75-.41421 0-.749998-.33578-.749998-.75v-5.17857c0-.37059.147218-.72601.409268-.98806zm10.59521.34074c0-.41422.3357-.750002.75-.750002h5.1786c.3706 0 .726.147246.988.409302.2621.26208.4092.61748.4092.98802v5.17857c0 .41422-.3358.75-.75.75s-.75-.33578-.75-.75v-5.07589h-5.0758c-.4143 0-.75-.33579-.75-.75zm.602 3.40933c.4142 0 .75.33579.75.75v6.19049c0 .4142-.3358.75-.75.75-.4143 0-.75-.3358-.75-.75v-6.19049c0-.41421.3357-.75.75-.75zm-7.57244.00004c.41422 0 .75.33579.75.75v8.51185c0 .4142-.33578.75-.75.75-.41421 0-.75-.3358-.75-.75v-8.51185c0-.41421.33579-.75.75-.75zm2.52511 0c.41422 0 .75.33579.75.75v6.19045c0 .4142-.33578.75-.75.75-.41421 0-.75-.3358-.75-.75v-6.19045c0-.41421.33579-.75.75-.75zm2.52233 0c.4142 0 .75.33579.75.75v6.19045c0 .4142-.3358.75-.75.75-.41422 0-.75-.3358-.75-.75v-6.19045c0-.41421.33578-.75.75-.75zm5.0502 0c.4142 0 .75.33579.75.75v8.51185c0 .4142-.3358.75-.75.75s-.75-.3358-.75-.75v-8.51185c0-.41421.3358-.75.75-.75zm-13.38168 6.84505c.41422 0 .75.3358.75.75v5.0759h5.0759c.41421 0 .75.3358.75.75s-.33579.75-.75.75h-5.17858c-.37053 0-.72594-.1472-.98801-.4092-.26206-.262-.409308-.6174-.409308-.988v-5.1787c0-.4142.335788-.75.749998-.75zm16.83028 0c.4142 0 .75.3358.75.75v5.1787c0 .3705-.1472.7259-.4092.9879-.2621.2621-.6175.4093-.988.4093h-5.1786c-.4143 0-.75-.3358-.75-.75s.3357-.75.75-.75h5.0758v-5.0759c0-.4142.3358-.75.75-.75zm-11.02113 1.2797c.41422 0 .75.3358.75.75v.3869c0 .4143-.33578.75-.75.75-.41421 0-.75-.3357-.75-.75v-.3869c0-.4142.33579-.75.75-.75zm2.52233 0c.4142 0 .75.3358.75.75v.3869c0 .4143-.3358.75-.75.75-.41422 0-.75-.3357-.75-.75v-.3869c0-.4142.33578-.75.75-.75zm2.525 0c.4142 0 .75.3358.75.75v.387c0 .4142-.3358.75-.75.75-.4143 0-.75-.3358-.75-.75v-.387c0-.4142.3357-.75.75-.75z"/></svg>