<svg viewBox="0 0 20 20" xmlns="http://www.w3.org/2000/svg"><path d="m5.53329 1.27305c-.18368.0432-.34491.15277-.45271.30764-.1078.15486-.15455.34411-.13129.53136.03.189.185.418.354.522l.147.091 1.34.018v6.376l-2.178 2.77295c-1.198 1.525-2.23 2.861-2.293 2.968-.237.399-.384 1.026-.344 1.47.101 1.149.84 2.031 1.965 2.344l.255.0711 5.64.0089c3.97801.006 5.71501-.001 5.89501-.025.5804-.0697 1.1198-.3345 1.53-.7509.3937-.387.6515-.8909.735-1.4365.0834-.5457-.012-1.1037-.272-1.5906-.102-.196-.629-.886-2.23-2.923-2.023-2.57195-2.097-2.67095-2.11-2.81095-.0108-.09463-.043-.18558-.094-.266l-.079-.12v-6.088l1.34-.018.147-.091c.1809-.12179.3078-.30883.354-.522.062-.384-.215-.767-.608-.841-.2-.038-8.71701-.036-8.91001.002zm6.17701 7.317h-3.42001v-5.85h3.42001zm2.476 4.20695c1.17 1.489 2.168 2.7821 2.218 2.873.085.154.091.186.091.48 0 .289-.007.329-.089.49-.1288.2373-.3324.4253-.579.535l-.172.0701h-11.31001l-.18-.0721c-.13754-.0586-.26122-.1454-.363-.255-.236-.237-.312-.426-.312-.781 0-.222.011-.271.098-.442.06-.12.894-1.207 2.222-2.899l2.126-2.706h4.12301z"/></svg>