<svg viewBox="0 0 20 20" xmlns="http://www.w3.org/2000/svg"><path d="m3.22043 1.50904c-.38064.04326-.74025.19713-1.03439.44256-.29413.24544-.5099.5717-.62061.93844l-.069.225-.01 6.03c-.006 4.11696.001 6.15596.023 6.42696.068.834.366 1.482.936 2.036.545.531 1.164.813 1.936.88.444.039 7.21897.041 7.64797.003 1.364-.124 2.439-1.022 2.794-2.337.076-.278.079-.328.095-1.354l.017-1.065 1.035-.016c.906-.013 1.054-.022 1.185-.071.66-.243 1.115-.724 1.295-1.368.052-.183.055-.384.055-3.17996 0-3.343.012-3.139-.219-3.585-.158-.304-.547-.686-.85-.834-.369-.181-.516-.2-1.579-.2l-.937-.001-.001-.638c0-.74-.032-.947-.201-1.282-.151-.303-.536-.694-.833-.847-.455-.234.019-.215-5.51997-.221-2.722-.002-5.038.005-5.145.017zm9.95197 1.53c.0753.03466.1399.08888.187.157.06.098.061.135.061 6.265 0 6.75296.011 6.32796-.173 6.67096-.045.084-.175.25-.289.371-.245.259-.57.437-.888.486-.123.019-1.551.03-3.88497.03-4.065 0-3.921.006-4.305-.186-.29779-.1688-.54421-.4152-.713-.713-.197-.393-.186-.001-.186-6.68096-.001-4.224.009-6.091.031-6.15.04802-.11748.13827-.21273.253-.267.074-.032.963-.04 4.935-.04 4.71397-.001 4.84797.001 4.97197.057zm-7.34897 2.669c-.14839.04557-.27455.14465-.354.278l-.074.129v7.16996l.075.13c.0514.0865.12359.1586.21.21.122.072.164.08.435.08.246 0 .322-.011.42-.063.187-.097.279-.254.316-.537.021-.159.029-1.363.023-3.56996-.008-2.766-.016-3.348-.051-3.435-.118-.294-.284-.396-.663-.41-.11266-.00605-.22563-.00002-.337.018zm4.137.016c-.14531.05302-.26387.16117-.33.301l-.065.12-.008 3.495c-.009 3.92496-.02 3.70996.205 3.91296.136.123.27597.167.53797.167.369 0 .578-.118.681-.384.051-.133.054-.332.054-3.63596 0-3.27-.003-3.504-.053-3.632-.103-.268-.32-.389-.693-.387-.118.001-.266.02-.32897.043zm6.84297.321c.06.037.127.116.16.187.053.117.056.257.056 2.876.001 3.04696.012 2.88196-.196 3.04096l-.113.086h-1.775l-.015-6.25496h.889c.858 0 .893.002.994.065z"/></svg>