<svg viewBox="0 0 20 20" xmlns="http://www.w3.org/2000/svg"><path d="m9.47574.947979-.33.044c-.72987.112321-1.43209.360981-2.07.733001-.96633.57494-1.7438 1.41949-2.237 2.43-.43.882-.597 1.723-.598 3.015-.001.654-.1 1.655-.239 2.41-.319 1.73302-1.084 3.30402-1.947 3.99202-.343.273-.414.524-.249.873.047.099.135.224.196.278.232.203-.461.187 8.01396.187 8.359 0 7.839.01 8.02-.159.173-.162.246-.46.185-.757-.035-.169-.05-.189-.373-.507-.363-.358-.535-.57-.764-.94-.506-.816-.91-1.948-1.109-3.11202-.137-.8-.198-1.504-.229-2.662-.02-.723-.063-1.071-.192-1.566-.57-2.179-2.355-3.808-4.608-4.206-.233-.041001-1.28796-.079001-1.46996-.053001zm1.17096 1.526001c.951.154 1.744.57 2.415 1.265.5722.58793.9579 1.33169 1.109 2.138.05.247.069.497.09 1.203.037 1.195.101 1.86.257 2.709.235 1.27102.626 2.39302 1.15 3.30002.101.175.183.325.183.334 0 .01-2.633.017-5.85.017-3.21796 0-5.84996-.007-5.84996-.017 0-.009.082-.159.183-.334.528-.914.93-2.075 1.152-3.32402.161-.906.217-1.496.255-2.7.031-.959.066-1.226.224-1.708.32569-.98634.9974-1.82145 1.891-2.351.45526-.26103.95281-.44009 1.47-.529.43853-.05551.88226-.05651 1.32096-.003zm-2.07096 14.25202c-.04598.0107-.09235.0197-.139.027-.169.028-.463.235-.566.397-.128.202-.124.384.013.658.319.636.978 1.105 1.74 1.24.97196.173 2.05596-.367 2.49396-1.24.136-.272.141-.457.016-.654-.15-.236-.469-.418-.737-.42-.1003-.0025-.1995.0211-.288.0684-.0885.0474-.1633.1168-.217.2016-.164.243-.414.471-.575.526-.1614.0603-.33704.0719-.50504.0334-.168-.0386-.32096-.1257-.43992-.2504-.09517-.0961-.18277-.1994-.262-.309-.05453-.0807-.12625-.1483-.21-.198-.116-.058-.27-.096-.324-.08z"/></svg>