<svg viewBox="0 0 20 20" xmlns="http://www.w3.org/2000/svg"><path d="m5.93419 2.60076c1.07834-1.07833 2.54087-1.684134 4.06591-1.684134 1.525 0 2.9875.605804 4.0658 1.684134 1.0784 1.07834 1.6842 2.54087 1.6842 4.06587 0 2.80616.6003 4.55517 1.1584 5.57837.2801.5135.5536.8518.7454 1.0543.0961.1014.1721.1692.2189.2082.0234.0194.0394.0317.047.0374l.004.0029c.2696.1845.389.5228.2941.8362-.0958.3163-.3873.5326-.7178.5326h-15.00004c-.3305 0-.62205-.2163-.71782-.5326-.09486-.3133.02448-.6516.29397-.8361l-.00085.0006.00245-.0017-.0016.0011.00407-.003c.0076-.0057.02368-.018.04706-.0374.04675-.039.1228-.1068.21888-.2082.19176-.2025.46532-.5408.74542-1.0543.55812-1.0232 1.15842-2.77221 1.15842-5.57837 0-1.525.6058-2.98753 1.68413-4.06587z"/><path d="m9.20747 17.1237c-.20784-.3583-.66679-.4803-1.02508-.2724-.3583.2078-.48026.6667-.27242 1.025.21243.3662.51735.6702.88422.8815.36687.2114.78282.3226 1.20621.3226.4234 0 .8393-.1112 1.2062-.3226.3668-.2113.6718-.5153.8842-.8815.2078-.3583.0859-.8172-.2724-1.025-.3583-.2079-.8173-.0859-1.0251.2724-.0806.1389-.1962.2542-.3354.3343-.1392.0802-.2969.1224-.4575.1224-.16061 0-.31838-.0422-.45754-.1224-.13915-.0801-.25481-.1954-.33539-.3343z"/></svg>