<svg viewBox="0 0 20 20" xmlns="http://www.w3.org/2000/svg"><path d="m2.60517 2.23747 14.77593.00633c.0553.00078.1105.00479.1654.01188.0078.00101.0156.00215.0233.00342.308.05076.5834.22134.766.4745s.2576.56829.2086.87656l-.0004.00252-2.1484 13.18782-.0002.0011c-.0459.279-.1904.5322-.4072.7137-.2153.1804-.4878.2781-.7686.2756-.0018 0-.0036 0-.0055 0l.009-.675v.675h-.0035-10.3073c-.32105-.0025-.63089-.1183-.87497-.3269-.24409-.2086-.40677-.4965-.45941-.8132l-2.14855-13.04008c-.00142-.00859-.00266-.01721-.00375-.02585-.00666-.0532-.01048-.10672-.01145-.16032-.00012-.00685-.00014-.0137-.00006-.02055.00193-.15512.0344-.30835.09555-.45093s.14979-.27172.26085-.38004.24237-.1937.38644-.25127c.14253-.05695.29477-.08558.44822-.08429zm.18858 1.35008 2.1159 12.84185s.00001.0001 0 0c.00056.0032.00222.0062.00466.0083.0023.0019.00518.0031.00819.0032h10.1638l2.0929-12.84719zm4.15404 3.66616c.12823-.15506.31896-.24484.52018-.24484h4.97703c.199 0 .3878.08778.5161.23989.1282.15211.1829.35306.1492.54916l-.7973 4.65118c-.0556.3241-.3365.5609-.6653.5609h-3.29063c-.32392 0-.60218-.2301-.66299-.5482l-.88911-4.65119c-.03778-.19764.01459-.40183.14282-.5569zm1.33643 1.10516.63104 3.30113h2.16334l.5659-3.30113z"/></svg>