<svg viewBox="0 0 20 20" xmlns="http://www.w3.org/2000/svg"><path d="m1.6692 2.01433c-.07489-.00094-.14923.01288-.21878.04067s-.13295.06901-.18657.1213c-.05361.0523-.09641.11464-.12593.18348-.02952.06883-.04519.14281-.04612.2177.0006.03337.00298.06668.00713.0998l2.4201 14.68822c.02995.1802.12251.3441.26138.4627.13887.1187.31515.1846.49781.186h11.60868c.1365.0018.2691-.0454.3737-.133.1047-.0876.1744-.2099.1966-.3446l2.4201-14.85576c.0237-.14882-.0125-.30096-.1007-.42318s-.2211-.20457-.3698-.22908c-.0331-.00427-.0664-.00665-.0998-.00712zm10.1901 10.61437h-3.70677l-1.00155-5.23949h5.60652z"/></svg>