<svg viewBox="0 0 20 20" xmlns="http://www.w3.org/2000/svg"><path d="m11.132.978692c.3054.132578.4868.450628.4456.780998l-.728 5.82364h6.6504c.291 0 .5558.16835.6792.43189s.0833.57469-.103.79825l-8.33336 10.00003c-.21314.2557-.5694.3404-.87481.2078s-.48686-.4506-.44556-.781l.72795-5.8236h-6.65041c-.29101 0-.55576-.1684-.67919-.4319-.12344-.2636-.08328-.5747.10302-.7983l8.33336-9.99997c.2131-.255776.5694-.340415.8748-.207838zm-7.03071 9.938008h5.89871c.2151 0 .4199.0923.5623.2536.1423.1613.2086.3759.1819.5894l-.516 4.1283 5.6705-6.80467h-5.8987c-.21511 0-.41988-.09237-.56225-.25364-.14237-.16128-.20863-.37592-.18195-.58938l.51604-4.1283z"/></svg>