<svg viewBox="0 0 20 20" xmlns="http://www.w3.org/2000/svg"><path d="m5.83268 3.25c-.24311 0-.47627.09658-.64818.26849-.17191.1719-.26848.40506-.26848.64818v11.87593l4.6474-3.3196c.26077-.1862.61108-.1862.87188 0l4.6474 3.3196v-11.87593c0-.24312-.0966-.47628-.2685-.64818-.1719-.17191-.4051-.26849-.6482-.26849zm-1.70884-.79217c.45321-.45322 1.0679-.70783 1.70884-.70783h8.33332c.641 0 1.2556.25461 1.7089.70783.4532.45321.7078 1.0679.7078 1.70884v13.33333c0 .2809-.157.5383-.4068.6669-.2498.1285-.5505.1067-.7791-.0566l-5.39745-3.8553-5.39741 3.8553c-.22861.1633-.52931.1851-.77911.0566-.2498-.1286-.40681-.386-.40681-.6669v-13.33333c0-.64094.25461-1.25563.70782-1.70884z"/></svg>