<svg viewBox="0 0 20 20" xmlns="http://www.w3.org/2000/svg"><path d="m5.41536 2.41669c-.35362 0-.69276.14047-.9428.39052-.25005.25005-.39053.58919-.39053.94281v9.99998c.40669-.2169.86401-.3333 1.33333-.3333h10.50004v-11.00001zm12.00004-.75c0-.41422-.3358-.750003-.75-.750003h-11.25004c-.75144 0-1.47211.298513-2.00346.829863-.53136.53135-.82987 1.25202-.82987 2.00347v12.49998c0 .7515.29851 1.4721.82987 2.0035.53135.5313 1.25202.8299 2.00346.8299h11.25004c.4142 0 .75-.3358.75-.75zm-1.5 13.25001h-10.50004c-.35362 0-.69276.1405-.9428.3905-.25005.2501-.39053.5892-.39053.9428s.14048.6928.39053.9428c.25004.2501.58918.3906.9428.3906h10.50004z" fill-rule="evenodd"/></svg>