<svg viewBox="0 0 20 20" xmlns="http://www.w3.org/2000/svg"><path d="m6.62384 2.45783c.45321-.45322 1.0679-.70783 1.70884-.70783h3.33332c.641 0 1.2556.25461 1.7089.70783.4532.45321.7078 1.0679.7078 1.70884v.91666h2.5833c1.3347 0 2.4167 1.08198 2.4167 2.41667v8.3333c0 1.3347-1.082 2.4167-2.4167 2.4167h-13.33332c-1.33469 0-2.416664-1.082-2.416664-2.4167v-8.3333c0-1.33469 1.081974-2.41667 2.416664-2.41667h2.58334v-.91666c0-.64094.25461-1.25563.70782-1.70884zm-.70782 4.1255h-2.58334c-.50626 0-.91666.41041-.91666.91667v8.3333c0 .5063.4104.9167.91666.9167h2.58334zm1.5 10.16667v-10.16667h5.16668v10.16667zm6.66668 0h2.5833c.5063 0 .9167-.4104.9167-.9167v-8.3333c0-.50626-.4104-.91667-.9167-.91667h-2.5833zm-1.5-11.66667h-5.16668v-.91666c0-.24312.09657-.47628.26848-.64818.17191-.17191.40507-.26849.64818-.26849h3.33332c.2431 0 .4763.09658.6482.26849.1719.1719.2685.40506.2685.64818z" fill-rule="evenodd"/></svg>