<svg viewBox="0 0 20 20" xmlns="http://www.w3.org/2000/svg"><path d="m7.23064.66798c-.08566.022203-.16513.063644-.23236.121174s-.12046.129633-.15564.210826l-.052.11-.02 1.5-.26.012c-.393.019-.679.108-.98.308-.36875.24506-.63653.61511-.754 1.042l-.046.158v5.67c0 6.22202-.01 5.73102.124 6.06002.219.537.691.945 1.25 1.08.13839.0286.27883.0463.42.053l.255.013.005.942.006.942.052.11c.065.14.158.233.298.298.101.048.131.052.38.052s.279-.004.38-.052c.11482-.0508.2107-.1366.274-.245.08-.155.086-.232.086-1.158v-.895h1.81996v.796c0 1.074.02 1.208.208 1.391.137.133.305.181.597.169.176-.007.247-.019.325-.053.141-.0651.2531-.1797.315-.322.044-.109.045-.13.051-1.063l.006-.952.144-.025c.575-.0947 1.1244-.3066 1.6142-.6224.4897-.3158.9093-.7289 1.2328-1.2136.167-.249.383-.689.485-.987.238-.7.287-1.478.139-2.208-.1123-.5079-.3091-.9933-.582-1.436-.3108-.47717-.7116-.88918-1.18-1.21302l-.155-.105.248-.258c.53-.54062.8809-1.23118 1.005-1.978.048-.283.057-.792.018-1.068-.0483-.40427-.1664-.79709-.349-1.161-.294-.60001-.744-1.10984-1.303-1.476-.3856-.2497-.8137-.42694-1.263-.523l-.054-.012-.007-.775c-.007-.879-.008-.887-.166-1.062-.129-.143-.245-.188-.524-.199-.292-.012-.46.036-.597.169-.181.176-.208.332-.208 1.202v.605l-1.80996-.01-.011-.74c-.007-.497-.019-.764-.035-.812-.03242-.092865-.08668-.176582-.1582-.244104-.07153-.067522-.15823-.116872-.2528-.143896-.1925-.037153-.39026-.037832-.583-.002zm4.06996 3.483c.5028.09778.9558.36795 1.2807.7639.3249.39596.5015.89289.4993 1.4051 0 .589-.205 1.095-.616 1.523-.2439.25646-.5461.45028-.881.565-.317.114-.274.112-2.92596.112h-2.438l.011-4.217.05-.054c.03332-.03446.07019-.0653.11-.092.058-.035.152-.037 2.403-.037 2.03696 0 2.36396.004 2.50696.031zm.136 5.89802c.361.055.738.19 1.035.372.434.265.814.682 1.029 1.129.211.438.27.701.27 1.21 0 .282-.009.41-.036.54-.11.513-.352.973-.703 1.338-.411.426-.863.68-1.437.807l-.204.045h-4.96696l-.057-.042c-.0386-.0311-.0726-.0674-.101-.108l-.045-.066v-5.254h2.51c2.10396 0 2.54196.005 2.70596.029z"/></svg>