<svg viewBox="0 0 20 20" xmlns="http://www.w3.org/2000/svg"><path d="m6.27851 2.04999c-.309.154-.392.447-.314 1.116.084.725.402 1.506.822 2.023.062.076.113.146.113.155s-.116.084-.258.166c-.60287.35261-1.14903.79426-1.62 1.31l-.266.303-.27-.195c-.329-.238-1.03-.592-1.436-.725-.40564-.13523-.8272-.21692-1.254-.243-.575-.05-.784-.013-.966998.17-.248.248-.269.799-.04 1.07.14.16699.250998.204.706998.235.64.044 1.016.134 1.525.365.252.114.724.42.84.544l.078.083-.106.241c-.20243.48396-.35262.98815-.448 1.50401l-.06.389-1.088.011c-1.03.011-1.095.015-1.242998.084-.101943.0462-.18865.1204-.25.214-.086.129-.094.168-.094.444 0 .364.075.531.296.657.135998.078.148998.079 1.256998.089l1.12.01.043.29c.067.449.216.998.384 1.412.085.208.161.402.171.432.035.106-.506.478-1.017.698-.419.18-.749.257-1.35.312-.593998.054-.686998.091-.821998.326-.07.122-.082.186-.082.427 0 .343.065.498.261.628.131998.087.144998.088.669998.087.50303.0099 1.00382-.0697 1.479-.235.49439-.1803.96595-.4179 1.405-.708l.281-.201.346.363c.55314.5986 1.21266 1.0893 1.945 1.447 1.05499.5178 2.22726.7502 3.39999.6738 1.1728-.0763 2.305-.4586 3.284-1.1088.4355-.2896.8347-.6303 1.189-1.015l.345-.365.181.136c.226.17.651.423.914.545.6308.3006 1.3184.4632 2.017.477.496.014.522.011.666-.066.231-.123.317-.301.317-.658 0-.249-.011-.303-.091-.438-.129-.22-.245-.264-.836-.318-.2524-.0211-.5032-.0578-.751-.11-.551-.14-1.0645-.3994-1.504-.76l-.115-.098.088-.196c.2345-.5456.4011-1.1178.496-1.704l.041-.273 1.119-.01c1.108-.01 1.121-.011 1.257-.089.176-.101.281-.286.304-.538.034-.38-.092-.657-.355-.779-.144-.066-.216-.071-1.239-.082l-1.086-.011-.072-.427c-.1061-.53343-.2648-1.05498-.474-1.55701l-.077-.173.081-.071c.159-.138.635-.439.847-.535.504-.22901.883-.319 1.521-.363.456-.031.567-.06801.707-.235.229-.271.208-.822-.04-1.07-.183-.183-.392-.22-.967-.17-.792.068-1.256.197-1.954.542-.2554.12507-.502.26739-.738.426l-.271.197-.212-.25c-.389-.457-1.047-.998-1.63-1.34-.1028-.05747-.2026-.12022-.299-.188 0-.007.065-.099.145-.205.4424-.58502.7157-1.2803.79-2.01.062-.537.014-.814-.174-.989-.21-.196-.654-.24-.948-.093-.245.122-.309.255-.347.724-.04.481-.098.705-.28 1.076-.1506.30271-.3584.57337-.612.797l-.143.13-.313-.056c-.8062-.13701-1.62977-.13701-2.43599 0l-.312.056-.143-.129c-.25467-.22325-.46296-.49439-.613-.798-.184-.375-.243-.601-.28-1.072-.03-.384-.07-.508-.206-.635-.211-.196-.654-.24-.949-.093zm4.52399 4.118c.198.03.46.10099.994.269.882.27899 1.945 1.09899 2.486 1.918l.186.281c.08.119.298.555.298.597 0 .02299-1.534.034-4.76699.034-3.225 0-4.767-.01101-4.767-.034 0-.04401.236-.497.376-.723.33008-.50289.74016-.94844 1.214-1.319.436-.335 1.137-.708 1.496-.795.091-.022.269-.074.398-.115.209-.068.513-.122.9-.161.196-.02.93899.01 1.18599.048zm4.382 4.60101c.038.062.026 1-.016 1.281-.051.338-.15.734-.257 1.033-.111.31-.328.771-.423.898-.0373.0471-.0695.098-.096.152-.081.221-.802 1.016-1.197 1.32-.7056.5341-1.5307.8883-2.404 1.032-.5265.0622-1.05854.0618-1.58499-.001-1.09072-.169-2.09938-.6807-2.88-1.461-.81304-.7988-1.33902-1.8441-1.496-2.973-.043-.286-.055-1.217-.017-1.279.033-.053 10.33899-.054 10.37099-.002z"/></svg>