<svg viewBox="0 0 20 20" xmlns="http://www.w3.org/2000/svg"><path d="m6.42708 1.43557c.28277-.24743.705-.24743.98777 0l4.92295 4.30769c.1627.14242.2561.34816.2561.56442v2.32695h5.4041c.4143 0 .75.33579.75.75v8.61537c0 .1989-.079.3897-.2196.5303-.1407.1407-.3314.2197-.5304.2197h-15.99995c-.41422 0-.75-.3358-.75-.75v-11.69232c0-.21626.09335-.422.25611-.56442zm6.16682 8.69903v7.1154h4.6541v-7.1154zm-1.5 7.1154v-10.602l-4.17293-3.65141-4.17292 3.65141v10.602h3.42204v-1.7116c0-.4142.33579-.75.75-.75s.75.3358.75.75v1.7116zm-6.76873-9.09613c0-.41421.33579-.75.75-.75h3.69219c.41422 0 .75.33579.75.75s-.33578.75-.75.75h-3.69219c-.41421 0-.75-.33579-.75-.75zm0 3.69233c0-.4143.33579-.75.75-.75h3.69219c.41422 0 .75.3357.75.75 0 .4142-.33578.75-.75.75h-3.69219c-.41421 0-.75-.3358-.75-.75z"/></svg>