<svg viewBox="0 0 20 20" xmlns="http://www.w3.org/2000/svg"><path d="m16.6317 1.99325c.3102-.10517.6409-.13547.965-.08841l.0018.00025c.4906.07241.9392.31803 1.2644.69243.3253.3744.5058.85286.5089 1.34881l.0001.00471v10.91736l-.0001.0035c-.0015.3294-.0814.6537-.233.9462-.1512.2915-.3693.543-.6364.7338-.2657.192-.5731.3184-.897.3687-.3249.0506-.6572.0232-.9694-.0797l-.0023-.0008-10.07233-3.3574h-1.11809v.5765c0 .6806.27038 1.3334.75166 1.8147s1.13403.7516 1.81467.7516c.41421 0 .75.3358.75.75s-.33579.75-.75.75c-1.07846 0-2.11275-.4284-2.87533-1.191s-1.191-1.7968-1.191-2.8753v-.6463c-.79954-.15-1.54194-.5378-2.12533-1.1212-.76258-.7626-1.190997-1.7969-1.190997-2.87535 0-1.07846.428417-2.11274 1.190997-2.87533.76259-.76258 1.79687-1.191 2.87533-1.191h1.86809zm-10.69863 4.85677h-1.23979c-.68063 0-1.33339.27038-1.81467.75166s-.75166 1.13404-.75166 1.81467c0 .68065.27038 1.33335.75166 1.81465s1.13404.7517 1.81467.7517h1.23979zm1.5 5.34208 9.67263 3.2242c.0003.0001.0007.0002.001.0004.0864.0283.1783.0357.2682.0218.0902-.0141.1758-.0493.2497-.1029l.0051-.0037c.0745-.053.1353-.1231.1775-.2043.0419-.0808.064-.1703.0647-.2614v-10.91236c-.0014-.13701-.0514-.2691-.1413-.37257-.0901-.10373-.2143-.17186-.3502-.19212-.09-.01291-.1818-.00438-.2678.02492l-.0046.00156v-.00001l-9.67493 3.22497z"/></svg>