<svg viewBox="0 0 20 20" xmlns="http://www.w3.org/2000/svg"><path d="m9.99935 2.41663c-4.18816 0-7.58333 3.39517-7.58333 7.58333 0 4.18814 3.39517 7.58334 7.58333 7.58334 4.18815 0 7.58335-3.3952 7.58335-7.58334 0-4.18816-3.3952-7.58333-7.58335-7.58333zm-9.083334 7.58333c0-5.01659 4.066744-9.083334 9.083334-9.083334 5.01655 0 9.08335 4.066744 9.08335 9.083334 0 5.01654-4.0668 9.08334-9.08335 9.08334-5.01659 0-9.083334-4.0668-9.083334-9.08334zm9.083334-4.25c-2.34721 0-4.25 1.90279-4.25 4.25 0 2.34724 1.90279 4.25004 4.25 4.25004 2.34725 0 4.24995-1.9028 4.24995-4.25004 0-2.34721-1.9027-4.25-4.24995-4.25zm-5.75 4.25c0-3.17564 2.57436-5.75 5.75-5.75 3.17565 0 5.74995 2.57436 5.74995 5.75s-2.5743 5.75004-5.74995 5.75004c-3.17564 0-5.75-2.5744-5.75-5.75004zm5.75-.91667c-.50626 0-.91667.41041-.91667.91667 0 .50624.41041.91664.91667.91664.50625 0 .91665-.4104.91665-.91664 0-.50626-.4104-.91667-.91665-.91667zm-2.41667.91667c0-1.33469 1.08198-2.41667 2.41667-2.41667 1.33465 0 2.41665 1.08198 2.41665 2.41667 0 1.33464-1.082 2.41664-2.41665 2.41664-1.33469 0-2.41667-1.082-2.41667-2.41664z"/></svg>