<svg viewBox="0 0 20 20" xmlns="http://www.w3.org/2000/svg"><path d="m6.66666.916626c.41422 0 .75.335784.75.750004v.91666h5.16664v-.91666c0-.41422.3358-.750004.75-.750004s.75.335784.75.750004v.91666h1.75c1.3347 0 2.4167 1.08198 2.4167 2.41667v11.66664c0 1.3347-1.082 2.4167-2.4167 2.4167h-11.66663c-1.33469 0-2.41667-1.082-2.41667-2.4167v-11.66664c0-1.33469 1.08198-2.41667 2.41667-2.41667h1.74999v-.91666c0-.41422.33579-.750004.75-.750004zm-.75 3.166664h-1.74999c-.50626 0-.91667.41041-.91667.91667v2.58333h13.5v-2.58333c0-.50626-.4104-.91667-.9167-.91667h-1.75v.91667c0 .41421-.3358.75-.75.75s-.75-.33579-.75-.75v-.91667h-5.16664v.91667c0 .41421-.33578.75-.75.75-.41421 0-.75-.33579-.75-.75zm10.83334 5h-13.5v7.58331c0 .5063.41041.9167.91667.9167h11.66663c.5063 0 .9167-.4104.9167-.9167z"/></svg>