<svg viewBox="0 0 20 20" xmlns="http://www.w3.org/2000/svg"><path d="m6.87661 2.08397c.1391-.20864.37328-.33397.62404-.33397h5.00005c.2507 0 .4849.12533.624.33397l1.444 2.16603h2.932c.6409 0 1.2556.25461 1.7088.70782.4532.45322.7078 1.06791.7078 1.70885v9.16663c0 .641-.2546 1.2557-.7078 1.7089s-1.0679.7078-1.7088.7078h-15.00005c-.64094 0-1.25563-.2546-1.70884-.7078-.453213-.4532-.7078256-1.0679-.7078256-1.7089v-9.16663c0-.64094.2546126-1.25563.7078256-1.70885.45321-.45321 1.0679-.70782 1.70884-.70782h2.93195zm1.02543 1.16603-1.44402 2.16603c-.1391.20864-.37327.33397-.62404.33397h-3.33333c-.24311 0-.47627.09658-.64818.26849-.17191.1719-.26849.40506-.26849.64818v9.16663c0 .2431.09658.4763.26849.6482s.40507.2685.64818.2685h15.00005c.2431 0 .4762-.0966.6481-.2685s.2685-.4051.2685-.6482v-9.16663c0-.24312-.0966-.47628-.2685-.64818-.1719-.17191-.405-.26849-.6481-.26849h-3.3334c-.2507 0-.4849-.12533-.624-.33397l-1.444-2.16603zm2.09856 5c-1.42669 0-2.58328 1.1566-2.58328 2.5833 0 1.4268 1.15659 2.5834 2.58328 2.5834 1.4268 0 2.5834-1.1566 2.5834-2.5834 0-1.4267-1.1566-2.5833-2.5834-2.5833zm-4.08328 2.5833c0-2.25513 1.82817-4.0833 4.08328-4.0833 2.2552 0 4.0834 1.82817 4.0834 4.0833 0 2.2552-1.8282 4.0834-4.0834 4.0834-2.25511 0-4.08328-1.8282-4.08328-4.0834z"/></svg>