<svg viewBox="0 0 20 20" xmlns="http://www.w3.org/2000/svg"><path d="m18.7268 4.40245v.00777c0 .02537 0 2.69643-.0006 5.36117-.0004 1.33231-.0009 2.66321-.0016 3.66111-.0003.4989-.0008.9147-.0013 1.2059-.0002.1456-.0005.2604-.0008.3391l-.0004.0918-.0003.0286-.0002.008c-.0024.5323-.1691 1.1063-.6111 1.5483-.4137.4137-.9749.6462-1.56.6462h-13.106c-.58512 0-1.14628-.2325-1.56003-.6462-.41375-.4138-.64619-.9749-.64619-1.56v-8.73723c0-.58512.23244-1.14628.64619-1.56002.40841-.40841.96046-.64015 1.53741-.64606v-.70631c0-.41421.33578-.75.75-.75h2.18432c.41422 0 .75.33579.75.75v.70619h1.10398c.00591 0 .00943-.00018.01094-.00027.0423-.00701.09861-.01761.14996-.03059.02236-.00566.03891-.01055.04978-.01414l2.06844-1.18198c.2618-.14959.5578-.22901.8594-.23054l5.6197-.02862c.9652-.00491 1.751.77325 1.7584 1.73673zm-1.5.00988c-.0013-.13771-.114-.24841-.2508-.24771l-5.6197.02861c-.0431.00022-.0854.01156-.1228.03293l-2.08956 1.19404c-.14849.08485-.31293.13062-.40516.15394-.10897.02755-.21199.04623-.27669.05688-.09211.01515-.17752.01975-.25191.01975h-4.76568c-.1873 0-.36693.07441-.49938.20685-.13244.13244-.20684.31206-.20684.49935v2.16238h4.33654c.66858-.88453 1.72932-1.45612 2.92356-1.45612 1.19422 0 2.25502.57159 2.92352 1.45612h4.3045c.0004-2.15821.0004-4.03252.0004-4.10702zm-14.48852 10.68187v-5.0749h3.6657c-.04465.2286-.06804.4647-.06804.7063 0 2.0227 1.63974 3.6624 3.66244 3.6624 2.02272 0 3.66242-1.6397 3.66242-3.6624 0-.2416-.0234-.4777-.068-.7063h3.6333c-.0003 1.2481-.0008 2.4766-.0015 3.4121-.0003.4988-.0008.914-.0013 1.2045l-.0007.3361-.0005.086-.0001.0124c-.0002.0079-.0004.0158-.0004.0238 0 .2368-.0708.3984-.1717.4993-.1325.1325-.3121.2069-.4994.2069h-13.106c-.1873 0-.36693-.0744-.49938-.2069-.13244-.1324-.20684-.312-.20684-.4993zm5.09766-4.3686c0-1.19422.96814-2.16237 2.16244-2.16237 1.19432 0 2.16242.96815 2.16242 2.16237 0 1.1943-.9681 2.1624-2.16242 2.1624-1.1943 0-2.16244-.9681-2.16244-2.1624z" fill-rule="evenodd"/></svg>