<svg viewBox="0 0 20 20" xmlns="http://www.w3.org/2000/svg"><path d="m12.2655 1.54816c.2671.07157.4732.28433.5362.55359l.5073 2.1684 2.1315-.64486c.2647-.08008.552-.008.7475.18754.1956.19554.2677.48282.1876.7475l-.6449 2.13154 2.1684.50731c.2693.06299.482.26905.5536.53616.0716.26712-.0096.55195-.2113.74113l-1.6243 1.52353 1.6243 1.5235c.2017.1892.2829.4741.2113.7412s-.2843.4731-.5536.5361l-2.1684.5073.6449 2.1316c.0801.2647.008.552-.1876.7475-.1955.1955-.4828.2676-.7475.1875l-2.1315-.6448-.5073 2.1684c-.063.2692-.2691.482-.5362.5536-.2671.0715-.5519-.0097-.7411-.2114l-1.5235-1.6242-1.52357 1.6242c-.18919.2017-.47402.2829-.74113.2114-.26712-.0716-.47317-.2844-.53617-.5536l-.5073-2.1684-2.13154.6448c-.26469.0801-.55197.008-.74751-.1875s-.26761-.4828-.18754-.7475l.64486-2.1316-2.16839-.5073c-.26927-.063-.48202-.269-.5536-.5361-.07157-.2671.00965-.552.21135-.7412l1.62423-1.5235-1.62423-1.52353c-.2017-.18918-.28292-.47401-.21135-.74113.07158-.26711.28433-.47317.5536-.53616l2.16839-.50731-.64486-2.13154c-.08007-.26468-.008-.55196.18754-.7475s.48282-.26762.74751-.18754l2.13154.64486.5073-2.1684c.063-.26926.26905-.48202.53617-.55359.26711-.07157.55194.00965.74113.21134l1.52357 1.62424 1.5235-1.62424c.1892-.20169.474-.28291.7411-.21134zm-.6053 2.25911-1.1123 1.18584c-.1418.15115-.3398.2369-.547.2369-.20727 0-.40527-.08575-.54705-.2369l-1.11233-1.18584-.37037 1.58313c-.04721.20179-.17581.37505-.35529.47867-.17947.10362-.39382.12836-.59217.06835l-1.55623-.47081.47081 1.55622c.06001.19836.03527.41271-.06835.59218s-.27688.30807-.47866.35528l-1.58314.37038 1.18585 1.11232c.15115.14178.23689.33978.23689.54701 0 .2072-.08574.4052-.23689.547l-1.18585 1.1124 1.58314.3703c.20178.0472.37504.1758.47866.3553s.12836.3938.06835.5922l-.47081 1.5562 1.55623-.4708c.19835-.06.4127-.0353.59217.0684.17948.1036.30808.2768.35529.4786l.37037 1.5832 1.11233-1.1859c.14178-.1511.33978-.2369.54705-.2369.2072 0 .4052.0858.547.2369l1.1123 1.1859.3704-1.5832c.0472-.2018.1758-.375.3553-.4786.1794-.1037.3938-.1284.5921-.0684l1.5563.4708-.4708-1.5562c-.0601-.1984-.0353-.4127.0683-.5922s.2769-.3081.4787-.3553l1.5831-.3703-1.1858-1.1124c-.1512-.1418-.2369-.3398-.2369-.547 0-.20723.0857-.40523.2369-.54701l1.1858-1.11232-1.5831-.37038c-.2018-.04721-.3751-.17581-.4787-.35528s-.1284-.39382-.0683-.59218l.4708-1.55622-1.5563.47081c-.1983.06001-.4127.03527-.5921-.06835-.1795-.10362-.3081-.27688-.3553-.47867z"/></svg>