<svg viewBox="0 0 20 20" xmlns="http://www.w3.org/2000/svg"><path d="m4.16667 3.25c-.50626 0-.91667.41041-.91667.91667v11.66663c0 .5063.41041.9167.91667.9167h11.66663c.5063 0 .9167-.4104.9167-.9167v-11.66663c0-.50626-.4104-.91667-.9167-.91667zm-2.41667.91667c0-1.33469 1.08198-2.41667 2.41667-2.41667h11.66663c1.3347 0 2.4167 1.08198 2.4167 2.41667v11.66663c0 1.3347-1.082 2.4167-2.4167 2.4167h-11.66663c-1.33469 0-2.41667-1.082-2.41667-2.4167zm13.2803 2.06637c.2929.29289.2929.76776 0 1.06066l-6.18747 6.1875c-.29289.2929-.76777.2929-1.06066 0l-2.8125-2.8125c-.29289-.2929-.29289-.76777 0-1.06066.29289-.2929.76777-.2929 1.06066 0l2.28217 2.28216 5.6572-5.65716c.2929-.2929.7677-.2929 1.0606 0z"/></svg>