<svg viewBox="0 0 20 20" xmlns="http://www.w3.org/2000/svg"><path d="m7.38641 3.89941c-1.23538 0-2.23686 1.00148-2.23686 2.23687 0 1.23538 1.00148 2.23686 2.23686 2.23686 1.23539 0 2.23686-1.00148 2.23686-2.23686 0-1.23539-1.00147-2.23687-2.23686-2.23687zm-3.73686 2.23687c0-2.06382 1.67305-3.73687 3.73686-3.73687s3.73689 1.67305 3.73689 3.73687c0 2.06381-1.67308 3.73686-3.73689 3.73686s-3.73686-1.67305-3.73686-3.73686zm15.09515.96313c.2929.2929.2929.76777 0 1.06066l-2.9868 2.98683c-.1407.1407-.3315.2197-.5304.2197s-.3896-.079-.5303-.2197l-1.4934-1.4934c-.2929-.29289-.2929-.76776 0-1.06066.2929-.29289.7677-.29289 1.0606 0l.9631.96311 2.4566-2.45654c.2929-.29289.7677-.29289 1.0606 0zm-16.61504 5.35509c.70079-.7008 1.65128-1.0945 2.64236-1.0945h5.22701c.99107 0 1.94157.3937 2.64237 1.0945s1.0945 1.6513 1.0945 2.6424v1.4934c0 .4142-.3358.75-.75.75s-.75-.3358-.75-.75v-1.4934c0-.5933-.2357-1.1622-.6552-1.5817s-.9884-.6552-1.58167-.6552h-5.22701c-.59325 0-1.16221.2357-1.5817.6552s-.65516.9884-.65516 1.5817v1.4934c0 .4142-.33579.75-.75.75-.41422 0-.75-.3358-.75-.75v-1.4934c0-.9911.3937-1.9416 1.0945-2.6424z"/></svg>