<svg viewBox="0 0 20 20" xmlns="http://www.w3.org/2000/svg"><path d="m9.99935 2.41669c-4.18816 0-7.58333 3.39517-7.58333 7.58331 0 4.1882 3.39517 7.5834 7.58333 7.5834 4.18815 0 7.58335-3.3952 7.58335-7.5834 0-4.18814-3.3952-7.58331-7.58335-7.58331zm-9.083334 7.58331c0-5.01657 4.066744-9.083313 9.083334-9.083313 5.01655 0 9.08335 4.066743 9.08335 9.083313 0 5.0166-4.0668 9.0834-9.08335 9.0834-5.01659 0-9.083334-4.0668-9.083334-9.0834zm9.613684-3.86364c.2929.29289.2929.76776 0 1.06066l-2.05302 2.053h4.85602c.4142 0 .75.33579.75.74998 0 .4142-.3358.75-.75.75h-4.85602l2.05302 2.053c.2929.2929.2929.7678 0 1.0607s-.76779.2929-1.06068 0l-3.33333-3.3334c-.2929-.2928-.2929-.76772 0-1.06061l3.33333-3.33333c.29289-.2929.76778-.2929 1.06068 0z"/></svg>