<svg viewBox="0 0 20 20" xmlns="http://www.w3.org/2000/svg"><path d="m9.99935 2.41663c-4.18816 0-7.58333 3.39517-7.58333 7.58333 0 4.18814 3.39517 7.58334 7.58333 7.58334 4.18815 0 7.58335-3.3952 7.58335-7.58334 0-4.18816-3.3952-7.58333-7.58335-7.58333zm-9.083334 7.58333c0-5.01659 4.066744-9.083334 9.083334-9.083334 5.01655 0 9.08335 4.066744 9.08335 9.083334 0 5.01654-4.0668 9.08334-9.08335 9.08334-5.01659 0-9.083334-4.0668-9.083334-9.08334zm9.083334-4.08333c.41425 0 .74995.33578.74995.75v4.85597l2.0531-2.05297c.2928-.29289.7677-.29289 1.0606 0s.2929.76777 0 1.06067l-3.3333 3.3333c-.1407.1407-.3314.2197-.53035.2197-.19891 0-.38968-.079-.53033-.2197l-3.33333-3.3333c-.2929-.2929-.2929-.76778 0-1.06067.29289-.29289.76776-.29289 1.06066 0l2.053 2.05297v-4.85597c0-.41422.33578-.75.75-.75z"/></svg>