<svg viewBox="0 0 20 20" xmlns="http://www.w3.org/2000/svg"><path d="m10.0013 2.41663c-4.18816 0-7.58333 3.39517-7.58333 7.58333 0 4.18814 3.39517 7.58334 7.58333 7.58334 4.1882 0 7.5833-3.3952 7.5833-7.58334 0-4.18816-3.3951-7.58333-7.5833-7.58333zm-9.083331 7.58333c0-5.01659 4.066741-9.083334 9.083331-9.083334 5.0166 0 9.0833 4.066744 9.0833 9.083334 0 5.01654-4.0667 9.08334-9.0833 9.08334-5.01659 0-9.083331-4.0668-9.083331-9.08334zm9.083331-4.08333c.1989 0 .3897.07901.5303.21967l3.3334 3.33333c.2929.29289.2929.76777 0 1.06067s-.7678.2929-1.0607 0l-2.053-2.05301v4.85601c0 .4142-.3358.75-.75.75-.41421 0-.75-.3358-.75-.75v-4.85601l-2.053 2.05301c-.29289.2929-.76777.2929-1.06066 0s-.29289-.76778 0-1.06067l3.33333-3.33333c.14065-.14066.33142-.21967.53033-.21967z"/></svg>