<svg viewBox="0 0 20 20" xmlns="http://www.w3.org/2000/svg"><path d="m10.0013 2.41663c-4.18816 0-7.58333 3.39517-7.58333 7.58333 0 4.18814 3.39517 7.58334 7.58333 7.58334 4.1882 0 7.5833-3.3952 7.5833-7.58334 0-4.18816-3.3951-7.58333-7.5833-7.58333zm-9.083331 7.58333c0-5.01659 4.066741-9.083334 9.083331-9.083334 5.0166 0 9.0833 4.066744 9.0833 9.083334 0 5.01654-4.0667 9.08334-9.0833 9.08334-5.01659 0-9.083331-4.0668-9.083331-9.08334zm8.553001-2.803c-.29289-.2929-.29289-.76777 0-1.06066.29289-.2929.76773-.2929 1.06063 0l3.3334 3.33333c.2929.29289.2929.76777 0 1.06067l-3.3334 3.3333c-.2929.2929-.76774.2929-1.06063 0s-.29289-.7677 0-1.0606l2.05303-2.053h-4.85603c-.41421 0-.75-.3358-.75-.75004 0-.41422.33579-.75.75-.75h4.85603z"/></svg>