<svg viewBox="0 0 20 20" xmlns="http://www.w3.org/2000/svg"><path d="m7.06715 1.75296c-1.097.092-1.936.315-2.822.749-1.19232.56963-2.20494 1.45632-2.927 2.563-1.685001 2.522-1.632001 5.91204.132 8.38504.45.632.772.914 1.043.916.26.002.699-.355.772-.627.062-.23-.005-.404-.299-.77-.739-.919-1.146-1.828-1.337-2.98604-.068-.411-.051-1.349.032-1.816.342-1.91 1.509-3.473 3.222-4.317 1.19681-.58794 2.55702-.75476 3.86044-.47346 1.30341.2813 2.47371.99426 3.32151 2.02346.4483.55669.7971 1.18661 1.031 1.862.057.171.104.33.104.353 0 .107.207.441.322.518.121.082.136.084.992.104 1.114.027 1.432.086 2.003.37.709.353 1.32.992 1.619 1.69304.204.481.274.828.274 1.367 0 .412-.013.53-.086.804-.199.752-.578 1.362-1.117 1.8-.524.428-.581.503-.581.766 0 .205.1041.421.296.613.168.168.348.233.551.199.299-.051 1.039-.671 1.443-1.21 1.11-1.478 1.304-3.415.514-5.10404-.531-1.134-1.665-2.136-2.863-2.53-.486-.16-.797-.209-1.438-.228l-.621-.019-.108-.287c-.928-2.455-3.226-4.277-5.86695-4.651-.359-.051-1.199-.089-1.466-.067zm2.55 7.576c-.06974.02705-.13268.06911-.18436.1232-.05167.05409-.09081.11889-.11464.1898-.045.107-.051.49304-.051 3.07404 0 1.623-.012 2.951-.026 2.951-.013 0-.505-.481-1.091-1.069-.603-.605-1.125-1.1-1.2-1.139-.266-.14-.571-.067-.821.197-.24.252-.306.533-.182.777.033.065.812.875 1.731 1.801.92.926 1.7 1.727 1.735 1.779.082.124.393.264.58695.264.194 0 .505-.14.587-.264.035-.052.815-.853 1.735-1.779.919-.926 1.698-1.736 1.731-1.801.124-.244.058-.525-.182-.777-.25-.264-.555-.337-.821-.197-.075.039-.597.534-1.2 1.139-.586.588-1.078 1.069-1.091 1.069-.014 0-.026-1.332-.026-2.959-.001-2.79904-.004-2.96504-.062-3.09104-.027-.06975-.0691-.13268-.1232-.18436-.054-.05167-.1188-.09081-.1898-.11464-.174-.073-.57195-.066-.74095.011z"/></svg>