<svg viewBox="0 0 20 20" xmlns="http://www.w3.org/2000/svg"><path d="m7.08268 2.60303c-.97623.05264-1.93188.30125-2.81.731-.7031.32885-1.34603.77335-1.902 1.315-1.074 1.036-1.824004 2.374-2.121004 3.784-.151.716-.201 1.74397-.118 2.44997.200955 1.6024.913594 3.0971 2.032004 4.262 1.1185 1.1551 2.5793 1.9191 4.166 2.179.327.055.686.059 4.83702.059 4.215 0 4.5-.003 4.766-.061 1.928-.415 3.35-1.769 3.834-3.65.175-.682.175-1.662 0-2.344-.1732-.6984-.4974-1.35029-.9497-1.90989s-1.0218-1.01327-1.6683-1.32908c-.65-.321-1.222-.455-2.038-.479l-.605-.018-.073-.204c-.427-1.186-1.322-2.406-2.366-3.224-1.411-1.105-3.15802-1.652-4.98402-1.561zm1.3 1.547c.92056.14334 1.79542.49794 2.55602 1.036.375.267 1.125 1.023 1.402 1.414.274.387.585 1 .742 1.461.064.189.117.363.117.386 0 .109.206.442.322.52.121.082.138.083.975.104.927.024 1.188.054 1.57.185.655.2244 1.23.63564 1.654 1.18297.697.906.879 2.154.475 3.261-.281.771-.922 1.48-1.679 1.858-.2877.1374-.59.2421-.901.312-.269.054-7.74202.082-8.47302.032-.75481-.0393-1.4942-.2287-2.175-.557-2.372-1.119-3.735-3.691-3.319-6.26397.19684-1.25411.79386-2.41097 1.702-3.298.65449-.64404 1.44991-1.12688 2.32329-1.41031.87339-.28344 1.80076-.35968 2.70871-.22269z"/></svg>