<svg viewBox="0 0 20 20" xmlns="http://www.w3.org/2000/svg"><path d="m4.05004.900044c.33137-.248528.80148-.181371 1.05.149996l4.89996 6.53333 4.9-6.53333c.2486-.331367.7187-.398524 1.05-.149996.3314.248526.3986.718626.15 1.049996l-5.35 7.13333v1.66663h3.75c.4143 0 .75.3358.75.75 0 .4143-.3357.75-.75.75h-3.75v1h3.75c.4143 0 .75.3358.75.75 0 .4143-.3357.75-.75.75h-3.75v3.75c0 .4143-.3357.75-.75.75-.41417 0-.74996-.3357-.74996-.75v-3.75h-3.75c-.41421 0-.75-.3357-.75-.75 0-.4142.33579-.75.75-.75h3.75v-1h-3.75c-.41421 0-.75-.3357-.75-.75 0-.4142.33579-.75.75-.75h3.75v-1.66663l-5.35-7.13333c-.24852-.33137-.18137-.80147.15-1.049996z"/></svg>