<svg viewBox="0 0 20 20" xmlns="http://www.w3.org/2000/svg"><path d="m6 2.75c-.69036 0-1.25.55964-1.25 1.25s.55964 1.25 1.25 1.25 1.25-.55964 1.25-1.25-.55964-1.25-1.25-1.25zm-2.75 1.25c0-1.51878 1.23122-2.75 2.75-2.75s2.75 1.23122 2.75 2.75c0 1.25878-.84575 2.32002-2 2.64648v4.10352h1.75c2.2984 0 4.1707-1.8245 4.2475-4.10421-1.153-.32728-1.9975-1.38791-1.9975-2.64579 0-1.51878 1.2312-2.75 2.75-2.75s2.75 1.23122 2.75 2.75c0 1.25945-.8466 2.32115-2.0018 2.647-.078 3.10771-2.6217 5.603-5.7482 5.603h-1.75v1.1035c1.15425.3265 2 1.3877 2 2.6465 0 1.5188-1.23122 2.75-2.75 2.75s-2.75-1.2312-2.75-2.75c0-1.2588.84575-2.32 2-2.6465v-6.70702c-1.15425-.32646-2-1.3877-2-2.64648zm10.25-1.25c-.6904 0-1.25.55964-1.25 1.25s.5596 1.25 1.25 1.25 1.25-.55964 1.25-1.25-.5596-1.25-1.25-1.25zm-7.5 12c-.69036 0-1.25.5596-1.25 1.25s.55964 1.25 1.25 1.25 1.25-.5596 1.25-1.25-.55964-1.25-1.25-1.25z"/></svg>