<svg viewBox="0 0 20 20" xmlns="http://www.w3.org/2000/svg"><path d="m7.19635 4.46967c.29289.29289.29289.76777 0 1.06066l-4.46967 4.46967 4.46967 4.4697c.29289.2929.29289.7677 0 1.0606-.2929.2929-.76777.2929-1.06066 0l-5-5c-.292898-.2929-.292898-.76774 0-1.06063l5-5c.29289-.29289.76776-.29289 1.06066 0zm5.60605 0c.2928-.29289.7677-.29289 1.0606 0l5 5c.2929.29289.2929.76773 0 1.06063l-5 5c-.2929.2929-.7678.2929-1.0606 0-.2929-.2929-.2929-.7677 0-1.0606l4.4696-4.4697-4.4696-4.46967c-.2929-.29289-.2929-.76777 0-1.06066z"/></svg>