<svg viewBox="0 0 20 20" xmlns="http://www.w3.org/2000/svg"><path d="m5.04722 1.71423c.42079 0 .76191.34112.76191.76192v2.28571c0 .42079-.34112.76191-.76191.76191-.4208 0-.76191-.34112-.76191-.76191v-2.28571c0-.4208.34111-.76192.76191-.76192zm6.09558 0c.4208 0 .7619.34112.7619.76192v2.28571c0 .42079-.3411.76191-.7619.76191s-.7619-.34112-.7619-.76191v-2.28571c0-.4208.3411-.76192.7619-.76192zm-3.04696.00002c.4208 0 .76192.34112.76192.76191v2.28572c0 .42079-.34112.76191-.76192.76191-.42079 0-.76191-.34112-.76191-.76191v-2.28572c0-.42079.34112-.76191.76191-.76191zm-6.6344 5.55647c.14289-.14289.33668-.22316.53875-.22316l12.95231.00001c1.0104 0 1.9794.40136 2.6938 1.11578.7144.71443 1.1158 1.6834 1.1158 2.69375 0 1.0104-.4014 1.9793-1.1158 2.6938-.7144.7143-1.6832 1.1157-2.6935 1.1157 0 1.0104-.4014 1.9794-1.1158 2.6938s-1.6834 1.1158-2.6938 1.1158h-6.09533c-1.01036 0-1.97934-.4014-2.69378-1.1158-.71444-.7145-1.11581-1.6834-1.11581-2.6938v-6.85713c0-.20207.08027-.39586.22316-.53875zm11.96756 6.61378c-.0002.0067-.0003.0134-.0003.0202s.0001.0136.0003.0204v.7415c0 .6062-.2408 1.1876-.6695 1.6163-.4287.4286-1.0101.6694-1.6163.6694h-6.09533c-.60623 0-1.18762-.2408-1.61628-.6694-.42867-.4287-.66948-1.0101-.66948-1.6163v-6.09521h10.66659zm1.5237-.7417c.6062 0 1.1875-.2409 1.6161-.6695.4287-.4286.6695-1.01.6695-1.6162s-.2408-1.18758-.6695-1.61623-1.01-.66947-1.6163-.66948z" fill-rule="evenodd"/></svg>