<svg viewBox="0 0 20 20" xmlns="http://www.w3.org/2000/svg"><path d="m10.0026 1.58252c-.24311 0-.47627.09658-.64818.26848-.1719.17191-.26848.40507-.26848.64819v.14166l-.00001.00299c-.00165.41443-.12445.81932-.35327 1.16485-.22883.34552-.55369.6166-.93461.77985-.06603.0283-.13564.0469-.20667.05537-.34846.12365-.72412.15454-1.08974.08825-.41778-.07575-.80329-.27492-1.10682-.57183l-.00591-.00578-.04997-.05003c-.08513-.08523-.18653-.15314-.29781-.19927s-.23056-.06987-.35103-.06987c-.12046 0-.23974.02374-.35102.06987-.11129.04613-.21238.11374-.29752.19897-.08523.08513-.15343.18682-.19956.2981-.04613.11129-.06987.23057-.06987.35103 0 .12047.02374.23975.06987.35103s.11374.21238.19897.29752l.05615.05614c.2969.30353.49604.68907.57179 1.10685.07434.41.02647.83264-.13738 1.21538-.1487.39081-.40948.72924-.74987.9727-.34681.24806-.76024.38604-1.18652.39601l-.01754.00021h-.075c-.24311 0-.47627.09657-.64818.26848s-.26848.40507-.26848.64823c0 .2431.09657.4762.26848.6481s.40507.2685.64818.2685h.14466c.41442.0017.81932.1245 1.16484.3533.34441.2281.61484.5516.77826.9309.17015.3875.22073.817.14522 1.2335-.07576.4177-.27492.8032-.57183 1.1068l-.00578.0059-.05003.0499c-.08523.0852-.15314.1866-.19927.2979-.04613.1112-.06988.2305-.06988.351s.02375.2397.06988.351.11374.2124.19897.2975c.08513.0853.18682.1535.2981.1996.11129.0461.23057.0699.35103.0699s.23974-.0238.35103-.0699c.11128-.0461.21238-.1138.29751-.199l.05615-.0561c.30352-.2969.68907-.4961 1.10685-.5718.41-.0744.83263-.0265 1.21537.1374.39081.1487.72925.4094.97271.7498.24806.3468.38604.7603.39601 1.1865l.00021.0176v.075c0 .2431.09657.4763.26848.6482s.40507.2685.64821.2685c.2431 0 .4762-.0966.6482-.2685.1719-.1719.2684-.4051.2684-.6482v-.1417-.003c.0017-.4144.1245-.8193.3533-1.1648.2281-.3444.5516-.6149.9309-.7783.3875-.1701.817-.2207 1.2335-.1452.4178.0758.8033.2749 1.1068.5718l.0059.0058.05.0501c.0851.0852.1865.1531.2978.1992.1113.0462.2305.0699.351.0699s.2398-.0237.351-.0699c.1113-.0461.2124-.1137.2975-.1989.0853-.0852.1535-.1869.1996-.2982.0461-.1112.0699-.2305.0699-.351 0-.1204-.0238-.2397-.0699-.351s-.1137-.2124-.199-.2975l-.0561-.0562c-.2969-.3035-.496-.689-.5718-1.1068-.0755-.4165-.0249-.846.1452-1.2334.1634-.3794.4339-.7029.7783-.931.3455-.2288.7504-.3516 1.1648-.3532l.003-.0001.075.0001c.2431 0 .4763-.0966.6482-.2685s.2685-.4051.2685-.64821c0-.24312-.0966-.47628-.2685-.64818-.1719-.17191-.4051-.26849-.6482-.26849h-.1417l-.003-.00001c-.4144-.00165-.8193-.12445-1.1648-.35327s-.6166-.55369-.7799-.9346c-.0283-.06604-.0469-.13565-.0553-.20668-.1237-.34846-.1546-.72412-.0883-1.08974.0758-.41778.275-.80329.5719-1.10682l.0057-.00591.0501-.04996c.0852-.08514.1531-.18653.1992-.29782.0462-.11128.0699-.23056.0699-.35102 0-.12047-.0237-.23975-.0699-.35103-.0461-.11128-.1137-.21238-.1989-.29752-.0852-.08523-.1869-.15343-.2981-.19956-.1113-.04613-.2306-.06987-.3511-.06987-.1204 0-.2397.02374-.351.06987s-.2124.11375-.2975.19897l-.0561.05615c-.3036.2969-.6891.49604-1.1069.57179-.4165.07551-.846.02493-1.2335-.14521-.3793-.16342-.7028-.43386-.9308-.77826-.2289-.34553-.3517-.75042-.3533-1.16484v-.00299-.075c0-.24312-.0966-.47628-.2685-.64819-.1719-.1719-.4051-.26848-.6482-.26848zm-1.70884-.792175c.45322-.453213 1.0679-.7078255 1.70884-.7078255.6409 0 1.2556.2546125 1.7088.7078255.4533.453215.7079 1.067905.7079 1.708845v.07317c.0007.12148.0368.24013.1039.34144.0673.10162.1628.18135.2749.22936l.0073.00317c.1143.05043.241.06551.3639.04323.1218-.02208.2342-.07982.3231-.16585l.0462-.04623c.2245-.22469.491-.40294.7844-.52456.2934-.12161.6079-.18421.9254-.18421.3176 0 .6321.0626.9255.18421.2931.12151.5594.29956.7837.52397.2247.22445.403.49098.5246.78436.1216.29337.1842.60785.1842.92544s-.0626.63206-.1842.92544c-.1216.29337-.2999.55991-.5246.78435l-.0462.04622c-.086.0889-.1438.20136-.1658.32314-.0223.12287-.0073.24961.0432.36386.0232.05276.0403.10788.0509.16425.0468.07326.1085.13627.1816.18467.1013.06707.2199.10317.3414.1039h.1399c.6409 0 1.2556.25461 1.7088.70783.4533.45321.7079 1.0679.7079 1.70884 0 .64091-.2546 1.25561-.7079 1.70881-.4532.4532-1.0679.7079-1.7088.7079h-.0732c-.1215.0007-.2401.0368-.3414.1039-.1016.0673-.1814.1628-.2294.2748l-.0031.0074c-.0505.1143-.0655.241-.0433.3639.0221.1217.0798.2342.1659.3231l.0462.0462c.2247.2245.403.491.5246.7844s.1842.6078.1842.9254-.0626.6321-.1842.9255c-.1216.2932-.2997.5596-.5243.784-.2244.2246-.4908.4027-.7841.5243s-.6078.1842-.9254.1842-.6321-.0626-.9254-.1842c-.2934-.1216-.5599-.2999-.7844-.5246l-.0462-.0462c-.0889-.086-.2014-.1438-.3231-.1659-.1229-.0222-.2497-.0072-.3639.0432l-.0074.0033c-.112.048-.2076.1277-.2749.2293-.0671.1013-.1032.22-.1039.3414v.1399c0 .6409-.2546 1.2556-.7078 1.7088s-1.0679.7079-1.7088.7079c-.64097 0-1.25566-.2547-1.70887-.7079s-.70783-1.0679-.70783-1.7088v-.0645c-.00426-.1229-.04468-.2419-.11626-.342-.07296-.102-.17492-.1797-.29262-.2229-.01483-.0055-.02948-.0114-.04394-.0178-.11425-.0504-.24098-.0655-.36386-.0432-.12176.0221-.23421.0798-.3231.1658l-.04626.0463c-.22438.2245-.4911.403-.78435.5245-.29338.1217-.60785.1843-.92544.1843s-.63206-.0626-.92544-.1843c-.29337-.1216-.55991-.2998-.78435-.5245-.22442-.2243-.40246-.4907-.52397-.7838-.12162-.2934-.18422-.6078-.18422-.9254s.0626-.6321.18422-.9255c.12161-.2933.29987-.5599.52456-.7843l.04622-.0462c.08604-.0889.14377-.2014.16585-.3232.02228-.1228.00724-.2496-.04318-.3638l-.00325-.0074c-.04802-.112-.1277-.2076-.22933-.2749-.1013-.0671-.21995-.1032-.34144-.1039h-.13984c-.64094 0-1.25562-.2546-1.708837-.7078-.453213-.4532-.7078255-1.0679-.7078255-1.7088 0-.64099.2546125-1.25568.7078255-1.70889.453217-.45321 1.067897-.70782 1.708837-.70782h.06453c.12287-.00427.24182-.04468.34191-.11627.10201-.07296.17971-.17492.223-.29262.00545-.01483.01137-.02948.01775-.04394.05042-.11425.06546-.24098.04318-.36386-.02208-.12179-.07982-.23425-.16587-.32315l-.0462-.04621c-.22469-.22444-.40294-.49097-.52456-.78435s-.18421-.60785-.18421-.92544c0-.31758.06259-.63206.18421-.92544.12157-.29325.29971-.55967.52427-.78405.22438-.22456.49081-.40271.78406-.52427.29337-.12162.60785-.18421.92543-.18421.31759 0 .63207.06259.92544.18421.29338.12162.55991.29987.78436.52456l.0462.0462c.0889.08605.20136.14379.32315.16587.12288.02228.24962.00724.36386-.04318.05276-.02329.10789-.04035.16427-.05094.07324-.04679.13626-.10855.18466-.18164.06707-.10128.10317-.2199.1039-.34135v-.13992c0-.64094.25461-1.25563.70782-1.708845zm1.70724 7.459655c-.96652 0-1.75002.7835-1.75002 1.75s.7835 1.75 1.75002 1.75c.9665 0 1.75-.7835 1.75-1.75s-.7835-1.75-1.75-1.75zm-3.25002 1.75c0-1.79493 1.45507-3.25 3.25002-3.25 1.7949 0 3.25 1.45507 3.25 3.25 0 1.7949-1.4551 3.25-3.25 3.25-1.79495 0-3.25002-1.4551-3.25002-3.25z"/></svg>