<svg viewBox="0 0 20 20" xmlns="http://www.w3.org/2000/svg"><path d="m5.85807 5.51597c-.41752 0-.75598.33847-.75598.75599 0 .41751.33846.75598.75598.75598.41751 0 .75598-.33847.75598-.75598 0-.41752-.33847-.75599-.75598-.75599zm-1.75598.75599c0-.96981.78618-1.75599 1.75598-1.75599s1.75598.78618 1.75598 1.75599c0 .9698-.78618 1.75598-1.75598 1.75598s-1.75598-.78618-1.75598-1.75598z"/><path d="m6.09626 2.26552c-.12722-.12722-.34982-.12722-.47704 0-.0344.0344-.05313.06667-.07309.22358-.00177.01396-.00355.03005-.00553.04798-.01675.15175-.04816.43618-.21815.69287-.27745.41895-.78718.60026-1.24555.51715-.26878-.04874-.45359-.19081-.56318-.27873-.01848-.01482-.03485-.02801-.04945-.03977-.08825-.07109-.11175-.09002-.14632-.10435-.04095-.01697-.08484-.02571-.12917-.02571s-.08822.00874-.12917.02571c-.08089.03353-.14957.10221-.1831.1831-.01697.04095-.02571.08484-.02571.12917s.00874.08822.02571.12917c.01433.03456.03326.05807.10435.14631.01176.0146.02495.03097.03978.04946.08791.10959.22999.2944.27872.56318.04151.22893.01503.46488-.07599.67875-.08348.218-.22925.40678-.41931.54272-.25106.17956-.53333.21873-.68467.23973-.01628.00226-.03105.0043-.0441.0063-.16103.02456-.19288.04368-.22401.07482-.12723.12722-.12723.34982 0 .47704.03439.0344.06666.05313.22357.07308.01397.00178.03005.00356.04799.00554.15175.01675.43618.04815.69287.21815.19287.12773.34435.30887.43595.52126.0952.21703.12348.45756.08119.69079-.04849.26743-.19121.45302-.27813.56185-.01467.01836-.02775.03467-.03943.04924-.07168.08939-.09107.11356-.10528.14786-.01698.04095-.02572.08485-.02572.12917 0 .13284.0857.26124.20881.31227.04095.01698.08484.02571.12917.02571s.08823-.00873.12918-.02571c.03411-.01414.05866-.03378.1487-.10579.01457-.01165.03084-.02466.04915-.03925.1084-.08636.29446-.22946.56109-.27781.22893-.0415.46489-.01502.67876.076.218.08348.40678.22924.54271.4193.15923.22263.22205.47495.22205.71424 0 .0895.03554.1753.0988.2385.12722.1273.34982.1273.47704 0 .06326-.0632.0988-.149.0988-.2385 0-.20801.03025-.47263.19797-.72588.12773-.19288.30887-.34436.52126-.43595.21704-.0952.45757-.12349.6908-.0812.26878.04874.45359.19081.56318.27873.01848.01482.03485.02801.04945.03977.08825.07109.11175.09002.14632.10435.04095.01697.08484.02571.12917.02571.17619 0 .33798-.16285.33798-.33798 0-.03171-.00698-.06883-.10873-.21011-.008-.01112-.01727-.02362-.02753-.03746-.09101-.1228-.25969-.35041-.3123-.64055-.04229-.23324-.01401-.47377.0812-.6908.09159-.21239.24307-.39352.43594-.52126.2438-.16145.51866-.19892.66649-.21908.01763-.0024.03346-.00456.04721-.00665.16004-.02435.19055-.04434.21724-.07103.12723-.12722.12723-.34982 0-.47705-.06326-.06326-.14906-.0988-.23852-.0988-.20804 0-.47266-.03025-.72591-.19796-.6672-.44186-.68173-1.38081-.16771-1.89482.03136-.03133.05644-.06873.07341-.10968.01698-.04095.02572-.08485.02572-.12917 0-.10617-.05552-.20644-.15589-.27288-.1015-.06718-.21686-.07852-.31127-.03939-.03456.01433-.05806.03326-.14631.10435-.0146.01176-.03097.02494-.04946.03977-.10958.08792-.2944.22999-.56317.27873-.46513.08433-.95114-.12315-1.21206-.51715-.15038-.22707-.19797-.47203-.19797-.69242 0-.08946-.03554-.17526-.0988-.23852zm-1.18415-.70711c.51775-.51774 1.37351-.51774 1.89126 0 .25079.2508.39169.59095.39169.94563 0 .07696.01572.11612.03171.14027.04027.06081.1283.09832.19991.08534.00863-.00156.02917-.00527.11584-.07479.0083-.00667.01811-.01479.02932-.02406.07908-.06548.22777-.18858.40925-.26381.8564-.35501 1.8501.28783 1.8501 1.23604 0 .17574-.03464.34976-.10194.51211-.06727.16226-.16584.30968-.29009.43384-.04584.04585-.07411.1189-.06861.19798.00531.07639.03897.12791.08137.15599.02147.01422.06043.03171.17376.03171.35468 0 .69482.1409.94562.3917.5178.51774.5178 1.37351 0 1.89125-.269.26904-.58337.32356-.77392.35255-.22158.03372-.26613.04051-.31197.07086-.03102.02054-.05536.04971-.07001.08391l-.00212.00493c-.01539.03488-.02001.07355-.01321.11106.00892.04915.03495.08819.16734.272.10968.15229.29727.41784.29727.79453 0 .72386-.60595 1.33795-1.33798 1.33795-.17575 0-.34977-.0346-.51211-.1019-.18149-.0752-.33018-.19834-.40926-.26382-.01121-.00928-.02102-.0174-.02932-.02406-.08667-.06952-.10694-.07318-.11557-.07474-.03752-.00681-.07647-.00226-.11134.01313l-.00491.00217c-.0342.01465-.06338.03896-.08392.06999-.01422.02147-.03172.06043-.03172.17373 0 .3547-.14089.6949-.39169.9457-.51775.5177-1.37351.5177-1.89126 0-.25079-.2508-.39169-.591-.39169-.9457 0-.06477-.01601-.10535-.03542-.13249-.02227-.03114-.05339-.05486-.08932-.06807-.00989-.00364-.01966-.00758-.02929-.01184-.03488-.01539-.07357-.01998-.11108-.01318-.00589.00105-.02708.00483-.11636.07596-.00843.00671-.01836.01488-.0297.0242-.07981.06557-.22904.18822-.40835.26252-.16235.0673-.33637.1019-.51212.1019-.17574 0-.34976-.0346-.51211-.1019-.49622-.20572-.82587-.69839-.82587-1.23606 0-.17574.03464-.34976.10194-.51211.07467-.18013.19746-.32915.263-.4087.0093-.01129.01745-.02118.02414-.02956.07053-.0883.07424-.10897.07547-.11586.0068-.03751.00227-.07649-.01312-.11137l-.00217-.0049c-.01466-.0342-.03897-.06338-.06999-.08393-.04743-.03141-.08833-.03661-.31131-.06496l-.00354-.00045c-.20129-.0256-.52262-.07608-.80454-.35799-.517747-.51775-.517747-1.37351 0-1.89126.27363-.27363.5897-.3272.7803-.35628.2173-.03315.25629-.04111.29784-.07083.03114-.02227.05486-.0534.06808-.08933.00363-.00988.00758-.01965.01183-.02929.01539-.03487.01999-.07356.01318-.11107-.00155-.00863-.00527-.02918-.07479-.11584-.00666-.00831-.01478-.01812-.02406-.02932-.06547-.07909-.18858-.22777-.26381-.40926-.0673-.16235-.10194-.33637-.10194-.51211 0-.17575.03464-.34977.10194-.51212.13502-.3257.39822-.5889.72393-.72392.16234-.0673.33637-.10194.51211-.10194.17575 0 .34977.03464.51211.10194.18149.07523.33018.19833.40926.26381.01121.00928.02102.0174.02932.02406.08666.06952.10694.07319.11557.07474.10204.01851.19702-.02996.23366-.08529.03142-.04743.03662-.08833.06497-.31131l.00045-.00354c.0256-.20129.07607-.52262.35799-.80454z"/><path d="m14.1022 12.8459c-.4175 0-.756.3384-.756.756 0 .4175.3385.7559.756.7559s.756-.3384.756-.7559c0-.4176-.3385-.756-.756-.756zm-1.756.756c0-.9699.7862-1.756 1.756-1.756s1.756.7861 1.756 1.756c0 .9698-.7862 1.7559-1.756 1.7559s-1.756-.7861-1.756-1.7559z"/><path d="m14.3404 9.59542c-.1272-.12723-.3498-.12723-.477 0-.0344.03439-.0532.06666-.0731.22357-.0018.01397-.0036.03005-.0056.04799-.0167.15172-.0481.43622-.2181.69282-.2775.419-.7872.6003-1.2456.5172-.2687-.0487-.4536-.1908-.5631-.2787-.0185-.0149-.0349-.028-.0495-.0398-.0882-.0711-.1117-.09-.1463-.1044-.041-.0169-.0849-.0257-.1292-.0257s-.0882.0088-.1292.0257c-.0808.0336-.1495.1023-.183.1831-.017.041-.0258.0849-.0258.1292s.0088.0882.0258.1292c.0143.0345.0332.0581.1043.1463.0118.0146.0249.031.0398.0495.0879.1095.23.2944.2787.5631.0415.229.015.4649-.076.6788-.0835.218-.2292.4068-.4193.5427-.2511.1796-.5333.2187-.6847.2397-.0163.0023-.031.0043-.0441.0063-.161.0246-.1929.0437-.224.0749-.12721.1272-.12721.3498 0 .477.0344.0344.0667.0531.2236.0731.014.0018.03.0035.048.0055.1517.0168.4362.0482.6928.2182.1929.1277.3444.3088.436.5212.0952.2171.1235.4576.0812.6908-.0485.2674-.1912.453-.2781.5619-.0147.0183-.0278.0346-.0395.0492-.0717.0894-.091.1136-.1053.1479-.0169.0409-.0257.0848-.0257.1291 0 .1329.0857.2613.2088.3123.041.017.0849.0257.1292.0257s.0882-.0087.1292-.0257c.0341-.0141.0587-.0338.1487-.1058.0146-.0116.0308-.0246.0491-.0392.1084-.0864.2945-.2295.5611-.2778.229-.0416.4649-.0151.6788.076.218.0834.4068.2292.5427.4193.1592.2226.2221.4749.2221.7142 0 .0895.0355.1753.0988.2385.1272.1273.3498.1273.477 0 .0633-.0632.0988-.149.0988-.2385 0-.208.0302-.4726.198-.7259.1277-.1929.3088-.3443.5212-.4359.2171-.0952.4576-.1235.6908-.0812.2688.0487.4536.1908.5632.2787.0185.0148.0349.028.0495.0398.0882.0711.1117.09.1463.1043.0409.017.0848.0257.1291.0257.1762 0 .338-.1628.338-.338 0-.0317-.007-.0688-.1087-.2101-.008-.0111-.0173-.0236-.0275-.0374-.091-.1228-.2597-.3504-.3123-.6406-.0423-.2332-.014-.4737.0812-.6908.0916-.2124.243-.3935.4359-.5212.2438-.1615.5187-.199.6665-.2191.0176-.0024.0334-.0046.0472-.0067.16-.0243.1905-.0443.2172-.071.1273-.1272.1273-.3498 0-.477-.0632-.0633-.149-.0988-.2385-.0988-.208 0-.4726-.0303-.7259-.198-.6672-.4419-.6817-1.3808-.1677-1.8948.0314-.0314.0564-.0688.0734-.1097.017-.041.0257-.0849.0257-.1292 0-.1061-.0555-.2064-.1559-.2729-.1015-.0671-.2168-.0785-.3112-.0393-.0346.0143-.0581.0332-.1463.1043-.0146.0118-.031.0249-.0495.0398-.1096.0879-.2944.23-.5632.2787-.4651.0843-.9511-.1231-1.212-.5171-.1504-.2271-.198-.4721-.198-.69246 0-.08947-.0355-.17526-.0988-.23852zm-1.1841-.70711c.5177-.51775 1.3735-.51775 1.8912 0 .2508.2508.3917.59095.3917.94563 0 .07696.0157.11612.0317.14027.0403.06079.1283.09829.1999.08529.0087-.0015.0292-.0052.1159-.07475.0083-.00666.0181-.01478.0293-.02406.0791-.06547.2277-.18858.4092-.26381.8564-.35501 1.8501.28784 1.8501 1.23602 0 .1758-.0346.3498-.1019.5121s-.1658.3097-.2901.4339c-.0458.0458-.0741.1189-.0686.198.0053.0763.039.1279.0814.1559.0214.0143.0604.0318.1737.0318.3547 0 .6949.1409.9457.3917.5177.5177.5177 1.3735 0 1.8912-.2691.269-.5834.3236-.774.3526-.2216.0337-.2661.0405-.3119.0708-.0311.0206-.0554.0497-.0701.0839l-.0021.005c-.0154.0348-.02.0735-.0132.111.0089.0492.035.0882.1673.272.1097.1523.2973.4179.2973.7945 0 .7239-.6059 1.338-1.338 1.338-.1757 0-.3497-.0346-.5121-.1019-.1815-.0752-.3301-.1983-.4092-.2638-.0112-.0093-.021-.0174-.0294-.0241-.0866-.0695-.1069-.0732-.1155-.0747-.0375-.0068-.0765-.0023-.1114.0131l-.0049.0022c-.0342.0146-.0633.0389-.0839.07-.0142.0214-.0317.0604-.0317.1737 0 .3547-.1409.6949-.3917.9457-.5177.5177-1.3735.5177-1.8913 0-.2508-.2508-.3916-.591-.3916-.9457 0-.0648-.0161-.1054-.0355-.1325-.0222-.0311-.0534-.0549-.0893-.0681-.0099-.0036-.0196-.0075-.0293-.0118-.0349-.0154-.0735-.02-.1111-.0132-.0058.0011-.027.0048-.1163.076-.0084.0067-.0184.0149-.0297.0242-.0798.0655-.2291.1881-.4084.2625-.1623.0673-.3363.1019-.5121.1019-.1757 0-.3498-.0346-.5121-.1019-.4962-.2057-.8259-.6984-.8259-1.2361 0-.1757.0347-.3497.102-.5121.0746-.1801.1974-.3291.263-.4087.0093-.0113.0174-.0212.0241-.0295.0705-.0883.0742-.109.0755-.1159.0068-.0375.0022-.0765-.0131-.1114l-.0022-.0049c-.0147-.0342-.039-.0633-.07-.0839-.0474-.0314-.0883-.0366-.3113-.065l-.0036-.0004c-.20124-.0256-.52257-.0761-.80449-.358-.51775-.5177-.51775-1.3735 0-1.8913.27363-.2736.5897-.3272.78029-.3562.2173-.0332.2563-.0411.2979-.0709.0311-.0222.0548-.0534.068-.0893.0037-.0099.0076-.0196.0119-.0293.0154-.0349.0199-.0735.0131-.1111-.0015-.0086-.0052-.0291-.0747-.1158-.0067-.0083-.0148-.0181-.0241-.0293-.0655-.0791-.1886-.2278-.2638-.4093-.0673-.1623-.102-.3363-.102-.5121 0-.1757.0347-.3498.102-.5121.135-.3257.3982-.58891.7239-.72393.1624-.0673.3364-.10194.5121-.10194.1758 0 .3498.03464.5121.10194.1815.07524.3302.19834.4093.26381.0112.00932.021.01742.0293.02402.0867.0696.107.0732.1156.0748.102.0185.197-.03.2336-.0853.0315-.04743.0367-.08833.065-.31132l.0005-.00353c.0256-.20129.076-.52262.358-.80454z"/></svg>