<svg viewBox="0 0 20 20" xmlns="http://www.w3.org/2000/svg"><path d="m4.16667 3.25c-.50626 0-.91667.41041-.91667.91667v11.66663c0 .5063.41041.9167.91667.9167h11.66663c.5063 0 .9167-.4104.9167-.9167v-11.66663c0-.50626-.4104-.91667-.9167-.91667zm-2.41667.91667c0-1.33469 1.08198-2.41667 2.41667-2.41667h11.66663c1.3347 0 2.4167 1.08198 2.4167 2.41667v11.66663c0 1.3347-1.082 2.4167-2.4167 2.4167h-11.66663c-1.33469 0-2.41667-1.082-2.41667-2.4167zm4.16667 5.83333c0-.41421.33578-.75.75-.75h6.66663c.4142 0 .75.33579.75.75 0 .4142-.3358.75-.75.75h-6.66663c-.41422 0-.75-.3358-.75-.75z"/></svg>