<svg viewBox="0 0 20 20" xmlns="http://www.w3.org/2000/svg"><path d="m2.45783 2.45783c.45321-.45322 1.0679-.70783 1.70884-.70783h11.66663c.641 0 1.2557.25461 1.7089.70783.4532.45321.7078 1.0679.7078 1.70884v11.66663c0 .641-.2546 1.2557-.7078 1.7089s-1.0679.7078-1.7089.7078h-11.66663c-.64094 0-1.25563-.2546-1.70884-.7078-.45322-.4532-.70783-1.0679-.70783-1.7089v-11.66663c0-.64094.25461-1.25563.70783-1.70884zm1.70884.79217c-.24312 0-.47628.09658-.64818.26849-.17191.1719-.26849.40506-.26849.64818v11.66663c0 .2431.09658.4763.26849.6482.1719.1719.40506.2685.64818.2685h5.08333v-13.5zm6.58333 0v13.5h5.0833c.2431 0 .4763-.0966.6482-.2685s.2685-.4051.2685-.6482v-11.66663c0-.24312-.0966-.47628-.2685-.64818-.1719-.17191-.4051-.26849-.6482-.26849z"/></svg>