<svg viewBox="0 0 20 20" xmlns="http://www.w3.org/2000/svg"><path d="m14.0001 7.66666c.0023.87991-.2033 1.74792-.6 2.53334-.4704.9411-1.1935 1.7328-2.0883 2.2862-.8949.5534-1.92618.8467-2.97834.8471-.87991.0023-1.74792-.2033-2.53333-.6 0 0-1.26701.4222-2.53333.8445-1.26631.4222-1.26667.4222-.84444-.8445.42223-1.2666.84444-2.5333.84444-2.5333-.39671-.78542-.60229-1.65343-.6-2.53334.00041-1.05216.29374-2.08343.84715-2.9783.5534-.89486 1.34502-1.61798 2.28618-2.08836.90494-.45709 1.8658-.6 2.86666-.6 1.38961.07666 2.70201.66317 3.68611 1.64724 1.0669 1.06695 1.6472 2.51788 1.6472 4.01942z"/><path d="m14.4513 10.6518c.5039-.99763.7457-2.11405.7159-3.22569-.0023-.08607.0966-.13715.1624-.0815.4517.38262.8429.83548 1.1572 1.34375.5534.89487.8468 1.92614.8472 2.97834.0023.8799-.2033 1.7479-.6 2.5333l.8444 2.5333c.4223 1.2667.4219 1.2667-.8444.8445-1.2663-.4223-2.5334-.8445-2.5334-.8445-.7854.3967-1.6534.6023-2.5333.6-1.0521-.0004-2.08341-.2937-2.97828-.8471-.89486-.5534-1.61798-1.3451-2.08836-2.2862-.00725-.0144.00599-.0304.0215-.0262.57205.1543 1.16402.2325 1.76057.231 1.26022-.0005 2.49537-.3519 3.56727-1.0147 1.0718-.6628 1.9379-1.611 2.5013-2.7383z"/></svg>