<svg viewBox="0 0 20 20" xmlns="http://www.w3.org/2000/svg"><path d="m7.91505 1.271c-1.49982.09513-2.9177.71747-4.003 1.757-.99257.94523-1.65751 2.18262-1.898 3.532-.056.311-.066.474-.067 1.1-.001.63.008.787.064 1.095.076.418.176.773.335 1.19699l.113.30101-.488 1.471c-.548 1.654-.594 1.849-.511 2.168.115.442.412.664.89.666.315.001.432-.031 2.007-.553l1.399-.464.314.123c.365.144.871.277 1.32.348.446.071 1.427.07 1.89-.001 1.35535-.2087 2.61015-.8405 3.58495-1.805 1.007-.997 1.697-2.44 1.844-3.856.0391-.4742.0391-.95081 0-1.425-.307-2.756-2.349-4.984-5.08395-5.549-.39127-.0726-.78733-.11639-1.185-.131-.091.002-.327.014-.525.026zm1.335 1.555c.84765.16207 1.63815.54332 2.29275 1.10579.6546.56248 1.1504 1.28656 1.4382 2.10021.209.6.244.838.243 1.628-.001.66599-.005.72499-.085 1.065-.451 1.922-1.921 3.361-3.84395 3.764-.5061.0875-1.02144.1087-1.533.063-.50464-.0603-.99685-.1986-1.459-.41-.489-.22-.413-.23-1.863.255-.69.23-1.249.403-1.242.384.008-.02.191-.57.408-1.223.476-1.434.467-1.361.231-1.912-.341-.797-.461-1.492-.403-2.339.046-.667.19-1.186.507-1.822.252-.507.523-.893.884-1.25801.79947-.81206 1.85289-1.32589 2.985-1.45599.339-.041 1.076-.013 1.44.055zm6.60395 4.565c-.1858.08366-.3447.2173-.459.386-.0646.09277-.0947.20531-.085.318 0 .204.002.209.426.831.627.922.905 1.958.831 3.099-.039.5897-.1868 1.1671-.436 1.703-.201.448-.206.414.273 1.85.223.667.401 1.217.396 1.222-.4096-.1247-.817-.2567-1.222-.396-1.428-.476-1.402-.472-1.834-.28-.609.27-1.137.406-1.714.443-1.45.092-2.73395-.378-3.79195-1.388-.419-.4-.501-.451-.728-.451-.202 0-.36.076-.547.264-.248.248-.305.496-.178.78.13.292.949 1.013 1.569 1.382.998.594 1.94695.873 3.08895.907.965.03 1.758-.101 2.553-.42l.249-.099 1.427.472c1.626.539 1.846.594 2.156.538.57-.101.839-.559.708-1.205-.028-.139-.263-.893-.522-1.677l-.472-1.425.099-.249c.2-.498.342-1.083.402-1.658.044-.426.019-1.357-.048-1.723-.1602-.94141-.5266-1.83575-1.073-2.619-.418-.606-.707-.76901-1.068-.605z"/></svg>