<svg viewBox="0 0 20 20" xmlns="http://www.w3.org/2000/svg"><path d="m18.5 9.52779c.0032 1.24651-.288 2.47621-.85 3.58891-.6664 1.3333-1.6908 2.4547-2.9585 3.2387-1.2678.784-2.7287 1.1996-4.2193 1.2002-1.24653.0032-2.47621-.288-3.58888-.85l-4.43464 1.4782c-.39087.1303-.76275-.2416-.63245-.6325l1.47821-4.4346c-.56201-1.1127-.85325-2.3424-.85-3.58891.00058-1.49056.41614-2.95152 1.20012-4.21925.78399-1.26773 1.90545-2.29215 3.23876-2.95851 1.11267-.56201 2.34235-.85325 3.58888-.85h.4722c1.9686.1086 3.8279.93949 5.222 2.33358s2.225 3.25341 2.3336 5.22196z"/></svg>