<svg viewBox="0 0 20 20" xmlns="http://www.w3.org/2000/svg"><path d="m9.72976 1.78102c-1.01126.0915-1.99479.38028-2.895.85-.96921.49095-1.82279 1.18262-2.504 2.029-1.204 1.51-1.793 3.27-1.731 5.175.019.59998.063.95098.188 1.50998.079.353.282.977.416 1.28l.077.175-.769 2.31c-.7 2.102-.768 2.322-.752 2.455.033.278.193.542.392.646.217.113.28.097 2.741-.724l2.306-.768.176.077c.507.224 1.258.435 1.92.539.475.075 1.41804.091 1.93104.033 1.2706-.1261 2.4892-.5694 3.544-1.289 1.174-.781 2.017-1.743 2.655-3.034.3753-.7293.6252-1.5167.739-2.329.09-.584.098-1.75398.017-2.27598-.539-3.454-3.162-6.086-6.591-6.615-.372-.058-1.443-.083-1.86004-.044zm1.83004 1.559c1.2692.22593 2.4371.83977 3.343 1.757.932.931 1.505 2.025 1.761 3.358.061.316.07.45.069 1.095-.001.63898-.01.78398-.07 1.10998-.363 1.954-1.564 3.606-3.283 4.516-.5896.3125-1.2236.5324-1.88.652-.466.088-1.65504.096-2.10004.014-.56465-.0958-1.11388-.267-1.633-.509-.504-.229-.371-.252-2.351.409-.93.31-1.697.557-1.706.548s.243-.794.56-1.746c.661-1.985.63-1.799.391-2.324-.23853-.5154-.40767-1.0601-.503-1.62-.074-.404-.074-1.62998.002-2.03998.243-1.32.804-2.433 1.697-3.368.995-1.043 2.421-1.745 3.888-1.914.39804-.045 1.43404-.01 1.81504.062z"/></svg>