<svg viewBox="0 0 20 20" xmlns="http://www.w3.org/2000/svg"><path d="m9.99935 2.41663c-4.18816 0-7.58333 3.39517-7.58333 7.58333 0 4.18814 3.39517 7.58334 7.58333 7.58334 4.18815 0 7.58335-3.3952 7.58335-7.58334 0-4.18816-3.3952-7.58333-7.58335-7.58333zm-9.083334 7.58333c0-5.01659 4.066744-9.083334 9.083334-9.083334 5.01655 0 9.08335 4.066744 9.08335 9.083334 0 5.01654-4.0668 9.08334-9.08335 9.08334-5.01659 0-9.083334-4.0668-9.083334-9.08334zm13.146984-4.06366c.2009.20087.271.498.1812.7675l-1.7667 5.3c-.0746.2239-.2504.3997-.4743.4743l-5.30001 1.7667c-.2695.0898-.56663.0197-.7675-.1812-.20088-.2009-.27102-.498-.18119-.7675l1.76667-5.29998c.07465-.22395.25039-.39969.47434-.47434l5.29999-1.76667c.2695-.08983.5666-.01969.7675.18119zm-5.23739 2.88992-1.17374 3.52118 3.52123-1.1737 1.1737-3.52122z"/></svg>