<svg viewBox="0 0 20 20" xmlns="http://www.w3.org/2000/svg"><path d="m3.33268 2.41663c-.24311 0-.47627.09657-.64818.26848s-.26848.40507-.26848.64818v7.50001c0 .2431.09657.4763.26848.6482s.40507.2685.64818.2685h.83334c.41421 0 .75.3357.75.75 0 .4142-.33579.75-.75.75h-.83334c-.64094 0-1.25563-.2547-1.70884-.7079s-.707824-1.0679-.707824-1.7088v-7.50001c0-.64094.254614-1.25563.707824-1.70884s1.0679-.707824 1.70884-.707824h7.50002c.6409 0 1.2556.254614 1.7088.707824s.7078 1.0679.7078 1.70884v.83334c0 .41421-.3357.75-.75.75-.4142 0-.75-.33579-.75-.75v-.83334c0-.24311-.0965-.47627-.2684-.64818s-.4051-.26848-.6482-.26848zm5.83334 5.83333c-.50627 0-.91667.41041-.91667.91667v7.49997c0 .5063.4104.9167.91667.9167h7.49998c.5063 0 .9167-.4104.9167-.9167v-7.49997c0-.50626-.4104-.91667-.9167-.91667zm-2.41667.91667c0-1.33469 1.08198-2.41667 2.41667-2.41667h7.49998c1.3347 0 2.4167 1.08198 2.4167 2.41667v7.49997c0 1.3347-1.082 2.4167-2.4167 2.4167h-7.49998c-1.33469 0-2.41667-1.082-2.41667-2.4167z"/></svg>