<svg viewBox="0 0 20 20" xmlns="http://www.w3.org/2000/svg"><path d="m2.50065 4.08331c-.50626 0-.91667.41041-.91667.91667v2.58333h16.83332v-2.58333c0-.50626-.4104-.91667-.9166-.91667zm17.41665.91667c0-1.33469-1.082-2.41667-2.4166-2.41667h-15.00005c-1.33469 0-2.4166656 1.08198-2.4166656 2.41667v10.00002c0 1.3347 1.0819756 2.4166 2.4166656 2.4166h15.00005c1.3346 0 2.4166-1.0819 2.4166-2.4166zm-1.5 4.08333h-16.83332v5.91669c0 .5062.41041.9166.91667.9166h15.00005c.5062 0 .9166-.4104.9166-.9166z" fill-rule="evenodd"/></svg>