<svg viewBox="0 0 20 20" xmlns="http://www.w3.org/2000/svg"><path d="m5.11548.0834028c.4142.0035897.74707.3422732.74348.7564712l-.03012 3.475186 7.50516-.06505c.6409 0 1.2556.25464 1.7088.70786.4532.45321.7079 1.0679.7079 1.70884v7.58329h3.4166c.4142 0 .75.3358.75.75 0 .4143-.3358.75-.75.75h-3.4166v3.4167c0 .4142-.3358.75-.75.75-.4143 0-.75-.3358-.75-.75v-3.4167h-7.58338c-.64094 0-1.25563-.2546-1.70884-.7078-.45322-.4532-.70783-1.0679-.70783-1.7088v-.0065l.06502-7.49867-3.475185.03012c-.414198.00359-.7528822-.32928-.7564719-.74348-.0035897-.41419.3292739-.75288.7434719-.75647l3.501185-.03034.03034-3.501185c.00359-.414198.34228-.747062.75647-.7434722zm.70036 5.7318272-.06518 7.52087c.00073.2422.09722.4742.26848.6455.17191.1719.40506.2684.64818.2684h7.58338v-7.58329c0-.24312-.0966-.47628-.2685-.64818-.1713-.17126-.4033-.26775-.6454-.26848z"/></svg>