<svg viewBox="0 0 20 20" xmlns="http://www.w3.org/2000/svg"><path d="m5 3.25c-.9665 0-1.75.7835-1.75 1.75s.7835 1.75 1.75 1.75c.46627 0 .88995-.18235 1.20361-.47963.01025-.01159.02092-.02295.03201-.03404.01117-.01116.02259-.0219.03427-.03221.29756-.31372.48011-.7376.48011-1.20412 0-.9665-.7835-1.75-1.75-1.75zm2.76646 3.4565c.30659-.49597.48354-1.08057.48354-1.7065 0-1.79493-1.45507-3.25-3.25-3.25s-3.25 1.45507-3.25 3.25 1.45507 3.25 3.25 3.25c.62556 0 1.20984-.17674 1.70563-.483l2.233 2.233-2.233 2.233c-.49579-.3063-1.08007-.483-1.70563-.483-1.79493 0-3.25 1.4551-3.25 3.25s1.45507 3.25 3.25 3.25 3.25-1.4551 3.25-3.25c0-.6259-.17695-1.2105-.48355-1.7065l9.42985-9.42984c.2929-.29289.2929-.76776 0-1.06066-.2929-.29289-.7678-.29289-1.0607 0l-6.13631 6.13634zm-1.56282 7.0232c.01024.0115.0209.0229.03198.034.01116.0111.02258.0218.03424.0322.29758.3137.48014.7376.48014 1.2041 0 .9665-.7835 1.75-1.75 1.75s-1.75-.7835-1.75-1.75.7835-1.75 1.75-1.75c.46628 0 .88997.1824 1.20364.4797zm5.32446-2.1929c.2926-.2931.7675-.2936 1.0607-.0009l4.6083 4.6c.2932.2926.2936.7675.001 1.0606-.2927.2932-.7675.2936-1.0607.001l-4.6083-4.6c-.2932-.2926-.2936-.7675-.001-1.0607z" fill-rule="evenodd"/></svg>