<svg viewBox="0 0 20 20" xmlns="http://www.w3.org/2000/svg"><path d="m.820319 12.4995c.000236-5.06989 4.110041-9.17955 9.179981-9.17955 5.0698 0 9.1795 4.11032 9.18 9.17995.0005.4053-.0259.8092-.0787 1.2092-.2482 1.8804-2.0267 2.8708-3.6827 2.8708h-5.4092-.02005-5.4077c-1.65612 0-3.43468-.9906-3.682906-2.8711-.052803-.4-.079224-.8039-.078725-1.2093zm9.179981-7.81955c4.3187 0 7.8195 3.50138 7.82 7.81995.0005.3453-.022.6904-.067 1.0312-.1292.9789-1.1063 1.6888-2.3344 1.6888h-4.148l3.5452-5.31776c.2083-.31248.1239-.73467-.1886-.94299s-.7347-.12388-.943.1886l-4.04812 6.07215h-5.05443c-1.22819 0-2.20536-.71-2.3346-1.689-.04498-.3407-.06747-.6848-.06703-1.0301v-.0013c.00025-4.31881 3.50116-7.81955 7.81998-7.81955z" fill-rule="evenodd"/></svg>