<svg viewBox="0 0 20 20" xmlns="http://www.w3.org/2000/svg"><path d="m3.33464 3.25c-.50627 0-.91667.41041-.91667.91667v8.33333c0 .5063.4104.9167.91667.9167h13.33336c.5062 0 .9166-.4104.9166-.9167v-8.33333c0-.50626-.4104-.91667-.9166-.91667zm-2.416671.91667c0-1.33469 1.081981-2.41667 2.416671-2.41667h13.33336c1.3347 0 2.4166 1.08198 2.4166 2.41667v8.33333c0 1.3347-1.0819 2.4167-2.4166 2.4167h-5.9175v1.8333h2.5841c.4142 0 .75.3358.75.75s-.3358.75-.75.75h-3.2988c-.0117.0005-.0235.0008-.0353.0008-.01183 0-.02359-.0003-.03528-.0008h-3.29725c-.41421 0-.75-.3358-.75-.75s.33579-.75.75-.75h2.58252v-1.8333h-5.91585c-1.33469 0-2.416671-1.082-2.416671-2.4167z"/></svg>