<svg viewBox="0 0 20 20" xmlns="http://www.w3.org/2000/svg"><path d="m10 1.75c.4142 0 .75.33579.75.75v8.1893l2.8863-2.8863c.2929-.29289.7678-.29289 1.0607 0 .2929.2929.2929.76777 0 1.06066l-4.1667 4.16664c-.1406.1407-.3314.2197-.5303.2197-.19891 0-.38968-.079-.53033-.2197l-4.16667-4.16664c-.29289-.29289-.29289-.76776 0-1.06066.2929-.29289.76777-.29289 1.06066 0l2.88634 2.8863v-8.1893c0-.41421.33579-.75.75-.75zm-7.5 10c.41421 0 .75.3358.75.75v3.3333c0 .2431.09658.4763.26849.6482.1719.1719.40506.2685.64818.2685h11.66663c.2431 0 .4763-.0966.6482-.2685s.2685-.4051.2685-.6482v-3.3333c0-.4142.3358-.75.75-.75s.75.3358.75.75v3.3333c0 .641-.2546 1.2557-.7078 1.7089s-1.0679.7078-1.7089.7078h-11.66663c-.64094 0-1.25563-.2546-1.70884-.7078-.45322-.4532-.70783-1.0679-.70783-1.7089v-3.3333c0-.4142.33579-.75.75-.75z"/></svg>