<svg viewBox="0 0 20 20" xmlns="http://www.w3.org/2000/svg"><path d="m9.99935 2.41669c-4.18816 0-7.58333 3.39517-7.58333 7.58331 0 4.1882 3.39517 7.5834 7.58333 7.5834 4.18815 0 7.58335-3.3952 7.58335-7.5834 0-4.18814-3.3952-7.58331-7.58335-7.58331zm-9.083334 7.58331c0-5.01657 4.066744-9.083313 9.083334-9.083313 5.01655 0 9.08335 4.066743 9.08335 9.083313 0 5.0166-4.0668 9.0834-9.08335 9.0834-5.01659 0-9.083334-4.0668-9.083334-9.0834zm9.083334-4.08331c.41425 0 .74995.33578.74995.75v4.85601l2.0531-2.05301c.2928-.29289.7677-.29289 1.0606 0s.2929.76781 0 1.06061l-3.3333 3.3334c-.1407.1406-.3314.2197-.53035.2197-.19891 0-.38968-.0791-.53033-.2197l-3.33333-3.3334c-.2929-.2928-.2929-.76772 0-1.06061.29289-.29289.76776-.29289 1.06066 0l2.053 2.05301v-4.85601c0-.41422.33578-.75.75-.75z"/></svg>