<svg viewBox="0 0 20 20" xmlns="http://www.w3.org/2000/svg"><path d="m3.54094 3.5402c1.71322-1.71322 4.03685-2.675698 6.45976-2.675698 2.4228 0 4.7464.962478 6.4597 2.675698 1.7132 1.71323 2.6757 4.03686 2.6757 6.45972 0 2.42288-.9625 4.74648-2.6757 6.45968-1.7133 1.7133-4.0369 2.6757-6.4597 2.6757-2.42291 0-4.74654-.9624-6.45976-2.6757-1.71323-1.7132-2.675706-4.0368-2.675706-6.45968 0-2.42286.962476-4.74649 2.675706-6.45972zm3.12269-.40788c-.75725.36793-1.45542.86193-2.06203 1.46854-1.04297 1.04297-1.75305 2.3566-2.06185 3.77579 2.90383-.15211 5.15982-.41907 6.99298-.90194-.81399-1.48112-1.76267-2.91863-2.8691-4.34239zm1.4777-.538c1.09505 1.44691 2.03687 2.91076 2.84717 4.41767 1.631-.62047 2.904-1.49661 4.0386-2.75966-1.3872-1.21326-3.1721-1.88783-5.0264-1.88783-.63224 0-1.25634.0784-1.85937.22982zm7.91537 2.75543c-1.238 1.35173-2.6406 2.31918-4.3856 3.00639.1887.39415.3692.79166.5417 1.19295 1.5731-.22069 3.3444-.12554 5.4207.25092-.0424-1.61928-.5984-3.17615-1.5768-4.45026zm1.467 5.95525c-1.8732-.3503-3.4115-.4502-4.7311-.3154.632 1.682 1.1392 3.4364 1.5466 5.2934.3769-.2603.7321-.5556 1.0605-.884 1.1205-1.1205 1.8568-2.5534 2.124-4.094zm-4.5573 5.7308c-.4274-2.0446-.9733-3.9523-1.6732-5.7688-2.24458.6229-3.98446 2.1398-5.95361 4.7806 1.32841 1.0239 2.96567 1.5877 4.66111 1.5877 1.0286 0 2.0359-.2075 2.9657-.5995zm-8.7255-2.0234c1.97737-2.6242 3.90572-4.375 6.4764-5.14057-.1535-.3479-.3133-.69275-.4796-1.03489-2.10471.59625-4.65753.89146-7.87164 1.05053-.00055.03745-.00083.07494-.00083.11245 0 1.84818.67007 3.62728 1.87567 5.01248z"/></svg>