<svg viewBox="0 0 20 20" xmlns="http://www.w3.org/2000/svg"><path d="m5.3331 2.63009c.24336-.16678.56421-.16678.80757 0l3.8582 2.64404 3.85823-2.64405c.2434-.16677.5642-.16677.8076.00001l4.2608 2.91998c.1943.13318.3105.35362.3105.58921 0 .23558-.1162.45602-.3105.5892l-3.4048 2.33331 3.4048 2.33331c.1943.1332.3105.3536.3105.5892s-.1162.456-.3105.5892l-4.2608 2.9201c-.2434.1667-.5642.1667-.8076 0l-3.85823-2.6441-3.8582 2.6441c-.24336.1667-.56422.1667-.80758 0l-4.26088-2.9201c-.194327-.1332-.310493-.3536-.310491-.5892.000001-.2356.116168-.456.310501-.5892l3.40478-2.33331-3.40478-2.33331c-.194334-.13318-.310501-.35361-.310501-.5892s.116167-.45603.310501-.58921zm.40378 7.30015-2.99733 2.05406 2.99733 2.0541 2.99732-2.0541zm4.26199 1.18896-3.00211-2.05741 3.00211-2.05736 3.00213 2.05736zm1.26463.8651 2.9974 2.0541 2.9973-2.0541-2.9973-2.05406zm2.9974-3.79095 2.9972-2.05407-2.9972-2.05407-2.9973 2.05407zm-5.5267-2.05407-2.99732-2.05407-2.99732 2.05407 2.99732 2.05408zm-2.00982 9.50372c.22301-.3254.66758-.4084.99299-.1854l2.28403 1.5653 2.2841-1.5653c.3254-.223.77-.14.993.1854s.14.77-.1854.993l-2.6879 1.842c-.2433.1668-.56419.1668-.80755 0l-2.68785-1.842c-.32541-.223-.40842-.6676-.18542-.993z"/></svg>