<svg viewBox="0 0 20 20" xmlns="http://www.w3.org/2000/svg"><path d="m16.666 2.31494c-.2699 0-.5288.10723-.7197.2981l-7.76973 7.76976-.47978 1.9191 1.91912-.4797 7.76979-7.76982c.1909-.19087.2981-.44974.2981-.71967s-.1072-.5288-.2981-.71967-.4498-.2981-.7197-.2981zm-1.7803-.76256c.4722-.47217 1.1126-.737439 1.7803-.737439.6678 0 1.3082.265269 1.7803.737439.4722.47217.7375 1.11258.7375 1.78033s-.2653 1.30816-.7375 1.78033l-7.9166 7.91666c-.0961.0961-.2166.1643-.3484.1973l-3.33338.8333c-.25558.0639-.52595-.011-.71223-.1973-.18629-.1862-.26118-.4566-.19728-.7122l.83333-3.33333c.03297-.13187.10116-.25231.19728-.34842zm-13.26186 1.73796c.45321-.45321 1.0679-.70782 1.70884-.70782h5.83334c.41421 0 .75.33579.75.75s-.33579.75-.75.75h-5.83334c-.24311 0-.47627.09658-.64818.26849-.17191.1719-.26848.40506-.26848.64818v11.66671c0 .2431.09657.4762.26848.6481s.40507.2685.64818.2685h11.66662c.2432 0 .4763-.0966.6482-.2685s.2685-.405.2685-.6481v-5.8334c0-.4142.3358-.75.75-.75s.75.3358.75.75v5.8334c0 .6409-.2546 1.2556-.7078 1.7088s-1.0679.7078-1.7089.7078h-11.66662c-.64094 0-1.25563-.2546-1.70884-.7078s-.707824-1.0679-.707824-1.7088v-11.66671c0-.64094.254614-1.25563.707824-1.70885z"/></svg>