<svg viewBox="0 0 20 20" xmlns="http://www.w3.org/2000/svg"><path d="m4.16596 3.1751c-.54764 0-.99159.44395-.99159.99159v11.66671c0 .5476.44395.9916.99159.9916h11.66664c.5477 0 .9916-.444.9916-.9916v-11.66671c0-.54764-.4439-.99159-.9916-.99159zm-2.34174.99159c0-1.29331 1.04843-2.34174 2.34174-2.34174h11.66664c1.2933 0 2.3418 1.04843 2.3418 2.34174v11.66671c0 1.2933-1.0485 2.3417-2.3418 2.3417h-11.66664c-1.29331 0-2.34174-1.0484-2.34174-2.3417zm11.32388 2.00841c-.1795 0-.3518.07133-.4787.1983l-5.92314 5.9231-.31917 1.2767 1.27668-.3192 5.92313-5.92308c.127-.12698.1983-.29919.1983-.47876s-.0713-.35178-.1983-.47876c-.127-.12697-.2992-.1983-.4788-.1983zm-1.4334-.75639c.3802-.38018.8958-.59376 1.4334-.59376.5377 0 1.0533.21358 1.4335.59376.3802.38017.5937.8958.5937 1.43345s-.2135 1.05328-.5937 1.43345l-6.05535 6.05529c-.08651.0866-.19492.1479-.31362.1776l-2.54961.6374c-.23005.0575-.4734-.0099-.64108-.1775-.16767-.1677-.23508-.4111-.17757-.6411l.63741-2.5496c.02967-.1187.09105-.2271.17757-.3137z"/></svg>