<svg viewBox="0 0 20 20" xmlns="http://www.w3.org/2000/svg"><path d="m10.1667 3.41693c.2278 0 .4433.10357.5856.28148l6.6667 8.33329c.1801.2252.2152.5336.0903.7935-.1249.2598-.3877.4251-.676.4251h-13.33329c-.28831 0-.55109-.1653-.67598-.4251-.12489-.2599-.08978-.5683.09033-.7935l6.66666-8.33329c.14233-.17791.35782-.28148.58568-.28148zm0 1.95059-5.10622 6.38278h10.21242zm-7.41669 10.46548c0-.4142.33578-.75.75-.75h13.32999c.4142 0 .75.3358.75.75s-.3358.75-.75.75h-13.32999c-.41422 0-.75-.3358-.75-.75z"/></svg>