<svg viewBox="0 0 20 20" xmlns="http://www.w3.org/2000/svg"><path d="m8.33398 4.16667c0-.92048.7462-1.66667 1.66672-1.66667.9204 0 1.6666.74619 1.6666 1.66667 0 .92047-.7462 1.66666-1.6666 1.66666-.92052 0-1.66672-.74619-1.66672-1.66666zm0 5.83333c0-.92047.7462-1.66667 1.66672-1.66667.9204 0 1.6666.7462 1.6666 1.66667 0 .9205-.7462 1.6667-1.6666 1.6667-.92052 0-1.66672-.7462-1.66672-1.6667zm0 5.8333c0-.9204.7462-1.6666 1.66672-1.6666.9204 0 1.6666.7462 1.6666 1.6666 0 .9205-.7462 1.6667-1.6666 1.6667-.92052 0-1.66672-.7462-1.66672-1.6667z"/></svg>