<svg viewBox="0 0 20 20" xmlns="http://www.w3.org/2000/svg"><path d="m2.5 10c0-.92043.74619-1.66663 1.66667-1.66663.92047 0 1.66666.7462 1.66666 1.66663 0 .9205-.74619 1.6667-1.66666 1.6667-.92048 0-1.66667-.7462-1.66667-1.6667zm5.83333 0c0-.92043.7462-1.66663 1.66667-1.66663.9205 0 1.6667.7462 1.6667 1.66663 0 .9205-.7462 1.6667-1.6667 1.6667-.92047 0-1.66667-.7462-1.66667-1.6667zm5.83337 0c0-.92043.7462-1.66663 1.6666-1.66663.9205 0 1.6667.7462 1.6667 1.66663 0 .9205-.7462 1.6667-1.6667 1.6667-.9204 0-1.6666-.7462-1.6666-1.6667z"/></svg>