<svg viewBox="0 0 20 20" xmlns="http://www.w3.org/2000/svg"><path d="m2.48553 4.65678 7.51577 5.26104 7.5158-5.26104c-.1372-.33478-.4677-.57347-.8491-.57347h-13.33336c-.38142 0-.71198.23869-.84911.57347zm15.09907 1.78369-7.1532 5.00723c-.2582.1808-.60196.1808-.86019 0l-7.15324-5.00723v8.55953c0 .5024.41421.9166.91667.9166h13.33336c.5024 0 .9166-.4142.9166-.9166zm-16.666631-1.44049c0-1.33088 1.085781-2.41667 2.416671-2.41667h13.33336c1.3308 0 2.4166 1.08579 2.4166 2.41667v10.00002c0 1.3309-1.0858 2.4166-2.4166 2.4166h-13.33336c-1.33089 0-2.416671-1.0857-2.416671-2.4166z"/></svg>