<svg viewBox="0 0 20 20" xmlns="http://www.w3.org/2000/svg"><path d="m10.9872 1.27195c-.464.041-.785.19-1.39201.645-1.99 1.49-5.46 4.803-7.367 7.033-.993 1.15995-1.151 1.46295-1.152 2.20495-.002.678.162 1.019.884 1.845.743.849 2.291 2.415 2.648 2.68.18.134.474.258.724.305.199.039.43.041 1.603.015.753-.016 2.099-.03 2.99-.03 1.77601-.001 1.86501-.008 2.19701-.176.515-.26 3.804-3.506 5.183-5.115 1.089-1.27095 1.271-1.62295 1.238-2.39895-.025-.602-.189-.946-.774-1.626-1.245-1.447-3.597-3.713-4.964-4.783-.632-.494-1.136-.66-1.818-.599zm.554 1.543c.195.082 1.15.882 2.059 1.727 1.453 1.35 3.221 3.204 3.392 3.558.065.133.08.293.043.458-.037.17-.601.869-1.51 1.87295-.574.634-2.622 2.683-3.46 3.462l-.621.577h-1.194c-.65701 0-1.96801.014-2.91201.031-1.584.029-1.724.027-1.815-.019-.187-.096-1.705-1.637-2.464-2.502-.387-.44-.499-.629-.498-.84 0-.194.074-.331.389-.72 1.443-1.78395 4.548-4.86295 6.69-6.63395.44001-.364 1.12601-.887 1.24401-.949.1012-.05146.2125-.0801.326-.08391.1136-.0038.2265.01733.331.06191zm-7.62601 14.08695c-.341.067-.514.311-.515.72 0 .339.109.543.36.677.101.054.347.056 7.34901.064 8.082.008 7.457.025 7.66-.201.127-.14.171-.278.171-.542 0-.361-.103-.554-.359-.672l-.136-.063-7.2-.004c-3.96001-.003-7.25901.007-7.33001.021z"/></svg>