<svg viewBox="0 0 20 20" xmlns="http://www.w3.org/2000/svg"><path d="m13.9979 2.75003c.6458-.00193 1.2872.10517 1.8973.31681.3913.13576.8186-.07143.9544-.46277.1357-.39134-.0715-.81863-.4628-.95438-.7756-.26906-1.5914-.40418-2.4123-.39958-.0101.00006-.0202.00032-.0303.00078-2.2192.10209-4.3077 1.07873-5.80887 2.71636-.86167.94-1.48958 2.0539-1.851 3.25213h-2.91714c-.41422 0-.75.33579-.75.75 0 .41422.33578.75.75.75h2.61037c-.0454.40923-.0609.82357-.04538 1.2399-.01552.41622-.00002.83052.04536 1.23972h-2.61035c-.41422 0-.75.3358-.75.75s.33578.75.75.75h2.91707c.36141 1.1983.98935 2.3123 1.85108 3.2523 1.50117 1.6377 3.58966 2.6143 5.80886 2.7164.0107.0005.0213.0008.032.0008 1.0154.0034 2.0208-.2027 2.953-.6054.3802-.1642.5554-.6056.3911-.9859-.1642-.3802-.6056-.5553-.9859-.3911-.738.3188-1.5335.4829-2.3373.4824-1.8171-.0878-3.5264-.8893-4.75603-2.2308-.60295-.6577-1.06659-1.4191-1.37427-2.2387h3.4596c.4142 0 .75-.3358.75-.75s-.3358-.75-.75-.75h-3.83763c-.05389-.3979-.0733-.8024-.05664-1.20903.00084-.02045.00084-.04092 0-.06137-.01666-.40673.00276-.81124.05667-1.20922h3.8376c.4142 0 .75-.33578.75-.75 0-.41421-.3358-.75-.75-.75h-3.45951c.30768-.81951.77127-1.58084 1.37417-2.23855 1.22984-1.3416 2.93944-2.14319 4.75684-2.2308z"/></svg>