<svg viewBox="0 0 20 20" xmlns="http://www.w3.org/2000/svg"><path d="m13.8979 1.46967c.2929-.29289.7678-.29289 1.0607 0l3.5355 3.53553c.1406.14066.2197.33142.2197.53033 0 .19892-.0791.38968-.2197.53033l-3.5355 3.53554c-.2929.29289-.7678.29289-1.0607 0-.2929-.2929-.2929-.76777 0-1.06066l2.2556-2.25558h-14.02264c-.41421 0-.75-.33579-.75-.75 0-.41422.33579-.75.75-.75h14.02184l-2.2548-2.25483c-.2929-.29289-.2929-.76777 0-1.06066zm-7.70107 9.00003c.2929.2929.2929.7677 0 1.0606l-2.25482 2.2549h14.02189c.4142 0 .75.3357.75.75 0 .4142-.3358.75-.75.75h-14.02265l2.25558 2.2555c.2929.2929.2929.7678 0 1.0607-.29289.2929-.76776.2929-1.06066 0l-3.53553-3.5355c-.29289-.2929-.29289-.7678 0-1.0607l3.53553-3.5355c.2929-.2929.76777-.2929 1.06066 0z"/></svg>