<svg viewBox="0 0 20 20" xmlns="http://www.w3.org/2000/svg"><path d="m10.0007 2.50004c-4.14219 0-7.50005 3.35786-7.50005 7.49996 0 4.1422 3.35786 7.5 7.50005 7.5 4.1421 0 7.5-3.3578 7.5-7.5 0-4.1421-3.3579-7.49996-7.5-7.49996zm-9.166716 7.49996c0-5.06257 4.104056-9.166626 9.166716-9.166626 5.0626 0 9.1666 4.104056 9.1666 9.166626 0 5.0627-4.104 9.1667-9.1666 9.1667-5.06266 0-9.166716-4.104-9.166716-9.1667zm9.166716-4.16663c.4602 0 .8333.3731.8333.83334v3.33329c0 .4603-.3731.8334-.8333.8334-.46029 0-.83338-.3731-.83338-.8334v-3.33329c0-.46024.37309-.83334.83338-.83334zm-.83338 7.50003c0-.4603.37309-.8334.83338-.8334h.0083c.4602 0 .8333.3731.8333.8334 0 .4602-.3731.8333-.8333.8333h-.0083c-.46029 0-.83338-.3731-.83338-.8333z"/></svg>