<svg viewBox="0 0 20 20" xmlns="http://www.w3.org/2000/svg"><path d="m.833984 10c0-5.06257 4.104056-9.166626 9.166716-9.166626 5.0626 0 9.1666 4.104056 9.1666 9.166626 0 5.0627-4.104 9.1667-9.1666 9.1667-5.06266 0-9.166716-4.104-9.166716-9.1667zm10.000616-3.33335c0-.46024-.3731-.83334-.8333-.83334-.46023 0-.83333.3731-.83333.83334v3.33333c0 .46022.3731.83332.83333.83332.4602 0 .8333-.3731.8333-.83332zm-.8333 5.83335c-.46023 0-.83333.3731-.83333.8333 0 .4603.3731.8333.83333.8333h.0083c.4603 0 .8334-.373.8334-.8333 0-.4602-.3731-.8333-.8334-.8333z"/></svg>