<svg viewBox="0 0 20 20" xmlns="http://www.w3.org/2000/svg"><path d="m4.16667 3.25c-.50626 0-.91667.41041-.91667.91667v11.66663c0 .5063.41041.9167.91667.9167h11.66663c.5063 0 .9167-.4104.9167-.9167v-11.66663c0-.50626-.4104-.91667-.9167-.91667zm-2.41667.91667c0-1.33469 1.08198-2.41667 2.41667-2.41667h11.66663c1.3347 0 2.4167 1.08198 2.4167 2.41667v11.66663c0 1.3347-1.082 2.4167-2.4167 2.4167h-11.66663c-1.33469 0-2.41667-1.082-2.41667-2.4167zm6.66699 1.5967c0-.41422.33579-.75.75-.75h5.00001c.4142 0 .75.33578.75.75v5.00003c0 .4142-.3358.75-.75.75s-.75-.3358-.75-.75v-3.18942l-6.72001 6.71972c-.2929.2929-.76777.2929-1.06066 0s-.29288-.7678.00002-1.0607l6.71995-6.71963h-3.18931c-.41421 0-.75-.33579-.75-.75z"/></svg>