<svg viewBox="0 0 20 20" xmlns="http://www.w3.org/2000/svg"><path d="m11.75 2.5c0-.41421.3358-.75.75-.75h5c.4142 0 .75.33579.75.75v5c0 .41421-.3358.75-.75.75s-.75-.33579-.75-.75v-3.18934l-7.88634 7.88634c-.29289.2929-.76776.2929-1.06066 0-.29289-.2929-.29289-.7678 0-1.0607l7.8863-7.8863h-3.1893c-.4142 0-.75-.33579-.75-.75zm-7.58333 3.25c-.24312 0-.47628.09658-.64818.26849-.17191.1719-.26849.40506-.26849.64818v9.16663c0 .2431.09658.4763.26849.6482.1719.1719.40506.2685.64818.2685h9.16663c.2431 0 .4763-.0966.6482-.2685s.2685-.4051.2685-.6482v-5c0-.4142.3358-.75.75-.75s.75.3358.75.75v5c0 .641-.2546 1.2557-.7078 1.7089s-1.0679.7078-1.7089.7078h-9.16663c-.64094 0-1.25563-.2546-1.70884-.7078-.45322-.4532-.70783-1.0679-.70783-1.7089v-9.16663c0-.64094.25461-1.25563.70783-1.70884.45321-.45322 1.0679-.70783 1.70884-.70783h5c.41421 0 .75.33579.75.75s-.33579.75-.75.75z"/></svg>