<svg viewBox="0 0 20 20" xmlns="http://www.w3.org/2000/svg"><path d="m1.36431.302983c-.29289-.2928933-.767763-.2928933-1.060656 0-.2928929.292893-.2928929.767767 0 1.060657l3.626676 3.62668c-1.52988 1.30212-2.80494 2.88041-3.757212 4.65506-.1152257.21473-.1189377.47202-.009954.69002l.67082-.3354c-.67082.3354-.670207.3366-.670207.3366l.000923.0019.002771.0055.009241.018c.007801.0152.018884.0366.033223.0637.028674.0541.070402.1314.12499.2285.10912.1939.269963.4676.481009.7944.421166.6521 1.047136 1.5235 1.866726 2.3977 1.62552 1.7339 4.10169 3.5705 7.31804 3.5705l.0122-.0002c1.7306-.0283 3.413-.5472 4.8541-1.4896l3.77 3.77c.2929.2929.7678.2929 1.0606 0 .2929-.2929.2929-.7678 0-1.0607l-4.2099-4.2099c-.0048-.005-.0098-.01-.0148-.0148l-9.8852-9.88523c-.00486-.005-.00978-.00991-.01475-.01475zm3.63046 5.751767c-1.32587 1.10976-2.44501 2.44633-3.30479 3.94795.09397.1638.22299.3797.38601.6321.38613.5979.95808 1.3931 1.70098 2.1856 1.49832 1.5982 3.60336 3.0939 6.21756 3.0963 1.33877-.023 2.64277-.3971 3.78407-1.0781l-2.0583-2.0583c-.1458.0955-.2993.1794-.4593.2507-.3986.1776-.829.2732-1.26538.2809s-.86984-.0726-1.27452-.2361c-.40468-.1634-.77229-.4067-1.08091-.7153-.30861-.3087-.5519-.6763-.71536-1.081-.16346-.4046-.24373-.8381-.23603-1.2745.0077-.43635.10321-.86671.28084-1.26537.07128-.15997.15519-.31351.25074-.45926zm3.33002 3.33003c-.08603.20485-.1323.42433-.13623.64672-.00414.235.03908.4684.1271.6863.08801.2179.21902.4158.38519.582.16618.1662.36413.2972.58203.3852.21791.088.45131.1312.68628.1271.22234-.0039.44184-.0502.64674-.1362z" fill-rule="evenodd"/><path d="m8.42159 4.26359c.517-.12101 1.04632-.18151 1.5773-.18026h.00181c2.617 0 4.7241 1.49684 6.2236 3.09629.7429.79243 1.3149 1.58773 1.701 2.18561.1633.25277.2924.46889.3864.63277-.4391.77-.9472 1.4988-1.5182 2.1774-.2667.317-.226.7901.0909 1.0568.317.2667.7901.226 1.0568-.091.7245-.861 1.3571-1.7953 1.8876-2.7876.1146-.2146.1181-.47142.0093-.68901-.039.01951-.0793.03572-.1207.04917l.1201-.05039c-.015-.02987-.0305-.05948-.0461-.08903-.0287-.05419-.0704-.13145-.125-.22849-.1091-.19399-.27-.46763-.481-.79441-.4212-.65212-1.0472-1.52349-1.8668-2.39773-1.6253-1.73372-4.1012-3.57004-7.3171-3.57038-.64693-.00145-1.29186.07229-1.92178.21974-.40332.09441-.65374.49789-.55933.9012.0944.40331.49788.65373.9012.55932z"/></svg>