<svg viewBox="0 0 20 20" xmlns="http://www.w3.org/2000/svg"><path d="m10 6.75c-1.79493 0-3.25 1.45507-3.25 3.25 0 1.7949 1.45507 3.25 3.25 3.25 1.7949 0 3.25-1.4551 3.25-3.25 0-1.79493-1.4551-3.25-3.25-3.25zm-1.75 3.25c0-.9665.7835-1.75 1.75-1.75s1.75.7835 1.75 1.75-.7835 1.75-1.75 1.75-1.75-.7835-1.75-1.75z"/><path d="m19.8379 9.66403c.1055.21115.1058.46017.0002.67137l-.6708-.33542c.6708.33542.6702.33662.6702.33662l-.0009.0018-.0028.0055-.0092.0181c-.0234.0455-.0763.1466-.1582.2921-.1091.194-.27.4677-.481.7944-.4212.6522-1.0472 1.5235-1.8668 2.3978-1.6255 1.7339-4.1017 3.5703-7.3179 3.5703-3.21635 0-5.69252-1.8364-7.31804-3.5703-.81959-.8743-1.44556-1.7456-1.866726-2.3978-.211046-.3267-.371889-.6004-.481009-.7944-.057607-.1024-.113997-.2055-.167454-.3102l-.002771-.0055-.001536-.003c-.1055728-.2112-.1055728-.45968 0-.67083l.836836.33543-.832529-.34397c.053457-.10465.109847-.20779.167454-.3102.10912-.19399.269963-.46763.481009-.79441.421166-.65212 1.047136-1.52349 1.866726-2.39773 1.62552-1.73388 4.10169-3.57038 7.31804-3.57038 3.2162 0 5.6924 1.8365 7.3179 3.57038.8196.87424 1.4456 1.74561 1.8668 2.39773.211.32678.3719.60042.481.79441.0591.10502.1168.21081.1715.3182zm-17.76191.97077c-.16391-.2538-.29345-.4707-.38756-.63482.09411-.16412.22365-.38097.38756-.63477.38613-.59788.95808-1.39318 1.70098-2.18561 1.49949-1.59945 3.60665-3.09629 6.22373-3.09629 2.617 0 4.7241 1.49684 6.2236 3.09629.7429.79243 1.3149 1.58773 1.701 2.18561.1639.2538.2935.47065.3876.63477-.0941.16412-.2237.38102-.3876.63482-.3861.5978-.9581 1.3931-1.701 2.1856-1.4995 1.5994-3.6066 3.0962-6.2236 3.0962-2.61708 0-4.72424-1.4968-6.22373-3.0962-.7429-.7925-1.31485-1.5878-1.70098-2.1856zm17.09131-.63482c.6708-.33541.6706-.33595.6706-.33595z" fill-rule="evenodd"/></svg>