<svg viewBox="0 0 20 20" xmlns="http://www.w3.org/2000/svg"><path d="m3.04539 5.34113c-.43928 0-.79539.35611-.79539.7954v7.72697c0 .4393.35611.7954.79539.7954h8.49971c.4392 0 .7954-.3561.7954-.7954v-7.72697c0-.43929-.3562-.7954-.7954-.7954zm-2.29539.7954c0-1.26771 1.02768-2.2954 2.29539-2.2954h8.49971c1.2677 0 2.2954 1.02769 2.2954 2.2954v2.40701l4.2242-3.01736c.2287-.1633.5294-.18513.7792-.05658s.4068.38593.4068.66687v7.72703c0 .2809-.157.5383-.4068.6669-.2498.1285-.5505.1067-.7792-.0566l-4.2242-3.0174v2.4071c0 1.2678-1.0277 2.2954-2.2954 2.2954h-8.49971c-1.26771 0-2.29539-1.0276-2.29539-2.2954zm13.6321 3.86345 3.3686 2.40612v-4.81223z"/></svg>