<svg viewBox="0 0 20 20" xmlns="http://www.w3.org/2000/svg"><path d="m9.9987 19.1666c5.0626 0 9.1667-4.104 9.1667-9.16662 0-5.06261-4.1041-9.166667-9.1667-9.166667-5.06261 0-9.166669 4.104057-9.166669 9.166667 0 5.06262 4.104059 9.16662 9.166669 9.16662zm3.138-15.24991c.046 0 .0834.03731.0834.08333v2.3679c0 .04602-.0374.08333-.0834.08333h-1.8176c-.168 0-.3292.06676-.448.18559-.1189.11883-.1856.28-.1856.44806v1.81759c0 .04602.0373.08333.0833.08333h2.3445c.0542 0 .094.05095.0809.10355l-.592 2.36793c-.0093.0371-.0426.0631-.0808.0631h-1.7526c-.046 0-.0833.0373-.0833.0833v4.9025c0 .046-.0373.0833-.0833.0833h-2.36794c-.04603 0-.08334-.0373-.08334-.0833v-4.9025c0-.046-.0373-.0833-.08333-.0833h-1.73426c-.04602 0-.08333-.0373-.08333-.0833v-2.36795c0-.04602.03731-.08333.08333-.08333h1.73426c.04603 0 .08333-.03731.08333-.08333v-1.81759c0-.84027.3338-1.64611.92795-2.24027.59416-.59415 1.40003-.92794 2.24023-.92794z"/></svg>