<svg viewBox="0 0 20 20" xmlns="http://www.w3.org/2000/svg"><path d="m10.3795 3.49296c.2573.12585.4205.38728.4205.67373v11.66671c0 .2864-.1632.5478-.4205.6737-.2573.1258-.56385.0941-.78996-.0817l-7.5-5.8334c-.18269-.1421-.28954-.3605-.28954-.592 0-.23142.10685-.4499.28954-.59199l7.5-5.83333c.22611-.17586.53266-.20758.78996-.08172zm9.167 0c.2573.12585.4205.38728.4205.67373v11.66671c0 .2864-.1632.5478-.4205.6737-.2573.1258-.5639.0941-.79-.0817l-7.5-5.8334c-.1827-.1421-.2895-.3605-.2895-.592 0-.23142.1068-.4499.2895-.59199l7.5-5.83333c.2261-.17586.5327-.20758.79-.08172zm-18.7965-.07627c.41421 0 .75.33579.75.75v11.66671c0 .4142-.33579.75-.75.75-.414214 0-.75-.3358-.75-.75v-11.66671c0-.41421.335786-.75.75-.75zm3.02162 6.58331 5.52838 4.2999v-8.59973zm9.16698 0 5.5284 4.2999v-8.59973z"/></svg>