<svg viewBox="0 0 20 20" xmlns="http://www.w3.org/2000/svg"><path d="m.45369 3.49296c.257322-.12586.56386-.09414.78997.08172l7.5 5.83333c.18269.14209.28954.36057.28954.59199 0 .2315-.10685.4499-.28954.592l-7.5 5.8334c-.22611.1758-.532648.2075-.78997.0817-.257323-.1259-.4204869-.3873-.4204869-.6737v-11.66671c0-.28645.1631639-.54788.4204869-.67373zm9.16699 0c.25732-.12586.56382-.09414.79002.08172l7.5 5.83333c.1826.14209.2895.36057.2895.59199 0 .2315-.1069.4499-.2895.592l-7.5 5.8334c-.2262.1758-.5327.2075-.79002.0817-.25732-.1259-.42048-.3873-.42048-.6737v-11.66671c0-.28645.16316-.54788.42048-.67373zm9.62952-.07627c.4142 0 .75.33579.75.75v11.66671c0 .4142-.3358.75-.75.75s-.75-.3358-.75-.75v-11.66671c0-.41421.3358-.75.75-.75zm-17.717 2.28348v8.59973l5.52839-4.2999zm9.167 0v8.59973l5.5284-4.2999z"/></svg>