<svg viewBox="0 0 20 20" xmlns="http://www.w3.org/2000/svg"><path d="m3.61328 7.01532c0-3.52786 2.8599-6.387757 6.38772-6.387757 3.5279 0 6.3878 2.859897 6.3878 6.387757 0 3.27418-2.4633 5.97288-5.6378 6.34418v1.8599h1.9027c.4142 0 .75.3358.75.75s-.3358.75-.75.75h-1.9027v1.9031c0 .4142-.3358.75-.75.75-.41418 0-.74996-.3358-.74996-.75v-1.9031h-1.90346c-.41422 0-.75-.3358-.75-.75s.33578-.75.75-.75h1.90346v-1.8599c-3.17444-.3713-5.63776-3.07-5.63776-6.34418zm6.38772-4.88776c-2.6994 0-4.88772 2.18833-4.88772 4.88776s2.18832 4.88778 4.88772 4.88778c2.6995 0 4.8878-2.18835 4.8878-4.88778s-2.1883-4.88776-4.8878-4.88776z"/></svg>