<svg viewBox="0 0 20 20" xmlns="http://www.w3.org/2000/svg"><path d="m4.29154 4.85825.00046.0019zm.01633.06485.68139 2.67204c.09858.3866.48259.62835.87382.55011l6.79722-1.35942c.0005-.00008.0009-.00016.0013-.00025.615-.12041 1.249-.10393 1.857.0483.6083.15233 1.1757.43684 1.6616.8333s.8785.89512 1.1498 1.46052c.2708.56429.4142 1.1812.42 1.8071-.0003.0792-.0161.1575-.0464.2307-.0307.074-.0756.1413-.1323.1979-.0566.0567-.1238.1016-.1979.1322-.074.0307-.1533.0465-.2334.0465h-5.984c-.2571 0-.4962.1316-.6337.3489l-1.35755 2.1448c-.00038.0006-.00077.0012-.00115.0018-.1779.2766-.42222.5043-.7107.6623-.28896.1582-.61298.2414-.94242.2421-.00018 0 .00018 0 0 0h-1.376l1.14839-2.2706c.11759-.2325.10609-.5094-.03038-.7314-.13647-.2219-.37834-.3571-.63889-.3571h-3.7536c-.08011 0-.15943-.0158-.23344-.0465-.07402-.0306-.14126-.0755-.1979-.1322-.05664-.0566-.10158-.1239-.13223-.1979s-.04643-.1533-.04643-.2334v-6.0498zm.06018-1.5c.32082-.00112.63254.1067.88411.30586.24947.19749.4251.47316.49874.78249l.51597 2.02334 6.10203-1.22037.0028-.00055c.8317-.1631 1.6891-.14093 2.5112.06493.8222.20586 1.5889.59036 2.2456 1.12614.6566.53578 1.1872 1.20969 1.5539 1.97378.3667.7641.5604 1.59958.5676 2.44708v.0063c0 .2771-.0546.5515-.1606.8075-.1061.256-.2615.4886-.4574.6845s-.4286.3513-.6845.4574c-.256.106-.5304.1606-.8075.1606h-5.5711l-1.1392 1.7998-.0025.0039c-.3135.4887-.74461.8909-1.25385 1.1697-.50924.2789-1.08031.4255-1.6609.4265h-1.50318c-.24452-.0019-.48447-.0666-.69691-.1877s-.39028-.2946-.51651-.5041c-.12624-.2094-.19666-.4477-.20453-.6921-.00783-.243.04641-.4839.15755-.7l.64494-1.2752h-2.53381c-.27709 0-.55146-.0546-.80746-.1606-.25599-.1061-.48859-.2615-.68453-.4574-.19593-.1959-.35135-.4285-.457393-.6845-.106039-.256-.160617-.5304-.160617-.8075v-6.11981c0-.37927.150665-.74299.41884-1.01116.26818-.26817.63191-.41883 1.01116-.41883z" fill-rule="evenodd"/></svg>