<svg viewBox="0 0 20 20" xmlns="http://www.w3.org/2000/svg"><path d="m3.29181 1.62451c.45321-.45321 1.0679-.707823 1.70884-.707823h6.66665c.1989 0 .3897.079018.5303.219673l5 5c.1407.14065.2197.33141.2197.53033v10.00001c0 .6409-.2546 1.2556-.7078 1.7088s-1.0679.7079-1.7088.7079h-10.00005c-.64094 0-1.25563-.2547-1.70884-.7079s-.70783-1.0679-.70783-1.7088v-13.33335c0-.64094.25462-1.25562.70783-1.70884zm1.70884.79218c-.24311 0-.47627.09657-.64818.26848s-.26849.40507-.26849.64818v13.33335c0 .2431.09658.4763.26849.6482s.40507.2685.64818.2685h10.00005c.2431 0 .4762-.0966.6481-.2685s.2685-.4051.2685-.6482v-9.25001h-4.25c-.1989 0-.3897-.07902-.5303-.21967-.1407-.14066-.2197-.33142-.2197-.53033v-4.25zm7.41665 1.06066 2.4394 2.43934h-2.4394z"/></svg>