<svg viewBox="0 0 20 20" xmlns="http://www.w3.org/2000/svg"><path d="m5.00065.916626h5.91535v5.750004c0 .41421.3358.75.75.75h5.7513v9.24997c0 .641-.2546 1.2557-.7078 1.7089s-1.0679.7078-1.7088.7078h-10.00005c-.64094 0-1.25563-.2546-1.70884-.7078s-.70783-1.0679-.70783-1.7089v-13.33331c0-.64094.25462-1.25563.70783-1.70884s1.0679-.707824 1.70884-.707824zm1.66537 5.833374c-.41422 0-.75.33579-.75.75s.33578.75.75.75h1.66666c.41422 0 .75-.33579.75-.75s-.33578-.75-.75-.75zm0 3.3333c-.41422 0-.75.3358-.75.75s.33578.75.75.75h6.66668c.4142 0 .75-.3358.75-.75s-.3358-.75-.75-.75zm0 3.3334c-.41422 0-.75.3358-.75.75s.33578.75.75.75h6.66668c.4142 0 .75-.3358.75-.75s-.3358-.75-.75-.75z"/><path d="m12.416 1.35466 4.562 4.56197h-3.562c-.5523 0-1-.44772-1-1z"/></svg>