<svg viewBox="0 0 20 20" xmlns="http://www.w3.org/2000/svg"><path d="m3.48268 2.41669c-.5891 0-1.06666.47756-1.06666 1.06666v1.6h2.66666v-2.66666zm0-1.500003c-1.41753 0-2.566664 1.149133-2.566664 2.566663v13.03335c0 1.4175 1.149134 2.5667 2.566664 2.5667h13.03332c1.4175 0 2.5667-1.1492 2.5667-2.5667v-13.03335c0-1.41753-1.1492-2.566663-2.5667-2.566663zm3.1 1.500003v6.83333h6.83332v-6.83333zm8.33332 0v2.66666h2.6667v-1.6c0-.5891-.4776-1.06666-1.0667-1.06666zm2.6667 4.16666h-2.6667v2.66667h2.6667zm0 4.16665h-2.6667v2.6667h2.6667zm0 4.1667h-2.6667v2.6667h1.6c.5891 0 1.0667-.4776 1.0667-1.0667zm-4.1667 2.6667v-6.8334h-6.83332v6.8334zm-8.33332 0v-2.6667h-2.66666v1.6c0 .5891.47756 1.0667 1.06666 1.0667zm-2.66666-4.1667h2.66666v-2.6667h-2.66666zm0-4.16668h2.66666v-2.66667h-2.66666z" fill-rule="evenodd"/></svg>