<svg viewBox="0 0 20 20" xmlns="http://www.w3.org/2000/svg"><path d="m.985687 2.18434c.122893-.26487.388343-.43434.680343-.43434h16.66667c.292 0 .5574.16947.6803.43434.1229.26488.0809.577-.1076.79995l-6.4894 7.67361v6.8421c0 .2599-.1346.5013-.3557.638-.2211.1366-.4972.1491-.7297.0328l-3.33332-1.6666c-.25409-.1271-.41459-.3868-.41459-.6709v-5.1754l-6.48934-7.67361c-.18855-.22295-.230556-.53507-.107663-.79995zm2.296813 1.06566 5.62287 6.64904c.1145.13536.17732.30696.17732.48426v4.9865l1.83331.9167v-5.9032c0-.1773.0628-.3489.1773-.48426l5.6229-6.64904z"/></svg>