<svg viewBox="0 0 20 20" xmlns="http://www.w3.org/2000/svg"><path d="m7.5991 1.50402c.18713-.21224.47778-.3011.7516-.22978 1.40189.36513 3.5497 1.31121 5.3604 2.99875 1.8267 1.70245 3.3256 4.17819 3.3256 7.55321 0 1.3355-.2994 2.9805-1.3466 4.3483-1.0675 1.3942-2.8314 2.3956-5.5411 2.5629l-.0086.0005c-3.62353.1818-6.18224-1.7042-7.21028-4.3124-1.01692-2.58-.50397-5.78324 1.77909-8.20929.14463-.15369.34733-.23933.55835-.23591.21101.00342.41083.0956.5504.2539l1.46273 1.65903c.51287-.95365.76096-1.78861.80009-2.61935.04199-.8915-.15368-1.84042-.6155-2.9954-.10506-.26273-.05331-.56222.13382-.77446zm1.74882 1.70396c.18208.72723.26442 1.43113.2312 2.13648-.05549 1.17807-.4303 2.29792-1.10083 3.48296l-.00001.00002c-.47542.84017-1.59719.88071-2.18675.21202v-.00001l-1.02375-1.16114c-1.42894 1.9063-1.65766 4.18179-.94215 5.99709.78529 1.9924 2.73961 3.5134 5.73527 3.3646 2.3538-.1463 3.6807-.988 4.4382-1.9774.7782-1.0164 1.0376-2.2963 1.0376-3.4364 0-2.87982-1.2629-4.97836-2.8483-6.45588-1.076-1.00282-2.2935-1.71089-3.34048-2.16234z"/></svg>