<svg viewBox="0 0 20 20" xmlns="http://www.w3.org/2000/svg"><path d="m17.0093 3.20037-3.2755.81889v1.21658l3.2755.81889zm-.1736-1.50276c.8501-.2125 1.6736.43041 1.6736 1.30673v3.24642c0 .87632-.8235 1.51925-1.6737 1.30672l-3.5815-.89541c-.5925-.14809-1.0102-.6758-1.0201-1.28454h-3.27707v.95228c2.03537.35475 3.58277 2.13024 3.58277 4.26709v5.9694c0 1.0736-.8704 1.9439-1.9439 1.9439h-4.77553c-1.07356 0-1.94388-.8703-1.94388-1.9439v-5.9694c0-2.13608 1.54625-3.91107 3.58054-4.26671v-.95266h-2.83089c-.90451 0-1.63776.73325-1.63776 1.63776v2.38775c0 .41422-.33579.74996-.75.74996s-.75-.33574-.75-.74996v-2.38775c0-1.73294 1.40482-3.13776 3.13776-3.13776h3.57359c.00243-.00002.00487-.00003.0073-.00003.00244 0 .00487.00001.00731.00003h4.01976c.0099-.60872.4276-1.1364 1.02-1.2845zm-8.62767 6.0677c-1.56386 0-2.83164 1.26777-2.83164 2.83159v5.9694c0 .2452.19873.4439.44388.4439h4.77553c.2451 0 .4439-.1987.4439-.4439v-1.0408h-1.63889c-1.07356 0-1.94388-.8702-1.94388-1.9438v-1.1939c0-1.0736.87031-1.9439 1.94388-1.9439h1.63479c-.0795-1.49269-1.31505-2.67859-2.82757-2.67859zm2.83167 4.17859h-1.63889c-.24514 0-.44388.1988-.44388.4439v1.1939c0 .2451.19873.4438.44388.4438h1.63889z"/></svg>