<svg viewBox="0 0 20 20" xmlns="http://www.w3.org/2000/svg"><path d="m5.58711.974047c-.837.092003-1.468.255003-2.056.532003-.339.16-.563.306-.723.471-.218.226-.206.115-.227 2.063-.01.953-.017 1.787-.014 1.853.006.147.007 3.219.001 3.387-.003.066.004 2.18995.014 4.71995.019 4.939.01 4.658.155 4.847.108.142.255.201.53.214.132.006.289-.002.349-.018.08225-.0231.1589-.0628.22527-.1166.06638-.0539.12107-.1207.16073-.1964l.065-.13.014-5.713.273-.108c.589-.233 1.127-.324 2.019-.344.528-.012.713-.006.96.03.633.091 1.163.249 2.16.642 1.46099.575 1.96499.736 2.69399.864.78.136 1.643.141 2.554.015 1.203-.167 2.315-.658 2.58-1.137l.079-.142.018-1.667c.01-.917.016-1.71495.014-1.77295-.0065-1.12899-.0065-2.25801 0-3.387.003-.059-.003-.899-.013-1.867-.019-1.736-.02-1.761-.078-1.887-.116-.251-.329-.367-.673-.365-.184-.0035-.3626.06176-.501.183-.228.181-.773.397-1.247.495-.588.122-1.527.178-2.042.123-.804-.088-1.15-.193-3.05099-.929-1.027-.398-1.705-.583-2.454-.671003-.324-.038-1.392-.031-1.786.012zm1.453 3.293003h-.527c-.528 0-1.046.042-1.507.12-.29667.05534-.5901.12677-.879.214-.044.017-.047-.034-.047-.847v-.865l.241-.099c.36939-.14186.75394-.24051 1.146-.294.435-.06.437-.06 1.033-.065l.54-.004zm2.063-1.31c.266.102.706.271.97699.377.271.106.702.262.956.346l.463.154-.004.875c.0005.29369-.0028.58739-.01.881-.006.007-.973-.357-1.60499-.605-.29122-.11177-.58461-.21779-.88-.318l-.453-.153-.007-.87c-.007-.79-.003-.871.036-.871.024 0 .261.083.527.184zm6.81699 1.628v.851l-.148.068c-.563.257-1.344.396-2.265.4l-.507.003-.014-1.819.594-.016c.851-.024 1.604-.126 2.092-.283.274-.089.248-.172.248.796zm-8.87999 3.168-.647.014c-.852.02-1.464.101-2.058.273-.08005.02451-.16075.04685-.242.067-.007 0-.013-.424-.013-.942v-.943l.241-.098c.36949-.14174.75399-.24072 1.146-.295.435-.06.437-.06 1.033-.065l.54-.004zm2.249-1.391c.97299.378 1.61399.615 1.91799.709l.286.089v.97c0 .912-.002.968-.046.951l-.38-.139c-.2635-.09758-.5259-.19825-.787-.302-.52004-.20909-1.04701-.40054-1.57999-.574l-.167-.046v-1.92l.083.017c.046.009.349.119.673.245zm6.63099 1.637v.933l-.1.051c-.156.08-.53.205-.793.266-.456.105-.852.145-1.454.148l-.573.003-.014-1.978.594-.017c.851-.023 1.604-.125 2.092-.283.275-.089.248-.183.248.877zm-8.87999 2.93395-.527.001c-.5048-.002-1.00888.0382-1.507.12-.29684.0557-.59057.1268-.88.213-.044.018-.046-.025-.04-.764l.007-.78195.2-.086c.584-.249 1.313-.371 2.26-.378l.487-.004zm2.12-1.11995c.264.1.702.26795.97299.37395.514.2 1.25.453 1.32.453.035 0 .04.105.04.812v.812l-.252-.091c-.14-.05-.443-.165-.674-.255l-.76699-.298c-.397-.154-1.177-.42-1.231-.42-.029 0-.036-.147-.036-.803v-.80295l.074.018c.04.01.289.1.553.201zm6.75999 1.51795v.772l-.148.068c-.563.257-1.344.395-2.265.4l-.507.002-.014-1.658.647-.017c.834-.021 1.469-.106 2.007-.267.117-.036.228-.066.247-.068.026-.002.033.167.033.768z"/></svg>