<svg viewBox="0 0 20 20" xmlns="http://www.w3.org/2000/svg"><path d="m3.78461 1.387c.61899-.2476 1.54817-.470313 2.88271-.470313 1.39502 0 2.55157.462743 3.56938.869973l.0425.017c1.0552.4221 1.9693.77969 3.0548.77969 1.1654 0 1.9029-.19395 2.3256-.36302.4188-.16753.8172-.61104 1.2947-.41322.2803.11609.463.38956.463.69291v9.99998c0 .1363-.3777.7839-1.2006 1.113-.619.2476-1.5482.4704-2.8827.4704-1.395 0-2.5516-.4628-3.56939-.87l-.0425-.017c-1.05524-.4221-1.96927-.7797-3.05479-.7797-1.16546 0-1.90295.1939-2.32563.363-.10339.0414-.18876.0816-.25771.1176v5.436c0 .4142-.33578.75-.75.75-.41421 0-.75-.3358-.75-.75v-15.83328c0-.13527.38145-.78535 1.20063-1.11302z"/></svg>