<svg viewBox="0 0 20 20" xmlns="http://www.w3.org/2000/svg"><path d="m6.66634.916748c-1.33454 0-2.26372.222712-2.88271.470312-.30883.12353-.53718.25197-.69738.35878-.09992.06661-.19749.1382-.28278.22313l-.00079.00078c-.14065.14065-.21967.33142-.21967.53033v10.00002c0 .0064.00008.0128.00024.0192v5.8141c0 .4142.33579.75.75.75.41422 0 .75-.3358.75-.75v-5.4361c.0689-.0361.1542-.0762.25747-.1175.42267-.1691 1.16016-.3631 2.32562-.3631 1.08552 0 1.99955.3576 3.05479.7797l.0425.017c1.01777.4073 2.17437.87 3.56937.87 1.3345 0 2.2637-.2227 2.8827-.4703.3088-.1235.5372-.252.6974-.3588.0977-.0651.1921-.1355.2767-.2171l.0053-.0052.0016-.0016c.1406-.1406.2196-.3314.2196-.5303v-10.00002c0-.30335-.1827-.57682-.4629-.69291-.2738-.11341-.588-.05478-.8024.14799l-.0021.00178c-.0086.00703-.0306.0245-.0679.04931-.0741.04945-.2104.12934-.4224.21414-.4226.16907-1.1601.36302-2.3256.36302-1.0855 0-1.9995-.35759-3.0548-.77969l-.0425-.017c-1.01779-.40723-2.17433-.869972-3.56936-.869972zm-2.58333 10.361352v-8.38072c.06894-.03606.15431-.07625.25771-.11761.42267-.16907 1.16016-.36302 2.32562-.36302 1.08552 0 1.99955.35759 3.05479.77969l.0425.017c1.01777.40723 2.17437.86997 3.56937.86997 1.1346 0 1.9762-.16098 2.5833-.36137v8.38076c-.0689.036-.1543.0762-.2577.1176-.4226.1691-1.1601.363-2.3256.363-1.0855 0-1.9995-.3576-3.0548-.7797l-.0425-.017c-1.01779-.4072-2.17433-.87-3.56936-.87-1.13462 0-1.97624.161-2.58333.3614z"/></svg>