<svg viewBox="0 0 20 20" xmlns="http://www.w3.org/2000/svg"><path d="m1.61523 10c0 .9531.37863 1.8672 1.05259 2.5412.67396.6739 1.58804 1.0526 2.54116 1.0526.95313 0 1.86721-.3787 2.54117-1.0526.67396-.674 1.05258-1.5881 1.05258-2.5412 0-.95312-.37862-1.86721-1.05258-2.54117-.67396-.67395-1.58804-1.05258-2.54117-1.05258-.95312 0-1.8672.37863-2.54116 1.05258-.67396.67396-1.05259 1.58805-1.05259 2.54117z"/><path d="m11.1986 10c0 .9531.3786 1.8672 1.0526 2.5412.6739.6739 1.588 1.0526 2.5411 1.0526s1.8672-.3787 2.5412-1.0526c.6739-.674 1.0526-1.5881 1.0526-2.5412 0-.95312-.3787-1.86721-1.0526-2.54117-.674-.67395-1.5881-1.05258-2.5412-1.05258s-1.8672.37863-2.5411 1.05258c-.674.67396-1.0526 1.58805-1.0526 2.54117z"/></svg>