<svg viewBox="0 0 20 20" xmlns="http://www.w3.org/2000/svg"><path d="m3.77978 3.71051c-.23034 0-.45123.0915-.6141.25437-.16286.16286-.25436.38374-.25436.61406v11.05276c0 .2303.0915.4512.25436.6141.16287.1629.38376.2544.6141.2544h12.63202c.2303 0 .4512-.0915.6141-.2544.1628-.1629.2543-.3838.2543-.6141v-8.68431c0-.23031-.0915-.4512-.2543-.61406-.1629-.16286-.3838-.25436-.6141-.25436h-7.10552c-.23757 0-.45942-.11873-.59121-.3164l-1.36806-2.05206zm-1.61895-.7505c.42937-.42937 1.01173-.67058 1.61895-.67058h3.9475c.23757 0 .45942.11873.5912.3164l1.36806 2.05205h6.72526c.6072 0 1.1895.24122 1.6189.67058.4294.42937.6706 1.01171.6706 1.61893v8.68431c0 .6072-.2412 1.1896-.6706 1.619-.4294.4293-1.0117.6705-1.6189.6705h-12.63202c-.60722 0-1.18958-.2412-1.61895-.6705-.42937-.4294-.6706-1.0118-.6706-1.619v-11.05276c0-.60722.24123-1.18957.6706-1.61893z"/></svg>