<svg viewBox="0 0 20 20" xmlns="http://www.w3.org/2000/svg"><path d="m3.50947 3.71048c-.23031 0-.4512.0915-.61406.25436s-.25436.38374-.25436.61406v6.5351l.49326-1.20574c.40055-.97913 1.3534-1.61883 2.41129-1.61883h11.1337c1.6487 0 2.8828 1.5121 2.5524 3.12737l-.8612 4.2105c-.248 1.2125-1.3148 2.0832-2.5524 2.0832h-12.00204c-1.56321 0-2.70437-1.3405-2.59606-2.7889v-10.3427c0-.6072.24121-1.18954.67057-1.6189s1.0117-.67057 1.6189-.67057h3.94737c.23757 0 .45942.11873.5912.3164l1.36801 2.05202h6.72505c.6072 0 1.1895.24121 1.6189.67057.4293.42936.6705 1.0117.6705 1.6189 0 .39242-.3181.71053-.7105.71053s-.7105-.31811-.7105-.71053c0-.23032-.0915-.4512-.2544-.61406-.1628-.16286-.3837-.25436-.614-.25436h-7.10531c-.23757 0-.45941-.11873-.59119-.31639l-1.36802-2.05203zm-.87387 11.37792c-.01227.6319.4945 1.201 1.18046 1.201h12.00204c.5625 0 1.0474-.3957 1.1602-.9469l.8612-4.2105c.1502-.7342-.4108-1.42152-1.1602-1.42152h-11.1337c-.48086 0-.91397.29082-1.09604.73582l-1.72516 4.2171c-.04517.1104-.07235.2223-.08335.333v.0036c0 .0299-.00185.0594-.00545.0884z"/></svg>