<svg viewBox="0 0 20 20" xmlns="http://www.w3.org/2000/svg"><path d="m4.00537 10.1416-1.82668 4.2172c-.54056 1.2479.3743 2.6412 1.7343 2.6412h12.32611c.8919 0 1.663-.622 1.8518-1.4937l.9119-4.2105c.2557-1.1806-.6439-2.2958-1.8518-2.2958h-11.40699c-.75529 0-1.43843.44857-1.73864 1.1416z"/><path d="m17.78 8.24282c-.3326-.15535-.7051-.24282-1.1017-.24282h-11.13368c-1.05788 0-2.14407.52088-2.54462 1.5l-1 2.1787v-7.10074c0-.4185.16625-.81986.46219-1.11579.29593-.29592.6973-.46217 1.11581-.46217h3.40982c.33435 0 .64658.1671.83205.44529l1.28113 1.92165h7.101c.4185 0 .8199.16625 1.1158.46218.2959.29592.4622.67088.4622 1.8263z"/></svg>