<svg viewBox="0 0 20 20" xmlns="http://www.w3.org/2000/svg"><path d="m8.92832 3.78439c0 .00001 0 .00001-.00001.00002l-2.7265 8.18039h7.45219l-2.7265-8.18041c-.1435-.43033-.5461-.72055-.99961-.72055-.45344 0-.85611.2902-.99957.72055zm6.47268 8.67801-3.0505-9.15231c-.3476-1.04279-1.3234-1.74625-2.42261-1.74625s-2.07502.70347-2.4226 1.74624l-.00001.00001-3.04984 9.15051c-.00403.0112-.00781.0225-.01132.0339l-1.7277 5.1837c-.13098.393.08141.8177.47437.9487s.81769-.0814.94867-.4744l1.5624-4.6877h8.45214l1.5624 4.6877c.131.393.5557.6054.9487.4744s.6053-.5557.4744-.9487l-1.7284-5.1855c-.0032-.0102-.0065-.0203-.0101-.0303z" fill-rule="evenodd"/></svg>