<svg viewBox="0 0 20 20" xmlns="http://www.w3.org/2000/svg"><path d="m2.3305 1.27196c-.296.04-.486.205-.549.478-.042.184-.042 3.36 0 3.744.048.438.125.713.343 1.221.148.347.509.84.84 1.15.49333.45518 1.09462.77699 1.747.935l.127.032.016 9.46304.067.125c.03591.0678.08501.1278.14443.1764s.12795.0848.20157.1066c.136.04.47.038.625-.004.08829-.0293.16876-.0782.2353-.1432s.11739-.1443.1487-.2318c.023-.084.033-1.479.033-4.805v-4.68704l.128-.032c1.501-.376 2.57-1.484 2.893-3 .049-.231.054-.435.054-2.161v-1.906l-.077-.149c-.062-.121-.108-.165-.243-.234-.141-.072-.201-.085-.406-.085-.369 0-.556.101-.681.365-.061.132-.063.181-.079 2.01-.016 1.86-.016 1.877-.085 2.085-.216.651-.654 1.169-1.216 1.44-.08139.04245-.16639.07759-.254.105-.025 0-.034-.701-.034-2.738 0-1.904-.01-2.773-.033-2.856-.03131-.08758-.08216-.16686-.1487-.23184s-.14701-.11394-.2353-.14316c-.20606-.04228-.41842-.04364-.625-.004-.07362.02174-.14215.05797-.20157.10657s-.10852.10858-.14443.17643l-.067.125-.008 2.782c-.007 2.327-.015 2.783-.049 2.783-.023 0-.147-.053-.277-.119-.43919-.23458-.79797-.59545-1.03-1.036-.228-.465-.22-.381-.239-2.49-.015-1.65-.023-1.903-.065-1.995-.13-.282-.444-.413-.856-.358zm11.719 0c-1.455.118-2.7 1.243-3.207 2.899-.17.554-.198.768-.198 1.524 0 .774.041 1.05.245 1.661.431 1.293 1.383 2.297 2.492 2.627l.187.05604.016 8.256.082.14c.121.205.326.3.648.3.369 0 .563-.108.686-.38.051-.113.054-.348.062-4.217l.008-4.097.217-.06904c1.042-.331 1.964-1.272 2.395-2.441.4189-1.14843.433-2.40546.04-3.563-.334-.961-.962-1.769-1.741-2.239-.402-.242-.913-.415-1.317-.446-.0951-.0068-.1901-.01481-.285-.024-.1102-.00151-.2203.00283-.33.013zm.792 1.562c.274.091.484.223.73.457.393.373.674.873.838 1.488.105.397.131 1.088.057 1.53-.19 1.134-.858 2.021-1.708 2.266-.21.061-.603.069-.831.016-.548-.126-1.123-.633-1.446-1.276-.409-.814-.48-1.905-.182-2.796.262-.787.816-1.436 1.415-1.66.35-.131.782-.141 1.127-.025z"/></svg>