<svg viewBox="0 0 20 20" xmlns="http://www.w3.org/2000/svg"><path d="m1.3365 3.49296c.25732-.12586.56386-.09414.78997.08172l7.5 5.83333c.18269.14209.28955.36057.28955.59199 0 .2315-.10686.4499-.28955.592l-7.5 5.8334c-.22611.1758-.53265.2075-.78997.0817-.25732-.1259-.420484-.3873-.420484-.6737v-11.66671c0-.28645.163164-.54788.420484-.67373zm9.1667 0c.2573-.12586.5638-.09414.7899.08172l7.5 5.83333c.1827.14209.2896.36057.2896.59199 0 .2315-.1069.4499-.2896.592l-7.5 5.8334c-.2261.1758-.5326.2075-.7899.0817-.2574-.1259-.4205-.3873-.4205-.6737v-11.66671c0-.28645.1631-.54788.4205-.67373zm-8.08718 2.20721v8.59973l5.52838-4.2999zm9.16668 0v8.59973l5.5284-4.2999z"/></svg>