<svg viewBox="0 0 20 20" xmlns="http://www.w3.org/2000/svg"><path d="m15.0777 1.10547h-9.60465c-1.31836 0-1.7543.99492-1.7543 1.6207v15.25083c0 .7136.42539.9738.63984 1.0582.21797.0878.80157.1617 1.15664-.2497 4.53167-5.2523 4.60897-5.3402 4.60897-5.3402.109-.1195.1196-.109.2391-.109h2.932c1.234 0 1.4274-.8859 1.5574-1.3957l1.7086-8.54294c.2989-1.49063-.0773-2.29219-1.4836-2.29219zm-.573 2.59453-.4008 2.09883c-.0422.22851-.334.46406-.5941.46406h-3.74066c-.42187 0-.72422.2918-.72422.71367v.45703c0 .42188.30235.72422.72422.72422h3.17816c.2918 0 .5836.32344.5203.63985-.0633.31289-.3692 1.89144-.4008 2.06714-.0316.1723-.2391.4747-.5941.4747h-2.58403c-.47461 0-.60469.0632-.93164.4429 0 0-.31289.4008-3.14648 3.8074-.03164.0317-.06328.0211-.06328-.0105v-11.91094c0-.2707.23906-.58359.58359-.58359h7.69924c.2883 0 .5484.2707.4746.61523z"/></svg>