<svg viewBox="0 0 20 20" xmlns="http://www.w3.org/2000/svg"><path d="m9.03322.970989c-2.013.207001-4.002 1.159001-5.452 2.610001-1.37428 1.37943-2.27311 3.16098-2.566 5.086-.083005.533-.102005 1.77101-.036005 2.34201.360005 3.104 2.223995 5.757 5.003995 7.124 1.322.65 2.54201.934 4.01699.934 1.475 0 2.695-.284 4.017-.934 1.7914-.8763 3.2397-2.3246 4.116-4.116.649-1.319.934-2.545.934-4.01701 0-.891-.093-1.596-.316-2.412-.1488-.55531-.3559-1.0933-.618-1.605-.8758-1.79176-2.3242-3.24019-4.116-4.116-.9725-.49022-2.0278-.79508-3.112-.899001-.6234-.040001-1.24872-.038999-1.87198.003zm1.88398 1.500001c2.646.304 5.028 2.099 6.063 4.568.42 1.004.592 1.863.592 2.961 0 .86601-.099 1.53001-.341 2.28601-.3599 1.1359-.9824 2.1711-1.817 3.0216-.8347.8504-1.858 1.4922-2.987 1.8734-.848.286-1.504.392-2.427.391-.93498 0-1.57099-.103-2.43299-.392-1.11341-.3778-2.12374-1.0093-2.95122-1.8446-.82747-.8353-1.44944-1.8515-1.81677-2.9684-.273-.829-.374-1.467-.374-2.36701 0-.903.101-1.536.377-2.378.32352-.97425.84064-1.87304 1.52029-2.6424.67965-.76935 1.5078-1.39338 2.43471-1.8346 1.29605-.61023 2.73756-.84379 4.15998-.674zm-3.79998 4.358c-.251.116-.351.308-.35.678.002.505.225.726.733.726.51399 0 .73999-.224.73999-.733 0-.377-.10599-.567-.38099-.682-.175-.073-.572-.067-.742.011zm4.99998 0c-.251.116-.351.308-.35.678.002.505.225.726.733.726.506 0 .736-.223.742-.716.004-.388-.102-.582-.383-.699-.175-.073-.572-.067-.742.011zm-2.79998 4.13901c-1.009.158-1.98601.655-2.778 1.415-.57601.553-.74101.86-.625 1.165.113.295.493.567.787.562.209-.003.324-.07.546-.317.877-.978 1.974-1.469 3.03298-1.36.919.095 1.71.53 2.471 1.361.283.308.454.374.744.288.184-.055.474-.293.56-.459.084-.161.07-.38-.037-.59-.124-.242-.769-.882-1.177-1.167-.569-.404-1.2113-.693-1.891-.851-.279-.062-1.33798-.093-1.63298-.047z"/></svg>