<svg viewBox="0 0 20 20" xmlns="http://www.w3.org/2000/svg"><path d="m2.45783 2.45783c.45321-.45322 1.0679-.70783 1.70884-.70783h2.5c.41421 0 .75.33579.75.75s-.33579.75-.75.75h-2.5c-.24312 0-.47628.09658-.64818.26849-.17191.1719-.26849.40506-.26849.64818v2.5c0 .41421-.33579.75-.75.75s-.75-.33579-.75-.75v-2.5c0-.64094.25461-1.25563.70783-1.70884zm10.12547.04217c0-.41421.3358-.75.75-.75h2.5c.641 0 1.2557.25461 1.7089.70783.4532.45321.7078 1.0679.7078 1.70884v2.5c0 .41421-.3358.75-.75.75s-.75-.33579-.75-.75v-2.5c0-.24312-.0966-.47628-.2685-.64818-.1719-.17191-.4051-.26849-.6482-.26849h-2.5c-.4142 0-.75-.33579-.75-.75zm-10.0833 10.0833c.41421 0 .75.3358.75.75v2.5c0 .2431.09658.4763.26849.6482.1719.1719.40506.2685.64818.2685h2.5c.41421 0 .75.3358.75.75s-.33579.75-.75.75h-2.5c-.64094 0-1.25563-.2546-1.70884-.7078-.45322-.4532-.70783-1.0679-.70783-1.7089v-2.5c0-.4142.33579-.75.75-.75zm15 0c.4142 0 .75.3358.75.75v2.5c0 .641-.2546 1.2557-.7078 1.7089s-1.0679.7078-1.7089.7078h-2.5c-.4142 0-.75-.3358-.75-.75s.3358-.75.75-.75h2.5c.2431 0 .4763-.0966.6482-.2685s.2685-.4051.2685-.6482v-2.5c0-.4142.3358-.75.75-.75z"/></svg>