<svg viewBox="0 0 20 20" xmlns="http://www.w3.org/2000/svg"><path d="m6.96142 6.70007c.41421 0 .75.33579.75.75v.81653h.81626c.41422 0 .75.33579.75.75 0 .41422-.33578.75-.75.75h-.81626v.8166c0 .4142-.33579.75-.75.75s-.75-.3358-.75-.75v-.8166h-.81689c-.41421 0-.75-.33579-.75-.75s.33579-.75.75-.75h.81689v-.81653c0-.41421.33579-.75.75-.75z"/><path d="m14.7441 8.87129c-.3906.39053-1.0237.39053-1.4142 0-.3906-.39052-.3906-1.02369 0-1.41421.3905-.39053 1.0236-.39053 1.4142 0 .3905.39052.3905 1.02369 0 1.41421z"/><path d="m12.7384 11.127c-.3906.3906-1.0237.3906-1.4143 0-.3905-.3905-.3905-1.0237 0-1.41418.3906-.39053 1.0237-.39053 1.4143 0 .3905.39048.3905 1.02368 0 1.41418z"/><path d="m10.0035 4.25c-2.263 0-4.13721.22215-5.50774.56445l-.00262.00066c-.54067.1371-.94714.37407-1.26174.7542-.26907.32513-.44114.72778-.59447 1.0866l-.01634.03823c-.71408 1.67892-1.54395 3.95536-2.027175 5.73566-.223323.8162-.343415 1.4431-.343415 2.0041 0 .6527.216192 1.2414.634774 1.6708.418206.429.986796.6453 1.587636.6453.79124 0 1.49363-.4456 1.99046-1.0593l1.40727-1.7145.00467-.0058c.15218-.1892.23511-.2563.29621-.2898.04917-.027.13912-.0627.35931-.0627h6.94637c.2153 0 .3033.0351.3519.062.061.0336.1444.1013.2966.2905l.0058.0072 1.4138 1.7139c.4955.6118 1.1904 1.0585 1.9898 1.0585.599 0 1.1658-.2174 1.5824-.6462.4169-.4291.633-1.0173.633-1.6699 0-.557-.1111-1.1811-.3366-2.0049l-.0018-.0066c-.5015-1.7686-1.3014-4.0439-2.0343-5.73321l-.0007-.00164-.0307-.07037c-.1496-.34402-.3182-.73167-.5732-1.04401-.3119-.38193-.716-.62041-1.2588-.75807l-.0026-.00065c-1.3706-.34232-3.2519-.56445-5.5078-.56445zm-5.61651 2.27566c.0763-.09218.18391-.18261.47362-.25626 1.22197-.30503 2.9684-.5194 5.14289-.5194 2.1676 0 3.9211.2144 5.143.5194.2875.0731.3904.16201.4642.2524.1131.13853.2034.33589.3909.76525.7037 1.6223 1.4811 3.83195 1.9659 5.54105.2107.7705.2825 1.2448.2825 1.6058 0 .3187-.1009.5135-.2089.6247-.1082.1114-.2741.1914-.5065.1914-.2137 0-.5182-.124-.8256-.5044l-.0048-.0059-1.4132-1.7131c-.1924-.2388-.4218-.4857-.7378-.6601-.33-.1821-.6859-.2486-1.0765-.2486h-6.94637c-.39272 0-.75013.066-1.08138.2479-.31803.1747-.54802.4224-.74057.6615l-1.4067 1.7138-.00361.0045c-.30619.3789-.61751.5044-.82566.5044-.23753 0-.40514-.0811-.51354-.1923-.10804-.1109-.20887-.3051-.20887-.6238 0-.3573.07709-.8294.29043-1.609l.00041-.0015c.46076-1.6977 1.26501-3.90782 1.95975-5.54138.18063-.42225.27378-.62027.3864-.75636z"/></svg>