<svg viewBox="0 0 20 20" xmlns="http://www.w3.org/2000/svg"><path d="m11.8005.991057c-1.136.109003-1.99201.387003-2.76201.897003-1.211.8-1.916 1.97-2.215 3.675-.143.813-.184 1.576-.164 3.042l.015 1.143-2.961.015-.136.075c-.169.093-.261.23004-.302.45104-.06.317.032.663.213.801.175.133.202.135 1.767.135 1.301 0 1.448.004 1.462.04.024.063-.039 1.563-.08 1.91-.111.93-.259 1.494-.548 2.088-.17148.3642-.40458.6961-.689.981-.387.389-.866.681-1.55.945-.271.104-.329.137-.441.249-.167.167-.205.314-.149.581.063.303.176.471.386.574l.142.07.962.015c1.342.022 10.46401.021 11.43801-.001.661-.016.819-.026.912-.061.273-.104.422-.393.391-.759-.033-.385-.201-.593-.53-.655-.062-.011-1.487-.01-3.168.004s-3.99101.017-5.13501.006l-2.08-.018.15-.178c.4752-.5816.83344-1.2495 1.055-1.967.273-.902.386-1.735.413-3.049l.017-.762 6.70001-.025.119-.059c.266-.131.392-.474.318-.865-.041-.221-.133-.35804-.302-.45104l-.135-.075-6.72501-.025-.021-.35c-.031-.558-.003-2.592.043-2.981.158-1.357.497-2.211 1.125-2.837.601-.598 1.38301-.95 2.37801-1.071.321-.039 1.092-.034 1.487.011.901.102 1.876.35 2.713.692.28.115.501.118.674.011.313-.195.496-.741.344-1.03-.116-.219-.374-.362-1.094-.604-.8786-.29711-1.7887-.4914-2.712-.579-.4413-.023826-.8834-.026829-1.325-.009003z"/></svg>