<svg viewBox="0 0 20 20" xmlns="http://www.w3.org/2000/svg"><path d="m6.24935 2.41669c-.35362 0-.69276.14047-.94281.39052s-.39052.58919-.39052.94281.14047.69276.39052.94281.58919.39052.94281.39052h2.74842c-.10864-.29788-.25247-.63669-.43683-.97189-.52902-.96185-1.27033-1.69477-2.31159-1.69477zm3 4.16666v2.66667h-6.83333v-2.66667zm-5.50001-1.5c-.21688-.40669-.33332-.864-.33332-1.33333 0-.75145.29851-1.47212.82986-2.00347s1.25202-.829863 2.00347-.829863c1.87541 0 3.00909 1.350413 3.62591 2.471893.04329.0787.08463.15727.12409.23535.03945-.07808.08085-.15665.12405-.23535.6169-1.12148 1.7505-2.471893 3.6259-2.471893.7515 0 1.4722.298513 2.0035.829863.5314.53135.8299 1.25202.8299 2.00347 0 .46933-.1165.92664-.3333 1.33333h2.0833c.4142 0 .75.33579.75.75v4.16665c0 .4142-.3358.75-.75.75h-.9167v7.5834c0 .4142-.3358.75-.75.75h-13.33332c-.41421 0-.75-.3358-.75-.75v-7.5834h-.91666c-.41422 0-.750004-.3358-.750004-.75v-4.16665c0-.41421.335784-.75.750004-.75zm.33334 5.66665v6.8334h5.16667v-6.8334zm6.66662 0v6.8334h5.1667v-6.8334zm6.8334-1.49998v-2.66667h-6.8334v2.66667zm-3.8334-4.16667c.3537 0 .6928-.14047.9429-.39052.25-.25005.3905-.58919.3905-.94281s-.1405-.69276-.3905-.94281c-.2501-.25005-.5892-.39052-.9429-.39052-1.0412 0-1.7825.73292-2.3115 1.69477-.1844.3352-.3282.67401-.4369.97189z" fill-rule="evenodd"/></svg>