<svg viewBox="0 0 20 20" xmlns="http://www.w3.org/2000/svg"><path d="m10.0007 19.1666c5.0626 0 9.1666-4.104 9.1666-9.16662 0-5.06261-4.104-9.166667-9.1666-9.166667-5.06266 0-9.166716 4.104057-9.166716 9.166667 0 5.06262 4.104056 9.16662 9.166716 9.16662zm2.1536-14.19179c-1.1425-.2712-2.33265-.2712-3.4751 0-.65754-.41609-1.16456-.61037-1.53844-.69337-.20574-.04568-.37047-.05747-.49619-.05401-.06271.00173-.11512.00723-.15745.01399-.03183.00507-.06474.01198-.09569.02106-.1491.04423-.2708.1525-.33207.29545-.27962.65239-.33145 1.3766-.15274 2.05729-.46893.59588-.72513 1.33552-.72138 2.09992.00029 1.53176.47278 2.55906 1.255 3.21676.52738.4435 1.15796.6855 1.77898.8271-.0079.02-.01552.04-.02287.0602-.10763.2954-.15315.6098-.13378.9234v.0316c-.39329.0801-.67686.0686-.88622.0196-.26366-.0617-.45904-.1942-.64029-.3755-.09357-.0936-.18135-.1981-.27476-.3151-.02421-.0303-.04987-.0629-.07647-.0967-.06886-.0874-.14438-.1832-.21717-.2687-.20439-.2399-.4903-.5275-.91712-.6342-.2803-.07-.56433.1004-.63441.3807-.07007.2803.10035.5643.38065.6344.09633.0241.20279.0962.37441.2976.05918.0695.11434.1395.17732.2195.02956.0375.06088.0773.09511.1202.10073.1262.2173.2668.35261.4022.2765.2765.63697.5363 1.14169.6544.33176.0776.7029.0887 1.12465.0242v.9132c0 .2889.23422.5232.52314.5232.28893 0 .52315-.2343.52315-.5232v-1.5572c.00018-.008.00019-.016 0-.024v-.4433c0-.0123-.00043-.0245-.00129-.0367-.01221-.1737.01227-.3479.07186-.5115.05958-.1635.15293-.3127.27398-.4377.13793-.1426.18339-.3508.11742-.5379-.06598-.187-.23205-.3207-.42887-.3451-.79457-.0987-1.5107-.2902-2.02836-.7255-.49141-.4132-.88207-1.1144-.88206-2.41735l-.00002-.00278c-.00319-.60055.22636-1.179.64048-1.61396.13805-.145.18124-.35608.11124-.54365-.15033-.40281-.17427-.83895-.07317-1.25137l.00393.00087c.25516.05665.70685.21846 1.38043.66997.12579.08432.28196.11.42813.07038.43163-.11698.87235-.18845 1.31514-.2144.6952-.04076 1.3954.0307 2.0732.2144.1462.03962.3024.01394.4282-.07038.6735-.45151 1.1252-.61332 1.3804-.66997l.0039-.00087.036.18026c.0555.35762.0194.72655-.1092 1.07111-.07.18757-.0268.39864.1113.54364.1981.20807.3539.44902.4623.70956.1165.28007.1781.58278.1781.8916 0 1.31494-.3917 2.02064-.882 2.43294-.5158.4337-1.2299.6208-2.0218.709-.1984.0221-.3669.1552-.4344.3431-.0675.1878-.0222.3977.1167.541.1225.1263.2167.2773.2763.4429.0596.1655.0833.3419.0695.5173-.001.0137-.0016.0274-.0016.0411v2.0245c0 .2889.2342.5232.5232.5232.2889 0 .5231-.2343.5231-.5232v-2.0053c.0219-.3163-.0223-.6337-.1298-.9322-.0075-.0207-.0153-.0414-.0233-.0619.6201-.1367 1.249-.376 1.7754-.8187.7835-.6588 1.255-1.6926 1.255-3.23394-.0001-.75848-.2561-1.49145-.7213-2.08273.1787-.6807.1268-1.40491-.1528-2.0573-.0612-.14295-.1871-.25244-.3362-.29666-.03-.00852-.0607-.01494-.0915-.01985-.0424-.00676-.0948-.01226-.1575-.01399-.1257-.00346-.2904.00833-.4962.05401-.3739.083-.8809.27728-1.5384.69337z" fill-rule="evenodd"/></svg>