<svg viewBox="0 0 20 20" xmlns="http://www.w3.org/2000/svg"><path d="m4.15655.528203c-.422.083-.606.325-.816 1.073997-.192.686-.227 1.678-.082 2.336l.064.293-.231.344c-.45179.65962-.74665 1.41387-.862 2.205-.06.388-.057 1.382.005 1.916.062.536.176 1.083.316 1.517.144.443.499 1.149.766 1.521.763 1.064 1.939 1.779 3.586 2.18.061.015.111.04.11.057-.001.016-.04.148-.087.293-.11617.3673-.17717.7498-.181 1.135v.29l-.166.038c-.20194.0311-.40572.0488-.61.053-.538.018-.794-.028-1.171-.21-.348-.169-.631-.437-1.227-1.164-.20597-.2574-.42352-.5053-.652-.743-.469-.43-1.078-.7-1.446-.643-.31.048-.518001.329-.547001.739-.027.379.092001.563.451001.698.406.151.477.215 1.1.975.761.928 1.243 1.331 1.906 1.589.502.196.766.241 1.428.241.313 0 .651-.011.749-.024l.18-.024.01.895c.011.881.012.897.09 1.053.04459.0881.10729.1658.184.228.138.091.411.145.599.119.372-.053.569-.236.598-.557.008-.094.019-1.018.024-2.054.008-1.67.015-1.906.063-2.073.08145-.2803.21888-.5413.404-.767.231-.275.312-.459.312-.707 0-.219-.069-.417-.178-.513-.109-.098-.291-.153-.717-.217-.932-.142-1.587-.332-2.223-.645-.462-.227-.755-.434-1.067-.753-.792-.81-1.205-2.143-1.157-3.741.013-.447.03-.599.097-.854.1511-.58483.43513-1.1269.83-1.584.131-.155.25-.329.27-.397.049-.162.026-.376-.077-.717-.15712-.52183-.19-1.07319-.096-1.61l.052-.281.129.021c.463.074 1.217.438 2.194 1.059.236.15.41.158.899.04.79722-.1987 1.61642-.29548 2.43795-.288.886 0 1.58.082 2.438.288.49.118.663.11.9-.04.977-.621 1.731-.985 2.193-1.059l.13-.021.038.202c.06.311.077.879.035 1.168-.0326.1927-.0763.38335-.131.571-.154.519-.12.702.2 1.063.469.529.781 1.189.896 1.894.059.368.059 1.064-.001 1.577-.2 1.71-.864 2.792-2.102 3.424-.635.325-1.258.503-2.282.655-.474.07-.622.133-.792.338-.0642.084-.1136.1784-.146.279-.069.236-.008.407.257.726.116.139.259.349.318.467.221.437.214.361.233 2.64l.017 2.06.09.135c.123.187.311.267.623.267.37 0 .566-.107.687-.376.052-.115.058-.283.066-2.073.008-1.625.002-1.998-.038-2.253-.0472-.2805-.1215-.5558-.222-.822-.018-.043.037-.065.336-.138 1.443-.349 2.633-1.096 3.359-2.109.2961-.4466.5412-.9249.731-1.426.254-.758.367-1.464.392-2.428.019-.77-.007-1.079-.135-1.591-.1467-.61546-.4064-1.19834-.766-1.719l-.235-.348.049-.209c.21-.903.133-1.955-.207-2.859-.117-.308997-.308-.524997-.522-.588997-.713-.214-1.957.134-3.255.908997l-.376.225-.289-.062c-.8171-.18082-1.6521-.26771-2.489-.259-.92295 0-1.62795.074-2.49095.259l-.29.063-.292-.178c-1.229-.744997-2.478-1.133997-3.188-.993997z"/></svg>