<svg viewBox="0 0 20 20" xmlns="http://www.w3.org/2000/svg"><path d="m3.53377 2.37196c-.213.093-.36.38-.64 1.257-.302.946-.41 1.58-.458 2.704l-.033.778-.113.167c-.226.333-.475.888-.614 1.367-.473 1.62804-.447 3.78404.063 5.32504.553 1.668 1.623 2.877 3.266 3.69 1.402.693 2.921.996 4.995.996 1.67903 0 2.99403-.203 4.22003-.651.5403-.2144 1.0607-.4761 1.555-.782 1.639-1.09 2.556-2.653 2.824-4.815.068-.546.068-1.807-.001-2.36-.09-.73104-.243-1.39804-.429-1.86704-.1268-.31412-.2807-.6166-.46-.904l-.114-.169-.019-.521c-.047-1.313-.149-1.954-.47-2.958-.346-1.083-.492-1.3-.873-1.299-.234.001-1.33.4-2.018.736-.633.309-1.13.643-1.839 1.238l-.34.285-.267-.066c-1.1633-.27498-2.37472-.27498-3.53803 0l-.267.066-.34-.285c-.951-.8-1.663-1.219-2.788-1.646-.838-.317-1.099-.374-1.302-.286zm1.284 1.715c.856.367 1.418.745 2.314 1.557.197.177.402.342.457.365.146.061.304.049.506-.038.509-.219 1.093-.317 1.905-.317.81203 0 1.39603.098 1.90503.317.219.094.383.099.538.016.065-.035.267-.199.45-.365.7-.637 1.297-1.066 1.892-1.356.324-.158.919-.406.974-.406.034 0 .18.464.284.9.137.58.173.927.194 1.875.022 1.005.013.961.257 1.247.376.441.666 1.291.781 2.29304.057.492.066 1.604.017 2.01-.213 1.748-.876 2.951-2.117 3.841-.33.236-1.119.635-1.544.78-.646.219-1.401.38-2.206.469-.486.054-2.36403.054-2.85003 0-.805-.089-1.56-.25-2.206-.469-.428-.146-1.213-.543-1.558-.789-.331-.235-.884-.771-1.104-1.07-.765-1.042-1.104-2.428-1.024-4.187.059-1.28204.361-2.33604.823-2.87804.244-.286.235-.242.257-1.247.025-1.143.095-1.624.36-2.485.108-.351.04-.345.695-.063zm1.391 4.275c-1.484.205-2.341 1.12-2.54 2.71304-.049.389-.04 1.16.016 1.488.277 1.595 1.353 2.55 3.255 2.888.638.113.904.124 3.06.124 2.15603 0 2.42203-.011 3.06003-.124 1.905-.339 2.978-1.292 3.255-2.892.058-.333.066-1.128.016-1.499-.202-1.49704-.928-2.34804-2.253-2.64504-.286-.064-.38-.07-1.093-.068-.644.002-.895.016-1.44.081-1.442.172-1.61503.172-3.06603.003-.721-.084-1.902-.12-2.27-.069zm2.126 1.389c1.525.173 1.78403.174 3.18003.015.963-.109 1.948-.135 2.28-.06.634.143.99.50804 1.161 1.19104.09.364.1 1.326.015 1.633-.12.439-.33.777-.63 1.015-.444.352-1.048.555-2.001.671-.445.055-4.23503.055-4.68003 0-1.402-.171-2.143-.557-2.487-1.297-.172-.367-.198-.524-.197-1.169.001-.502.011-.623.068-.853.191-.763.597-1.12204 1.386-1.22704.252-.034 1.282.01 1.905.081zm-1.052.61504c-.407.106-.719.472-.872 1.024-.076.274-.076.956 0 1.23.132.476.348.776.672.936.1289.0748.27729.1093.426.099.13687.0103.27386-.0185.395-.083.327-.16.603-.565.701-1.028.05699-.3571.05699-.721 0-1.078-.097-.458-.375-.868-.694-1.024-.19714-.0872-.41576-.1136-.628-.076zm4.94703.015c-.4.131-.721.549-.835 1.085-.057.357-.057.7209 0 1.078.098.463.374.868.701 1.028.1211.0645.2581.0933.395.083.524 0 .913-.366 1.098-1.035.04-.145.054-.302.054-.615 0-.462-.04-.667-.194-.992-.187-.393-.515-.635-.891-.66-.1102-.0094-.2211 0-.328.028z"/></svg>