<svg viewBox="0 0 20 20" xmlns="http://www.w3.org/2000/svg"><path d="m4.77696 1.75h9.95244c.3023.00012.5929.0941.8377.26268.2438.16794.4304.40117.5472.66563.1167.2642.162.55487.1341.84056-.0278.28572-.1286.56329-.2977.80014l-5.4697 7.65789c.0143.0578.0219.1184.0219.1807v4.5924h2.4547c.4142 0 .75.3358.75.75s-.3358.75-.75.75h-3.19613c-.00284 0-.00569 0-.00854 0-.00286 0-.0057 0-.00855 0h-3.19751c-.41421 0-.75-.3358-.75-.75s.33579-.75.75-.75h2.45606v-4.5924c0-.0625.00764-.1232.02205-.1813l-5.46924-7.65726c-.16916-.23685-.26992-.51445-.29777-.80017-.02785-.28569.01742-.57637.13412-.84056.1168-.26446.30339-.49768.54722-.66563.24474-.16858.53537-.26256.83765-.26268zm4.97624 8.6651 2.652-3.71295h-5.30398zm-3.72337-5.21295h7.44677l1.2534-1.75492c.011-.01538.0223-.0407.0255-.07389.0032-.03324-.0026-.06467-.0133-.08898-.0087-.01975-.0184-.03005-.0234-.03436h-9.93117c-.00502.00431-.01471.01461-.02343.03436-.01073.02431-.01655.05574-.01331.08898.00323.03319.01449.05848.02547.07386-.00001 0 0 .00001 0 0z"/></svg>