<svg viewBox="0 0 20 20" xmlns="http://www.w3.org/2000/svg"><path d="m2.45264 9.24996h3.49885c.1801-2.3882.99198-4.67912 2.34288-6.6409-3.13055.71923-5.52123 3.3763-5.84173 6.6409zm7.54671-6.42614c-1.459 1.84557-2.34391 4.08069-2.54306 6.42614h5.08611c-.1991-2.34545-1.0841-4.58057-2.54305-6.42614zm2.54305 7.92618c-.1991 2.3454-1.0841 4.5805-2.54305 6.4261-1.459-1.8456-2.34391-4.0807-2.54306-6.4261zm-6.59091 0h-3.49885c.3205 3.2646 2.71117 5.9216 5.84173 6.6409-1.3509-1.9618-2.16278-4.2527-2.34288-6.6409zm5.75281 6.6409c1.3509-1.9618 2.1628-4.2527 2.3429-6.6409h3.4989c-.3205 3.2646-2.7112 5.9216-5.8418 6.6409zm5.8418-8.14094h-3.4989c-.1801-2.3882-.992-4.67912-2.3429-6.6409 3.1306.71923 5.5213 3.3763 5.8418 6.6409zm-16.630084.75c0-5.01659 4.066744-9.083334 9.083334-9.083334 5.01655 0 9.08335 4.066744 9.08335 9.083334 0 5.01654-4.0668 9.08334-9.08335 9.08334-5.01659 0-9.083334-4.0668-9.083334-9.08334z" fill-rule="evenodd"/></svg>