<svg viewBox="0 0 20 20" xmlns="http://www.w3.org/2000/svg"><path d="m7.50065 3.25c-1.42674 0-2.58333 1.1566-2.58333 2.58333 0 1.42674 1.15659 2.58334 2.58333 2.58334s2.58335-1.1566 2.58335-2.58334c0-1.42673-1.15661-2.58333-2.58335-2.58333zm-4.08333 2.58333c0-2.25516 1.82817-4.08333 4.08333-4.08333s4.08335 1.82817 4.08335 4.08333c0 2.25517-1.82819 4.08334-4.08335 4.08334s-4.08333-1.82817-4.08333-4.08334zm9.19008-3.41103c.1028-.40126.5113-.64327.9126-.54053.8784.22489 1.6569.73572 2.2128 1.45194.556.71623.8577 1.59712.8577 2.50379s-.3017 1.78756-.8577 2.50379c-.5559.71622-1.3344 1.22705-2.2128 1.45194-.4013.10274-.8098-.13926-.9126-.54053-.1027-.40127.1393-.80985.5406-.9126.5556-.14227 1.0482-.46545 1.3999-.91857s.5426-1.01042.5426-1.58403-.1909-1.13091-.5426-1.58403-.8443-.7763-1.3999-.91857c-.4013-.10274-.6433-.51133-.5406-.9126zm-11.32743 10.5237c.76577-.7658 1.80438-1.196 2.88735-1.196h6.66668c1.083 0 2.1216.4302 2.8873 1.196.7658.7658 1.196 1.8044 1.196 2.8873v1.6667c0 .4142-.3358.75-.75.75s-.75-.3358-.75-.75v-1.6667c0-.6851-.2722-1.3422-.7566-1.8267-.4845-.4844-1.1416-.7566-1.8267-.7566h-6.66668c-.68514 0-1.34223.2722-1.82669.7566-.48447.4845-.75665 1.1416-.75665 1.8267v1.6667c0 .4142-.33578.75-.749996.75-.414213 0-.7499996-.3358-.7499996-.75v-1.6667c0-1.0829.4302076-2.1215 1.1959856-2.8873zm14.66113-.5252c.1036-.401.5127-.6422.9137-.5387.876.2262 1.6521.7369 2.2064 1.452.5543.715.8554 1.5939.8561 2.4987v1.6672c0 .4142-.3358.75-.75.75s-.75-.3358-.75-.75v-1.6661c-.0004-.5724-.1909-1.1284-.5416-1.5808s-.8417-.7755-1.3959-.9186c-.401-.1035-.6422-.5126-.5387-.9137z"/></svg>