<svg viewBox="0 0 20 20" xmlns="http://www.w3.org/2000/svg"><path d="m1.48828 3.43362c0-1.07357.8703-1.94387 1.94388-1.94387h13.13264c1.0736 0 1.9439.87031 1.9439 1.94387v13.13268c0 1.0736-.8703 1.9439-1.9439 1.9439h-13.13264c-1.07357 0-1.94388-.8703-1.94388-1.9439zm1.94388-.44387c-.24515 0-.44388.19873-.44388.44387v13.13268c0 .2451.19872.4439.44388.4439h13.13264c.2452 0 .4439-.1988.4439-.4439v-13.13268c0-.24515-.1987-.44387-.4439-.44387zm4.17857 3.27551c.41421 0 .75.33578.75.75v2.23469h3.27517v-2.23468c0-.41422.3358-.75.75-.75s.75.33578.75.75v2.96126c.0002.00778.0003.01559.0003.02342 0 .00785-.0001.01565-.0003.02345v2.9613c0 .4142-.3358.75-.75.75s-.75-.3358-.75-.75v-2.2347h-3.27517v2.2346c0 .4143-.33579.75-.75.75s-.75-.3357-.75-.75v-5.96934c0-.41422.33579-.75.75-.75z"/></svg>