<svg viewBox="0 0 20 20" xmlns="http://www.w3.org/2000/svg"><path d="m16.803 8.20298c.1708-.22769.1744-.53979.009-.77139l-1.4353-2.00962c0-.00001 0 0 0 0-.4798-.67182-1.0778-1.25085-1.7646-1.70882-.0001-.00001 0 .00001 0 0l-.5495-.36625c-.3446-.22975-.4378-.6954-.208-1.04005.2297-.34466.6954-.43781 1.04-.20806l.5495.36625c.8381.55882 1.5678 1.26539 2.1532 2.08513l1.4353 2.00962c.5454.76359.5334 1.79247-.0296 2.54316-.7853 1.04715-2.2934 1.14315-3.2078.26734l-.0001 7.21071c0 1.1978-.971 2.169-2.1689 2.169-1.198 0-2.169-.9712-2.169-2.1691v-2.0082c-.2107.0683-.4355.1052-.6689.1052-.74441-.0001-1.4012-.3751-1.7918-.9465-.31021.1711-.66678.2685-1.04612.2685-.74468 0-1.40165-.3753-1.7922-.947-.31014.171-.6666.2683-1.04579.2683-1.19795 0-2.16891-.9712-2.16896-2.169l.00009-6.25374c0-.00001 0 .00001 0 0 0-.86755.34461-1.69943.95785-2.31288l.39703-.39696c.29292-.29287.76779-.29283 1.06066.00009s.29283.76779-.00009 1.06066l-.39676.39668c.00005-.00004-.00004.00005 0 0-.33204.33224-.51869.78276-.51869 1.25239l-.00009 6.25366s0 .0001 0 0c.00004.3696.2996.6691.66896.6691.36946 0 .66902-.2995.66903-.669v-1.62179c0-.41421.33578-.75.75-.75.41421 0 .75.33579.75.75v2.30039s0 .0001 0 0c.00003.3696.29959.6691.66896.6691.36942 0 .66897-.2995.66897-.669l.00005-2.30051c.00001-.41421.33581-.74999.75002-.74998s.74999.3358.74999.75002l-.00006 2.97837c0 .3696.29956.669.66895.6691.3694 0 .669-.2995.669-.6691v-2.4108c0-.41419.3358-.74997.75-.74997.4142.00001.75.3358.75.74997l-.0001 6.483c0 .3695.2995.669.669.669.3694 0 .6689-.2995.6689-.6691l.0001-9.32097c0-.41421.3358-.74999.7501-.74999.255.00001.4804.12735.6159.32193l1.1096 1.38723c.2666.33333.7761.32537 1.0322-.01612z"/></svg>