<svg viewBox="0 0 20 20" xmlns="http://www.w3.org/2000/svg"><path d="m10.897 1.99607c.7507-.56299 1.7796-.57496 2.5432-.0296l2.0096 1.43528c.8198.58547 1.5263 1.31506 2.0851 2.15322l.3663.54948c.2298.34466.1366.8103-.2081 1.04005-.3446.22975-.8103.1366-1.04-.20805l-.3662-.54938c0-.00001 0 .00002 0 0-.458-.68688-1.0371-1.28486-1.7089-1.76468l-2.0096-1.43528c-.2316-.16541-.5437-.16178-.7714.00898-.3415.2561-.3494.76556-.0161 1.0322l1.3872 1.10964c.1946.13549.3219.36082.3219.6159.0001.41421-.3357.75-.7499.75001l-9.32104.00013c-.36956 0-.66906.29955-.66906.66895 0 .36941.2995.66895.66903.66896l6.48292-.00012c.41425 0 .74995.33577.75005.74999 0 .41421-.3358.75001-.75003.75001l-2.41076.00006c-.36955 0-.66907.29955-.66907.66898 0 .3694.2995.6689.66906.6689h2.9784c.4142 0 .75.3357.75.75 0 .4142-.3358.75-.75.75h-2.30046c-.36955 0-.66906.2996-.66906.669-.00001.3694.29945.6689.66903.669-.00001 0 .00002 0 0 0h2.30049c.4142 0 .75.3358.75.75s-.3358.75-.75.75h-1.62178c-.3695 0-.66905.2995-.66905.669 0 .3694.29945.6689.66903.669-.00002 0 .00002 0 0 0l6.2537-.0001c.4697 0 .9201-.1865 1.2523-.5186l.3968-.3969c.2929-.2929.7678-.2929 1.0607-.0001.2929.2929.2929.7678.0001 1.0607l-.3968.3969c-.6135.6132-1.4455.958-2.313.958-.0001 0 0 0 0 0l-6.25378.0001c-1.19782-.0001-2.16907-.9711-2.16905-2.169 0-.3792.09731-.7357.26832-1.0458-.57174-.3905-.94703-1.0475-.94701-1.7922 0-.3793.09738-.7359.2685-1.0461-.57141-.3906-.94644-1.0474-.94644-1.7918 0-.23345.03688-.45827.10512-.66896l-2.00821.00004c-1.19788 0-2.16905-.97103-2.16905-2.16896 0-1.19792.97116-2.16894 2.16904-2.16895-.00001 0 0 0 0 0l7.21066-.0001c-.87582-.91443-.77986-2.42246.2673-3.2078z"/></svg>