<svg viewBox="0 0 20 20" xmlns="http://www.w3.org/2000/svg"><path d="m8.20274 3.19609c-.2277-.17076-.53979-.17439-.7714-.00898l-2.00962 1.43528c-.67181.47982-1.25084 1.07775-1.70881 1.76463-.00002.00002.00001-.00002 0 0l-.36625.54943c-.22975.34465-.6954.4378-1.04006.20805-.34465-.22975-.43781-.69539-.20806-1.04005l.36625-.54943c.55883-.83815 1.26539-1.5678 2.08513-2.15327l2.00963-1.43528c.76359-.54536 1.79246-.53339 2.54316.0296 1.04719.78534 1.14319 2.29337.26734 3.2078l7.21065.0001c1.1979 0 2.1691.97103 2.169 2.16895 0 1.19793-.9711 2.16896-2.169 2.16896l-2.0082-.00004c.0682.21069.1051.43551.1051.66896 0 .7444-.375 1.4012-.9464 1.7918.1711.3102.2685.6668.2685 1.0461 0 .7447-.3753 1.4017-.947 1.7922.171.3101.2683.6666.2683 1.0458 0 1.1979-.9712 2.1689-2.169 2.169l-6.25378-.0001c-.00001 0 0 0 0 0-.86756 0-1.69943-.3446-2.31288-.9579l-.39697-.397c-.29286-.2929-.29282-.7678.0001-1.0607.29291-.2928.76779-.2928 1.06066.0001l.39668.3968c-.00005-.0001.00005 0 0 0 .33224.332.78276.5187 1.25239.5187l6.2537.0001c.3696-.0001.6691-.2996.6691-.669 0-.3695-.2996-.669-.6691-.669h-1.62173c-.41422 0-.75-.3358-.75-.75s.33578-.75.75-.75h2.30043c.3696-.0001.6691-.2996.6691-.669s-.2995-.669-.6691-.669h-2.30045c-.41421 0-.74999-.3358-.74998-.75s.3358-.75.75001-.75h2.97832c.3696 0 .6691-.2995.6691-.6689 0-.36943-.2995-.66898-.669-.66898l-2.4108-.00006c-.41424 0-.75002-.33579-.75001-.75001.00001-.41421.3358-.74999.75001-.74999l6.4829.00012c.3695 0 .669-.29955.669-.66896 0-.3694-.2994-.66895-.669-.66895l-9.32101-.00013c-.41421-.00001-.75-.3358-.74999-.75001 0-.25508.12734-.48041.32192-.6159l1.38724-1.10964c-.00001 0 0 0 0 0 .33332-.26664.32537-.7761-.01612-1.0322z"/></svg>