<svg viewBox="0 0 20 20" xmlns="http://www.w3.org/2000/svg"><path d="m3.19701 11.797c-.17077.2277-.1744.5398-.00898.7714l1.43527 2.0096c.47982.6718 1.07776 1.2509 1.76463 1.7089.00002 0-.00001-.0001 0 0l.54943.3662c.34466.2297.43781.6954.20806 1.0401-.22975.3446-.6954.4378-1.04006.208l-.54942-.3662c-.83815-.5589-1.56781-1.2654-2.15328-2.0852l-1.43528-2.0096c-.54536-.7636-.53338-1.7925.0296-2.5431.78534-1.04725 2.29338-1.14321 3.20781-.2674l.0001-7.21065c0-1.19788.97102-2.16905 2.16895-2.16904 1.19792 0 2.16896.97116 2.16895 2.16905l-.00003 2.00821c.21069-.06824.43551-.10512.66894-.10512.7444 0 1.4012.37502 1.7918.94643.3102-.17112.6668-.2685 1.0461-.2685.7447-.00001 1.4017.37528 1.7922.94701.3102-.171.6666-.26831 1.0458-.26831 1.198-.00002 2.1689.97118 2.169 2.169l-.0001 6.25372c0 .8676-.3446 1.6995-.9579 2.3129l-.397.397c-.2929.2928-.7678.2928-1.0607-.0001-.2928-.2929-.2928-.7678.0001-1.0607l.3968-.3967c-.0001.0001 0 0 0 0 .332-.3322.5187-.7827.5187-1.2523l.0001-6.25375c-.0001-.36958-.2996-.66908-.669-.66907-.3695 0-.669.29954-.669.66904v1.62178c0 .4142-.3358.75-.75.75s-.75-.3358-.75-.75v-2.30044c-.0001-.36959-.2996-.66908-.669-.66908s-.6689.2995-.6689.66905l-.0001 2.30047c0 .4142-.3358.75-.75.75s-.75-.3358-.75-.75v-2.97839c0-.36957-.2995-.66906-.6689-.66906-.36942 0-.66896.2995-.66896.66905l-.00006 2.41078c-.00001.41422-.3358.75002-.75001.75002-.41422 0-.75-.3358-.74999-.75005l.00011-6.4829c0-.36954-.29954-.66904-.66896-.66904-.36939 0-.66894.29949-.66894.66906l-.00013 9.32103c-.00001.4142-.3358.75-.75001.75-.25508 0-.48042-.1274-.61591-.322l-1.10964-1.3872c-.26663-.3333-.77609-.3254-1.03219.0161z"/></svg>