<svg viewBox="0 0 20 20" xmlns="http://www.w3.org/2000/svg"><path d="m9.99935 3.33335c-1.76811 0-3.4638.70238-4.71405 1.95262-1.25024 1.25025-1.95262 2.94594-1.95262 4.71403v.8334h1.66667c.66304 0 1.29892.2633 1.76777.7322.46884.4688.73223 1.1047.73223 1.7678v2.5c0 .663-.26339 1.2989-.73223 1.7677-.46884.4689-1.10473.7323-1.76777.7323h-.83333c-.66305 0-1.29893-.2634-1.76777-.7323-.46884-.4688-.73223-1.1047-.73223-1.7677v-5.8334c0-2.21012.87797-4.32973 2.44077-5.89254 1.56281-1.5628 3.68242-2.44077 5.89256-2.44077 2.21015 0 4.32975.87797 5.89255 2.44077 1.5628 1.56281 2.4408 3.68242 2.4408 5.89254v5.8334c0 .663-.2634 1.2989-.7323 1.7677-.4688.4689-1.1047.7323-1.7677.7323h-.8334c-.663 0-1.2989-.2634-1.7677-.7323-.4689-.4688-.7323-1.1047-.7323-1.7677v-2.5c0-.6631.2634-1.299.7323-1.7678.4688-.4689 1.1047-.7322 1.7677-.7322h1.6667v-.8334c0-1.76809-.7024-3.46378-1.9526-4.71403-1.2502-1.25024-2.9459-1.95262-4.71405-1.95262zm6.66665 9.16665h-1.6667c-.221 0-.4329.0878-.5892.2441s-.2441.3682-.2441.5893v2.5c0 .221.0878.4329.2441.5892s.3682.2441.5892.2441h.8334c.221 0 .433-.0878.5892-.2441.1563-.1563.2441-.3682.2441-.5892zm-13.33332 3.3334c0 .221.0878.4329.24408.5892s.36824.2441.58926.2441h.83333c.22101 0 .43297-.0878.58925-.2441s.24408-.3682.24408-.5892v-2.5c0-.2211-.0878-.433-.24408-.5893s-.36824-.2441-.58925-.2441h-1.66667z"/></svg>