<svg viewBox="0 0 20 20" xmlns="http://www.w3.org/2000/svg"><path d="m14.1254 1.74847c-.7006 0-1.3943.13804-2.0415.40622-.6472.26816-1.2353.66131-1.7306 1.15677l-.3529.35288-.35298-.35301c-1.00039-1.00039-2.35722-1.56241-3.772-1.56241-1.41477 0-2.7716.56202-3.77199 1.56241-1.0004 1.0004-1.562414 2.35723-1.562414 3.772s.562014 2.7716 1.562414 3.77197l7.36667 7.3667c.29289.2929.7678.2929 1.0607 0l7.3665-7.3665c.4955-.4953.8886-1.08338 1.1568-1.73061.2681-.64724.4062-1.34097.4062-2.04156 0-.7006-.1381-1.39433-.4062-2.04156-.2682-.64712-.6612-1.23509-1.1566-1.73031-.4952-.49551-1.0833-.88859-1.7305-1.15677-.6473-.26818-1.341-.40622-2.0416-.40622z"/></svg>