<svg viewBox="0 0 20 20" xmlns="http://www.w3.org/2000/svg"><path d="m12.0839 2.15469c.6472-.26818 1.3409-.40622 2.0415-.40622s1.3943.13804 2.0416.40622c.6472.26818 1.2353.66126 1.7305 1.15677.4954.49522.8884 1.08319 1.1566 1.73031.2681.64723.4062 1.34096.4062 2.04156 0 .70059-.1381 1.39432-.4062 2.04156-.2682.64717-.6612 1.23521-1.1567 1.73041 0 .0001-.0001.0001-.0001.0002l-7.3665 7.3665c-.2929.2929-.76781.2929-1.0607 0l-7.36667-7.3667c-1.0004-1.00037-1.562414-2.3572-1.562414-3.77197s.562014-2.7716 1.562414-3.772c1.00039-1.00039 2.35722-1.56241 3.77199-1.56241 1.41478 0 2.77161.56202 3.772 1.56241l.35298.35301.3529-.35288c.4953-.49551 1.0833-.88859 1.7306-1.15677zm2.0415 1.09378c-.5035 0-1.0021.09922-1.4673.29197-.4652.19276-.8879.47528-1.2439.83143l-.0001.00012-.8833.88334c-.2929.29289-.76781.29289-1.0607 0l-.88334-.88334c-.71909-.71909-1.69439-1.12307-2.71134-1.12307-1.01694 0-1.99224.40398-2.71133 1.12307s-1.12307 1.69439-1.12307 2.71134.40398 1.99225 1.12307 2.71134l6.83631 6.83633 6.8364-6.83633.0001-.00013c.3561-.35598.6387-.77864.8314-1.24384.1928-.4652.292-.96382.292-1.46737s-.0992-1.00217-.292-1.46737c-.1927-.4652-.4753-.88786-.8314-1.24384l-.0003-.00025c-.3559-.35615-.7786-.63867-1.2438-.83143-.4652-.19275-.9638-.29197-1.4674-.29197z"/></svg>