<svg viewBox="0 0 20 20" xmlns="http://www.w3.org/2000/svg"><path d="m10.1535 2.73619c-.0903-.07021-.21671-.07021-.30698 0l-6.50001 5.05556c-.06089.04736-.09651.12019-.09651.19734v8.67761c0 .2431.09658.4762.26849.6482.1719.1719.40506.2684.64818.2684h2.58333v-7.5833c0-.41421.33579-.75.75-.75h5c.4142 0 .75.33579.75.75v7.5833h2.5833c.2432 0 .4763-.0965.6482-.2684.1719-.172.2685-.4051.2685-.6482v-8.67761c0-.07715-.0356-.14998-.0965-.19734zm5.6798 16.34711c.641 0 1.2557-.2546 1.7089-.7078s.7078-1.0679.7078-1.7088v-8.67761c0-.54004-.2493-1.04982-.6756-1.38137l-6.5-5.05555c-.6319-.49151-1.51685-.49152-2.1488 0l-6.5 5.05555c-.42627.33155-.6756.84134-.6756 1.38137v8.67761c0 .6409.25461 1.2556.70783 1.7088.45321.4532 1.0679.7078 1.70884.7078zm-4.0833-1.5v-6.8333h-3.5v6.8333z" fill-rule="evenodd"/></svg>