<svg viewBox="0 0 20 20" xmlns="http://www.w3.org/2000/svg"><path d="m3.11618 2.59729c-.28746 0-.52048.23303-.52048.52046v13.45895c0 .2874.23301.5204.52048.5204h13.45902c.2875 0 .5205-.233.5205-.5204v-13.45895c0-.28744-.233-.52046-.5205-.52046zm-2.02048.52046c0-1.11587.90462-2.02046 2.02048-2.02046h13.45902c1.1159 0 2.0205.9046 2.0205 2.02046v13.45895c0 1.1159-.9046 2.0204-2.0205 2.0204h-13.45902c-1.11585 0-2.02048-.9045-2.02048-2.0204zm6.35295 3.13648c0-.76505.62021-1.38523 1.38524-1.38523h2.06451c.765 0 1.3852.62018 1.3852 1.38523v1.03662h1.0367c.7649 0 1.3853.62006 1.3853 1.38523v2.06452c0 .7651-.6204 1.3852-1.3853 1.3852h-1.0367v1.0365c0 .7651-.6202 1.3853-1.3852 1.3853h-2.06451c-.76503 0-1.38524-.6202-1.38524-1.3853v-1.0365h-1.03661c-.76503 0-1.38524-.6202-1.38524-1.3852v-2.06452c0-.76507.62022-1.38523 1.38524-1.38523h1.03661zm1.5.11477v1.67185c0 .41421-.33579.75-.75.75h-1.67185v1.83495h1.67185c.41421 0 .75.3358.75.75v1.6718h1.83495v-1.6718c0-.4142.3358-.75.75-.75h1.672v-1.83495h-1.672c-.4142 0-.75-.33579-.75-.75v-1.67185z"/></svg>