<svg viewBox="0 0 20 20" xmlns="http://www.w3.org/2000/svg"><path d="m6.03268 2.58331h7.93332c.4496.00024.8906.1259 1.2727.36284.3818.23672.69.57514.8901.97728.0002.00038.0003.00075.0005.00113l2.874 5.73962c.0522.10424.0794.21922.0794.3358v5.00002c0 .6409-.2546 1.2556-.7078 1.7088-.4533.4532-1.0679.7078-1.7089.7078h-13.33332c-.64094 0-1.25563-.2546-1.70884-.7078s-.707824-1.0679-.707824-1.7088v-5.00002c0-.11658.027177-.23156.079374-.3358l2.87398-5.73962c.00019-.00038.00037-.00075.00056-.00113.20009-.40214.50829-.74056.89003-.97728.3821-.23694.82312-.3626 1.27272-.36284zm0 1.5c-.1704.00017-.33738.04783-.4822.13763-.14494.08988-.26193.2184-.33782.37112l-.00102.00205-2.33131 4.65587h3.78569c.25076 0 .48493.12532.62403.33397l1.44402 2.16605h2.53053l1.444-2.16605c.1391-.20865.3733-.33397.6241-.33397h3.7857l-2.3313-4.65587-.0011-.00205c-.0759-.15272-.1928-.28124-.3378-.37112-.1448-.0898-.3118-.13746-.4822-.13763m3.6167 6.66669h-3.8486l-1.444 2.166c-.1391.2087-.3733.334-.6241.334h-3.33332c-.25076 0-.48494-.1253-.62404-.334l-1.44401-2.166h-3.84861v4.25c0 .2431.09657.4763.26848.6482s.40507.2684.64818.2684h13.33332c.2431 0 .4763-.0965.6482-.2684s.2685-.4051.2685-.6482zm-3.6167-6.66669h-7.93332z"/></svg>