<svg viewBox="0 0 20 20" xmlns="http://www.w3.org/2000/svg"><path d="m1.25 5c0-.41421.33579-.75.75-.75h15c.4142 0 .75.33579.75.75s-.3358.75-.75.75h-15c-.41421 0-.75-.33579-.75-.75zm.21967 3.53033c-.29289-.29289-.29289-.76777 0-1.06066s.76777-.29289 1.06066 0l2 2c.29289.29289.29289.76773 0 1.06063l-2 2c-.29289.2929-.76777.2929-1.06066 0s-.29289-.7677 0-1.0606l1.46967-1.4697zm5.78033-.20033c0-.41421.33579-.75.75-.75h9c.4142 0 .75.33579.75.75s-.3358.75-.75.75h-9c-.41421 0-.75-.33579-.75-.75zm.75 2.59h9c.4142 0 .75.3358.75.75s-.3358.75-.75.75h-9c-.41421 0-.75-.3358-.75-.75s.33579-.75.75-.75zm-6.75 4.08c0-.4142.33579-.75.75-.75h15c.4142 0 .75.3358.75.75s-.3358.75-.75.75h-15c-.41421 0-.75-.3358-.75-.75z"/></svg>