<svg viewBox="0 0 20 20" xmlns="http://www.w3.org/2000/svg"><path d="m9.99935 2.41663c-4.18816 0-7.58333 3.39517-7.58333 7.58333 0 4.18814 3.39517 7.58334 7.58333 7.58334 4.18815 0 7.58335-3.3952 7.58335-7.58334 0-4.18816-3.3952-7.58333-7.58335-7.58333zm-9.083334 7.58333c0-5.01659 4.066744-9.083334 9.083334-9.083334 5.01655 0 9.08335 4.066744 9.08335 9.083334 0 5.01654-4.0668 9.08334-9.08335 9.08334-5.01659 0-9.083334-4.0668-9.083334-9.08334zm8.333334-3.33333c0-.41422.33578-.75.75-.75h.00835c.4142 0 .75.33578.75.75 0 .41421-.3358.75-.75.75h-.00835c-.41422 0-.75-.33579-.75-.75zm.75 2.58333c.41425 0 .74995.33578.74995.75v3.33334c0 .4142-.3357.75-.74995.75-.41422 0-.75-.3358-.75-.75v-3.33334c0-.41422.33578-.75.75-.75z"/></svg>