<svg viewBox="0 0 20 20" xmlns="http://www.w3.org/2000/svg"><path d="m.916016 10c0-5.01657 4.066744-9.083313 9.083334-9.083313 5.01655 0 9.08335 4.066743 9.08335 9.083313 0 5.0166-4.0668 9.0834-9.08335 9.0834-5.01659 0-9.083334-4.0668-9.083334-9.0834zm9.083984-4.08331c-.41421 0-.75.33578-.75.75 0 .41421.33579.75.75.75h.0083c.4142 0 .75-.33579.75-.75 0-.41422-.3358-.75-.75-.75zm.75 4.08331c0-.41419-.3358-.74998-.75-.74998-.41421 0-.75.33579-.75.74998v3.3334c0 .4142.33579.75.75.75.4142 0 .75-.3358.75-.75z"/></svg>