<svg viewBox="0 0 20 20" xmlns="http://www.w3.org/2000/svg"><path d="m11.4861 2.75006h4.5139c.4142 0 .75-.33579.75-.75 0-.41422-.3358-.75-.75-.75h-7.41529c-.01087-.00024-.02171-.00024-.03251 0h-5.5522c-.41421 0-.75.33578-.75.75 0 .41421.33579.75.75.75h5.47326c.54273.14646 1.2919.44952 1.90784 1.01932.583.53925 1.0786 1.34412 1.1447 2.58746h-8.5258c-.41421 0-.75.33579-.75.75s.33579.75.75.75h8.3798c-.1663.6098-.4569 1.10284-.8178 1.50886-.58862.6622-1.39704 1.1278-2.25634 1.4501-.85619.321-1.72307.4849-2.38325.5674-.32814.041-.60046.0613-.78861.0714-.09396.0051-.16662.0075-.21439.0087-.02387.0006-.0415.0009-.05244.001l-.01132.0001c-.00015 0-.00123 0-.00139 0-.33569.0004-.6306.2237-.72151.547-.09098.3234.04427.6679.33101.8431l.24556.1504c.15923.0977.39099.24.68074.4187.57955.3573 1.39096.8594 2.31813 1.4388 1.8559 1.1598 4.16971 2.6253 6.01601 3.8571.3446.2299.8103.1369 1.0401-.2077.2299-.3446.1369-.8103-.2076-1.0401-1.8655-1.2445-4.1946-2.7196-6.05359-3.8813-.51236-.3202-.98947-.6169-1.41189-.8787.54067-.1089 1.13896-.2656 1.74113-.4915.99784-.3741 2.04655-.9532 2.85075-1.858.5946-.66888 1.0382-1.4971 1.2361-2.50536h3.0808c.4142 0 .75-.33579.75-.75s-.3358-.75-.75-.75h-2.9726c-.0673-1.63355-.7101-2.80159-1.5413-3.60678z"/></svg>