<svg viewBox="0 0 20 20" xmlns="http://www.w3.org/2000/svg"><path d="m5.83268 2.41663c-1.88697 0-3.41666 1.52969-3.41666 3.41666v8.33331c0 1.887 1.52969 3.4167 3.41666 3.4167h8.33332c1.887 0 3.4167-1.5297 3.4167-3.4167v-8.33331c0-1.88697-1.5297-3.41666-3.4167-3.41666zm-4.916664 3.41666c0-2.7154 2.201264-4.916664 4.916664-4.916664h8.33332c2.7154 0 4.9167 2.201264 4.9167 4.916664v8.33331c0 2.7154-2.2013 4.9167-4.9167 4.9167h-8.33332c-2.7154 0-4.916664-2.2013-4.916664-4.9167z"/><path d="m10.4141 7.40851c-.5375-.0797-1.08644.01211-1.56875.26237-.4823.25025-.87342.64622-1.11771 1.13158-.2443.48536-.32933 1.03539-.243 1.57184.08632.5365.33961 1.0321.72383 1.4163s.87981.6375 1.41628.7238c.53645.0863 1.08645.0013 1.57185-.243s.8813-.6354 1.1316-1.1177c.2502-.4823.3421-1.0312.2624-1.56873-.0814-.54826-.3368-1.05584-.7287-1.44776-.392-.39192-.8995-.6474-1.4478-.7287zm-2.2596-1.06907c.76235-.39557 1.63003-.54069 2.4796-.4147.8666.1285 1.6689.53232 2.2884 1.15181.6195.61948 1.0233 1.42178 1.1518 2.28839.126.84956-.0191 1.71726-.4147 2.47966-.3956.7623-1.0214 1.3805-1.7886 1.7667-.7672.3861-1.6366.5205-2.48456.3841-.84797-.1365-1.63132-.5368-2.23863-1.1441-.60732-.6074-1.00767-1.3907-1.14412-2.2387-.13645-.84795-.00205-1.71735.38409-2.48452.38615-.76718 1.00436-1.39307 1.76672-1.78864z"/><path d="m13.8327 5.41663c0-.41422.3358-.75.75-.75h.0083c.4142 0 .75.33578.75.75 0 .41421-.3358.75-.75.75h-.0083c-.4142 0-.75-.33579-.75-.75z"/></svg>