<svg viewBox="0 0 20 20" xmlns="http://www.w3.org/2000/svg"><path d="m18.0296 1.13636c.2929.29289.2929.76776 0 1.06066l-1.1364 1.13633 1.9697 1.96967c.1407.14066.2197.33142.2197.53033 0 .19892-.079.38968-.2197.53033l-2.9167 2.91667c-.2928.29289-.7677.29289-1.0606 0l-1.9697-1.96967-2.3987 2.39872c.2713.3568.4972.7473.6716 1.1625.2725.6484.4139 1.3444.4163 2.0478s-.1344 1.4003-.4025 2.0506-.6622 1.2411-1.1596 1.7385c-.49733.4974-1.08818.8915-1.73848 1.1595-.6503.2681-1.3472.4049-2.05059.4026-.70338-.0024-1.39936-.1439-2.04784-.4163-.64849-.2724-1.23668-.6705-1.73071-1.1711l-.00562-.0057c-.97151-1.0059-1.509054-2.3532-1.496902-3.7516.012151-1.3983.573052-2.736 1.561892-3.72485.98885-.98884 2.32651-1.54974 3.7249-1.56189 1.1501-.00999 2.26558.35186 3.18503 1.02114l7.52422-7.52424c.2929-.292896.7678-.292896 1.0607 0zm-9.0381 9.09984c-.00758-.0068-.01507-.0138-.02245-.0209-.72297-.69825-1.69128-1.08463-2.69637-1.0759-1.00509.00874-1.96654.41188-2.67727 1.1226-.71073.7107-1.11387 1.6722-1.12261 2.6773-.00872 1.0037.37663 1.9708 1.07315 2.6935.3545.3585.77626.6436 1.24112.8389.4661.1958.96633.2975 1.47189.2992s1.00646-.0967 1.47386-.2893c.4674-.1927.89207-.476 1.24956-.8335.35748-.3574.64072-.7821.83341-1.2495.19271-.4674.29101-.9683.28931-1.4739-.0017-.5055-.1034-1.0058-.29918-1.4719-.19082-.4542-.46738-.8673-.81442-1.2166zm4.9851-3.98618 1.4393 1.43934 1.856-1.85601-1.4393-1.43934z"/></svg>