<svg viewBox="0 0 20 20" xmlns="http://www.w3.org/2000/svg"><path d="m14.9714.891032c-.0885.03172-.1684.08341-.2336.151048-.0652.06764-.114.14941-.1424.23895-.0259.12937-.0459.25984-.06.391-.0096.15927-.0529.31469-.127.456-.1587.263-.3835.47986-.652.629-.405.204-.24.194-3.352.213l-2.82004.017-.299.083c-1.101.306-1.899 1.07-2.181 2.087-.049.178-.066.344-.077.76l-.015.533h-.769c-1.173.001-1.452.051-1.888.341-.37845.25509-.65772.63251-.791 1.069l-.068.225-.01 3.67497c-.006 2.178.002 3.791.019 3.96.015.157.058.373.094.48.10487.2942.27773.5595.5045.7743s.50104.373.8005.4617l.24.069h13.71004l.24-.069c.3177-.0938.6068-.2656.8411-.4999.2342-.2342.4061-.5234.4999-.8411l.069-.24v-3.87c0-3.60297-.004-3.88297-.053-4.06497-.091-.33321-.2665-.63729-.5095-.88274-.243-.24546-.5453-.42398-.8775-.51826-.168-.05-.528-.054-5.365-.062l-5.18504-.009.01-.471c.01-.449.015-.481.098-.652.116-.24.428-.547.682-.672.412-.203.232-.192 3.35504-.213 2.779-.019 2.84-.02 3.068-.084.871-.242 1.518-.713 1.929-1.406.235-.396.342-.745.364-1.195.019-.395-.014-.544-.157-.702-.179-.197998-.57-.268998-.892-.161998zm1.826 7.135998c.0541.04216.1028.09086.145.145.062.082.062.092.062 3.81297 0 3.721 0 3.731-.062 3.813-.0422.0542-.0909.1029-.145.145l-.082.062h-13.43204l-.082-.062c-.05415-.0421-.10285-.0908-.145-.145-.062-.082-.062-.099-.071-3.733-.004-2.007 0-3.69297.009-3.74697.01968-.07006.05378-.13525.1001-.19138.04632-.05614.10384-.10199.1689-.13462.075-.033 1.263-.039 6.77104-.033l6.681.006zm-12.48104 1.767c-.27.098-.4.28297-.428.60897-.033.403.131.703.435.791.198.058 1.652.058 1.814.001.326-.115.479-.445.409-.881-.039-.239-.117-.36397-.292-.46697l-.14-.082-.84-.007c-.668-.006-.864.002-.958.036zm3.18.001c-.07672.02123-.14771.05938-.20776.11164s-.10763.11733-.13924.19033c-.063.125-.074.188-.072.403.003.375.097.545.369.671.13.06.185.064.948.064.703 0 .828-.007.947-.053.276-.106.397-.319.399-.701.001-.202-.012-.268-.074-.39-.03789-.0762-.09168-.14339-.15775-.19704s-.14288-.0925-.22525-.11393c-.175-.048-1.644-.036-1.787.015zm3.18004 0c-.292.104-.416.30597-.416.68297-.001.384.119.597.397.704.119.046.244.053.947.053h.81l.165-.082c.205-.101.294-.228.337-.478.077-.449-.099-.79597-.453-.89497-.175-.048-1.644-.036-1.787.015zm3.19-.004c-.254.091-.369.23897-.416.53797-.029.183.004.455.07.583.0768.1315.1976.2317.341.283.162.057 1.616.057 1.815-.001.303-.088.465-.38.436-.786-.024-.332-.186-.54897-.469-.62797-.166-.046-1.644-.036-1.777.011zm-9.41704 2.95797c-.2.037-.276.074-.384.185-.278.283-.231.947.081 1.157.179.121.294.133 1.153.123l.815-.009.14-.082c.175-.103.253-.228.292-.467.049-.308-.021-.596-.182-.747-.166-.155-.257-.171-1.045-.178-.404-.004-.796.004-.87.018zm3.567.001c-.366.063-.539.288-.544.703-.003.354.081.54.304.671l.138.081h4.17004l.125-.072c.228-.13.316-.321.315-.676-.001-.347-.107-.537-.365-.659-.133-.062-.168-.063-2.07-.068-1.06404-.002-1.99704.006-2.07304.02zm5.97004 0c-.367.063-.54.288-.542.707-.001.355.087.546.315.676.122.07.144.072.94.081.509.006.86-.002.933-.022.0832-.0209.1614-.0585.2297-.1106.0682-.0521.1251-.1175.1673-.1924.065-.117.075-.171.075-.421 0-.267-.006-.298-.09-.433-.105-.169-.234-.245-.484-.286-.206-.034-1.343-.033-1.544.001z"/></svg>