<svg viewBox="0 0 20 20" xmlns="http://www.w3.org/2000/svg"><path d="m1.58177 2.77245c.40185-.10046.80905.14386.90951.5457l1.57601 6.30404h3.35676l.87297-4.89477c.37158-2.08343 3.36028-2.08344 3.73178 0l.873 4.89477h3.3568l1.576-6.30404c.1005-.40184.5077-.64616.9095-.5457s.6462.50766.5457.90951l-1.4851 5.94023h1.1953c.4142 0 .75.33578.75.75001 0 .4142-.3358.75-.75.75h-1.5703l-1.2284 4.9137c-.4785 1.9142-3.1989 1.9142-3.6775 0l-.0062-.025-.8719-4.8887h-2.9655l-.8719 4.8887-.00623.025c-.47856 1.9142-3.19897 1.9142-3.67753 0l-1.22842-4.9137h-1.89612c-.414214 0-.75-.3358-.75-.75 0-.41423.335786-.75001.75-.75001h1.52112l-1.48506-5.94023c-.100457-.40185.14386-.80905.54571-.90951zm2.86052 8.34975 1.13746 4.5499c.09823.3928.64922.3991.76195.0188l.81483-4.5687zm4.50543-1.50001h2.43038l-.826-4.63141c-.0237-.1332-.0799-.20347-.1347-.24561-.0625-.04815-.1521-.08032-.2545-.08032-.1023 0-.19193.03217-.25447.08032-.05472.04214-.11095.11241-.13471.24562zm4.22158 1.50001.8149 4.5687c.1127.3803.6637.374.7619-.0189l1.1375-4.5498z"/></svg>