<svg viewBox="0 0 20 20" xmlns="http://www.w3.org/2000/svg"><path d="m3.52736 2.41762c.40664-.40665.95989-.60793 1.55387-.60793h9.76837c.5939 0 1.1472.20128 1.5538.60793.4067.40666.6079.95992.6079 1.5539v6.86198l2.3821 3.4409c.0202.0292.0384.0598.0542.0915.095.19.1597.3679.1925.5651.0281.1686.028.3306.0279.4545v.0218c0 .5939-.2013 1.1472-.6079 1.5538-.4067.4067-.9599.608-1.5539.608h-15.24706c-.75366 0-1.382692-.4838-1.753452-1.0399-.4502923-.6755-.4502923-1.5684 0-2.2439l.007298-.0109h.000095l2.406379-3.476v-6.82688c0-.59398.20126-1.14724.6079-1.5539zm.53652 9.36298-2.31289 3.341c-.11161.1713-.11068.4053.00279.5755.19395.291.41197.372.50536.372h15.24706c.2531 0 .4057-.0811.4932-.1686s.1686-.2401.1686-.4932c0-.156-.002-.1966-.0075-.2297-.002-.012-.0064-.0373-.0339-.0979l-2.284-3.2991zm11.44742-1.5h-11.09184v-6.30908c0-.25312.0811-.40577.16858-.49326.08748-.08748.2401-.16857.49319-.16857h9.76837c.253 0 .4057.08109.4932.16857.0874.08749.1685.24014.1685.49326z" fill-rule="evenodd"/></svg>