<svg viewBox="0 0 20 20" xmlns="http://www.w3.org/2000/svg"><path d="m4.81339 2.87512c-.15781-.0595-.35113-.03777-.49163.05512v.00001c-.14044.09285-.23546.26161-.24221.42895-.00037.00895-.00089.01789-.00157.02682-.10268 1.3453-.1769 3.41822.05914 5.5444.23802 2.14398.78187 4.24648 1.84525 5.72558l.0087.0124c1.05102 1.5259 2.55698 2.2278 4.05603 2.5114 1.3216.2501 2.6036.1665 3.4706.0441-1.9654-3.463-4.25295-6.7343-6.83262-9.77053-.2682-.31566-.22972-.78897.08594-1.05717.31567-.26819.78898-.22971 1.05718.08595 2.6153 3.07813 4.9372 6.39225 6.9361 9.89935.4147-.7609.9277-1.8972 1.1478-3.1843.253-1.4799.1152-3.1224-.9708-4.65184l-.0007-.001c-1.0482-1.48124-2.8699-2.70728-4.8309-3.66923-1.94389-.95355-3.93796-1.60628-5.23928-1.98108-.01925-.00554-.03828-.01186-.05703-.01893zm10.00771 15.55338c.0618-.0153.1227-.0387.1812-.0707.0759-.0416.1418-.0945.1967-.1553.2639-.1914.4883-.4328.6599-.7112l.0081-.0134c.4777-.8125 1.2251-2.282 1.5236-4.0279.3009-1.7593.1495-3.83538-1.2259-5.77261-1.266-1.78859-3.3583-3.15018-5.3944-4.14895-2.04038-1.00089-4.11326-1.67976-5.4591-2.06841-.60061-.21497-1.28388-.13332-1.81671.21897-.53805.35574-.88219.96069-.91306 1.60474-.10611 1.3966-.1846 3.56518.06485 5.81218.2479 2.23298.82925 4.63928 2.11375 6.42958 1.33668 1.9365 3.24421 2.7944 5.0082 3.1282 1.74997.3311 3.40137.157 4.34077-.0042.2478-.0378.4878-.1125.7121-.221z" fill-rule="evenodd"/></svg>