<svg viewBox="0 0 20 20" xmlns="http://www.w3.org/2000/svg"><path d="m11.4026 1.49697c-.2719.07363-.5244.2057-.74.387-.108.089-1.21098 1.179-2.44997 2.422-2.43801 2.444-2.418 2.421-2.562 2.889-.08483.33918-.09031.69335-.01601 1.035.12201.461.15901.508 1.46901 1.81703 1.072 1.073 1.225 1.214 1.41199 1.31.48501.248 1.021.29 1.52798.119.341-.115.484-.233 1.48-1.22l.968-.95903 2.587 2.58203c2.691 2.686 2.718 2.711 2.962 2.711.146 0 .336-.103.48-.258.217-.236.263-.448.147-.681-.043-.085-.894-.958-2.646-2.713l-2.584-2.58603.959-.969c.661-.667.991-1.022 1.062-1.143.301-.513.326-1.263.06-1.798-.0568-.11281-.1238-.22025-.2-.321-.153-.191-1.831-1.882-2.129-2.145-.282-.249-.577-.415-.852-.48-.3092-.05567-.6259-.05533-.935.001zm.689 1.305c.113.042 2.194 2.116 2.247 2.24.0541.15063.0541.31536 0 .466-.024.057-1.009 1.062-2.347 2.397-1.987 1.981-2.32298 2.30503-2.42598 2.33203-.322.087-.358.061-1.51-1.08603-.54899-.548-1.03399-1.055-1.07699-1.127-.04022-.07045-.06606-.14818-.07602-.22869-.00995-.08051-.00383-.16219.01802-.24031.017-.065.67-.738 2.324-2.395 1.26597-1.269 2.34097-2.324 2.39097-2.347.1473-.05014.3065-.05398.456-.011zm-9.02398 11.06603c-.15157.0304-.28514.1191-.37199.247-.057.095-.061.168-.075 1.45l-.015 1.35-.42001.016c-.433.017-.537.044-.651.17-.095.104-.144.272-.144.494 0 .289.075.446.265.558l.14001.082 4.755.008c3.46797.006 4.79997-.001 4.91997-.026.316-.066.471-.319.443-.722-.017-.236-.094-.38-.257-.481-.1-.062-.155-.07-.539-.079l-.427-.011v-1.279c0-.841-.012-1.321-.033-1.399-.0299-.0926-.0836-.1757-.1557-.241s-.1602-.1105-.2553-.131c-.178-.038-6.98598-.044-7.17898-.006zm6.30301 3.062h-5.43v-1.77h5.43z"/></svg>