<svg viewBox="0 0 20 20" xmlns="http://www.w3.org/2000/svg"><path d="m15.7415 1.41176c.7166.04212 1.3896.33498 1.9506.89598.5607.5607.8536 1.23328.8959 1.9495.0415.7014-.159 1.39701-.4984 2.033-.1362.25514-.1654.52962-.0961.75958.7993 2.65302.4833 6.07908-2.1917 8.75398-2.6761 2.676-6.10387 2.9913-8.75739 2.1908-.22974-.0693-.50429-.0403-.75977.0958-.63583.339-1.33119.5393-2.03232.4976-.71592-.0425-1.38818-.3354-1.94864-.8958-.56127-.5613-.85412-1.2346-.89605-1.9515-.04107-.7021.16025-1.3983.50054-2.0347.13631-.255.16567-.5292.09667-.7589-.79636-2.6519-.47812-6.07389 2.19409-8.7461 2.67332-2.67331 6.09697-2.99071 8.74937-2.1931.2297.06909.504.03984.7592-.09646.6362-.33992 1.3322-.54092 2.034-.49968zm-.088 1.49742c-.3576-.02101-.7784.07911-1.2392.32529-.5601.29924-1.2426.40695-1.898.20989-2.2225-.66836-5.04185-.39756-7.25671 1.8173-2.21396 2.21395-2.48543 5.03184-1.81813 7.25394.19678.6553.08891 1.3377-.21051 1.8976-.24649.461-.34681.8821-.32588 1.2399.02005.3429.15281.6719.45926.9784.30605.306.63465.4388.97695.4591.3571.0212.77751-.0785 1.23772-.3239.56041-.2986 1.24324-.406 1.89872-.2082 2.22357.6709 5.04638.4017 7.26348-1.8153 2.2162-2.2162 2.4859-5.03761 1.816-7.26077-.1974-.65525-.0901-1.33795.2091-1.89846.2457-.46044.3455-.8809.3244-1.23818-.0203-.34247-.1531-.6712-.4592-.97736-.3064-.30636-.6353-.43911-.978-.45925z"/><path d="m6.01427 6.01859c1.83046-1.83048 4.17763-2.04644 5.98943-1.50161.3967.11929.6216.53755.5023.93421-.1193.39667-.5376.62153-.9342.50225-1.382-.41558-3.12487-.2462-4.49686 1.1258-.7601.7601-1.1446 1.6234-1.27379 2.47058-.06244.40948-.44501.69078-.85449.62838-.40948-.0625-.69081-.44503-.62836-.85451.17519-1.14885.69972-2.30885 1.69597-3.3051z"/></svg>