<svg viewBox="0 0 20 20" xmlns="http://www.w3.org/2000/svg"><path d="m2.58398 3.33337c0-.41421.33579-.75.75-.75h5.83334c1.08298 0 2.12158.43021 2.88738 1.19599.7657.76577 1.196 1.80438 1.196 2.88735v8.18929l2.8863-2.8863c.2929-.2929.7678-.2929 1.0606 0 .2929.2929.2929.7678 0 1.0607l-4.1666 4.1666c-.1407.1407-.3314.2197-.5303.2197-.199 0-.3897-.079-.5304-.2197l-4.16665-4.1666c-.29289-.2929-.29289-.7678 0-1.0607.2929-.2929.76777-.2929 1.06066 0l2.88639 2.8863v-8.18929c0-.68515-.2722-1.34223-.7567-1.82669-.4845-.48447-1.14154-.75665-1.82668-.75665h-5.83334c-.41421 0-.75-.33578-.75-.75z"/></svg>