<svg viewBox="0 0 20 20" xmlns="http://www.w3.org/2000/svg"><path d="m12.5007 2.58337c.1989 0 .3896.07902.5303.21967l4.1666 4.16667c.2929.29289.2929.76777 0 1.06066-.2928.29289-.7677.29289-1.0606 0l-2.8863-2.88634v8.18937c0 1.0829-.4303 2.1216-1.196 2.8873-.7658.7658-1.8044 1.196-2.88738 1.196h-5.83334c-.41421 0-.75-.3358-.75-.75s.33579-.75.75-.75h5.83334c.68514 0 1.34218-.2722 1.82668-.7566.4845-.4845.7567-1.1416.7567-1.8267v-8.18937l-2.88639 2.88634c-.29289.29289-.76776.29289-1.06066 0-.29289-.29289-.29289-.76777 0-1.06066l4.16665-4.16667c.1407-.14065.3314-.21967.5304-.21967z"/></svg>