<svg viewBox="0 0 20 20" xmlns="http://www.w3.org/2000/svg"><path d="m9.91688 1.25117c1.12222-.02168 2.22992.25744 3.20792.80838.9779.55094 1.7906 1.35362 2.3536 2.3247l-.6488.37618.6488-.37618c.5629.97076.8558 2.07447.8481 3.19665-.0051 1.16467-.3347 2.30489-.952 3.2926l-.636-.3975.636.3975c-.5331.8531-1.2627 1.5632-2.1248 2.0727v1.3998c0 .362-.1438.7095-.4001.9656-.256.2559-.6032.3998-.9653.3998h-3.6922c-.36208 0-.70928-.1439-.96528-.3998-.25632-.2562-.40009-.6036-.40009-.9656v-1.4011c-.82517-.4902-1.5291-1.1639-2.05566-1.9714h-.00001c-.61313-.9402-.96345-2.02745-1.01454-3.14878l.74922-.03414-.74922.03414c-.0511-1.12135.19888-2.2359.72397-3.228v-.00001c.5251-.99209 1.30616-1.82557 2.26213-2.41386.95597-.58831 2.05199-.91 3.17426-.93168zm2.47162 2.11527c-.7447-.41952-1.5881-.63206-2.44264-.61555l-.01449-.74986.01449.74986c-.85457.01651-1.68914.26147-2.41707.70944h-.00001c-.72793.44796-1.32268 1.08262-1.72254 1.83808l-.66287-.35085.66287.35085c-.39984.75547-.59019 1.60416-.55127 2.45803v.00001c.0389.85385.30565 1.68173.77254 2.39775l-.62822.4096.62822-.4096c.4669.7159 1.11691 1.2938 1.88258 1.6737.25521.1267.41664.387.41664.6719v1.7116h3.42297v-1.7116c0-.2857.1623-.5465.4185-.6728.7949-.3916 1.4648-.9971 1.9343-1.7485.4696-.75137.7203-1.61886.724-2.50494v-.00208c.006-.85467-.217-1.69539-.6457-2.43487-.4288-.73944-1.0476-1.35065-1.7923-1.77017zm-5.56146 14.63356c0-.4142.33579-.75.75-.75h4.92296c.4142 0 .75.3358.75.75s-.3358.75-.75.75h-4.92296c-.41421 0-.75-.3358-.75-.75z"/></svg>