<svg viewBox="0 0 20 20" xmlns="http://www.w3.org/2000/svg"><path d="m10.7032 2.35221c.9273-.89561 2.1692-1.391181 3.4583-1.379978 1.2892.011202 2.5223.528278 3.4339 1.439868s1.4287 2.14475 1.4399 3.43389c.0112 1.28913-.4844 2.5311-1.38 3.45839l-.009.00938-2.5 2.49984c-.4985.4986-1.0983.8842-1.7589 1.1306-.6605.2464-1.3664.3479-2.0696.2975s-1.38737-.2514-2.00607-.5894c-.61871-.338-1.15748-.8052-1.57978-1.3697-.2481-.3317-.18035-.8017.15134-1.0498.33169-.24813.8017-.1804 1.04981.1513.29346.3923.66786.717 1.0978.9519.43.2349.9054.3745 1.3941.4095s.9792-.0355 1.4382-.2067.8759-.4392 1.2222-.7857l2.4953-2.49525c.6197-.64391.9624-1.50505.9547-2.39883-.0078-.89583-.3671-1.75278-1.0006-2.38626-.6335-.63347-1.4904-.9928-2.3863-1.00058-.8941-.00777-1.7556.33527-2.3996.95539l-1.4293 1.42098c-.2937.29204-.76858.29066-1.06061-.00309-.29204-.29375-.29066-.76862.00309-1.06066zm-4.09226 4.70362c.66056-.24641 1.36639-.34788 2.06962-.29751.70322.05036 1.38734.25137 2.00614.5894.6187.33803 1.1574.80516 1.5797 1.36972.2481.33169.1804.80171-.1513 1.04981-.3317.24815-.8017.18035-1.0498-.15134-.2935-.39232-.6679-.71694-1.09783-.95184-.42994-.2349-.90538-.37459-1.39407-.40958-.48868-.035-.97917.03551-1.4382.20674-.45904.17123-.87588.43919-1.22225.78568l-2.49524 2.49529c-.61967.6439-.96246 1.505-.95469 2.3988.00778.8958.36711 1.7528 1.00059 2.3863.63348.6334 1.49042.9928 2.38626 1.0005.89377.0078 1.75491-.335 2.39882-.9546l1.42017-1.4202c.29289-.2929.76774-.2929 1.06064 0s.2929.7678 0 1.0607l-1.4342 1.4342c-.92729.8956-2.16933 1.3911-3.45847 1.3799-1.28913-.0112-2.52229-.5283-3.43388-1.4399s-1.428671-2.1447-1.439874-3.4339c-.011202-1.2891.484374-2.5311 1.379984-3.4584l.00905-.0093 2.49999-2.49986c-.00003.00004.00003-.00003 0 0 .49842-.49857 1.09832-.88422 1.75884-1.13061z"/></svg>