<svg viewBox="0 0 20 20" xmlns="http://www.w3.org/2000/svg"><path d="m13.6691 7.00089c1.3264 0 2.5984.52688 3.5363 1.46472s1.4648 2.20979 1.4648 3.53619v5.5961c0 .1316-.1066.2382-.2381.2382h-2.8578c-.1315 0-.2382-.1066-.2382-.2382v-5.5961c0-.4422-.1756-.8661-.4882-1.1788-.3127-.3126-.7367-.4882-1.1788-.4882s-.8661.1756-1.1788.4882c-.3126.3127-.4882.7366-.4882 1.1788v5.5961c0 .1316-.1067.2382-.2382.2382h-2.85779c-.13153 0-.23815-.1066-.23815-.2382v-5.5961c0-1.3264.52691-2.59835 1.46484-3.53619.9379-.93784 2.2099-1.46472 3.5363-1.46472z"/><path d="m5.09595 7.83436h-2.85781c-.13152 0-.23814.10662-.23814.23815v9.52539c0 .1316.10662.2382.23814.2382h2.85781c.13152 0 .23814-.1066.23814-.2382v-9.52539c0-.13153-.10662-.23815-.23814-.23815z"/><path d="m3.66705 5.3339c.92068 0 1.66704-.74632 1.66704-1.66695s-.74636-1.66695-1.66704-1.66695c-.92069 0-1.66705.74632-1.66705 1.66695s.74636 1.66695 1.66705 1.66695z"/></svg>