<svg viewBox="0 0 20 20" xmlns="http://www.w3.org/2000/svg"><path d="m10.0007 19.1666c5.0626 0 9.1666-4.104 9.1666-9.16662 0-5.06261-4.104-9.166667-9.1666-9.166667-5.06266 0-9.166716 4.104057-9.166716 9.166667 0 5.06262 4.104056 9.16662 9.166716 9.16662zm4.4623-10.17311c-.6095-.60947-1.4362-.95187-2.2982-.95187s-1.6886.3424-2.29816.95187c-.60951.60948-.95193 1.43611-.95193 2.29801v3.6368c0 .0855.06929.1548.15477.1548h1.85722c.0855 0 .1547-.0693.1547-.1548v-3.6368c0-.2873.1142-.5628.3174-.766.2031-.2031.4787-.3173.766-.3173s.5629.1142.7661.3173c.2031.2032.3173.4787.3173.766v3.6368c0 .0855.0693.1548.1547.1548h1.8572c.0855 0 .1548-.0693.1548-.1548v-3.6368c0-.8619-.3424-1.68853-.9519-2.29801zm-7.71424-.25546c0-.08547-.06929-.15476-.15476-.15476h-1.85721c-.08547 0-.15476.06929-.15476.15476v6.19027c0 .0855.06929.1548.15476.1548h1.85721c.08547 0 .15476-.0693.15476-.1548zm0-2.86304c0 .59829-.48504 1.0833-1.08337 1.0833-.59832 0-1.08336-.48501-1.08336-1.0833s.48504-1.0833 1.08336-1.0833c.59833 0 1.08337.48501 1.08337 1.0833z" fill-rule="evenodd"/></svg>