<svg viewBox="0 0 20 20" xmlns="http://www.w3.org/2000/svg"><path d="m10.1065 2.14429c-1.00449 0-2.32416.51377-2.95779 1.46424-.34704.52057-.49972.87645-.57885 1.35119-.08525.51154-.08691 1.1645-.08691 2.30755 0 .62348-.105 1.08836-.27347 1.48847-.12977.30818-.29932.57678-.44923.81425-.03506.05554-.06905.10939-.1012.16163-.17581.28568-.33876.58328-.46187.99878-.0954.3219-.17039.7271-.19999 1.2635.4785.091.92851.3513 1.25096.7742l.07708.1011c.04208-.2721.09723-.5152.16265-.736.15804-.5334.36995-.9153.56901-1.2387.04438-.0721.08638-.1389.12616-.2022.14422-.2292.25943-.4124.35429-.6377.09775-.23213.17274-.51253.19089-.90992-.42276-.31476-.74578-.75967-.74578-1.31508 0-.67093.47137-1.18061 1.02049-1.4944.03418-.01953.06902-.03855.10451-.05704v-1.82235c0-.27614.22385-.5.5-.5.27614 0 .5.22386.5.5v1.47476c.31622-.06573.65283-.10043.99905-.10043.2786 0 .551.02247.8115.06549v-1.43982c0-.27614.2239-.5.5-.5.2762 0 .5.22386.5.5v1.73204c.1019.04524.1994.09442.2921.14735.5491.31379 1.0205.82347 1.0205 1.4944 0 .55534-.323 1.00021-.7457 1.31496.0182.39746.0932.67789.1909.91004.0949.2253.2101.4085.3543.6377.0398.0633.0818.1301.1262.2022.199.3234.4109.7053.569 1.2387.0688.2324.1263.4894.1691.779l.1099-.1441c.3136-.4114.748-.6689 1.2119-.7664-.0293-.5402-.1045-.9478-.2004-1.2713-.1231-.4155-.286-.7131-.4618-.99878-.0322-.05224-.0662-.10609-.1013-.16164-.1499-.23746-.3194-.50606-.4492-.81424-.1684-.40011-.2734-.86499-.2734-1.48847 0-1.14305-.0017-1.79601-.087-2.30755-.0791-.47474-.2318-.83062-.5788-1.35119-.6457-.96851-1.7914-1.46424-2.7703-1.46424-.0321 0-.0634-.00302-.0938-.00878-.0303.00576-.0617.00878-.0937.00878zm.0937-.99123c-.0303-.00576-.0617-.00877-.0937-.00877-1.24476 0-2.92402.61077-3.78985 1.90954-.40269.60405-.62487 1.09163-.73318 1.74149-.10056.60338-.10055 1.34211-.10052 2.41986v.05209c0 .5011-.08243.8328-.19511 1.10041-.09486.22529-.21007.40845-.35428.63771-.03979.06325-.08179.13001-.12617.20213-.19905.32346-.41097.70535-.56901 1.23878-.12814.4324-.21689.9505-.2452 1.6051-.30494.0954-.59296.264-.83706.5076l-1.05138 1.0492c-.92036.9184-.76965 2.4494.31213 3.1707l2.81202 1.8751c.79839.5324 1.85029.4394 2.54229-.203h.948c.45474 0 .88451-.208 1.16664-.5647l.05124-.0648c.0601-.076.15164-.1203.24854-.1203.0968 0 .1884.0443.2485.1203l.0512.0648c.2822.3567.7119.5647 1.1667.5647h.8292c.692.6424 1.7439.7354 2.5423.203l2.812-1.8751c1.0818-.7213 1.2325-2.2523.3122-3.1707l-1.0514-1.0492c-.2547-.2542-.5573-.4267-.877-.5197-.0289-.6488-.1173-1.1632-.2447-1.593-.158-.53343-.3699-.91532-.569-1.23878-.0444-.07212-.0864-.13888-.1262-.20213-.1442-.22926-.2594-.41242-.3542-.63771-.1127-.26761-.1951-.59931-.1951-1.10041v-.05208c0-1.07776 0-1.81649-.1006-2.41987-.1083-.64986-.3305-1.13744-.7331-1.74149-.8538-1.28072-2.3322-1.90954-3.6024-1.90954-.0321 0-.0634.00301-.0938.00877zm5.3113 11.81244c.0659.0319.1399.0499.218.0499.0577 0 .1131-.0098.1647-.0278.1808.0441.3529.1367.4957.2793l1.0514 1.0491c.4734.4724.3959 1.2599-.1605 1.6309l-2.812 1.8751c-.4364.291-1.0201.2187-1.3723-.1699l-.2547-.2808c-.3429-.3783-.3671-.9475-.0575-1.3535l2.0152-2.6434c.1812-.2376.4407-.3754.712-.4089zm-3.7864 4.4855c-.2754-.6625-.1917-1.4419.2639-2.0395l.9908-1.2996c-.0064-.758-.0939-1.2915-.2133-1.6946-.1231-.4155-.2861-.713-.4619-.9987-.0321-.0523-.0661-.1061-.1012-.1617-.1499-.2374-.3194-.506-.4492-.8142-.1025-.2435-.1816-.51101-.2277-.82365-.4306.13621-.9151.21001-1.42.21001-.50485 0-.98927-.07378-1.41983-.20996-.04615.31262-.12517.5801-.2277.8236-.12976.3082-.29932.5768-.44922.8142-.03506.0556-.06905.1094-.10121.1617-.17581.2857-.33876.5832-.46187.9987-.11674.394-.20292.9127-.21275 1.6439l1.02948 1.3503c.45562.5976.53935 1.377.26388 2.0395h.1919c.14903 0 .28988-.0682.38235-.1851l.05124-.0648c.24976-.3157.63022-.4999 1.03283-.4999.4026 0 .783.1842 1.0328.4999l.0512.0648c.0925.1169.2333.1851.3824.1851zm-7.38903-4.4577c-.17273.0461-.33661.1369-.47358.2736l-1.05139 1.0491c-.47339.4724-.39587 1.2599.16055 1.6309l2.81202 1.8751c.43639.291 1.02003.2187 1.3723-.1699l.25461-.2808c.34293-.3783.36714-.9475.05757-1.3535l-2.01524-2.6434c-.18837-.2471-.46138-.3862-.74435-.4124-.06765.0341-.14411.0534-.22507.0534-.05132 0-.10082-.0078-.14742-.0221zm4.16301-5.78986c-.40059.22891-.51663.46896-.51663.62616s.11604.39725.51663.62616c.38645.22083.9537.3733 1.60742.3733.6537 0 1.221-.15247 1.6074-.3733.4006-.22891.5167-.46896.5167-.62616s-.1161-.39725-.5167-.62616c-.3864-.22083-.9537-.3733-1.6074-.3733-.65372 0-1.22097.15247-1.60742.3733z" fill-rule="evenodd"/></svg>