<svg viewBox="0 0 20 20" xmlns="http://www.w3.org/2000/svg"><path d="m2.95052 3.33716c.25104 0 .45455.20351.45455.45454v3.48856h.85979c.25104 0 .45454.2035.45454.45454s-.2035.45455-.45454.45455h-2.62867c-.25104 0-.45455-.20351-.45455-.45455s.20351-.45454.45455-.45454h.85979v-2.14939c-.16437.06525-.3436.10112-.53121.10112h-.32858c-.25104 0-.45455-.20351-.45455-.45455 0-.25103.20351-.45454.45455-.45454h.32858c.29338 0 .53121-.23783.53121-.5312 0-.25103.2035-.45454.45454-.45454zm3.26204 1.66286c0-.25104.20351-.45455.45455-.45455h10.83329c.2511 0 .4546.20351.4546.45455s-.2035.45454-.4546.45454h-10.83329c-.25104 0-.45455-.2035-.45455-.45454zm0 4.99998c0-.25102.20351-.45453.45455-.45453h10.83329c.2511 0 .4546.20351.4546.45453 0 .2511-.2035.4546-.4546.4546h-10.83329c-.25104 0-.45455-.2035-.45455-.4546zm-4.93958 2.2298c.21642-.5443.77574-.8926 1.38691-.8926h.70835c.74941 0 1.45074.5511 1.45074 1.34 0 .5639-.37351 1.0353-.88669 1.2349h-.00001l-1.51757.5902c-.22166.0862-.323.2601-.323.4092v.062h2.27273c.25103 0 .45454.2035.45454.4546 0 .251-.20351.4545-.45454.4545h-2.72728c-.25104 0-.45454-.2035-.45454-.4545v-.5166c0-.5732.37973-1.0532.90258-1.2565h.00001l1.51757-.5902h.00001c.212-.0824.3071-.2479.3071-.3876 0-.1891-.1907-.431-.54165-.431h-.70835c-.27945 0-.47778.1576-.54215.3195-.09276.2333-.35706.3472-.59033.2544-.23328-.0927-.34719-.357-.25443-.5903zm4.93958 2.7702c0-.251.20351-.4545.45455-.4545h10.83329c.2511 0 .4546.2035.4546.4545 0 .2511-.2035.4546-.4546.4546h-10.83329c-.25104 0-.45455-.2035-.45455-.4546z"/></svg>