<svg viewBox="0 0 20 20" xmlns="http://www.w3.org/2000/svg"><path d="m1.75 5c0-.41421.33579-.75.75-.75h.00833c.41422 0 .75.33579.75.75s-.33578.75-.75.75h-.00833c-.41421 0-.75-.33579-.75-.75zm4.16667 0c0-.41421.33578-.75.75-.75h10.83333c.4142 0 .75.33579.75.75s-.3358.75-.75.75h-10.83333c-.41422 0-.75-.33579-.75-.75zm-4.16667 5c0-.41421.33579-.75.75-.75h.00833c.41422 0 .75.33579.75.75 0 .4142-.33578.75-.75.75h-.00833c-.41421 0-.75-.3358-.75-.75zm4.16667 0c0-.41421.33578-.75.75-.75h10.83333c.4142 0 .75.33579.75.75 0 .4142-.3358.75-.75.75h-10.83333c-.41422 0-.75-.3358-.75-.75zm-4.16667 5c0-.4142.33579-.75.75-.75h.00833c.41422 0 .75.3358.75.75s-.33578.75-.75.75h-.00833c-.41421 0-.75-.3358-.75-.75zm4.16667 0c0-.4142.33578-.75.75-.75h10.83333c.4142 0 .75.3358.75.75s-.3358.75-.75.75h-10.83333c-.41422 0-.75-.3358-.75-.75z"/></svg>