<svg viewBox="0 0 20 20" xmlns="http://www.w3.org/2000/svg"><path d="m9.99935 2.49998c-.88406 0-1.7319.35119-2.35702.97631s-.97631 1.47297-.97631 2.35702v2.5h6.66668v-2.5c0-.88405-.3512-1.7319-.9763-2.35702s-1.473-.97631-2.35705-.97631zm4.99995 5.83333v-2.5c0-1.32608-.5267-2.59785-1.4644-3.53553s-2.2095-1.464467-3.53555-1.464467c-1.32608 0-2.59785.526787-3.53553 1.464467-.93769.93768-1.46447 2.20945-1.46447 3.53553v2.5h-.83333c-1.38072 0-2.5 1.11929-2.5 2.49999v5.8333c0 1.3808 1.11928 2.5 2.5 2.5h11.66668c1.3807 0 2.5-1.1192 2.5-2.5v-5.8333c0-1.3807-1.1193-2.49999-2.5-2.49999zm-10.83328 1.66667c-.46024 0-.83334.37312-.83334.83332v5.8333c0 .4603.3731.8334.83334.8334h11.66668c.4602 0 .8333-.3731.8333-.8334v-5.8333c0-.4602-.3731-.83332-.8333-.83332z" fill-rule="evenodd"/></svg>