<svg viewBox="0 0 20 20" xmlns="http://www.w3.org/2000/svg"><path d="m3.5 2.75c-.13807 0-.25.11193-.25.25v2.25h2.5v-2.25c0-.13807-.11193-.25-.25-.25zm2.25 4h-2.5v3.75c0 3.7279 3.02208 6.75 6.75 6.75 3.7279 0 6.75-3.0221 6.75-6.75v-3.75h-2.5v3.75c0 2.3472-1.9028 4.25-4.25 4.25-2.34721 0-4.25-1.9028-4.25-4.25zm8.5-1.5h2.5v-2.25c0-.13807-.1119-.25-.25-.25h-2c-.1381 0-.25.11193-.25.25zm-12.5-2.25c0-.9665.7835-1.75 1.75-1.75h2c.9665 0 1.75.7835 1.75 1.75v7.5c0 1.5188 1.23122 2.75 2.75 2.75 1.5188 0 2.75-1.2312 2.75-2.75v-7.5c0-.9665.7835-1.75 1.75-1.75h2c.9665 0 1.75.7835 1.75 1.75v7.5c0 4.5563-3.6937 8.25-8.25 8.25-4.55635 0-8.25-3.6937-8.25-8.25z"/></svg>