<svg viewBox="0 0 20 20" xmlns="http://www.w3.org/2000/svg"><path d="m11.9021 1.37744c0-.414212.3358-.749999.75-.749999h5.9694c.4142 0 .75.335787.75.749999v5.96939c0 .41421-.3358.75-.75.75-.4143 0-.75-.33579-.75-.75v-4.1586l-5.8405 5.84111c.8589 1.08776 1.3715 2.46166 1.3715 3.95526 0 3.5278-2.8599 6.3877-6.38779 6.3877-3.52786 0-6.387757-2.8599-6.387757-6.3877 0-3.52787 2.859897-6.38777 6.387757-6.38777 1.49376 0 2.86777.51273 3.95559 1.37181l5.8406-5.8412h-4.1588c-.4142 0-.75-.33579-.75-.75zm-1.5107 8.07326c-.87755-.83872-2.06696-1.35387-3.37669-1.35387-2.69943 0-4.88776 2.18837-4.88776 4.88777s2.18833 4.8877 4.88776 4.8877 4.88779-2.1883 4.88779-4.8877c0-1.3096-.515-2.4988-1.3536-3.37633-.0295-.02187-.0578-.04617-.0845-.07292-.0268-.02679-.0511-.0551-.073-.08465z"/></svg>