<svg viewBox="0 0 20 20" xmlns="http://www.w3.org/2000/svg"><path d="m10 1.58331c-1.79021 0-3.5071.71116-4.77297 1.97703s-1.97703 2.98276-1.97703 4.77297c0 2.61519 1.6993 5.14069 3.54446 7.08839.90725.9576 1.81704 1.7413 2.50086 2.2858.2787.222.51885.4034.70468.5398.1858-.1364.426-.3178.7047-.5398.6838-.5445 1.5936-1.3282 2.5008-2.2858 1.8452-1.9477 3.5445-4.4732 3.5445-7.08839 0-1.79021-.7112-3.5071-1.977-4.77297-1.2659-1.26587-2.9828-1.97703-4.773-1.97703zm0 17.58329c-.41603.6241-.41622.624-.41644.6238l-.00059-.0004-.00168-.0011-.00541-.0036-.01879-.0128c-.01603-.0108-.03896-.0265-.06834-.0469-.05877-.0407-.14337-.1001-.25013-.1772-.21345-.1541-.51588-.3793-.87769-.6674-.72243-.5753-1.68764-1.4062-2.65539-2.4277-1.90484-2.0107-3.95554-4.9019-3.95554-8.11999 0-2.18803.86919-4.28645 2.41637-5.83363 1.54717-1.547173 3.64559-2.416367 5.83363-2.416367 2.188 0 4.2865.869194 5.8336 2.416367 1.5472 1.54718 2.4164 3.6456 2.4164 5.83363 0 3.21809-2.0507 6.10929-3.9555 8.11999-.9678 1.0215-1.933 1.8524-2.6554 2.4277-.3618.2881-.6643.5133-.8777.6674-.1068.0771-.1914.1365-.2501.1772-.0173.012-.0324.0224-.0451.0311-.0089.0061-.0167.0114-.0233.0158l-.0188.0128-.0054.0036-.0017.0011-.0006.0004c-.0002.0002-.0004.0003-.4164-.6238zm0 0 .416.6241c-.2519.1679-.5801.1679-.83203 0zm0-12.58329c-.9665 0-1.75.7835-1.75 1.75s.7835 1.74999 1.75 1.74999 1.75-.78349 1.75-1.74999-.7835-1.75-1.75-1.75zm-3.25 1.75c0-1.79492 1.45507-3.25 3.25-3.25 1.7949 0 3.25 1.45508 3.25 3.25 0 1.79489-1.4551 3.24999-3.25 3.24999-1.79493 0-3.25-1.4551-3.25-3.24999z"/></svg>