<svg viewBox="0 0 20 20" xmlns="http://www.w3.org/2000/svg"><path d="m7.40463 1.25895c-.569.051-1.04.292-1.389.711-.16574.1951-.29115.42112-.369.665-.065.198-.07.27-.085 1.26l-.017 1.05-1.38.015c-1.352.015-1.384.016-1.575.085-.4151.15137-.77104.43129-1.016.799-.182.272-.267.518-.306.886-.02.186-.028 2.037-.021 5.32495.01 5.635-.009 5.154.226 5.625.081.163.177.29.352.465.281.281.497.416.835.523l.245.077h7.08c6.76597 0 7.08897-.002 7.27497-.055.707-.198 1.266-.763 1.425-1.438.066-.282.066-10.53195 0-10.81395-.127-.538-.538-1.044-1.05-1.294-.361-.176-.438-.183-1.88-.184h-1.31l-.012-1.058c-.013-1.171-.015-1.186-.227-1.597-.154-.301-.547-.688-.847-.835-.458-.223-.284-.212-3.209-.217-1.44397-.002-2.67897 0-2.74497.006zm5.25297 1.538c.0759.03723.1425.09086.195.157.072.101.072.103.081 1.053l.008.953h-5.88397l.008-.958c.01-1.087.005-1.062.265-1.195l.132-.067 2.536.001c2.40797 0 2.54197.003 2.65897.056zm4.243 3.663c.0757.02825.1444.07255.2014.12986.0569.05731.1008.12627.1286.20214.04.141.04 9.96395-.001 10.10895-.0562.1453-.1671.2627-.309.327-.119.045-13.72297.045-13.84197 0-.13033-.0586-.23584-.1613-.298-.29-.061-.144-.061-10.04195 0-10.18595.06253-.13184.17201-.23561.307-.291.125-.037 13.67897-.038 13.81297-.001zm-7.24197 2.234c-.08484.03255-.16126.08379-.22359.14992-.06232.06613-.10894.14546-.13641.23208-.041.126-.049.304-.049 1.09195v.942h-.953c-.578 0-.997.013-1.067.032-.268.075-.44.349-.44.703s.172.628.44.703c.07.019.489.032 1.067.032h.953v.94c0 1.054.016 1.166.187 1.332.142.137.287.188.54.188.27797 0 .41797-.04.54997-.156.202-.177.205-.197.217-1.307l.01-.997h.95c.571 0 .996-.013 1.064-.032.162-.0559.2961-.1724.374-.325.077-.171.069-.614-.014-.772-.0365-.073-.0873-.1381-.1493-.1913s-.1339-.0935-.2117-.1187c-.066-.018-.501-.031-1.063-.031h-.95l-.01-.998c-.009-.96095-.011-1.00095-.075-1.12095-.0748-.14723-.205-.25873-.362-.31-.157-.043-.50997-.036-.64797.013z"/></svg>