<svg viewBox="0 0 20 20" xmlns="http://www.w3.org/2000/svg"><path d="m9.99935 2.41663c-4.18816 0-7.58333 3.39517-7.58333 7.58333 0 4.18814 3.39517 7.58334 7.58333 7.58334 4.18815 0 7.58335-3.3952 7.58335-7.58334 0-4.18816-3.3952-7.58333-7.58335-7.58333zm-9.083334 7.58333c0-5.01659 4.066744-9.083334 9.083334-9.083334 5.01655 0 9.08335 4.066744 9.08335 9.083334 0 5.01654-4.0668 9.08334-9.08335 9.08334-5.01659 0-9.083334-4.0668-9.083334-9.08334zm5.833334-2.5c0-.41421.33579-.75.75-.75h.00834c.41421 0 .75.33579.75.75s-.33579.75-.75.75h-.00834c-.41421 0-.75-.33579-.75-.75zm5.00005 0c0-.41421.3357-.75.75-.75h.0083c.4142 0 .75.33579.75.75s-.3358.75-.75.75h-.0083c-.4143 0-.75-.33579-.75-.75zm-5.83338 5.00004c0-.4143.33578-.75.75-.75h6.66668c.4142 0 .75.3357.75.75 0 .4142-.3358.75-.75.75h-6.66668c-.41422 0-.75-.3358-.75-.75z"/></svg>