<svg viewBox="0 0 20 20" xmlns="http://www.w3.org/2000/svg"><path d="m8.17897 1.34662c.61254-.451232 1.37089-.658762 2.12783-.582302.7569.076461 1.4585.431452 1.9684.996062s.7919 1.29855.7911 2.05935v4.12504c0 .41421-.3358.75-.75.75s-.75-.33579-.75-.75v-4.12579c.0004-.38882-.1437-.76467-.4043-1.05321-.2606-.28855-.6191-.46997-1.006-.50905-.38678-.03907-.77434.06699-1.08738.29759-.31303.2306-.52923.5693-.6066.95034-.08242.40593-.47831.66818-.88424.58576-.40593-.08243-.66818-.47832-.58576-.88425.15139-.74558.57441-1.40831 1.18695-1.85954zm-7.209295-.375824c.292895-.292891.767765-.292886 1.060655.00001l12.19937 12.199594c.0562.0316.1092.071.1574.1183.0521.051.0952.1078.1292.1683l4.5114 4.5115c.2929.2929.2929.7677 0 1.0606s-.7678.2929-1.0607 0l-4.1542-4.1543c-.7511.5924-1.6329 1.004-2.577 1.1976-.1619.0332-.3246.0598-.4878.0798v1.5966h2.342c.4142 0 .75.3357.75.75 0 .4142-.3358.75-.75.75h-3.0856c-.0021 0-.0042 0-.00635 0-.00214 0-.00427 0-.0064 0h-3.08247c-.41421 0-.75-.3358-.75-.75 0-.4143.33579-.75.75-.75h2.33887v-1.5969c-.5459-.0671-1.08331-.2073-1.59732-.4194-1.13447-.4679-2.10325-1.2642-2.78205-2.2866-.67828-1.0216-1.03612-2.2224-1.02771-3.44861v-1.54258c0-.41421.33578-.75.75-.75.41421 0 .75.33579.75.75v1.55069c-.0068.9283.26389 1.8375.77735 2.6108.51347.7734 1.24628 1.3757 2.10442 1.7297.496.2046 1.0208.3208 1.551.3465.07083-.0222.14617-.0341.22431-.0341.07825 0 .15365.012.22455.0342.2383-.0114.4763-.0412.712-.0895.6557-.1345 1.2716-.4079 1.8078-.7986l-1.172-1.172c-.2993.1787-.6286.3059-.9742.3746-.5947.1181-1.21112.0574-1.77136-.1746s-1.03917-.6248-1.3763-1.1288-.51734-1.0966-.51788-1.703v-2.00804l-5.960995-5.9611c-.29289-.2929-.292886-.76777.00001-1.060664zm7.460985 8.521794v.50669c0-.00015 0 .00016 0 0 .00037.30972.09246.61292.26467.87032.1723.2576.41706.4583.70337.5769.28631.1185.6013.1496.9053.0892.046-.0091.0915-.0203.1363-.0335zm6.97684-1.78788c.4142 0 .75.33579.75.75v1.54525c-.0004.36284-.0327.72564-.0968 1.08274-.0732.4077-.463.6789-.8707.6058-.4077-.0732-.6789-.463-.6057-.8707.0484-.2701.0729-.544.0732-.8185v-1.54459c0-.41421.3357-.75.75-.75z"/></svg>