<svg viewBox="0 0 20 20" xmlns="http://www.w3.org/2000/svg"><path d="m7.83032 1.64864c.57541-.57539 1.35582-.89864 2.16957-.89864.81371 0 1.59411.32325 2.16961.89864.5754.5754.8986 1.3558.8986 2.16954v6.18182c0 .8137-.3232 1.5941-.8986 2.1695-.5755.5754-1.3559.8987-2.16961.8987-.81375 0-1.59416-.3233-2.16957-.8987s-.89868-1.3558-.89868-2.1695v-6.18182c0-.81374.32327-1.59414.89868-2.16954zm2.16957.60136c-.41594 0-.81483.16522-1.10893.45932-.2941.29409-.45932.69296-.45932 1.10886v6.18182c0 .4159.16522.8148.45932 1.1089s.69299.4593 1.10893.4593c.41591 0 .81481-.1652 1.10891-.4593s.4593-.693.4593-1.1089v-6.18182c0-.4159-.1652-.81477-.4593-1.10886-.2941-.2941-.693-.45932-1.10891-.45932zm-5.40809 5.45456c.41421 0 .75.33579.75.75v1.54544c0 1.2357.49087 2.4207 1.36465 3.2945.87248.8724 2.05536 1.3631 3.28909 1.3646h.00446.0048c1.2343-.001 2.4179-.4917 3.2908-1.3646.8738-.8738 1.3647-2.0588 1.3647-3.2945v-1.54544c0-.41421.3358-.75.75-.75s.75.33579.75.75v1.54544c0 1.6335-.6489 3.2001-1.804 4.3552-.9772.9771-2.2488 1.592-3.6063 1.7582v1.6366h2.3421c.4143 0 .75.3358.75.75s-.3357.75-.75.75h-6.18194c-.41422 0-.75-.3358-.75-.75s.33578-.75.75-.75h2.33984v-1.6368c-1.35673-.1667-2.62756-.7814-3.6042-1.758-1.15508-1.1551-1.804-2.7217-1.804-4.3552v-1.54544c0-.41421.33578-.75.75-.75z"/></svg>