<svg viewBox="0 0 20 20" xmlns="http://www.w3.org/2000/svg"><path d="m6.42857 2.41663c-.27046 0-.67857.29777-.67857.91666v13.33331c0 .6189.40811.9167.67857.9167h7.14283c.2705 0 .6786-.2978.6786-.9167v-13.33331c0-.61889-.4081-.91666-.6786-.91666zm-2.17857.91666c0-1.22205.87108-2.416664 2.17857-2.416664h7.14283c1.3075 0 2.1786 1.194614 2.1786 2.416664v13.33331c0 1.2221-.8711 2.4167-2.1786 2.4167h-7.14283c-1.30749 0-2.17857-1.1946-2.17857-2.4167zm5.0002 11.66671c0-.4143.33579-.75.75-.75h.0083c.4143 0 .75.3357.75.75 0 .4142-.3357.75-.75.75h-.0083c-.41421 0-.75-.3358-.75-.75z"/></svg>