<svg viewBox="0 0 20 20" xmlns="http://www.w3.org/2000/svg"><path d="m5.36456 2.54203c-.92542.07477-1.80394.43854-2.51133 1.03988-.70739.60133-1.20786 1.40981-1.43067 2.31112-.127.512-.128.527-.118 5.73697l.01 4.995.068.199c.192.566.718 1.071 1.327 1.276.158.053.426.055 6.285.063 5.31104.007 6.15204.002 6.36004-.037.713-.132 1.331-.72 1.516-1.444.053-.207.059-.334.059-1.217v-.985h.296c.163 0 .369-.014.457-.03.367-.069.756-.353.937-.686.155-.286.169-.436.169-1.879 0-1.444-.013-1.592-.17-1.882-.0976-.16782-.2277-.31446-.3828-.43125-.1551-.11678-.332-.20135-.5202-.24872-.1563-.02311-.3141-.03414-.472-.033h-.314v-.974c0-.569-.013-1.039-.032-1.132-.0635-.29379-.1917-.56975-.3752-.80778-.1835-.23802-.4178-.43214-.6858-.56822-.31-.153-.575-.207-1.013-.207l-.352-.001-.017-2.625-.082-.14c-.104-.176-.228-.253-.474-.293-.229-.037-8.06004-.037-8.53404 0zm7.60504 3.058h-3.70004c-4.139 0-3.911-.012-4.11.208-.124.138-.17.279-.17.527 0 .354.115.574.357.686l.138.064 9.66004.03.096.072c.184.138.189.171.189 1.184v.916l-1.313.009c-1.291.009-1.315.01-1.484.078-.2602.10731-.4848.28581-.648.515-.227.34097-.226.32697-.238 1.85597-.007.878.001 1.436.022 1.575.083.551.539 1.029 1.078 1.13.091.017.688.03 1.372.03h1.211v.926c0 .913-.001.926-.068 1.026-.0474.0653-.1047.1227-.17.17l-.101.068h-11.93804l-.118-.066c-.07293-.0439-.13566-.1029-.184-.173l-.066-.106v-4.83c0-5.19297-.005-5.00297.156-5.47497.17244-.50669.47925-.95704.88769-1.30295.40843-.3459.90315-.57439 1.43131-.66105.203-.032 1.009-.041 3.982-.043l3.72804-.003zm4.32 7.37997h-4.05v-2.19h4.05z"/></svg>