<svg viewBox="0 0 20 20" xmlns="http://www.w3.org/2000/svg"><path d="m9.99448 2.13178c.14512.25754.12542.57631-.05026.81404-.72371.9791-1.07197 2.18543-.98142 3.3996.09054 1.21416.61387 2.3555 1.4748 3.21643.8609.86095 2.0023 1.38425 3.2164 1.47475 1.2142.0906 2.4205-.2577 3.3996-.9814.2378-.1757.5565-.19538.8141-.0502.2575.1451.4057.428.3785.7224-.1441 1.5603-.7297 3.0473-1.6882 4.287s-2.2502 2.1808-3.724 2.7131c-1.4738.5324-3.06877.634-4.59821.2929-1.52944-.341-2.93013-1.1105-4.03817-2.2186-1.10804-1.108-1.87759-2.5087-2.21862-4.0381-.34103-1.5295-.23943-3.12443.29292-4.59823.53235-1.47381 1.47342-2.76552 2.71311-3.724 1.23968-.95848 2.7267-1.54408 4.28705-1.68828.29437-.0272.57725.12105.7224.37859zm-2.09068 1.43044c-.71897.23878-1.39614.59805-2.00128 1.06593-1.01429.7842-1.78426 1.84106-2.21981 3.0469-.43556 1.20584-.51869 2.51075-.23967 3.76215.27903 1.2514.90866 2.3974 1.81524 3.304.90658.9065 2.05259 1.5362 3.30396 1.8152 1.25136.279 2.55626.1959 3.76216-.2397 1.2058-.4355 2.2627-1.2055 3.0469-2.2198.4679-.6051.8271-1.2823 1.0659-2.0013-.9132.3584-1.9019.5109-2.8947.4369-1.5725-.1173-3.0506-.795-4.16557-1.91-1.11497-1.11496-1.79272-2.59309-1.90998-4.16553-.07404-.9928.07846-1.98155.43685-2.89475z"/></svg>