<svg viewBox="0 0 20 20" xmlns="http://www.w3.org/2000/svg"><path d="m9.99935.916687c.19895 0 .38965.079018.53035.219673l2.5 2.5c.2929.29289.2929.76776 0 1.06066-.2929.29289-.7678.29289-1.0607 0l-1.2197-1.21967v5.77267h5.7727l-1.2196-1.21967c-.2929-.29289-.2929-.76777 0-1.06066.2928-.29289.7677-.29289 1.0606 0l2.5 2.5c.1407.14065.2197.33142.2197.53031 0 .1989-.079.3897-.2197.5303l-2.5 2.5c-.2929.2929-.7678.2929-1.0606 0-.2929-.2928-.2929-.7677 0-1.0606l1.2196-1.2197h-5.7727v5.7727l1.2197-1.2197c.2929-.2929.7678-.2929 1.0607 0s.2929.7678 0 1.0607l-2.5 2.5c-.1407.1406-.3314.2197-.53035.2197-.19891 0-.38968-.0791-.53033-.2197l-2.5-2.5c-.29289-.2929-.29289-.7678 0-1.0607s.76777-.2929 1.06066 0l1.21967 1.2197v-5.7727h-5.77267l1.21967 1.2197c.29289.2929.29289.7678 0 1.0606-.2929.2929-.76777.2929-1.06066 0l-2.5-2.5c-.140657-.1406-.219674-.3314-.219674-.5303 0-.19889.079017-.38966.219674-.53031l2.5-2.5c.29289-.29289.76776-.29289 1.06066 0 .29289.29289.29289.76777 0 1.06066l-1.21967 1.21967h5.77267v-5.77267l-1.21967 1.21967c-.29289.29289-.76777.29289-1.06066 0-.29289-.2929-.29289-.76777 0-1.06066l2.5-2.5c.14065-.140655.33142-.219673.53033-.219673z"/></svg>