<svg viewBox="0 0 20 20" xmlns="http://www.w3.org/2000/svg"><path d="m17.9848 1.92774c.1682.1425.2652.3518.2652.57227v10.83329c0 1.795-1.4551 3.25-3.25 3.25s-3.25-1.455-3.25-3.25c0-1.7949 1.4551-3.25 3.25-3.25.6443 0 1.2449.1875 1.75.5109v-7.20885l-8.5 1.41667v10.19798c0 1.7949-1.45507 3.25-3.25 3.25s-3.25-1.4551-3.25-3.25 1.45507-3.25 3.25-3.25c.64432 0 1.24485.1875 1.75.5109v-8.09423c0-.36663.26506-.67952.6267-.73979l10-1.66667c.2175-.03624.4399.02503.6081.16753zm-11.2348 13.07226c0-.9665-.7835-1.75-1.75-1.75s-1.75.7835-1.75 1.75.7835 1.75 1.75 1.75 1.75-.7835 1.75-1.75zm10-1.6667c0-.9665-.7835-1.75-1.75-1.75s-1.75.7835-1.75 1.75.7835 1.75 1.75 1.75 1.75-.7835 1.75-1.75z"/></svg>