<svg viewBox="0 0 20 20" xmlns="http://www.w3.org/2000/svg"><path d="m10.0003.916687c.4142 0 .75.335783.75.750003v8.33331c0 .4142-.3358.75-.75.75-.41425 0-.75004-.3358-.75004-.75v-8.33331c0-.41422.33579-.750003.75004-.750003zm-4.77813 4.086253c.29295.29284.29302.76772.00018 1.06066-.94379.94409-1.58644 2.14683-1.84671 3.45614-.26028 1.30936-.12647 2.66636.38448 3.89966.51096 1.2333 1.37612 2.2874 2.48611 3.029 1.10998.7416 2.41494 1.1374 3.74987 1.1374 1.3349 0 2.6399-.3958 3.7499-1.1374s1.9751-1.7957 2.4861-3.029c.5109-1.2333.6447-2.5903.3845-3.89966-.2603-1.30931-.903-2.51205-1.8468-3.45614-.2928-.29294-.2927-.76782.0002-1.06066.293-.29285.7678-.29277 1.0607.00017 1.1535 1.15389 1.939 2.6239 2.2571 4.22417.3181 1.60032.1545 3.25892-.47 4.76622-.6245 1.5074-1.6819 2.7957-3.0385 3.7021-1.3567.9064-2.9516 1.3902-4.5832 1.3902-1.63158 0-3.22653-.4838-4.58318-1.3902-1.35664-.9064-2.41407-2.1947-3.03857-3.7021-.6245-1.5073-.78804-3.1659-.46993-4.76622.31811-1.60027 1.10358-3.07028 2.25709-4.22417.29285-.29294.76772-.29302 1.06066-.00017z"/></svg>