<svg viewBox="0 0 20 20" xmlns="http://www.w3.org/2000/svg"><path d="m9.99935 2.41669c-4.18816 0-7.58333 3.39517-7.58333 7.58331 0 4.1882 3.39517 7.5834 7.58333 7.5834 4.18815 0 7.58335-3.3952 7.58335-7.5834 0-4.18814-3.3952-7.58331-7.58335-7.58331zm-9.083334 7.58331c0-5.01657 4.066744-9.083313 9.083334-9.083313 5.01655 0 9.08335 4.066743 9.08335 9.083313 0 5.0166-4.0668 9.0834-9.08335 9.0834-5.01659 0-9.083334-4.0668-9.083334-9.0834zm13.363684-2.61364c.2929.29289.2929.76776 0 1.06066l-5.00835 5.00838c-.14066.1406-.33142.2196-.53033.2196-.19892 0-.38968-.079-.53033-.2196l-2.5-2.5c-.2929-.2929-.2929-.7678 0-1.0607.29289-.29289.76776-.29289 1.06066 0l1.96966 1.9697 4.47799-4.47804c.2929-.2929.7678-.2929 1.0607 0z"/></svg>