<svg viewBox="0 0 20 20" xmlns="http://www.w3.org/2000/svg"><path d="m.832031 9.99998c0-5.06261 4.104059-9.166667 9.166669-9.166667 5.0626 0 9.1667 4.104057 9.1667 9.166667 0 5.06262-4.1041 9.16662-9.1667 9.16662-5.06261 0-9.166669-4.104-9.166669-9.16662zm13.507569-1.49404c.3254-.32544.3254-.85307 0-1.17851-.3255-.32544-.8531-.32544-1.1785 0l-4.41911 4.41907-1.91074-1.91072c-.32544-.32544-.85308-.32544-1.17851 0-.32544.32542-.32544.85312 0 1.17852l2.5 2.5c.15628.1563.36824.2441.58925.2441.22102 0 .43298-.0878.58926-.2441z"/></svg>