<svg viewBox="0 0 20 20" xmlns="http://www.w3.org/2000/svg"><path d="m13.1519 1.90649c-.6857 0-1.3432.27237-1.828.75719l-7.65837 7.65832c-.79755.7976-1.24561 1.8793-1.24561 3.0072s.44806 2.2096 1.24561 3.0072c.79755.7975 1.87927 1.2456 3.00717 1.2456 1.12791 0 2.20962-.4481 3.00717-1.2456l7.65833-7.65838c.2929-.29289.7678-.29289 1.0607 0s.2929.76777 0 1.06066l-7.6584 7.65832c-1.07882 1.0789-2.54207 1.685-4.0678 1.685s-2.98897-.6061-4.06783-1.685c-1.07885-1.0788-1.684948-2.5421-1.684948-4.0678 0-1.5258.606098-2.989 1.684948-4.06785l7.65833-7.65833c.7661-.766124 1.8052-1.196526 2.8887-1.196526 1.0834 0 2.1225.430402 2.8886 1.196526.7662.76612 1.1966 1.8052 1.1966 2.88866s-.4304 2.12254-1.1966 2.88867l-7.66663 7.65835c-.0001.0001.00009-.0001 0 0-.45336.4532-1.06845.7081-1.7095.7081-.64119 0-1.25611-.2547-1.7095-.7081-.45338-.4534-.70809-1.0683-.70809-1.7095s.25471-1.2561.70809-1.7095l7.07533-7.067c.293-.29272.7679-.29244 1.0606.00063.2928.29307.2925.76794-.0006 1.06066l-7.07467 7.06631c-.17188.1721-.26875.4057-.26875.6489 0 .2433.09667.4767.26875.6488s.40548.2688.64884.2688.47675-.0967.64884-.2688l7.66669-7.65832c-.0001.0001.0001-.00009 0 0 .4846-.48478.7572-1.1425.7572-1.828 0-.68563-.2724-1.34319-.7572-1.828-.4848-.48482-1.1424-.75719-1.828-.75719z"/></svg>