<svg viewBox="0 0 20 20" xmlns="http://www.w3.org/2000/svg"><path d="m3.98248 1.26904c-.14452.01207-.28015.07475-.383.177-.175.163-.235.464-.157.796.026.114.045.21.04.214-.11718.01677-.23492.02944-.353.038-.18296.01568-.36427.04679-.542.093-.377.119-.764.424-1.016.801-.174.26-.263.512-.302.854-.039.339-.039 8.71696 0 9.05596.039.343.128.595.304.857.248.371.605.652 1.016.8l.195.07 1.853.009c1.256.005 1.891-.002 1.973-.024.281-.076.435-.333.431-.72-.003-.368-.142-.59-.429-.686-.071-.024-.599-.034-1.755-.034-.992 0-1.696-.012-1.759-.03-.14524-.0562-.26264-.1671-.327-.309-.045-.119-.045-8.80296 0-8.92196.05864-.13033.16132-.23584.29-.298.064-.027.217-.041.454-.041h.358l.066.217c.085.28.146.396.296.567.154.174.354.303.598.384.186.063.225.064 2.147.055l1.957-.008.232-.114c.387-.192.617-.474.74-.906l.051-.18h.40702c.442 0 .493.016.63.199.094.126.111.281.111 1.033.001.716.002.722.079.878.0444.10089.1206.18448.217.238.127.075.167.082.44.082.265 0 .315-.009.43-.075.0864-.0514.1586-.12359.21-.21l.08-.135.009-.877c.005-.486-.004-.947-.02-1.035-.134-.725-.752-1.379-1.452-1.536-.1537-.02976-.309-.0508-.465-.063-.152-.011-.277-.032-.277-.045 0-.014.022-.117.048-.23.102-.435.003-.686-.339-.854l-.20302-.1-2.865-.004c-1.576-.002-2.934.006-3.018.018zm4.725 1.523c-.03161.16401-.0693.32679-.113.488l-.11.435-1.551.008c-1.455.007-1.553.004-1.579-.045-.04735-.14659-.0874-.29544-.12-.446-.03372-.14823-.07107-.2956-.112-.442-.018-.046.115-.05 1.784-.05 1.698 0 1.803.003 1.801.052zm1.41702 4.672c-.66202.16-1.27402.772-1.42902 1.429-.067.285-.068 8.07496-.001 8.35896.159.675.718 1.24 1.42502 1.438.184.052.392.055 3.57.055s3.386-.003 3.57-.055c.707-.198 1.266-.763 1.425-1.438.067-.284.066-8.07396-.001-8.35896-.125-.529-.535-1.032-1.041-1.275-.1401-.06872-.2865-.12396-.437-.165-.247-.051-6.869-.041-7.081.011zm6.905 1.525c.235.179.214-.196.224 3.97996.005 2.055 0 3.794-.01 3.865-.0176.0834-.0543.1616-.1072.2284-.053.0668-.1207.1204-.1978.1566-.079.034-.669.041-3.246.041-2.148 0-3.176-.01-3.234-.032-.1418-.0643-.2528-.1817-.309-.327-.042-.149-.04-7.50796.001-7.65696.036-.128.234-.314.355-.333.043-.007 1.504-.011 3.246-.009l3.168.003zm-5.507 2.16396c-.187.066-.264.134-.34.297-.083.178-.1.509-.036.721.031.0855.0804.163.1447.2273s.1419.1137.2273.1447c.176.053 4.166.053 4.342 0 .0887-.0313.169-.0829.2344-.1506s.1142-.1496.1426-.2394c.056-.2.032-.578-.046-.728-.0391-.0697-.0919-.1308-.1551-.1798s-.1356-.0847-.2129-.1052c-.068-.018-.871-.029-2.149-.029-1.623.001-2.063.01-2.152.042zm.03 2.446c-.291.09-.443.324-.443.686 0 .123.017.278.037.346.0313.0878.0822.1672.149.2322.0667.065.1474.1139.236.1428.1.028.648.034 2.238.028l2.105-.009.127-.09c.186-.131.251-.276.263-.591.01-.228.001-.282-.064-.424-.0393-.1077-.1179-.1967-.22-.249l-.146-.086-2.1-.005c-1.155-.003-2.137.006-2.182.019z"/></svg>