<svg viewBox="0 0 20 20" xmlns="http://www.w3.org/2000/svg"><path d="m15 3.14893c-.2699 0-.5288.10722-.7197.29809l-10.26973 10.26978-.47978 1.9191 1.91912-.4798 10.26979-10.26974c.0945-.09451.1695-.2067.2206-.33018.0512-.12349.0775-.25583.0775-.38949 0-.13365-.0263-.266-.0775-.38948-.0511-.12348-.1261-.23568-.2206-.33019s-.2067-.16947-.3302-.22062-.2558-.07747-.3895-.07747zm-1.7803-.76257c.4722-.47217 1.1126-.73743 1.7803-.73743.3307 0 .6581.06512.9635.19165.3055.12653.583.31199.8168.54578.2338.2338.4193.51136.5458.81682.1266.30547.1917.63287.1917.96351s-.0651.65804-.1917.96351c-.1265.30547-.312.58303-.5458.81682l-10.41662 10.41668c-.09612.0961-.21655.1643-.34843.1973l-3.33333.8333c-.25558.0639-.52595-.011-.71223-.1973-.18629-.1863-.26118-.4566-.19728-.7122l.83333-3.3333c.03297-.1319.10116-.2524.19728-.3485zm-3.96968 14.28034c0-.4142.33578-.75.74998-.75h7.5c.4142 0 .75.3358.75.75s-.3358.75-.75.75h-7.5c-.4142 0-.74998-.3358-.74998-.75z"/></svg>