<svg viewBox="0 0 20 20" xmlns="http://www.w3.org/2000/svg"><path d="m3.10608.952026c-.39864.058744-.77659.215094-1.10022.455154-.32363.24007-.58291.55639-.75478.92085-.284.609-.295 1.022-.061 2.398.508 2.985 1.98 6.02697 4.065 8.39997.66841.743 1.38926 1.4372 2.157 2.077 2.307 1.888 5.14002 3.184 8.01102 3.667.717.121 1.165.168 1.394.148.4245-.0337.8329-.1772 1.1852-.4163.3524-.2391.6366-.5657.8248-.9477.241-.498.238-.467.238-2.296 0-1.508-.005-1.645-.06-1.82-.155-.4721-.4259-.8977-.788-1.238-.209-.19-.57-.427-.753-.496-.078-.03-.802-.218-1.61-.419-1.621-.404-1.825-.436-2.268-.355-.544.098-.961.334-1.572.89-.23.209-.395.335-.438.335-.067 0-.488-.277-.887-.584-1.07024-.8238-2.00344-1.81163-2.76502-2.92697-.099-.146-.18-.294-.18-.328 0-.036.118-.188.275-.353.512-.537.792-.977.92-1.445.041-.152.055-.313.052-.617l-.003-.412-.335-1.331c-.184-.733-.38-1.445-.434-1.584-.278-.7-.758-1.258-1.315-1.53-.419-.204004-.42-.204004-2.089-.212004-.836-.005-1.605.005-1.709.02zm3.123 1.539004c.081.037.207.129.279.203.247.255.344.527.695 1.945.176.714.32 1.335.32 1.38-.001.138-.098.417-.192.554-.13904.17447-.28621.34233-.441.503-.511.544-.658.886-.627 1.462.02.368.098.566.398 1.007.70095 1.04297 1.53915 1.98677 2.492 2.80597.629.537 1.43802 1.116 1.77002 1.266.456.207 1.059.171 1.508-.091.1572-.1092.3053-.231.443-.364.59-.553.768-.66 1.093-.66.135 0 .579.096 1.551.337 1.529.378 1.564.392 1.837.738.24.304.242.319.231 1.866-.009 1.338-.01 1.358-.082 1.515-.0918.1928-.2396.3534-.424.461-.218.112-.371.127-.775.075-2.963-.384-5.737-1.612-8.11802-3.59-.64959-.5657-1.26406-1.1705-1.84-1.811-1.41161-1.6175-2.48656-3.50016-3.162-5.53797-.366-1.106-.704-2.817-.657-3.328.026-.285.233-.57.525-.724.149-.078.39-.09 1.699-.085 1.289.004 1.334.007 1.477.073z"/></svg>