<svg viewBox="0 0 20 20" xmlns="http://www.w3.org/2000/svg"><path d="m18.3332 14.1v2.5c.0009.2321-.0466.4618-.1396.6744-.093.2127-.2293.4036-.4003.5605-.1711.1569-.373.2763-.5928.3507-.2199.0743-.4528.1019-.684.081-2.5643-.2786-5.0275-1.1548-7.19164-2.5583-2.01347-1.2794-3.72055-2.9865-5-5-1.40835-2.17398-2.28479-4.64916-2.55833-7.22499-.02083-.23044.00656-.4627.08042-.68198.07385-.21928.19256-.42078.34855-.59167.156-.17089.34587-.30742.55752-.40091.21166-.09349.44046-.14189.67184-.1421h2.5c.40442-.00398.7965.13923 1.10314.40294s.50693.62993.56353 1.03039c.10552.80005.30121 1.5856.58333 2.34167.11212.29827.13639.62242.06992.93406-.06646.31164-.22086.59769-.44492.82427l-1.05833 1.05833c1.1863 2.08629 2.91371 3.81369 4.99997 4.99999l1.0584-1.0583c.2265-.2241.5126-.3785.8242-.4449.3117-.0665.6358-.0422.9341.0699.7561.2821 1.5416.4778 2.3417.5833.4048.0571.7745.261 1.0387.5729.2643.3119.4047.7101.3946 1.1188z"/></svg>