<svg viewBox="0 0 20 20" xmlns="http://www.w3.org/2000/svg"><path d="m6.5 8c.82843 0 1.5-.67157 1.5-1.5s-.67157-1.5-1.5-1.5-1.5.67157-1.5 1.5.67157 1.5 1.5 1.5z"/><path d="m4.16667 3.25c-.50626 0-.91667.41041-.91667.91667v11.66663c0 .4123.27209.7609.64648.8762l8.19942-8.19939c.6834-.68342 1.7915-.68342 2.4749 0l2.1792 2.17919v-6.52263c0-.50626-.4104-.91667-.9167-.91667zm12.58333 9.5607-3.2399-3.23993c-.0976-.09763-.2559-.09763-.3535 0l-7.17927 7.17923h9.85597c.5063 0 .9167-.4104.9167-.9167zm-15-8.64403c0-1.33469 1.08198-2.41667 2.41667-2.41667h11.66663c1.3347 0 2.4167 1.08198 2.4167 2.41667v11.66663c0 1.3347-1.082 2.4167-2.4167 2.4167h-11.66663c-1.33469 0-2.41667-1.082-2.41667-2.4167z"/></svg>