<svg viewBox="0 0 20 20" xmlns="http://www.w3.org/2000/svg"><path d="m10.0007 19.1667c5.0626 0 9.1666-4.104 9.1666-9.1667 0-5.06257-4.104-9.166626-9.1666-9.166626-5.06266 0-9.166716 4.104056-9.166716 9.166626 0 5.0627 4.104056 9.1667 9.166716 9.1667zm-4.55408-11.18542c.21329-2.11252 2.1407-4.23128 4.87358-4.23128 1.8915 0 3.2142.71641 4.0033 1.80704.761 1.05314.9485 2.34689.8204 3.40862-.111.92344-.4032 2.00474-.9962 2.85474-.6195.8883-1.5992 1.55-2.9563 1.414-.6836-.0687-1.1907-.3343-1.56259-.6757-.09375.2757-.18751.5515-.28126.8226l-.11641.3391c-.24532.7094-.47502 1.375-.65628 1.9383-.06921.2152-.22106.394-.42216.4972-.20109.1033-.43496.1224-.65014.0532-.21519-.0692-.39407-.2211-.49729-.4222s-.12233-.4349-.05313-.6501c.18751-.582.42346-1.2672.668-1.9742l.11563-.336c.28595-.8312.5758-1.6797.81409-2.4484l.03282-.1055c-.04063-.0828-.08438-.1766-.1297-.27813-.07344-.1664-.15313-.36328-.21563-.5625-.05781-.18516-.12188-.43438-.12188-.68594 0-.51407.11954-1.02423.4508-1.40236.16562-.19264.38077-.33633.62217-.41551s.49986-.09083.74741-.03371c.66955.14766.80395.78048.83055.99532.0359.27735.0046.58829-.0422.86954-.0696.43438-.2032.96251-.3672 1.52889.019.2068.0687.4095.1476.6016.1407.3328.3664.5992.8563.6484.6118.061 1.0399-.1929 1.3883-.6922.3751-.5375.6094-1.31559.7024-2.08435.0899-.74141-.0562-1.57813-.5094-2.20548-.4266-.58907-1.2008-1.10157-2.622-1.10157-1.81096 0-3.04773 1.40938-3.17821 2.69845-.08984.88751.10938 1.50783.30627 1.79689.12764.18646.17597.41606.13436.63816-.04162.2221-.16976.4186-.35625.5462-.18648.1277-.41604.176-.63816.1344s-.41862-.1698-.54626-.3563c-.48127-.7039-.71409-1.75543-.59533-2.93122z"/></svg>