<svg viewBox="0 0 20 20" xmlns="http://www.w3.org/2000/svg"><path d="m10.2772 2c-3.49803 0-5.96503 2.712-6.23803 5.416-.152 1.505.146 2.851.762 3.752.16337.2387.41487.4027.69918.456.2843.0532.57812-.0086.81682-.172.23869-.1634.40271-.4149.45597-.6992s-.0086-.5781-.17197-.8168c-.252-.37-.507-1.164-.392-2.3.167-1.65 1.75-3.454 4.06803-3.454 1.819 0 2.81.656 3.356 1.41.58.803.767 1.874.652 2.823-.119.984-.419 1.98-.899 2.668-.446.639-.994.964-1.777.886-.627-.063-.916-.404-1.096-.83-.101-.2458-.1647-.5054-.189-.77.21-.725.381-1.401.47-1.957.06-.36.1-.758.054-1.113-.034-.275-.206-1.085-1.06303-1.274-.31685-.07312-.64767-.0582-.95665.04315-.30899.10135-.58437.28526-.79635.53185-.424.484-.577 1.137-.577 1.795 0 .322.082.641.156.878.08.255.182.507.276.72.058.13.114.25.166.356l-.042.135c-.305.984-.676 2.07-1.042 3.134l-.148.43c-.313.905-.615 1.782-.855 2.527-.08858.2754-.06413.5748.06799.8322.13212.2573.36108.4517.63651.5403.27542.0886.57476.0641.83215-.068.2574-.1321.45176-.3611.54035-.6365.232-.721.526-1.573.84-2.481l.149-.434c.12-.347.24-.7.36-1.053.476.437 1.12503.777 2.00003.865 1.737.174 2.991-.673 3.784-1.81.759-1.088 1.133-2.472 1.275-3.654.164-1.359-.076-3.015-1.05-4.363-1.01-1.396-2.703-2.313-5.124-2.313z"/></svg>