<svg viewBox="0 0 20 20" xmlns="http://www.w3.org/2000/svg"><path d="m9.26316 1.25417c.46114-.23058 1.00134-.23058 1.46244 0l.0064.00318c.4984.25511.9104.68515 1.1961 1.14714.2855.46158.4871 1.02382.4871 1.58716v2.28217l4.4523 1.91949c.4245.17917.7637.50831.9936.85889.2308.35189.3958.79262.3958 1.2478v1.075c0 .5355-.2079 1.0659-.6817 1.3763-.4727.3097-1.0409.2895-1.5304.0797l-.0019-.0008-3.6277-1.5663v1.8556c.0001.0003.0002.0007.0003.001.0023.0101.0068.0249.0137.0416.006.0143.0119.0253.016.0322l.0015.0015 1.8905 1.8989c.0003.0003.0007.0006.001.0009.2223.2228.349.5082.4085.7631.0591.2537.0723.5652-.0288.8634l-.3686 1.1141c-.3125.9064-1.3506 1.3399-2.2111.9096-.0528-.0264-.1023-.0589-.1474-.0969l-1.9448-1.6359c-.0011-.0006-.0033-.0016-.0067-.0027-.0093-.0032-.0236-.0061-.04073-.0061-.01718 0-.03141.0029-.04077.0061-.00343.0012-.0056.0022-.00672.0027l-.00303.0026-1.94168 1.6333c-.04376.0368-.09158.0685-.14254.0945-.8671.4414-1.92023.0037-2.21249-.9218l-.36428-1.1011c-.00011-.0003.0001.0003 0 0-.09893-.2975-.08855-.6082-.02799-.866.06038-.257.18825-.5385.40832-.759.00028-.0003.00056-.0006.00085-.0008l1.87894-1.8873c.00512-.0084.01229-.0221.01941-.0396.00748-.0183.01232-.0345.01483-.0456.00018-.0008.00034-.0015.00048-.0022v-1.8561l-3.6277 1.5663-.00186.0008c-.48954.2098-1.05774.23-1.53042-.0797-.47379-.3104-.68169-.8408-.68169-1.3763v-1.075c0-.45506.1649-.89617.39654-1.24792.22953-.34854.56933-.67694.99673-.85211l4.44007-1.91766v-2.28232c0-.56281.20132-1.12661.48613-1.58975.28497-.4634.69706-.89688 1.19711-1.15286zm.67309 1.34053c-.19893.10314-.42249.31456-.59882.60129-.17768.28894-.26386.58347-.26386.804v2.5c0 .25687-.094.47923-.1981.63774-.10369.15789-.26908.33112-.50129.43271l-.00323.00142-4.65001 2.00832-.0169.00705c-.08475.03418-.20825.12847-.31451.28983-.10586.16074-.1493.31964-.1493.42294v1.075c0 .0524.00626.088.01223.11.02296-.0031.05896-.0113.1082-.0324-.00027.0002.00026-.0001 0 0l4.08702-1.76462c.33417-.14775.75762-.1726 1.12307.06744.36569.24021.51115.63918.51115 1.00288v2.375c0 .2205-.05799.4333-.12635.6009-.06784.1664-.1758.3616-.3342.5203-.00026.0003-.00052.0006-.00079.0008l-1.88276 1.8911c-.00039.0007-.00083.0015-.0013.0024-.00539.0105-.01216.0274-.01718.0487-.00501.0214-.00657.0399-.00638.0525.00003.0022.00011.004.0002.0054l.36852 1.1139c.00774.025.03097.0449.06032.0466l1.83824-1.5463c.57164-.4873 1.46508-.4873 2.03668 0l1.8334 1.5422c.032-.0023.0653-.0223.0801-.0623l.3621-1.0946c0-.0005 0-.0009 0-.0014.0002-.012-.0013-.0312-.0066-.0539-.0053-.0228-.0125-.0409-.0183-.0522-.0004-.0008-.0008-.0016-.0011-.0022l-1.8761-1.8844c-.1648-.1589-.2759-.3543-.3454-.5208-.0715-.1714-.1298-.3857-.1298-.6067v-2.375c0-.3572.1391-.75866.5096-1.00073.3663-.23942.7852-.20905 1.1084-.07646l.0127.0052 4.0898 1.76599c-.0003-.0001.0002.0001 0 0 .0492.021.086.0296.109.0327.006-.022.0122-.0576.0122-.11v-1.075c0-.1032-.0434-.2624-.1501-.42514-.1068-.16293-.233-.26202-.3233-.29989l-.0069-.0029-4.662-2.00995c-.2322-.1016-.3976-.27483-.5013-.43273-.1041-.15851-.1981-.38087-.1981-.63774v-2.5c0-.21998-.0858-.51191-.2629-.79824-.1756-.284-.3991-.49473-.5997-.59871-.0375-.01795-.07885-.01795-.11635 0zm3.34035 13.5606c-.0004-.0004-.0008-.0008-.0012-.0011z"/></svg>