<svg viewBox="0 0 20 20" xmlns="http://www.w3.org/2000/svg"><path d="m9.99935 2.41669c-4.18816 0-7.58333 3.39517-7.58333 7.58331 0 4.1882 3.39517 7.5834 7.58333 7.5834 4.18815 0 7.58335-3.3952 7.58335-7.5834 0-4.18814-3.3952-7.58331-7.58335-7.58331zm-9.083334 7.58331c0-5.01657 4.066744-9.083313 9.083334-9.083313 5.01655 0 9.08335 4.066743 9.08335 9.083313 0 5.0166-4.0668 9.0834-9.08335 9.0834-5.01659 0-9.083334-4.0668-9.083334-9.0834zm7.062774-3.99457c.24387-.13051.53978-.11621.76992.03722l4.99999 3.33333c.2087.1391.334.37328.334.62402 0 .2508-.1253.485-.334.6241l-4.99999 3.3333c-.23014.1534-.52605.1677-.76992.0372s-.39611-.3847-.39611-.6612v-6.66671c0-.2766.15224-.53074.39611-.66126zm1.10389 2.06264v3.86393l2.89792-1.932z"/></svg>