<svg viewBox="0 0 20 20" xmlns="http://www.w3.org/2000/svg"><path d="m10.0007.833374c-5.06266 0-9.166716 4.104056-9.166716 9.166626 0 5.0627 4.104056 9.1667 9.166716 9.1667 5.0626 0 9.1666-4.104 9.1666-9.1667 0-5.06257-4.104-9.166626-9.1666-9.166626zm-.00135 4.999916c.46025 0 .83335.3731.83335.83334v2.5h2.5c.4602 0 .8333.37309.8333.83333s-.3731.83334-.8333.83334h-2.5v2.5c0 .4602-.3731.8333-.83335.8333-.46024 0-.83333-.3731-.83333-.8333v-2.5h-2.5c-.46024 0-.83334-.3731-.83334-.83334s.3731-.83333.83334-.83333h2.5v-2.5c0-.46024.37309-.83334.83333-.83334z"/></svg>