<svg viewBox="0 0 20 20" xmlns="http://www.w3.org/2000/svg"><path d="m1.48828 3.43362c0-1.07357.8703-1.94387 1.94388-1.94387h13.13264c1.0736 0 1.9439.87031 1.9439 1.94387v13.13268c0 1.0736-.8703 1.9439-1.9439 1.9439h-13.13264c-1.07357 0-1.94388-.8703-1.94388-1.9439zm1.94388-.44387c-.24515 0-.44388.19873-.44388.44387v13.13268c0 .2451.19872.4439.44388.4439h13.13264c.2452 0 .4439-.1988.4439-.4439v-13.13268c0-.24515-.1987-.44387-.4439-.44387zm6.56686 2.92688c.41418 0 .74998.33578.74998.75v2.58331h2.5837c.4142 0 .75.33579.75.75 0 .41426-.3358.74996-.75.74996h-2.5837v2.5834c0 .4142-.3358.75-.74998.75-.41421 0-.75-.3358-.75-.75v-2.5834h-2.583c-.41422 0-.75-.3357-.75-.74996 0-.41421.33578-.75.75-.75h2.583v-2.58331c0-.41422.33579-.75.75-.75z"/></svg>