<svg viewBox="0 0 20 20" xmlns="http://www.w3.org/2000/svg"><path d="m4.24935 1.66669c0-.41422.33579-.750003.75-.750003h9.99995c.4143 0 .75.335783.75.750003v5.08333h.9167c.641 0 1.2556.25461 1.7089.70783.4532.45321.7078 1.0679.7078 1.70884v4.16671c0 .6409-.2546 1.2556-.7078 1.7088-.4533.4532-1.0679.7078-1.7089.7078h-.9167v2.5834c0 .4142-.3357.75-.75.75h-9.99995c-.41421 0-.75-.3358-.75-.75v-2.5834h-.91667c-.64094 0-1.25563-.2546-1.70884-.7078s-.707824-1.0679-.707824-1.7088v-4.16671c0-.64094.254614-1.25563.707824-1.70884.45321-.45322 1.0679-.70783 1.70884-.70783h.91667zm-.91667 6.58333c-.24311 0-.47627.09658-.64818.26849-.17191.1719-.26848.40506-.26848.64818v4.16671c0 .2431.09657.4762.26848.6481s.40507.2685.64818.2685h.91667v-2.5833c0-.4142.33579-.75.75-.75h9.99995c.4143 0 .75.3358.75.75v2.5833h.9167c.2431 0 .4763-.0966.6482-.2685s.2685-.405.2685-.6481v-4.16671c0-.24312-.0966-.47628-.2685-.64818-.1719-.17191-.4051-.26849-.6482-.26849zm10.91662-1.5h-8.49995v-4.33333h8.49995zm0 5.66668h-8.49995v5.1667h8.49995z" fill-rule="evenodd"/></svg>