<svg viewBox="0 0 20 20" xmlns="http://www.w3.org/2000/svg"><path d="m4.40219 2c0-.41421.33579-.75.75-.75h9.69761c.4142 0 .75.33579.75.75s-.3358.75-.75.75h-1.1631l.4271 4.69763c.1605.1463.332.31879.5066.51393.8701.97269 1.9484 2.66244 1.9484 4.70514 0 .4142-.3358.75-.75.75h-5.0688v4.5833c0 .4142-.3358.75-.75.75-.41421 0-.75-.3358-.75-.75v-4.5833h-5.06836c-.41421 0-.75-.3358-.75-.75 0-2.0427 1.07833-3.73245 1.94841-4.70514.17455-.19514.34613-.36763.50659-.51393l.42709-4.69763h-1.16154c-.41421 0-.75-.33579-.75-.75zm3.41772.75-.46694 5.13608c-.01848.20328-.11902.39025-.27842.51776-.15179.12142-.35449.30957-.57651.55777-.62012.69324-1.29334 1.74269-1.50147 2.95509h4.25343v-2.64396c0-.41422.33579-.75.75-.75.4142 0 .75.33578.75.75v2.64396h4.2539c-.2082-1.2124-.8814-2.26185-1.5015-2.95509-.222-.2482-.4247-.43635-.5765-.55777-.1594-.12751-.26-.31448-.2784-.51776l-.467-5.13608z"/></svg>