<svg viewBox="0 0 20 20" xmlns="http://www.w3.org/2000/svg"><path d="m7.65434.534953c-.65.109-1.325.486997-1.708.956997-.646.794-.826 1.836-.458 2.667.043.097.078.183.078.192s-.769.016-1.709.016c-1.898.001-1.953.006-2.356.218-.43191.23676-.7576.62895-.910996 1.097-.074.232-.074.256-.074 2.451 0 2.19605 0 2.21905.073 2.45205.196.621.708996.982 1.399996.982.452 0 .781-.11 1.217-.405.213-.145.324-.159.572-.075.2403.0985.43164.2884.532.528.189.556-.148 1.106-.735 1.201-.132.021-.162.01-.439-.165-.422-.268-.706-.361-1.104-.363-.842-.003-1.393996.461-1.500996 1.263-.024.173-.032.995-.025 2.349.011 2.043.013 2.088.085 2.3.102347.2833.266974.5402.481756.7515.21477.2113.47423.3717.75924.4695.167.054.369.061 2.267.071 1.315.008 2.178-.001 2.34-.022.606-.082 1.058-.446 1.206-.973.163-.581.068-1.083-.314-1.665-.161-.246-.172-.276-.151-.406.02088-.1572.08242-.3062.17853-.4323s.22346-.225.36947-.2867c.456-.209 1.023.041 1.187.522.081.24.066.352-.078.564-.299.441-.405.758-.405 1.211 0 .697.358 1.209.982 1.406.233.073.256.073 2.45196.073 2.195 0 2.219 0 2.451-.074.45-.141.88-.498 1.096-.909.213-.405.218-.459.219-2.358 0-.94.007-1.709.014-1.709.008 0 .125.044.259.098.353.14.611.182.988.159.5722-.034 1.1195-.2456 1.5656-.6054.4462-.3597.769-.8497.9234-1.4016.449-1.555-.554-3.18105-2.15-3.48405-.461-.087-1.075-.015-1.435.169-.0465.02549-.095.04722-.145.065-.009 0-.021-.813-.026-1.808l-.011-1.808-.084-.218c-.233-.597-.693-1.015-1.284-1.166-.242-.062-.372-.066-1.97-.066-.941 0-1.711-.008-1.711-.018s.028-.074.063-.142c.244-.48.276-1.192.082-1.79-.1478-.43117-.3947-.82164-.72096-1.14-.616-.581997-1.54-.875997-2.336-.741997zm.947 1.587997c.396.187.659.534.735.969.046.262.007.399-.209.729-.23.352-.303.564-.308.896-.004.307.047.511.175.7.101.148.345.326.532.389.089.029.70996.045 2.26396.059l2.141.018.092.093.093.092.018 2.141c.014 1.554.03 2.17505.059 2.26405.063.187.241.431.389.532.189.128.393.179.7.175.333-.005.554-.081.901-.309.323-.213.45-.25.717-.207.433.07.787.335.974.729.38.802-.182 1.753-1.065 1.801-.26.014-.293.001-.793-.306-.272-.168-.414-.205-.784-.204-.396.001-.598.081-.814.321-.275.306-.264.201-.284 2.632-.02 2.336-.009 2.213-.206 2.315-.077.04-.414.048-2.044.048-2.23196 0-2.04696.032-1.829-.319.236-.378.337-.607.378-.852.112-.666-.117-1.387-.60696-1.913-.522-.559-1.161-.819-1.893-.771-.33846.0091-.6699.0985-.967.261-.223.112-.344.203-.567.427-.439.441-.639.847-.697 1.419-.055.549.031.865.396 1.446.074.118.134.234.134.258 0 .036-.361.044-1.968.044-1.694 0-1.982-.007-2.066-.051-.204-.105-.199-.055-.199-2.214 0-1.607.008-1.968.044-1.968.024 0 .14.06.258.134.415.26.678.371.939.394.768.069 1.397-.158 1.926-.693.27142-.2643.4737-.5912.589-.952.077-.232.088-.324.09-.7.001-.482-.048-.723-.216-1.063-.24107-.4787-.6314-.8659-1.112-1.10305-.34-.162-.51-.209-.86-.239-.466-.039-.79.058-1.339.399-.351.21805-.319.40305-.319-1.829 0-1.666.007-1.966.05-2.048.108-.21.005-.2 2.182-.201 1.204 0 2.068-.013 2.197-.034.39-.064.663-.259.811-.582.062-.136.076-.224.076-.483.001-.37-.036-.512-.204-.784-.307-.5-.32-.533-.306-.793.028-.514.365-.95.876-1.13.264-.093.646-.067.92.063z"/></svg>