<svg viewBox="0 0 20 20" xmlns="http://www.w3.org/2000/svg"><path d="m1.23516 1.23576c.38942-.389418.91759-.608197 1.46832-.608197h1.9898c.41421 0 .75.335787.75.749997 0 .41422-.33579.75-.75.75h-1.9898c-.1529 0-.29954.06074-.40766.16886m12.25968-.91886c0-.41421.3358-.749997.75-.749997h1.9898c.5507 0 1.079.218749 1.4684.608257.3893.38935.6082.91746.6082 1.46827v1.9898c0 .41421-.3358.75-.75.75-.4143 0-.75-.33579-.75-.75v-1.9898c0-.15283-.0608-.29952-.169-.40772-.108-.10804-.2547-.16881-.4076-.16881h-1.9898c-.4142 0-.75-.33578-.75-.75zm-13.32034-.1418c-.389426.38943-.608207.9176-.608207 1.46833zm1.06066 1.06066c-.10812.10813-.16887.25477-.16887.40767v1.9898c0 .41421-.33578.75-.75.75-.41421 0-.749997-.33579-.749997-.75v-1.9898m3.317527 3.31631c0-1.14683.9297-2.07654 2.07653-2.07654h2.65306c1.14683 0 2.07653.9297 2.07653 2.07654v2.65306c0 1.14683-.9297 2.07654-2.07653 2.07654h-2.65306c-1.14683 0-2.07653-.92971-2.07653-2.07654zm2.07653-.57654c-.31841 0-.57653.25813-.57653.57654v2.65306c0 .3184.25812.57653.57653.57653h2.65306c.3184 0 .57653-.25813.57653-.57653v-2.65306c0-.31841-.25813-.57654-.57653-.57654zm7.29509-1.5c.4142 0 .75.33579.75.75v1.2398h1.2398c.4142 0 .75.33579.75.75s-.3358.75-.75.75h-1.9898c-.4142 0-.75-.33579-.75-.75v-1.9898c0-.41421.3358-.75.75-.75zm-.75 5.39286c0-.41421.3358-.75.75-.75h1.9898c.4142 0 .75.33579.75.75v1.98978c0 .4142-.3358.75-.75.75s-.75-.3358-.75-.75v-1.2398h-1.2398c-.4142 0-.75-.33576-.75-.74998zm-7.87162 3.22958c.41421 0 .75.3358.75.75v1.2398h1.23979c.41421 0 .75.3358.75.75s-.33579.75-.75.75h-1.98979c-.41422 0-.75-.3358-.75-.75v-1.9898c0-.4142.33578-.75.75-.75zm2.56473.75c0-.4142.33578-.75.75-.75h1.98979c.4142 0 .75.3358.75.75v1.9898c0 .4142-.3358.75-.75.75-.41421 0-.75-.3358-.75-.75v-1.2398h-1.23979c-.41422 0-.75-.3358-.75-.75zm6.05689-.75c.4142 0 .75.3358.75.75v1.2398h1.2398c.4142 0 .75.3358.75.75s-.3358.75-.75.75h-1.9898c-.4142 0-.75-.3358-.75-.75v-1.9898c0-.4142.3358-.75.75-.75zm-11.93915 1.9898c.41422 0 .75.3358.75.75v1.9898c0 .153.06077.2996.16881.4076.1082.1082.25489.169.40772.169h1.9898c.41421 0 .75.3357.75.75 0 .4142-.33579.75-.75.75h-1.9898c-.55081 0-1.07892-.2189-1.46827-.6082-.389507-.3894-.608257-.9177-.608257-1.4684v-1.9898c0-.4142.335787-.75.749997-.75zm17.24495 0c.4142 0 .75.3358.75.75v1.9898c0 .5508-.2189 1.079-.6083 1.4684-.3893.3893-.9175.6082-1.4683.6082h-1.9898c-.4142 0-.75-.3358-.75-.75 0-.4143.3358-.75.75-.75h1.9898c.1529 0 .2996-.0608.4077-.1689s.1689-.2548.1689-.4077v-1.9898c0-.4142.3357-.75.75-.75z"/><path d="m2.70348.627563c-.55073 0-1.0789.218779-1.46832.608197-.389426.38943-.608207.9176-.608207 1.46833v1.9898c0 .41421.335787.75.749997.75.41422 0 .75-.33579.75-.75v-1.9898c0-.1529.06075-.29954.16887-.40767.10812-.10812.25476-.16886.40766-.16886h1.9898c.41421 0 .75-.33578.75-.75 0-.41421-.33579-.749997-.75-.749997z"/></svg>