<svg viewBox="0 0 20 20" xmlns="http://www.w3.org/2000/svg"><path d="m.916016 10c0-5.01657 4.066744-9.083313 9.083334-9.083313 5.01655 0 9.08335 4.066743 9.08335 9.083313 0 5.0166-4.0668 9.0834-9.08335 9.0834-5.01659 0-9.083334-4.0668-9.083334-9.0834zm8.129844-3.17914c.3563-.2094.77522-.28594 1.18254-.21608.4073.06987.7768.28164 1.0429.59781.2662.31617.4119.71633.4113 1.12961v.00112c0 .43518-.3364.86449-.9161 1.25096-.267.17802-.5394.31474-.7479.40743-.10324.04589-.18821.07979-.24562.10169-.02864.0109-.05024.0187-.06361.0235l-.01367.0048-.00175.0006c-.39204.1315-.60374.5557-.47291.9482.13099.3929.55572.6053.94866.4743.0462-.0154.0918-.0324.1373-.0497.0793-.0302.1896-.0744.3208-.1327.2602-.1156.6128-.2914.9708-.53.6702-.4469 1.5837-1.26739 1.584-2.49862.0009-.76728-.2696-1.51018-.7637-2.09719-.4943-.58717-1.1804-.98046-1.9369-1.11021-.75648-.12976-1.53446.0124-2.19616.40128-.66171.38889-1.16443.99942-1.41912 1.72344-.13746.39075.06787.81893.45862.95639.39074.13745.81893-.06788.95638-.45862.13714-.38986.40784-.71861.76414-.92801zm.95349 6.59574c-.41422 0-.75.3358-.75.75 0 .4143.33578.75.75.75h.00835c.4142 0 .75-.3357.75-.75 0-.4142-.3358-.75-.75-.75z"/></svg>