<svg viewBox="0 0 20 20" xmlns="http://www.w3.org/2000/svg"><path d="m9.99935 2.41663c-4.18816 0-7.58333 3.39517-7.58333 7.58333 0 4.18814 3.39517 7.58334 7.58333 7.58334 4.18815 0 7.58335-3.3952 7.58335-7.58334 0-4.18816-3.3952-7.58333-7.58335-7.58333zm-9.083334 7.58333c0-5.01659 4.066744-9.083334 9.083334-9.083334 5.01655 0 9.08335 4.066744 9.08335 9.083334 0 5.01654-4.0668 9.08334-9.08335 9.08334-5.01659 0-9.083334-4.0668-9.083334-9.08334zm9.312384-3.39519c-.40732-.06986-.82624.00668-1.18254.21608s-.627.53815-.76414.92801c-.13745.39074-.56564.59607-.95638.45862-.39075-.13746-.59608-.56564-.45862-.95639.25469-.72402.75741-1.33455 1.41912-1.72344.6617-.38888 1.43968-.53104 2.19616-.40129.7565.12976 1.4426.52305 1.9369 1.11022.4941.58701.7646 1.3299.7637 2.09719-.0003 1.23123-.9138 2.05173-1.584 2.49853-.358.2387-.7106.4145-.9708.5301-.1312.0583-.2415.1025-.3208.1327-.0397.0151-.0719.0268-.0951.0351l-.0282.0099-.0088.003-.003.001-.0012.0004s-.001.0003-.23815-.7112l.23715.7115c-.39293.131-.81767-.0814-.94866-.4743-.13082-.3925.08086-.8167.47288-.9482l.00107-.0004.01438-.005c.01337-.0048.03497-.0126.06361-.0235.05741-.0219.14238-.0558.24562-.1017.2085-.09269.4809-.22941.7479-.40743.5797-.38646.9161-.81578.9161-1.25096v-.00112c.0006-.41328-.1451-.81344-.4113-1.12961-.2661-.31617-.6356-.52794-1.0429-.59781zm-.97905 7.56183c0-.4142.33578-.75.75-.75h.00835c.4142 0 .75.3358.75.75s-.3358.75-.75.75h-.00835c-.41422 0-.75-.3358-.75-.75z"/></svg>