<svg viewBox="0 0 20 20" xmlns="http://www.w3.org/2000/svg"><path d="m1.25 11.6087c0-4.25614 3.45026-7.70648 7.7064-7.70648.41422 0 .75.33579.75.75 0 .41422-.33578.75-.75.75-1.88128 0-3.56708.83706-4.70526 2.15907.38835-.11759.80033-.18081 1.22706-.18081 2.33519 0 4.2282 1.89307 4.2282 4.22822 0 2.3352-1.89301 4.2283-4.2282 4.2283-2.33518 0-4.2282-1.8931-4.2282-4.2283zm1.5 0c0 1.5068 1.22147 2.7283 2.7282 2.7283s2.7282-1.2215 2.7282-2.7283c0-1.5067-1.22147-2.72822-2.7282-2.72822s-2.7282 1.22152-2.7282 2.72822zm7.5434.0001c0-4.25623 3.4503-7.70657 7.7064-7.70657.4142 0 .75.33579.75.75 0 .41422-.3358.75-.75.75-1.8813 0-3.5671.83706-4.7053 2.15907.3884-.11759.8004-.1808 1.2271-.1808 2.3352 0 4.2282 1.89307 4.2282 4.2283 0 2.3352-1.893 4.2282-4.2282 4.2282s-4.2282-1.893-4.2282-4.2282zm1.5 0c0 1.5067 1.2215 2.7282 2.7282 2.7282s2.7282-1.2215 2.7282-2.7282c0-1.5068-1.2215-2.7283-2.7282-2.7283s-2.7282 1.2215-2.7282 2.7283z"/></svg>