<svg viewBox="0 0 20 20" xmlns="http://www.w3.org/2000/svg"><path d="m5.4782 5.66309c-1.50673 0-2.7282 1.22147-2.7282 2.72826s1.22147 2.72825 2.7282 2.72825 2.7282-1.22146 2.7282-2.72825-1.22147-2.72826-2.7282-2.72826zm1.22706 6.77571c-1.13818 1.322-2.82397 2.1591-4.70526 2.1591-.41421 0-.75.3358-.75.75s.33579.75.75.75c4.25614 0 7.7064-3.4504 7.7064-7.70655 0-2.33519-1.89301-4.22826-4.2282-4.22826-2.33518 0-4.2282 1.89307-4.2282 4.22826 0 2.33515 1.89302 4.22825 4.2282 4.22825.42674 0 .83871-.0632 1.22706-.1808zm7.81634-6.7757c-1.5067 0-2.7282 1.22147-2.7282 2.72826s1.2215 2.72824 2.7282 2.72824 2.7282-1.22145 2.7282-2.72824-1.2215-2.72826-2.7282-2.72826zm1.2271 6.7757c-1.1382 1.322-2.824 2.1591-4.7053 2.1591-.4142 0-.75.3358-.75.75s.3358.75.75.75c4.2561 0 7.7064-3.4504 7.7064-7.70654 0-2.33519-1.893-4.22826-4.2282-4.22826s-4.2282 1.89307-4.2282 4.22826c0 2.33524 1.893 4.22824 4.2282 4.22824.4267 0 .8387-.0632 1.2271-.1808z"/></svg>