<svg viewBox="0 0 20 20" xmlns="http://www.w3.org/2000/svg"><path d="m12.584 2.5c0-.41421.3358-.75.75-.75h4.1667c.4142 0 .75.33579.75.75v4.16667c0 .41421-.3358.75-.75.75-.4143 0-.75-.33579-.75-.75v-2.35601l-12.88639 12.88634c-.29289.2929-.76776.2929-1.06066 0-.29289-.2929-.29289-.7678 0-1.0607l12.88635-12.8863h-2.356c-.4142 0-.75-.33579-.75-.75zm-9.78035.303c.2929-.29289.76777-.29289 1.06066 0l4.16667 4.16667c.29289.29289.29289.76777 0 1.06066s-.76777.29289-1.06066 0l-4.16667-4.16667c-.29289-.29289-.29289-.76776 0-1.06066zm9.16665 9.1667c.2929-.2929.7678-.2929 1.0607 0l3.7197 3.7196v-2.356c0-.4142.3357-.75.75-.75.4142 0 .75.3358.75.75v4.1667c0 .4142-.3358.75-.75.75h-4.1667c-.4142 0-.75-.3358-.75-.75s.3358-.75.75-.75h2.356l-3.7197-3.7197c-.2929-.2929-.2929-.7677 0-1.0606z"/></svg>