<svg viewBox="0 0 20 20" xmlns="http://www.w3.org/2000/svg"><path d="m11.8716 3.51776c-1.0953-.31683-2.25308-.35102-3.3652-.09939-1.11211.25163-2.14236.78088-2.99461 1.53837s-1.49873 1.71853-1.8791 2.79344c-.13818.39048-.56675.59502-.95724.45684-.39048-.13818-.59502-.56675-.45684-.95724.46491-1.31378 1.25504-2.48838 2.29668-3.4142 1.04164-.92581 2.30083-1.57268 3.66009-1.88023 1.35925-.30754 2.77422-.26575 4.11302.12148 1.3349.38611 2.5505 1.10314 3.5342 2.08445l2.5947 2.43814v-3.26611c0-.41421.3358-.75.75-.75s.75.33579.75.75v5c0 .41422-.3358.75-.75.75h-5c-.4142 0-.75-.33578-.75-.75 0-.41421.3358-.75.75-.75h3.1066l-2.4868-2.33676c-.0057-.00537-.0114-.01083-.0169-.01637-.8061-.80647-1.8033-1.3956-2.8986-1.71242zm-11.7876156 8.14884c0-.4142.3357866-.75.7499996-.75h4.999996c.41422 0 .75.3358.75.75 0 .4143-.33578.75-.75.75h-3.10658l2.48683 2.3368c.00572.0054.01134.0108.01688.0164.80607.8065 1.80328 1.3956 2.89861 1.7124s2.25308.351 3.36518.0994 2.1424-.7809 2.9946-1.5384c.8523-.7575 1.4987-1.7185 1.8791-2.7934.1382-.3905.5668-.595.9572-.4569.3905.1382.5951.5668.4569.9573-.4649 1.3138-1.2551 2.4884-2.2967 3.4142s-2.3008 1.5727-3.6601 1.8802c-1.3592.3076-2.77424.2658-4.11297-.1215-1.33488-.3861-2.55053-1.1031-3.53422-2.0844l-2.59473-2.4382v3.2661c0 .4143-.33578.75-.749996.75-.414213 0-.7499996-.3357-.7499996-.75z"/></svg>