<svg viewBox="0 0 20 20" xmlns="http://www.w3.org/2000/svg"><path d="m9.99935 2.41669c-4.18816 0-7.58333 3.39517-7.58333 7.58331 0 4.1882 3.39517 7.5834 7.58333 7.5834 4.18815 0 7.58335-3.3952 7.58335-7.5834 0-4.18814-3.3952-7.58331-7.58335-7.58331zm-9.083334 7.58331c0-5.01657 4.066744-9.083313 9.083334-9.083313 5.01655 0 9.08335 4.066743 9.08335 9.083313 0 5.0166-4.0668 9.0834-9.08335 9.0834-5.01659 0-9.083334-4.0668-9.083334-9.0834zm6.053004-3.03031c.29289-.29289.76777-.29289 1.06066 0l1.96967 1.96967 1.96965-1.96967c.2929-.29289.7678-.29289 1.0607 0s.2929.76777 0 1.06066l-1.9697 1.96965 1.9697 1.9697c.2929.2929.2929.7678 0 1.0606-.2929.2929-.7678.2929-1.0607 0l-1.96965-1.9696-1.96967 1.9696c-.29289.2929-.76777.2929-1.06066 0-.29289-.2928-.29289-.7677 0-1.0606l1.96967-1.9697-1.96967-1.96965c-.29289-.29289-.29289-.76777 0-1.06066z"/></svg>