<svg viewBox="0 0 20 20" xmlns="http://www.w3.org/2000/svg"><path d="m3.24964 2.94324c0-.41422.33579-.75.75-.75h12.08776c.4142 0 .75.33578.75.75 0 .41421-.3358.75-.75.75h-12.08776c-.41421 0-.75-.33579-.75-.75zm-1.77825 4.51034c0-.41422.33579-.75.75-.75h14.97431c.4142 0 .75.33578.75.75 0 .41421-.3358.75-.75.75h-3.2188v6.46652c0 1.18.9566 2.1366 2.1366 2.1366h.3019c1.0133 0 1.8347-.8214 1.8347-1.8347 0-.4142.3358-.75.75-.75s.75.3358.75.75c0 1.8417-1.493 3.3347-3.3347 3.3347h-.3019c-2.0085 0-3.6366-1.6281-3.6366-3.6366v-6.46652h-4.46352c-.21853 6.42522-4.11265 9.52602-6.33173 10.08072-.40184.1005-.809045-.1438-.909507-.5457-.100461-.4018.143859-.809.545707-.9095 1.51617-.379 4.97934-2.8553 5.19462-8.62552h-4.29108c-.41421 0-.75-.33579-.75-.75z"/></svg>