<svg viewBox="0 0 20 20" xmlns="http://www.w3.org/2000/svg"><path d="m2.56908 6.21207c1.00466-1.00462 2.36727-1.569 3.78806-1.569h.00531.00164.00265c1.35033.00242 2.64748.51457 3.63396 1.42981.9888-.91741 2.2898-1.42981 3.6436-1.42981h.0055.0017l.0038.00001c1.4168.00291 2.775.56697 3.777 1.56899 1.0047 1.00462 1.5691 2.36718 1.5691 3.78793 0 1.2884-.4641 2.5289-1.2998 3.4981-.0248.0368-.0542.0699-.0872.0986-.059.0651-.1197.1289-.1821.1912-1.0046 1.0047-2.3673 1.5691-3.788 1.5691-1.3538 0-2.6548-.5124-3.6436-1.4299-.98882.9175-2.28977 1.4299-3.64356 1.4299-1.42079 0-2.7834-.5644-3.78806-1.5691-1.00466-1.0046-1.56908-2.3671-1.56908-3.7879 0-1.42075.56442-2.78331 1.56908-3.78793zm8.45902 7.27213c.7501.5632 1.6672.8728 2.6162.8728.9508 0 1.8696-.3108 2.6205-.8761-.8291-.2742-1.5649-.783-2.1153-1.4692-.1927-.2402-.3592-.4978-.498-.7685-.1388.2707-.3053.5283-.4979.7685-.5527.689-1.2922 1.1992-2.1255 1.4725zm3.1234-4.31222c-.0001.80502.2744 1.58602.7781 2.21402s1.2065 1.0654 1.9924 1.24l.1701.0379c.5863-.7588.9093-1.6947.9093-2.6639 0-1.15552-.4591-2.26372-1.2762-3.08081-.6966-.69661-1.6049-1.13298-2.5737-1.24651zm-1-3.50098c-.9267.10544-1.7988.5062-2.4842 1.14761.6759.91568 1.047 2.02941 1.047 3.18139 0 .8217-.1888 1.6238-.5423 2.3486.4633-.2273.8744-.5548 1.2015-.9626.5037-.628.7782-1.409.778-2.21402zm-3.1508 6.7183c.4621-.7046.7136-1.534.7136-2.3893 0-.85531-.2515-1.68471-.7136-2.3893-.46208.70459-.71359 1.53399-.71359 2.3893 0 .8553.25151 1.6847.71359 2.3893zm-.66657-5.57069c-.68196-.63813-1.54863-1.03806-2.47004-1.14597v3.50156c.00026.80511.27501 1.5863.77893 2.2142.32282.4023.72732.7264 1.18301.9533-.35135-.723-.53892-1.5227-.53892-2.3417 0-1.15198.37107-2.26571 1.04702-3.18139zm-.3583 6.66369c-.82797-.2743-1.56277-.7827-2.11273-1.468-.19306-.2406-.3599-.4987-.49897-.7699-.13899.2711-.30574.5292-.4987.7697-.55209.6881-1.29054 1.1979-2.12256 1.4715.74977.5623 1.66609.8714 2.61427.8714.95005 0 1.8681-.3103 2.61869-.8747zm-6.06299-.8138.1798-.04c.78595-.1747 1.48896-.6122 1.99279-1.2402.50378-.6279.77843-1.40883.77866-2.21384v-3.50342c-.97413.11091-1.88787.54813-2.58792 1.24815-.81712.81709-1.27617 1.92529-1.27617 3.08081 0 .9712.32426 1.9089.91284 2.6685z"/></svg>