<svg viewBox="0 0 20 20" xmlns="http://www.w3.org/2000/svg"><path d="m9.6999 3.31849c-1.44902-.20553-2.92559.06546-4.2072.77212-1.28161.70667-2.29883 1.81074-2.89837 3.14583-.59954 1.33508-.74892 2.82886-.42562 4.25626.32329 1.4273 1.10174 2.711 2.21804 3.6574 1.1163.9465 2.50997 1.5045 3.971 1.59 1.46103.0854 2.91025-.3062 4.12935-1.1161 1.219-.8098 2.1418-1.9939 2.6293-3.3739.138-.3905.5665-.5953.957-.4573.3906.138.5953.5665.4574.957-.5959 1.6866-1.7238 3.1338-3.2137 4.1236-1.49.9898-3.2613 1.4686-5.04695 1.3641-1.7857-.1045-3.48908-.7865-4.85345-1.9432-1.36436-1.1568-2.3158-2.7257-2.710936-4.4703-.395137-1.7445-.212564-3.57027.520206-5.20205.73277-1.63177 1.97604-2.98118 3.54245-3.84489 1.56642-.8637 3.37111-1.19491 5.14214-.9437 1.76714.25066 3.40534 1.06765 4.66864 2.32821l2.5862 2.43529v-3.26357c0-.41421.3358-.75.75-.75s.75.33579.75.75v5c0 .41422-.3358.75-.75.75h-5c-.4142 0-.75-.33578-.75-.75 0-.41421.3358-.75.75-.75h3.1095l-2.4821-2.3373c-.0056-.0052-.011-.01049-.0164-.01586-1.0345-1.03519-2.3775-1.70611-3.8265-1.91164z"/></svg>