<svg viewBox="0 0 20 20" xmlns="http://www.w3.org/2000/svg"><path d="m9.96739 4.39842c-.05485-.0248-.1196-.01511-.16547.02636l-.0013.00118-4.54656 4.0919-.00091.00082c-.03336.02992-.05203.07073-.05203.11801 0 .04201.01773.08626.05513.1208.00033.00031.00066.00062.001.00092l4.54139 4.08729c-.00018-.0002.00018.0001 0 0 .04625.0409.11353.0535.17591.0261.05415-.0239.09175-.0792.09175-.1432v-2.5686h3.4779c1.9203 0 3.478 1.5576 3.478 3.4779 0 .5213-.106.9492-.2588 1.2944.6993-.6695 1.4867-1.8125 1.4867-3.5677 0-2.34779-1.9034-4.25119-4.2512-4.25119h-3.9326v-2.56862c0-.06088-.0378-.11925-.09395-.14415zm.61561-1.36787c-.59793-.26918-1.29874-.15946-1.7864.28098-.00025.00022.00025-.00023 0 0l-4.54508 4.09057c-.00016.00015.00016-.00014 0 0-.3528.31673-.5504.76491-.5504 1.23459 0 .47479.2036.91888.5463 1.23088l4.54975 4.09483.00197.0017c.48796.4361 1.18249.5431 1.77916.2808.605-.266.988-.8642.988-1.5163v-1.0686h1.9779c1.0919 0 1.978.8861 1.978 1.9779 0 .6194-.2487.9288-.3944 1.0674-.2397.2235-.5149.6031-.5149 1.1007 0 .7187.5833 1.3098 1.3098 1.3098.164 0 .3785-.0287.5922-.1471.6131-.3351 3.2352-1.969 3.2352-5.6041 0-3.17622-2.575-5.75119-5.7512-5.75119h-2.4326v-1.06862c0-.65429-.3873-1.24875-.9833-1.51424zm-4.17776.33621c.27709.30788.25214.7821-.05575 1.05919l-4.54746 4.09272c-.03336.02993-.05203.07074-.05203.11802 0 .04201.01773.08627.05514.12081.00032.0003.00065.00061.00099.00091l4.54336 4.08899c.30789.2771.33284.7513.05575 1.0592s-.75131.3329-1.05919.0558l-4.549765-4.09482c-.342692-.312-.546285-.7561-.546285-1.23089 0-.46968.197118-.91744.549916-1.23416-.000159.00014.000159-.00014 0 0l4.546134-4.09152c.30788-.27709.7821-.25213 1.05919.05575z" fill-rule="evenodd"/></svg>