<svg viewBox="0 0 20 20" xmlns="http://www.w3.org/2000/svg"><path d="m7.96744 4.39842c-.05485-.0248-.1196-.01511-.16547.02636l-.00131.00118-4.54746 4.09272c-.03336.02992-.05203.07073-.05203.11801 0 .04201.01773.08626.05513.12081.00033.0003.00066.00061.001.00091l4.54139 4.08729c-.00019-.0002.00019.0001 0 0 .04625.0409.11354.0535.17591.0261.05417-.0239.09175-.0792.09175-.1432v-2.5686h3.47795c1.9203 0 3.4779 1.5576 3.4779 3.4779 0 .5213-.1059.9492-.2587 1.2944.6993-.6695 1.4867-1.8125 1.4867-3.5677 0-2.3478-1.9034-4.25119-4.2513-4.25119h-3.93255v-2.56862c0-.06088-.03781-.11925-.09395-.14415zm.61558-1.36787c-.59788-.26918-1.2987-.15947-1.78636.28097-.00025.00022-.0005.00045-.00075.00067l-4.54434 4.08991c-.00015.00013.00014-.00012 0 0-.35284.31673-.5504.76489-.5504 1.23459 0 .47479.2036.91888.54629 1.23088l4.54976 4.09483.00197.0017c.48796.4361 1.18249.5431 1.77912.2808.60507-.266.98804-.8642.98804-1.5163v-1.0686h1.97795c1.0918 0 1.9779.8861 1.9779 1.9779 0 .6194-.2487.9288-.3943 1.0674-.2397.2235-.515.6031-.515 1.1007 0 .7187.5834 1.3098 1.3098 1.3098.164 0 .3785-.0287.5922-.1471.6131-.3351 3.2353-1.969 3.2353-5.6041 0-3.17622-2.575-5.75119-5.7513-5.75119h-2.43255v-1.06862c0-.65429-.38734-1.24874-.98333-1.51424z"/></svg>