<svg viewBox="0 0 20 20" xmlns="http://www.w3.org/2000/svg"><path d="m5.81586 5.46967c.2929.29289.2929.76777 0 1.06066l-2.25482 2.25483h12.59046l-2.2549-2.25483c-.2929-.29289-.2929-.76777 0-1.06066s.7678-.29289 1.0607 0l3.5355 3.53553c.1407.14066.2197.33142.2197.53033 0 .19892-.079.38968-.2197.53037l-3.5355 3.5355c-.2929.2929-.7678.2929-1.0607 0s-.2929-.7678 0-1.0607l2.2556-2.2555h-12.59192l2.25558 2.2555c.2929.2929.2929.7678 0 1.0607-.29289.2929-.76776.2929-1.06066 0l-3.53553-3.5355c-.14065-.14069-.21967-.33145-.21967-.53037 0-.19891.07902-.38967.21967-.53033l3.53553-3.53553c.2929-.29289.76777-.29289 1.06066 0z"/></svg>