<svg viewBox="0 0 20 20" xmlns="http://www.w3.org/2000/svg"><path d="m18.0303 1.96967c.2929.29289.2929.76777 0 1.06066l-4.553 4.553h3.1894c.4142 0 .75.33579.75.75 0 .41422-.3358.75-.75.75h-5c-.4142 0-.75-.33578-.75-.75v-5c0-.41421.3358-.75.75-.75s.75.33579.75.75v3.18934l4.553-4.553c.2929-.29289.7677-.29289 1.0606 0zm-14.69697 10.44703c-.41421 0-.75-.3358-.75-.75s.33579-.75.75-.75h5c.41422 0 .75.3358.75.75v5c0 .4142-.33578.75-.75.75-.41421 0-.75-.3358-.75-.75v-3.1894l-4.553 4.553c-.29289.2929-.76777.2929-1.06066 0s-.29289-.7677 0-1.0606l4.553-4.553z"/></svg>