<svg viewBox="0 0 20 20" xmlns="http://www.w3.org/2000/svg"><path d="m11.75 2.5c0-.41421.3358-.75.75-.75h5c.4142 0 .75.33579.75.75v5c0 .41421-.3358.75-.75.75s-.75-.33579-.75-.75v-3.18934l-4.553 4.553c-.2929.2929-.7678.2929-1.0607 0-.2929-.29289-.2929-.76776 0-1.06066l4.553-4.553h-3.1893c-.4142 0-.75-.33579-.75-.75zm-2.88634 8.6363c.2929.2929.2929.7678 0 1.0607l-4.553 4.553h3.18934c.41421 0 .75.3358.75.75s-.33579.75-.75.75h-5c-.41421 0-.75-.3358-.75-.75v-5c0-.4142.33579-.75.75-.75s.75.3358.75.75v3.1893l4.553-4.553c.2929-.2929.76777-.2929 1.06066 0z"/></svg>