<svg viewBox="0 0 20 20" xmlns="http://www.w3.org/2000/svg"><path d="m9.2552 1.46967c.2929-.29289.7678-.29289 1.0607 0l3.5355 3.53553c.2929.2929.2929.76777 0 1.06066-.2929.2929-.7678.2929-1.0607 0l-2.2555-2.25558v12.59262l2.2555-2.2555c.2929-.2929.7678-.2929 1.0607 0 .2929.2928.2929.7677 0 1.0606l-3.5355 3.5355c-.1407.1407-.33145.2197-.53037.2197-.19891 0-.38967-.079-.53033-.2197l-3.53553-3.5355c-.29289-.2929-.29289-.7678 0-1.0606.29289-.2929.76777-.2929 1.06066 0l2.25483 2.2548v-12.59116l-2.25483 2.25482c-.29289.2929-.76777.2929-1.06066 0-.29289-.29289-.29289-.76776 0-1.06066z"/></svg>