<svg viewBox="0 0 20 20" xmlns="http://www.w3.org/2000/svg"><path d="m7.42871 3c0-.41421.33579-.75.75-.75h4.33329c.8557 0 1.6763.3399 2.2813.94493.605.60501.9449 1.42559.9449 2.2812 0-.00001 0 .00002 0 0l.0005 5.61807 1.815-1.81502c.2929-.29289.7678-.29289 1.0607 0s.2929.76772 0 1.06062l-3.0953 3.0953c-.2929.2929-.7677.2929-1.0606 0l-3.0953-3.0953c-.2929-.2929-.2929-.76773 0-1.06062s.7678-.29289 1.0607 0l1.8148 1.81482-.0005-5.61775c0-.45782-.1818-.89694-.5056-1.22066-.3237-.32372-.7627-.50559-1.2206-.50559h-4.33329c-.41421 0-.75-.33579-.75-.75zm-3.1138 3.46967c.29289-.29289.76776-.29289 1.06066 0l3.09524 3.09524c.29289.29289.29289.76779 0 1.06069-.2929.2929-.76777.2929-1.06066 0l-1.8148-1.81483.00035 5.61773c0 .4578.18187.8969.50559 1.2207.32373.3237.76279.5056 1.2206.5056h4.33331c.4142 0 .75.3357.75.75 0 .4142-.3358.75-.75.75h-4.33331c-.85564 0-1.67623-.3399-2.28126-.945-.60501-.605-.94491-1.4256-.94493-2.2812l-.00035-5.61805-1.81502 1.81505c-.29289.2929-.76777.2929-1.06066 0-.292893-.2929-.292893-.7678 0-1.06069z"/></svg>