<svg viewBox="0 0 20 20" xmlns="http://www.w3.org/2000/svg"><path d="m5.52536.646753c.4036.09314.65528.495837.56214.899437l-3.97959 17.24491c-.09314.4036-.49583.6553-.89944.5621-.403601-.0931-.655284-.4958-.562144-.8994l3.979594-17.2449c.09314-.403604.49583-.655287.89944-.562147zm8.94764 0c.4036-.09314.8063.158543.8994.562147l3.9796 17.2449c.0932.4036-.1585.8063-.5621.8994-.4036.0932-.8063-.1585-.8995-.5621l-3.9796-17.24491c-.0931-.4036.1586-.806297.5622-.899437zm-4.47423-.019206c.41423 0 .75003.335786.75003.750003v2.65306c0 .41421-.3358.75-.75003.75-.41421 0-.75-.33579-.75-.75v-2.65306c0-.414217.33579-.750003.75-.750003zm0 7.295883c.41423 0 .75003.33578.75003.75v2.65307c0 .4142-.3358.75-.75003.75-.41421 0-.75-.3358-.75-.75v-2.65307c0-.41422.33579-.75.75-.75zm0 7.29597c.41423 0 .75003.3358.75003.75v2.6531c0 .4142-.3358.75-.75003.75-.41421 0-.75-.3358-.75-.75v-2.6531c0-.4142.33579-.75.75-.75z"/></svg>