<svg viewBox="0 0 20 20" xmlns="http://www.w3.org/2000/svg"><path d="m13.7795 1.55303c-1.529.212-2.716.796-3.79198 1.865-.481.478-1.041 1.198-1.59 2.045l-.199.307-.112-.048c-.721-.313-1.268-.422-1.972-.393-1.214.049-2.455.633-3.722 1.749-.462.407-.804.767-.877.921-.12.255-.073.487.148.727.09.098.628.437 2.091 1.31697l1.97 1.187 3.067 3.075 1.162 1.935c.63898 1.064 1.21098 1.987 1.27098 2.05.14.147.361.26.507.259.133 0 .335-.086.469-.198.139-.117.701-.718.939-1.006 1.491-1.795 1.901-3.572 1.214-5.253l-.119-.293.532-.357c1.318-.886 2.107-1.61597 2.676-2.47697.478-.722.791-1.521.964-2.46.058-.314.067-.464.067-1.17.001-.881-.026-1.145-.193-1.879-.184-.805-.358-1.206-.595-1.365-.207-.14-1.121-.395-1.821-.507-.409-.066-1.695-.085-2.085-.031zm1.789 1.502c.357.05.943.178 1.056.232.071.034.091.08.174.413.146.583.2 1.021.199 1.62-.001.982-.186 1.739-.611 2.508-.327.591-.891 1.218-1.572 1.746-.6135.45657-1.2485.88337-1.903 1.27897l-.433.261-3.59798-3.59797.31-.505c1.26198-2.063 2.10298-2.98 3.22398-3.52.931-.449 1.996-.596 3.154-.436zm-1.759 1.473c-.2486.07186-.471.21417-.6405.40972-.1695.19556-.2787.436-.3145.69228-.052.43.055.784.328 1.082.304.333.591.451 1.059.433.276-.01.327-.021.515-.114.2434-.12436.4478-.31325.591-.546.224-.385.224-.911.001-1.32-.1416-.22442-.3359-.41083-.566-.543-.3031-.14491-.6477-.1782-.973-.094zm.474 1.188c.067.067.043.202-.041.241-.0279.01478-.0599.02021-.0912.01549-.0313-.00471-.0602-.01933-.0826-.04169-.0223-.02237-.037-.05131-.0417-.08259s.0007-.06324.0155-.09121c.039-.084.174-.108.241-.041zm-7.58398 1.135c.178.028.434.099.639.177l.08.03-.107.174c-.24891.42044-.49458.84279-.737 1.267-.346.602-.632 1.098-.636 1.102-.014.014-2.431-1.452-2.439-1.48-.01-.035.402-.362.747-.593.84-.562 1.691-.797 2.453-.677zm2.783 6.00697-2.342-2.342.954-1.65397 3.03998 3.03797zm3.55598.008c.346 1.104.003 2.28-1.011 3.475-.139.163-.152.171-.19.12-.033-.044-1.398-2.31-1.437-2.385-.009-.017 1.913-1.144 2.235-1.31.073-.037.166-.095.208-.128s.086-.049.098-.036c.012.012.056.131.097.264zm-8.46898-.208c-.621.076-1.201.361-1.593.784-.438.474-.803 1.377-1.209 2.994-.199.795-.288 1.295-.258 1.452.087.461.337.667.75.619.462-.054 2.016-.443 2.708-.679.857-.291 1.304-.53 1.657-.884.759-.763.936-1.924.444-2.909-.16703-.3286-.40397-.6168-.6942-.8441s-.6267-.3884-.9858-.4719c-.26939-.0543-.54452-.0748-.819-.061zm.675 1.583c.422.193.678.676.59 1.113-.073.365-.261.599-.626.779-.27.133-.881.343-1.449.499-.239.065-.459.127-.489.136-.064.02-.071.053.148-.715.176-.619.387-1.186.527-1.418.13198-.2119.33646-.3688.57542-.4412.23895-.0725.49609-.0557.72358.0472z"/></svg>