<svg viewBox="0 0 20 20" xmlns="http://www.w3.org/2000/svg"><path d="m9.51607 1.83816c1.77123-.2492 3.57543.08399 5.14083.94935s2.8071 2.21602 3.5381 3.84847.9117 3.45822.5148 5.20232-1.3498 3.3119-2.7152 4.4673c-1.3655 1.1554-3.0694 1.8357-4.8551 1.9385-1.78567.1027-3.5564-.3776-5.04536-1.3687s-2.61549-2.4392-3.20985-4.1263c-.13765-.3906.06748-.8189.45815-.9566.39068-.1376.81897.0675.95661.4582.48629 1.3803 1.408 2.5651 2.62624 3.376s2.66702 1.2039 4.12801 1.1198c1.4611-.084 2.8552-.6407 3.9723-1.586 1.1172-.9453 1.8969-2.2281 2.2216-3.655.3247-1.427.1769-2.92084-.4212-4.25648s-1.6141-2.44073-2.8948-3.14875c-1.2808-.70802-2.757-.98063-4.20614-.77674-1.44917.20389-2.79283.87323-3.82851 1.90717-.00536.00534-.01079.0106-.0163.01578l-2.48684 2.33677h3.10659c.41421 0 .75.33579.75.75 0 .41422-.33579.75-.75.75h-5c-.41421 0-.75-.33578-.75-.75v-5c0-.41421.33579-.75.75-.75s.75.33579.75.75v3.26611l2.59501-2.43842c1.26472-1.25904 2.90369-2.07412 4.67106-2.32278z"/></svg>