<svg viewBox="0 0 20 20" xmlns="http://www.w3.org/2000/svg"><path d="m3.33398 2.58331c-.41421 0-.75.33579-.75.75 0 .41422.33579.75.75.75 3.33731 0 6.53793 1.32574 8.89772 3.68558 2.3599 2.35981 3.6856 5.56041 3.6856 8.89771 0 .4143.3358.75.75.75s.75-.3357.75-.75c0-3.7351-1.4838-7.31724-4.1249-9.95837-2.6411-2.64114-6.22328-4.12492-9.95842-4.12492z"/><path d="m3.33398 8.41665c-.41421 0-.75.33578-.75.75 0 .41421.33579.75.75.75 1.79022 0 3.5071.71115 4.77298 1.97705 1.26587 1.2658 1.97704 2.9827 1.97704 4.7729 0 .4143.3358.75.75.75s.75-.3357.75-.75c0-2.188-.8692-4.2864-2.41638-5.8336-1.54718-1.54716-3.6456-2.41635-5.83364-2.41635z"/><path d="m6 15.5c0 .8284-.67157 1.5-1.5 1.5s-1.5-.6716-1.5-1.5.67157-1.5 1.5-1.5 1.5.6716 1.5 1.5z"/></svg>