<svg viewBox="0 0 20 20" xmlns="http://www.w3.org/2000/svg"><path d="m10.0026 19.1666c5.0626 0 9.1667-4.1041 9.1667-9.16668 0-5.06261-4.1041-9.166668-9.1667-9.166668-5.06261 0-9.166662 4.104058-9.166662 9.166668 0 5.06258 4.104052 9.16668 9.166662 9.16668zm-4.50158-11.12668c-.46116 0-.835.37384-.835.835 0 .46115.37384.835.835.835 1.27038 0 2.48874.50468 3.38704 1.40298s1.40294 2.1166 1.40294 3.387c0 .4612.3739.835.835.835.4612 0 .835-.3738.835-.835 0-1.7133-.6806-3.3564-1.8921-4.56789-1.21146-1.21149-2.85459-1.89209-4.56788-1.89209zm-.835-3.54c0-.46116.37384-.835.835-.835 2.87362 0 5.62958 1.14154 7.66148 3.1735 2.032 2.03195 3.1735 4.78788 3.1735 7.66148 0 .4612-.3738.835-.835.835-.4611 0-.835-.3738-.835-.835 0-2.4307-.9656-4.76185-2.6844-6.48062-1.7187-1.71877-4.04988-2.68436-6.48058-2.68436-.46116 0-.835-.37385-.835-.835zm1.58593 7.74998c-.82842 0-1.5.6716-1.5 1.5s.67158 1.5 1.5 1.5c.82843 0 1.5-.6716 1.5-1.5s-.67157-1.5-1.5-1.5z" fill-rule="evenodd"/></svg>