<svg viewBox="0 0 20 20" xmlns="http://www.w3.org/2000/svg"><path d="m4.16667 3.25c-.24312 0-.47628.09658-.64818.26849-.17191.1719-.26849.40506-.26849.64818v11.66663c0 .2431.09658.4763.26849.6482.1719.1719.40506.2685.64818.2685h.91666v-5.9167c0-.4142.33579-.75.75-.75h8.33337c.4142 0 .75.3358.75.75v5.9167h.9166c.2431 0 .4763-.0966.6482-.2685s.2685-.4051.2685-.6482v-8.85597l-3.7273-3.72733h-6.43937v2.66667h5.91667c.4142 0 .75.33578.75.75 0 .41421-.3358.75-.75.75h-6.66667c-.41421 0-.75-.33579-.75-.75v-3.41667zm0-1.5c-.64094 0-1.25563.25461-1.70884.70783-.45322.45321-.70783 1.0679-.70783 1.70884v11.66663c0 .641.25461 1.2557.70783 1.7089.45321.4532 1.0679.7078 1.70884.7078h11.66663c.641 0 1.2557-.2546 1.7089-.7078s.7078-1.0679.7078-1.7089v-9.16663c0-.19892-.079-.38968-.2197-.53033l-4.1666-4.16667c-.1407-.14065-.3315-.21967-.5304-.21967zm9.25003 15v-5.1667h-6.83337v5.1667z" fill-rule="evenodd"/></svg>