<svg viewBox="0 0 20 20" xmlns="http://www.w3.org/2000/svg"><path d="m2.45459 9.25002h2.54671c.41422 0 .75.33579.75.74998 0 .4142-.33578.75-.75.75h-2.54671c.35239 3.5894 3.20734 6.4443 6.79671 6.7967v-2.5467c0-.4142.33579-.75.75-.75.4142 0 .75.3358.75.75v2.5467c3.5894-.3524 6.4443-3.2073 6.7967-6.7967h-2.5467c-.4142 0-.75-.3358-.75-.75 0-.41419.3358-.74998.75-.74998h2.5467c-.3524-3.58937-3.2073-6.44432-6.7967-6.79671v2.54671c0 .41421-.3358.75-.75.75-.41421 0-.75-.33579-.75-.75v-2.54671c-3.58937.35239-6.44432 3.20733-6.79671 6.79671zm-1.536621.74998c0-5.01657 4.066741-9.083313 9.083331-9.083313 5.0166 0 9.0833 4.066743 9.0833 9.083313 0 5.0166-4.0667 9.0834-9.0833 9.0834-5.01659 0-9.083331-4.0668-9.083331-9.0834z"/></svg>