<svg viewBox="0 0 20 20" xmlns="http://www.w3.org/2000/svg"><path d="m9.16667 3.25c-3.26769 0-5.91667 2.64898-5.91667 5.91667 0 3.26773 2.64898 5.91663 5.91667 5.91663 1.59703 0 3.04623-.6327 4.11073-1.6612.0205-.0269.043-.0528.0676-.0774s.0505-.0471.0774-.0676c1.0283-1.0644 1.6609-2.5135 1.6609-4.11043 0-3.26769-2.6489-5.91667-5.91663-5.91667zm5.74813 10.6038c1.043-1.2775 1.6685-2.9093 1.6685-4.68713 0-4.09612-3.3205-7.41667-7.41663-7.41667-4.09612 0-7.41667 3.32055-7.41667 7.41667 0 4.09613 3.32055 7.41663 7.41667 7.41663 1.77803 0 3.40993-.6256 4.68753-1.6688l3.1158 3.1158c.2929.2929.7678.2929 1.0607 0 .2928-.2928.2928-.7677 0-1.0606z" fill-rule="evenodd"/></svg>