<svg viewBox="0 0 20 20" xmlns="http://www.w3.org/2000/svg"><path d="m4.16667 3.25c-.50626 0-.91667.41041-.91667.91667v11.66663c0 .5063.41041.9167.91667.9167h11.66663c.5063 0 .9167-.4104.9167-.9167v-11.66663c0-.50626-.4104-.91667-.9167-.91667zm-2.41667.91667c0-1.33469 1.08198-2.41667 2.41667-2.41667h11.66663c1.3347 0 2.4167 1.08198 2.4167 2.41667v11.66663c0 1.3347-1.082 2.4167-2.4167 2.4167h-11.66663c-1.33469 0-2.41667-1.082-2.41667-2.4167zm10.421 1.43759c-.0002-.00021.0002.00022 0 0l3.1228 2.81054c-.0002-.00015.0002.00015 0 0 .2924.26253.4562.63432.4562 1.02314 0 .39393-.1689.76166-.4521 1.01946l-.0032.0029-3.125 2.8125-.002.0018c-.4044.3614-.9799.4498-1.4735.2328-.502-.2208-.8192-.7168-.8192-1.2569v-.5h-1.125c-.62093 0-1.125.504-1.125 1.125 0 .1876.03862.3122.07644.3925.03826.0813.08474.1359.1211.1706.19095.1784.42746.4966.42746.9271 0 .6227-.50518 1.1348-1.13477 1.1348-.13918 0-.32872-.0243-.52014-.1302-.44673-.2443-2.34509-1.4287-2.34509-4.0573 0-2.31271 1.87484-4.18758 4.1875-4.18758h1.4375v-.50002c0-.54234.3207-1.03464.8146-1.25482.4957-.22297 1.0773-.13125 1.4814.23368zm-.796 1.30164 2.8133 2.53204-2.8133 2.53206v-1.7195h-2.625c-1.44021 0-2.61011 1.1608-2.62486 2.5975-.21728-.3988-.37514-.9052-.37514-1.535 0-1.4843 1.20328-2.68758 2.6875-2.68758h2.9375zm2.9171 2.62547c-.0003-.00027-.0006-.00054-.0009-.00082z" fill-rule="evenodd"/></svg>