<svg viewBox="0 0 20 20" xmlns="http://www.w3.org/2000/svg"><path d="m11.2294 3.92229c.0003.00023.0005.00046.0008.00068l4.3221 3.88994c-.0002-.00017.0002.00018 0 0 .3433.30825.5357.74455.5357 1.20154 0 .46215-.1982.8943-.5316 1.19785l-.0032.0029-4.3243 3.8919-.002.0018c-.4749.4244-1.1508.5285-1.73137.2733-.58896-.259-.96166-.8412-.96166-1.4758v-.9798h-1.84462c-1.01824 0-1.84463.8264-1.84463 1.8447 0 .5771.23094.8623.36357.9885.23205.2164.50131.5864.50131 1.0736 0 .7037-.57116 1.2825-1.28244 1.2825-.16014 0-.37074-.028-.58097-.1445-.58715-.3209-3.09609-1.8846-3.09609-5.3623 0-3.0413 2.46554-5.50684 5.50681-5.50684h2.27706v-.97975c0-.63679.37694-1.21529.95699-1.47369.58194-.26195 1.26394-.15515 1.73854.27347zm-1.0053 1.11327c-.0328-.02967-.0788-.03644-.1177-.01886l-.005.00224c-.0401.01782-.0675.06019-.0675.10357v2.47975h-3.77709c-2.21284 0-4.00681 1.79397-4.00681 4.00684 0 1.5516.65183 2.5962 1.27656 3.2415-.1101-.3008-.18194-.6586-.18194-1.0793 0-1.8467 1.49797-3.3447 3.34463-3.3447h3.34465v2.4798c0 .0465.0273.0859.0653.1026.0463.0204.0945.0112.1277-.0182-.0002.0002.0002-.0001 0 0l4.3197-3.88768c.0003-.00028.0006-.00056.0009-.00085.0281-.02605.0405-.05839.0405-.08782 0-.03464-.0134-.06351-.0373-.08496l-.0009-.00082-4.3244-3.89194zm3.6071-1.19376c.2771-.30789.7513-.33284 1.0592-.05575l4.3235 3.89112c-.0002-.00018.0002.00018 0 0 .3432.30825.5356.74454.5356 1.20154 0 .46215-.1982.8943-.5315 1.19779l-.0032.0029-4.3244 3.892c-.3079.2771-.7821.2521-1.0592-.0558s-.2521-.7821.0557-1.0592l4.3212-3.88902c.0003-.00028.0006-.00057.001-.00085.0281-.02606.0404-.0584.0404-.08782 0-.03464-.0134-.06351-.0373-.08497l-.0009-.00081-4.3244-3.89194c-.3078-.27709-.3328-.75131-.0557-1.05919z"/></svg>