<svg viewBox="0 0 20 20" xmlns="http://www.w3.org/2000/svg"><path d="m13.4452 2.70059c-.0002-.00021.0003.00022 0 0l4.9978 4.49807c.3724.33404.5804.80636.5804 1.30204 0 .50058-.2146.96904-.5763 1.29834l-.0032.00289-5 4.50007-.002.0018c-.5146.4598-1.2471.5728-1.8766.296-.6379-.2804-1.0419-.9112-1.0419-1.599v-1.2501h-2.24996c-1.24203 0-2.25 1.008-2.25 2.2501 0 .7056.28504 1.0646.45725 1.2283.25521.2379.54275.6371.54275 1.1561 0 .7492-.60831 1.3656-1.36563 1.3656-.17196 0-.39442-.0301-.61525-.1526-.66627-.3641-3.51912-2.1414-3.51912-6.0975 0-3.45171 2.79828-6.25003 6.25-6.25003h2.74996v-1.25003c0-.69.4086-1.31706 1.0373-1.59701.6304-.28391 1.3702-.16757 1.8845.29696zm-1.006 1.11258c-.0726-.06556-.1756-.08119-.263-.04166l-.005.00224c-.0887.03935-.1478.1303-.1478.22689v2.75003h-4.24996c-2.62328 0-4.75 2.12673-4.75 4.75003 0 2.2215 1.13218 3.5638 1.96746 4.2526-.2589-.4183-.46746-.9925-.46746-1.7525 0-2.0705 1.67953-3.7501 3.75-3.7501h3.74996v2.7501c0 .0997.0586.1876.1456.2259.0953.0419.1999.0238.2728-.0409-.0002.0002.0002-.0002 0 0l4.9955-4.49592c.0003-.00033.0007-.00066.0011-.00099.0563-.05185.085-.12044.085-.18819 0-.07308-.0294-.13826-.082-.18548l-5.0009-4.50087z"/></svg>