<svg viewBox="0 0 20 20" xmlns="http://www.w3.org/2000/svg"><path d="m9.73731.964379c.16979-.063671.35689-.063671.52669 0l6.6667 2.500001c.2927.10977.4866.38961.4866.70225v5.83333c0 2.83484-1.878 5.10854-3.5894 6.60614-.8715.7625-1.7395 1.3589-2.3881 1.7642-.3251.2032-.597.3596-.7895.4662-.0962.0533-.1727.0941-.2262.1222-.0267.014-.0477.0249-.0625.0324l-.0175.009-.0052.0026-.0017.0009c-.0003.0001-.0011.0005-.3365-.6703-.33546.6708-.33568.6707-.33593.6706l-.00233-.0012-.00521-.0026-.01756-.009c-.01481-.0075-.03579-.0184-.06251-.0324-.05345-.0281-.12994-.0689-.2262-.1222-.19242-.1066-.4644-.263-.78948-.4662-.64859-.4053-1.51654-1.0017-2.38804-1.7642-1.71148-1.4976-3.58946-3.7713-3.58946-6.60614v-5.83333c0-.31264.19393-.59248.48666-.70225zm.26339 17.368921-.33593.6706c.21115.1056.46013.1058.67133.0002zm0-.852c.166-.0934.3862-.2218.6441-.383.6014-.3758 1.4001-.9253 2.1953-1.6211 1.6219-1.4191 3.0772-3.3121 3.0772-5.47724v-5.31358l-5.9166-2.21875-5.91672 2.21875v5.31358c0 2.16514 1.45536 4.05814 3.07722 5.47724.79517.6958 1.59388 1.2453 2.19528 1.6211.25792.1612.47808.2896.64422.383z"/></svg>