<svg viewBox="0 0 20 20" xmlns="http://www.w3.org/2000/svg"><path d="m4.4 1.21663c.14164-.18886.36393-.300004.6-.300004h10c.2361 0 .4584.111144.6.300004l2.5 3.33333c.0974.12982.15.28772.15.45v11.66664c0 .641-.2546 1.2557-.7078 1.7089s-1.0679.7078-1.7089.7078h-11.66663c-.64094 0-1.25563-.2546-1.70884-.7078-.45322-.4532-.70783-1.0679-.70783-1.7089v-11.66664c0-.16228.05263-.32018.15-.45zm.975 1.2-1.375 1.83333h12l-1.375-1.83333zm11.375 3.33333h-13.5v10.91664c0 .2431.09658.4763.26849.6482.1719.1719.40506.2685.64818.2685h11.66663c.2431 0 .4763-.0966.6482-.2685s.2685-.4051.2685-.6482zm-10.08426 1.83331c.41421 0 .75.33578.75.75 0 .68514.27217 1.34222.75664 1.82673.48447.4844 1.14155.7566 1.82669.7566.68513 0 1.34223-.2722 1.82673-.7566.4844-.48451.7566-1.14159.7566-1.82673 0-.41422.3358-.75.75-.75s.75.33578.75.75c0 1.08296-.4302 2.12153-1.196 2.88733-.7657.7658-1.8044 1.196-2.88733 1.196-1.08296 0-2.12157-.4302-2.88735-1.196-.76577-.7658-1.19598-1.80437-1.19598-2.88733 0-.41422.33579-.75.75-.75z"/></svg>