<svg viewBox="0 0 20 20" xmlns="http://www.w3.org/2000/svg"><path d="m.833984.083313c-.414213 0-.7499996.335786-.7499996.75 0 .414217.3357866.749997.7499996.749997h2.718576l.70684 3.53161c.00343.02227.00783.04422.01317.0658l1.39263 6.95798c.11065.5559.4132 1.0553.85477 1.4108.43978.354.98956.5428 1.55389.5338h8.08694c.5643.009 1.1141-.1798 1.5539-.5338.4418-.3557.7444-.8554.8549-1.4117l1.3344-6.99732c.0419-.21957-.0163-.44636-.1588-.61858s-.3544-.27192-.5779-.27192h-13.55126l-.71331-3.56386c-.07015-.350518-.37794-.602807-.73541-.602807zm6.302296 11.762187-1.22002-6.09552h12.34454l-1.1624 6.09552-.0005.0024c-.0423.2101-.1569.3987-.3238.5331-.1676.1349-.3773.2066-.5924.2025l-.0144-.0002h-8.09998l-.01437.0002c-.2151.0041-.42479-.0676-.59238-.2025-.16758-.1349-.28238-.3245-.32429-.5355z"/><path d="m7 18.5c.82843 0 1.5-.6716 1.5-1.5s-.67157-1.5-1.5-1.5-1.5.6716-1.5 1.5.67157 1.5 1.5 1.5z"/><path d="m17.5 18.5c.8284 0 1.5-.6716 1.5-1.5s-.6716-1.5-1.5-1.5-1.5.6716-1.5 1.5.6716 1.5 1.5 1.5z"/></svg>