<svg viewBox="0 0 20 20" xmlns="http://www.w3.org/2000/svg"><path d="m4.16667 3.25c-.24312 0-.47628.09658-.64818.26849-.17191.1719-.26849.40506-.26849.64818v11.66663c0 .2431.09658.4763.26849.6482.1719.1719.40506.2685.64818.2685h3.33333c.41421 0 .75.3358.75.75s-.33579.75-.75.75h-3.33333c-.64094 0-1.25563-.2546-1.70884-.7078-.45322-.4532-.70783-1.0679-.70783-1.7089v-11.66663c0-.64094.25461-1.25563.70783-1.70884.45321-.45322 1.0679-.70783 1.70884-.70783h3.33333c.41421 0 .75.33579.75.75s-.33579.75-.75.75zm8.63633 2.053c.2929-.29289.7678-.29289 1.0607 0l4.1666 4.16667c.1407.14065.2197.33142.2197.53033 0 .1989-.079.3897-.2197.5303l-4.1666 4.1667c-.2929.2929-.7678.2929-1.0607 0s-.2929-.7678 0-1.0607l2.8863-2.8863h-8.1893c-.41421 0-.75-.3358-.75-.75 0-.41421.33579-.75.75-.75h8.1893l-2.8863-2.88634c-.2929-.29289-.2929-.76776 0-1.06066z"/></svg>