<svg viewBox="0 0 20 20" xmlns="http://www.w3.org/2000/svg"><path d="m15.832 2.58337c.4142 0 .75.33579.75.75v13.33333c0 .4142-.3358.75-.75.75s-.75-.3358-.75-.75v-13.33333c0-.41421.3358-.75.75-.75zm-4.1666 3.33334c.4142 0 .75.33578.75.75v9.99999c0 .4142-.3358.75-.75.75s-.75-.3358-.75-.75v-9.99999c0-.41422.3358-.75.75-.75zm-4.1667 3.33333c.41421 0 .75.33579.75.74996v6.6667c0 .4142-.33579.75-.75.75-.41422 0-.75-.3358-.75-.75v-6.6667c0-.41417.33578-.74996.75-.74996zm-4.16667 3.33336c.41421 0 .75.3358.75.75v3.3333c0 .4142-.33579.75-.75.75s-.75-.3358-.75-.75v-3.3333c0-.4142.33579-.75.75-.75z"/></svg>