<svg viewBox="0 0 20 20" xmlns="http://www.w3.org/2000/svg"><path d="m11.75 2.5c0-.41421.3358-.75.75-.75h3.3333c.641 0 1.2557.25461 1.7089.70783.4532.45321.7078 1.0679.7078 1.70884v11.66663c0 .641-.2546 1.2557-.7078 1.7089s-1.0679.7078-1.7089.7078h-3.3333c-.4142 0-.75-.3358-.75-.75s.3358-.75.75-.75h3.3333c.2431 0 .4763-.0966.6482-.2685s.2685-.4051.2685-.6482v-11.66663c0-.24312-.0966-.47628-.2685-.64818-.1719-.17191-.4051-.26849-.6482-.26849h-3.3333c-.4142 0-.75-.33579-.75-.75zm-3.947 2.803c.2929-.29289.76777-.29289 1.06066 0l4.16664 4.16667c.1407.14065.2197.33142.2197.53033 0 .1989-.079.3897-.2197.5303l-4.16664 4.1667c-.29289.2929-.76776.2929-1.06066 0-.29289-.2929-.29289-.7678 0-1.0607l2.8863-2.8863h-8.1893c-.41421 0-.75-.3358-.75-.75 0-.41421.33579-.75.75-.75h8.1893l-2.8863-2.88634c-.29289-.29289-.29289-.76776 0-1.06066z"/></svg>