<svg viewBox="0 0 20 20" xmlns="http://www.w3.org/2000/svg"><path d="m5.68453.886683c-.7852.082772-1.5427.336727-2.21912.743957-.67642.40724-1.25531.95785-1.69588 1.61304-.5084.76411-.811831 1.64608-.881177 2.56124-.069346.91515.097725 1.83277.485177 2.66476l.136.294-.037.36c-.053.508-.047 1.42102.014 1.91002.062.51.181 1.051.347 1.581.36547 1.1813.98444 2.2686 1.81368 3.1859.82924.9174 1.84875 1.6426 2.98732 2.1251.617.26 1.392.478 2.1.591.494.078 1.70397.1 2.19997.04l.384-.047.164.082c1.226.611 2.763.702 4.069.241.841-.297 1.685-.861 2.231-1.49 1.423-1.641 1.745-3.884.837-5.829-.14-.3-.141-.305-.108-.517.056-.358.043-1.72602-.02-2.14102-.166-1.083-.454-1.978-.928-2.886-.598-1.14637-1.4505-2.14057-2.4923-2.90639-1.0418-.76581-2.2451-1.2829-3.5177-1.51161-.866-.159-1.83498-.19-2.59698-.084l-.24199.034-.283-.133c-.65492-.31367-1.37087-.47926-2.097-.484997-.21664-.006421-.43344-.00542-.65.003zm1.138 1.530997c.401.068.66.156 1.106.373.452.22.60099.24 1.18799.162 1.84198-.245 3.83398.317 5.30198 1.496.9493.75876 1.683 1.75316 2.128 2.884.4582 1.12213.6194 2.34342.468 3.54602-.065.568-.046.688.189 1.152.203.403.316.74.38 1.138.379 2.338-1.424 4.463-3.786 4.464-.605 0-1.097-.12-1.713-.419-.428-.208-.59-.237-1.004-.181-1.51297.207-2.85097 0-4.19597-.647-2.274-1.096-3.735-3.277-3.951-5.898-.037-.443-.024-.81002.05-1.46502.053-.468.029-.602-.194-1.062-.329-.679-.443-1.22-.412-1.942.025-.557.13-.974.372-1.471.38297-.81061 1.04145-1.45882 1.858-1.829.69067-.3228 1.46323-.42779 2.215-.301z"/><path d="m14.2235 6.72539c-.1437-1.04139-1.6211-2.15945-4.1456-2.30559-2.64573-.15573-4.33 1.2642-4.32441 3.31982 0 3.80458 6.33691 2.56438 6.33691 4.58648 0 .5622-.5031 1.364-1.9685 1.364-2.09077 0-2.0788-1.9598-3.39171-1.9598-.25333.019-.48967.1346-.66016.3229s-.26209.435-.25585.6889c-.01118 1.7474 2.22972 2.7632 4.45862 2.7632 2.5316 0 4.2295-1.3967 4.2295-3.5274 0-3.69602-6.29947-2.72331-6.29947-4.40039 0-.80341.74909-1.17396 1.63555-1.17396 1.96612 0 2.08272 1.53173 3.22482 1.53173.1602.01384.3214-.00838.4719-.06503s.2864-.1463.3977-.26234c.1113-.11605.1951-.25556.2455-.40828.0503-.15271.0658-.31476.0452-.47424z"/></svg>