<svg viewBox="0 0 20 20" xmlns="http://www.w3.org/2000/svg"><path d="m9.03322.970989c-2.013.207001-4.002 1.159001-5.452 2.610001-1.37428 1.37943-2.27311 3.16098-2.566 5.086-.083005.533-.102005 1.77101-.036005 2.34201.360005 3.104 2.223995 5.757 5.003995 7.124 1.322.65 2.54201.934 4.01699.934 1.475 0 2.695-.284 4.017-.934 1.7914-.8763 3.2397-2.3246 4.116-4.116.649-1.319.934-2.545.934-4.01701 0-.891-.093-1.596-.316-2.412-.1488-.55531-.3559-1.0933-.618-1.605-.8758-1.79176-2.3242-3.24019-4.116-4.116-.9725-.49022-2.0278-.79508-3.112-.899001-.6234-.040001-1.24872-.038999-1.87198.003zm1.88398 1.500001c2.646.304 5.028 2.099 6.063 4.568.42 1.004.592 1.863.592 2.961 0 .86601-.099 1.53001-.341 2.28601-.3599 1.1359-.9824 2.1711-1.817 3.0216-.8347.8504-1.858 1.4922-2.987 1.8734-.848.286-1.504.392-2.427.391-.93498 0-1.57099-.103-2.43299-.392-1.11341-.3778-2.12374-1.0093-2.95122-1.8446-.82747-.8353-1.44944-1.8515-1.81677-2.9684-.273-.829-.374-1.467-.374-2.36701 0-.903.101-1.536.377-2.378.32352-.97425.84064-1.87304 1.52029-2.6424.67965-.76935 1.5078-1.39338 2.43471-1.8346 1.29605-.61023 2.73756-.84379 4.15998-.674zm-3.79998 4.358c-.251.116-.351.308-.35.678.002.505.225.726.733.726.51399 0 .73999-.224.73999-.733 0-.377-.10599-.567-.38099-.682-.175-.073-.572-.067-.742.011zm4.99998 0c-.251.116-.351.308-.35.678.002.505.225.726.733.726.506 0 .736-.223.742-.716.004-.388-.102-.582-.383-.699-.175-.073-.572-.067-.742.011zm-5.60998 4.08701c-.13085.0445-.25117.1154-.35352.2083-.10234.0929-.18453.2058-.24148.3317-.114.3.053.609.627 1.161.72499.698 1.687 1.209 2.611 1.388.312.06 1.38798.06 1.69998 0 .657-.127 1.377-.442 1.991-.871.408-.285 1.053-.925 1.177-1.167.107-.21.121-.429.037-.59-.086-.166-.376-.404-.56-.459-.29-.086-.461-.02-.744.288-1.056 1.153-2.275 1.592-3.53898 1.275-.673-.169-1.391-.635-1.965-1.274-.271-.302-.46301-.378-.74-.291z"/></svg>