<svg viewBox="0 0 20 20" xmlns="http://www.w3.org/2000/svg"><path d="m9.46967 2.46967c.29289-.29289.76773-.29289 1.06063 0l5 5c.2929.29289.2929.76777 0 1.06066s-.7677.29289-1.0606 0l-4.4697-4.46967-4.46967 4.46967c-.29289.29289-.76777.29289-1.06066 0s-.29289-.76777 0-1.06066zm-5 9.50003c.29289-.2929.76777-.2929 1.06066 0l4.46967 4.4696 4.4697-4.4696c.2929-.2929.7677-.2929 1.0606 0s.2929.7677 0 1.0606l-5 5c-.1406.1407-.3314.2197-.5303.2197-.19891 0-.38968-.079-.53033-.2197l-5-5c-.29289-.2929-.29289-.7677 0-1.0606z"/></svg>