<svg viewBox="0 0 20 20" xmlns="http://www.w3.org/2000/svg"><path d="m15.0546 1.37756c0-.41421-.3358-.749997-.75-.749997s-.75.335787-.75.749997v15.43424l-2.036-2.036c-.2929-.2929-.7678-.2929-1.0606 0-.2929.2929-.2929.7678 0 1.0607l3.3163 3.3163c.2929.2929.7677.2929 1.0606 0l3.3164-3.3163c.2929-.2929.2929-.7678 0-1.0607s-.7678-.2929-1.0607 0l-2.036 2.036z"/><path d="m7.98564 9.07721-.52654-2.10657.87612-.61869.62057 2.48276c.06696.26791-.09593.53936-.36383.60633-.2679.06696-.53936-.09593-.60632-.36383z"/><path d="m4.51174 6.97064h2.94736l.87464-.62459-1.09105-4.36503c-.14453-.57614-.66235-.98082-1.25706-.98102-.28906-.000201-.56989.0963-.79778.27414-.22791.17785-.38981.42699-.45985.70746l-1.71296 6.85311c-.06696.26791.09593.53936.36383.60633.2679.06696.53936-.09593.60632-.36383zm1.29132-4.90814c.05197-.04056.11601-.06256.18192-.0625.13575 0 .25461.09239.28777.22436l.93639 3.74628h-2.44745l.93654-3.74686c.01596-.06395.05287-.12073.10483-.16128z"/><path d="m3.81078 10.75c-.27614 0-.5.2239-.5.5s.22386.5.5.5h3.44715l-4.18181 6.691c-.09634.1541-.10144.3484-.01332.5073.08811.159.25556.2577.43732.2577h4.9706c.27614 0 .5-.2239.5-.5 0-.2762-.22386-.5-.5-.5h-4.06848l4.18181-6.691c.09634-.1541.10144-.3484.01332-.5074-.08811-.159-.25556-.2576-.43732-.2576z"/></svg>