<svg viewBox="0 0 20 20" xmlns="http://www.w3.org/2000/svg"><path d="m14.3057.627563c.4142 0 .75.335787.75.749997v15.43424l2.036-2.036c.2929-.2929.7678-.2929 1.0607 0s.2929.7678 0 1.0607l-3.3163 3.3163c-.2929.2929-.7678.2929-1.0607 0l-3.3163-3.3163c-.2929-.2929-.2929-.7678 0-1.0607s.7677-.2929 1.0606 0l2.036 2.036v-15.43424c0-.41421.3358-.749997.75-.749997z"/><path d="m5.87885 1.75c-.36566 0-.71634.14526-.9749.40382-.25856.25855-.40381.60924-.40381.97489v.31312c0 .36566.14525.71634.40381.9749s.60924.40381.9749.40381.71634-.14525.9749-.40381c.25855-.25856.40381-.60924.40381-.9749v-.31312c0-.36565-.14526-.71634-.40381-.97489-.25856-.25856-.60924-.40382-.9749-.40382zm2.37871 1.37871v3.75743c0 .31238-.06153.62169-.18107.91029s-.29475.55083-.51564.77171c-.22088.22089-.48311.3961-.77171.51564s-.59791.18107-.91029.18107c-1.0042 0-2.0133-.63339-2.3501-1.58577-.09207-.26034.04434-.54603.30468-.6381.26034-.09206.54603.04435.6381.30469.17921.50676.77579.91918 1.40732.91918.18105 0 .36034-.03566.52761-.10495.16727-.06928.31926-.17084.44729-.29887.12802-.12802.22958-.28001.29886-.44728.06929-.16727.10495-.34656.10495-.52761v-1.50589c-.40003.28452-.88134.44029-1.37871.44029-.63088 0-1.23591-.25061-1.68201-.69671-.44609-.44609-.6967-1.05112-.6967-1.682v-.31312c0-.63087.25061-1.23591.6967-1.682.4461-.4461 1.05113-.69671 1.68201-.69671.63087 0 1.23591.25061 1.682.69671.4461.44609.69671 1.05113.69671 1.682zm-1.87871 7.62129c.27614 0 .5.2239.5.5v7.0149h1.37871c.27614 0 .5.2238.5.5 0 .2761-.22386.5-.5.5h-3.75742c-.27615 0-.5-.2239-.5-.5 0-.2762.22385-.5.5-.5h1.37871v-4.806c-.23292.1108-.48965.1698-.75248.1698h-.62623c-.27615 0-.5-.2238-.5-.5 0-.2761.22385-.5.5-.5h.62623c.19957 0 .39097-.0793.53208-.2204.14112-.1411.2204-.3325.2204-.5321v-.6262c0-.2761.22386-.5.5-.5z"/></svg>