<svg viewBox="0 0 20 20" xmlns="http://www.w3.org/2000/svg"><path d="m14.3057.627563c.4142 0 .75.335787.75.749997v15.43424l2.036-2.036c.2929-.2929.7678-.2929 1.0607 0s.2929.7678 0 1.0607l-3.3163 3.3163c-.2929.2929-.7678.2929-1.0607 0l-3.3163-3.3163c-.2929-.2929-.2929-.7678 0-1.0607s.7677-.2929 1.0606 0l2.036 2.036v-15.43424c0-.41421.3358-.749997.75-.749997z"/><path d="m6.37885.75c.27614 0 .5.223858.5.5v7.01485h1.37871c.27614 0 .5.22386.5.5s-.22386.5-.5.5h-3.75742c-.27615 0-.5-.22386-.5-.5s.22385-.5.5-.5h1.37871v-4.80591c-.23292.11073-.48965.16977-.75248.16977h-.62623c-.27615 0-.5-.22385-.5-.5 0-.27614.22385-.5.5-.5h.62623c.19957 0 .39097-.07928.53208-.22039.14112-.14112.2204-.33251.2204-.53208v-.62624c0-.276142.22386-.5.5-.5zm-.5 11c-.36566 0-.71634.1453-.9749.4038-.25856.2586-.40381.6093-.40381.9749v.3131c0 .3657.14525.7164.40381.9749.25856.2586.60924.4038.9749.4038s.71634-.1452.9749-.4038c.25855-.2585.40381-.6092.40381-.9749v-.3131c0-.3656-.14526-.7163-.40381-.9749-.25856-.2585-.60924-.4038-.9749-.4038zm2.37871 1.3787v3.7574c0 .3124-.06153.6217-.18107.9103s-.29475.5509-.51564.7717c-.22088.2209-.48311.3961-.77171.5157-.28859.1195-.59791.1811-.91029.1811-1.0042 0-2.0133-.6334-2.3501-1.5858-.09207-.2604.04434-.546.30468-.6381s.54603.0443.6381.3047c.17921.5067.77579.9192 1.40732.9192.18105 0 .36034-.0357.52761-.105s.31926-.1708.44729-.2989c.12802-.128.22958-.28.29886-.4473.06929-.1672.10495-.3465.10495-.5276v-1.5058c-.40003.2845-.88134.4402-1.37871.4402-.63087 0-1.23591-.2506-1.68201-.6967-.44609-.4461-.6967-1.0511-.6967-1.682v-.3131c0-.6309.25061-1.2359.6967-1.682.4461-.4461 1.05113-.6967 1.68201-.6967.63087 0 1.23591.2506 1.682.6967.4461.4461.69671 1.0511.69671 1.682z"/></svg>