<svg viewBox="0 0 20 20" xmlns="http://www.w3.org/2000/svg"><path d="m15.0546 1.37756c0-.41421-.3358-.749997-.75-.749997s-.75.335787-.75.749997v15.43424l-2.036-2.036c-.2929-.2929-.7678-.2929-1.0606 0-.2929.2929-.2929.7678 0 1.0607l3.3163 3.3163c.2929.2929.7677.2929 1.0606 0l3.3164-3.3163c.2929-.2929.2929-.7678 0-1.0607s-.7678-.2929-1.0607 0l-2.036 2.036z"/><path d="m3.81078 1c-.27614 0-.5.22386-.5.5s.22386.5.5.5h3.44715l-4.18181 6.69096c-.09634.15414-.10144.34841-.01332.50739.08811.15897.25556.25761.43732.25761h4.9706c.27614 0 .5-.22386.5-.5s-.22386-.5-.5-.5h-4.06848l4.18181-6.69096c.09634-.15414.10144-.34841.01332-.50739-.08811-.15897-.25556-.25761-.43732-.25761z"/><path d="m7.24269 11.731c-.14453-.5761-.66213-.9808-1.25684-.981-.28914-.0002-.57006.0963-.798.2741-.22791.1779-.38981.427-.45985.7075l-1.71296 6.8531c-.06696.2679.09593.5394.36383.6063.2679.067.53936-.0959.60632-.3638l.52655-2.1066h2.94736l.52654 2.1066c.06696.2679.33842.4308.60632.3638.2679-.0669.43079-.3384.36383-.6063zm-1.43963.0815c.05197-.0406.11601-.0626.18192-.0625.13572 0 .25458.0924.28777.2244l.93639 3.7462h-2.44745l.93654-3.7468c.01596-.064.05287-.1208.10483-.1613z"/></svg>