<svg viewBox="0 0 20 20" xmlns="http://www.w3.org/2000/svg"><path d="m6.78627 1.37756c0-.41421.33579-.749997.75-.749997h3.69533c.4142 0 .75.335787.75.749997 0 .41422-.3358.75-.75.75h-3.69533c-.41421 0-.75-.33578-.75-.75zm8.51923-.749979c.4142 0 .75.335787.75.749999v15.43422l2.036-2.036c.2929-.2929.7678-.2929 1.0607 0s.2929.7678 0 1.0607l-3.3163 3.3163c-.2929.2929-.7678.2929-1.0607 0l-3.3163-3.3163c-.2929-.2929-.2929-.7678 0-1.0607s.7677-.2929 1.0606 0l2.036 2.036v-15.43422c0-.414212.3358-.749999.75-.749999zm-11.59958 4.445239c0-.41421.33578-.75.75-.75h6.77478c.4142 0 .75.33579.75.75 0 .41422-.3358.75-.75.75h-6.77478c-.41422 0-.75-.33578-.75-.75zm-3.078967 3.69526c0-.41421.335787-.75.749997-.75h9.85425c.4142 0 .75.33579.75.75 0 .41422-.3358.75-.75.75h-9.85425c-.41421 0-.749997-.33578-.749997-.75z"/></svg>