<svg viewBox="0 0 20 20" xmlns="http://www.w3.org/2000/svg"><path d="m9.99909 1.19995c.44181 0 .80001.35818.80001.80002v3.20013c0 .44184-.3582.80002-.80001.80002-.44184 0-.80003-.35818-.80003-.80002v-3.20013c0-.44184.35819-.80002.80003-.80002zm-6.22175 2.57839c.31243-.31243.81898-.31242 1.1314.00001l2.26405 2.26409c.31242.31243.31242.81897-.00001 1.1314s-.81898.31242-1.1314-.00001l-2.26405-2.26409c-.31243-.31243-.31242-.81897.00001-1.1314zm12.44306.00002c.3125.31243.3125.81897 0 1.1314l-2.264 2.26409c-.3124.31243-.819.31244-1.1314.00001s-.3124-.81897 0-1.1314l2.264-2.26409c.3124-.31243.819-.31243 1.1314-.00001zm-15.02118 6.22194c0-.44188.35818-.80007.80002-.80007h3.20006c.44184 0 .80003.35819.80003.80007 0 .4418-.35819.8-.80003.8h-3.20006c-.44184 0-.80002-.3582-.80002-.8zm12.79968 0c0-.44188.3581-.80007.8-.80007h3.2001c.4418 0 .8.35819.8.80007 0 .4418-.3582.8-.8.8h-3.2001c-.4419 0-.8-.3582-.8-.8zm-6.82612 2.8264c.31243.3124.31243.8189.00001 1.1314l-2.26405 2.2641c-.31242.3124-.81897.3124-1.1314 0-.31243-.3125-.31243-.819-.00001-1.1314l2.26405-2.2641c.31242-.3125.81897-.3125 1.1314 0zm5.65222 0c.3124-.3124.819-.3124 1.1314 0l2.264 2.2641c.3125.3124.3125.819 0 1.1314-.3124.3124-.819.3124-1.1314 0l-2.264-2.2641c-.3124-.3124-.3124-.819 0-1.1314zm-2.82591 1.1737c.44181 0 .80001.3582.80001.8v3.2002c0 .4418-.3582.8-.80001.8-.44184 0-.80003-.3582-.80003-.8v-3.2002c0-.4418.35819-.8.80003-.8z"/></svg>