<svg viewBox="0 0 20 20" xmlns="http://www.w3.org/2000/svg"><path d="m9.6641.995806c.21115-.105573.4597-.105573.6708 0l8.3334 4.166664c.254.12705.4145.38674.4145.67082s-.1605.54378-.4145.67082l-8.3334 4.16669c-.2111.1056-.45965.1056-.6708 0l-8.33333-4.16669c-.25409-.12704-.41459-.38674-.41459-.67082s.1605-.54377.41459-.67082zm-6.32087 4.837484 6.65628 3.32814 6.65629-3.32814-6.65629-3.32814zm-2.34787 3.83126c.18524-.37048.63575-.52065 1.00623-.33541l7.99792 3.99896 7.99789-3.99896c.3705-.18524.821-.03507 1.0063.33541.1852.37045.035.82095-.3354 1.00625l-8.3334 4.1666c-.2111.1056-.45965.1056-.6708 0l-8.33333-4.1666c-.370484-.1853-.520652-.6358-.33541-1.00625zm0 4.16665c.18524-.3705.63575-.5206 1.00623-.3354l7.99792 3.999 7.99789-3.999c.3705-.1852.821-.0351 1.0063.3354.1852.3705.035.821-.3354 1.0062l-8.3334 4.1667c-.2111.1056-.45965.1056-.6708 0l-8.33333-4.1667c-.370484-.1852-.520652-.6357-.33541-1.0062z"/></svg>