<svg viewBox="0 0 20 20" xmlns="http://www.w3.org/2000/svg"><path d="m10.6719 1.33466c-.1264-.25598-.3871-.418034-.67253-.418034-.28546 0-.54618.162054-.67253.418034l-2.40066 4.86348-5.36861.7847c-.28242.04129-.51693.23929-.604967.51079-.088033.27151-.014329.56945.190137.7686l3.88407 3.78307-.91665 5.3445c-.04826.2814.06743.5658.29841.7336s.5372.1899.78989.057l4.80091-2.5247 4.80093 2.5247c.2527.1329.5589.1108.7899-.057s.3466-.4522.2984-.7336l-.9167-5.3445 3.8841-3.78307c.2045-.19915.2782-.49709.1901-.7686-.088-.2715-.3225-.4695-.6049-.51079l-5.3686-.7847zm-.6706 12.72364c.1193.0003.2385.029.3472.0862l3.8047 2.0009-.7264-4.2353c-.0417-.2434.039-.4918.2159-.6641l3.0787-2.99859-4.2555-.622c-.244-.03567-.4549-.18901-.5641-.41015l-1.9005-3.85028z" fill-rule="evenodd"/></svg>