<svg viewBox="0 0 20 20" xmlns="http://www.w3.org/2000/svg"><path d="m9.99937.916687c.28543 0 .54613.162053.67253.418033l2.4007 4.86348 5.3686.78471c.2824.04128.5169.23928.6049.51079.0881.2715.0144.56944-.1901.76859l-3.8841 3.78311.9167 5.3445c.0482.2814-.0674.5658-.2984.7336s-.5372.1899-.7899.057l-4.80093-2.5248-4.80091 2.5248c-.25269.1329-.55891.1108-.78989-.057s-.34667-.4522-.29841-.7336l.91665-5.3445-3.88407-3.78311c-.204466-.19915-.27817-.49709-.190137-.76859.088037-.27151.322547-.46951.604967-.51079l5.3686-.78471 2.40067-4.86348c.12635-.25598.38707-.418033.67253-.418033zm0 2.444443-1.90247 3.85419c-.10915.22114-.32004.37448-.56406.41015l-4.25549.622 3.07865 2.99863c.17691.1723.25766.4206.21591.664l-.7264 4.2353 3.80477-2.0009c.21854-.1149.47962-.1149.69822 0l3.8047 2.0009-.7264-4.2353c-.0417-.2434.039-.4917.2159-.664l3.0787-2.99863-4.2555-.622c-.244-.03567-.4549-.18901-.5641-.41015z"/></svg>