<svg viewBox="0 0 20 20" xmlns="http://www.w3.org/2000/svg"><path d="m10.6719 1.33472c-.1264-.25598-.3871-.418033-.67253-.418033-.28546 0-.54618.162053-.67253.418033l-2.40067 4.86348-5.3686.78471c-.28242.04128-.51693.23928-.604967.51079-.088033.2715-.014329.56944.190137.76859l3.88407 3.78311-.91665 5.3445c-.04826.2814.06743.5658.29841.7336s.5372.1899.78989.057l4.80091-2.5248 4.80093 2.5248c.2527.1329.5589.1108.7899-.057s.3466-.4522.2984-.7336l-.9167-5.3445 3.8841-3.78311c.2045-.19915.2782-.49709.1901-.76859-.088-.27151-.3225-.46951-.6049-.51079l-5.3686-.78471z"/></svg>