<svg viewBox="0 0 20 20" xmlns="http://www.w3.org/2000/svg"><path d="m16.1576 2.65734c.2598.12489.4251.38768.4251.67598v13.33338c0 .2883-.1653.551-.4251.6759-.2599.1249-.5683.0898-.7934-.0903l-8.33337-6.6667c-.17791-.1423-.28148-.3578-.28148-.58561 0-.22784.10357-.44333.28148-.58565l8.33337-6.66667c.2251-.1801.5335-.21522.7934-.09033zm-7.45767 7.34265 6.38277 5.10621v-10.21241zm-4.53391-6.58334c.41421 0 .75.33579.75.75v11.66665c0 .4142-.33579.75-.75.75-.41422 0-.75-.3358-.75-.75v-11.66665c0-.41421.33578-.75.75-.75z"/></svg>