<svg viewBox="0 0 20 20" xmlns="http://www.w3.org/2000/svg"><path d="m3.84112 2.65734c.25985-.12489.56829-.08977.79342.09033l8.33336 6.66667c.1779.14232.2814.35781.2814.58565 0 .22781-.1035.44331-.2814.58561l-8.33336 6.6667c-.22513.1801-.53357.2152-.79342.0903s-.4251-.3876-.4251-.6759v-13.33338c0-.2883.16525-.55109.4251-.67598zm1.0749 2.23645v10.21241l6.38278-5.10621zm10.91668-1.47714c.4142 0 .75.33579.75.75v11.66665c0 .4142-.3358.75-.75.75s-.75-.3358-.75-.75v-11.66665c0-.41421.3358-.75.75-.75z"/></svg>