<svg viewBox="0 0 20 20" xmlns="http://www.w3.org/2000/svg"><path d="m1.27734 3.27539c0-.41421.33579-.75.75-.75h1.372c.41422 0 .75.33579.75.75s-.33578.75-.75.75h-.622v3.75803c0 1.81571 1.47191 3.28758 3.28759 3.28758s3.28759-1.47187 3.28759-3.28758v-3.75803h-.62199c-.41422 0-.75-.33579-.75-.75s.33578-.75.75-.75h1.37197c.4142 0 .75.33579.75.75v4.50803c0 2.36158-1.70985 4.32378-3.95911 4.71618v.8757c0 2.148 1.74132 3.8893 3.88931 3.8893 2.1481 0 3.8894-1.7412 3.8894-3.8893v-3.50051c-.7197-.18879-1.342-.64484-1.7386-1.27709-.413-.6583-.5476-1.4537-.3741-2.21122s.6408-1.4151 1.2991-1.82809 1.4537-.54755 2.2112-.37408 1.4151.64076 1.8281 1.29906c.4129.65831.5475 1.45371.374 2.21123-.1734.75751-.6407 1.4151-1.299 1.82808-.2503.15702-.5204.2738-.8007.34869v3.50393c0 2.9765-2.4129 5.3893-5.3894 5.3893-2.9764 0-5.38931-2.4128-5.38931-5.3893v-.851c-2.32618-.3265-4.11605-2.3247-4.11605-4.74088zm14.45746 2.37107c-.3697-.08466-.7579-.01899-1.0792.18258-.3213.20158-.5494.52253-.634.89226-.0847.36974-.019.75796.1825 1.07927.2016.32131.5226.54938.8923.63404.3697.08467.7579.01899 1.0792-.18258s.5494-.52252.6341-.89226c.0846-.36973.019-.75795-.1826-1.07926s-.5225-.54938-.8923-.63405z"/></svg>