<svg viewBox="0 0 20 20" xmlns="http://www.w3.org/2000/svg"><path d="m9.99935 2.41669c-4.18816 0-7.58333 3.39517-7.58333 7.58331 0 4.1882 3.39517 7.5834 7.58333 7.5834 4.18815 0 7.58335-3.3952 7.58335-7.5834 0-4.18814-3.3952-7.58331-7.58335-7.58331zm-9.083334 7.58331c0-5.01657 4.066744-9.083313 9.083334-9.083313 5.01655 0 9.08335 4.066743 9.08335 9.083313 0 5.0166-4.0668 9.0834-9.08335 9.0834-5.01659 0-9.083334-4.0668-9.083334-9.0834zm5.833334-2.49998c0-.41421.33579-.75.75-.75h4.99995c.4143 0 .75.33579.75.75v4.99998c0 .4142-.3357.75-.75.75h-4.99995c-.41421 0-.75-.3358-.75-.75zm1.5.75v3.49998h3.49995v-3.49998z"/></svg>