<svg viewBox="0 0 20 20" xmlns="http://www.w3.org/2000/svg"><path d="m10.0661 1.65845c-2.4234 0-4.60135 1.95842-4.60135 4.45559 0 1.01359.36071 1.95879.97372 2.69725h2.61768l-.04041-.01009c-1.2334-.30918-2.09788-1.41649-2.09788-2.68716 0-1.62324 1.45405-3.00249 3.14824-3.00249 1.4161 0 2.7722.91798 3.1899 2.09901.1338.37831.5489.57654.9272.44276.3783-.13379.5765-.54891.4427-.92722-.6466-1.82855-2.6021-3.06765-4.5598-3.06765z"/><path d="m14.1744 11.7175c.3223.6365.4931 1.3435.4931 2.0651v.2274c0 1.2204-.4848 2.3908-1.3477 3.2538-.8629.8629-2.0333 1.3478-3.2537 1.3478-1.9576 0-3.91315-1.2392-4.55978-3.0677-.13378-.3783.06445-.7934.44275-.9272.37831-.1338.79344.0644.92722.4427.41765 1.1811 1.77379 2.099 3.18981 2.099.835 0 1.6358-.3317 2.2262-.9221s.9221-1.3913.9221-2.2263v-.2273c0-.6955-.2325-1.3711-.6606-1.9193-.039-.0499-.0794-.0986-.1212-.1459z"/><path d="m2.51953 10.2644c0-.40123.32529-.72652.72655-.72652h13.50762c.4013 0 .7266.32529.7266.72652 0 .4013-.3253.7266-.7266.7266h-13.50762c-.40126 0-.72655-.3253-.72655-.7266z"/></svg>