<svg viewBox="0 0 20 20" xmlns="http://www.w3.org/2000/svg"><path d="m3.03033 2.46967c-.29289-.29289-.76777-.29289-1.06066 0s-.29289.76777 0 1.06066l4.96967 4.96967-4.96967 4.9697c-.29289.2929-.29289.7677 0 1.0606s.76777.2929 1.06066 0l4.96967-4.96964 4.9697 4.96964c.2929.2929.7677.2929 1.0606 0s.2929-.7677 0-1.0606l-4.96964-4.9697 4.96964-4.96967c.2929-.29289.2929-.76777 0-1.06066s-.7677-.29289-1.0606 0l-4.9697 4.96967z"/><path d="m16.5227 13.5c-.6277 0-1.2051.3579-1.4291.9213-.1021.2566.0232.5473.2799.6494.2566.102.5473-.0233.6493-.2799.0568-.1428.2371-.2908.4999-.2908h.7084c.331 0 .4962.2263.4962.3855 0 .1185-.0812.2687-.2781.3453l-1.5176.5901c-.5379.2092-.9316.7045-.9316 1.2989v.5166c0 .2761.2239.5.5.5h2.7273c.2761 0 .5-.2239.5-.5 0-.2762-.2239-.5-.5-.5h-2.2273v-.0166c0-.1279.0874-.2865.294-.3669l1.5176-.5901c.5282-.2055.9157-.6922.9157-1.2773 0-.8189-.7269-1.3855-1.4962-1.3855z"/></svg>