<svg viewBox="0 0 20 20" xmlns="http://www.w3.org/2000/svg"><path d="m6.56622 2.39886c.46884-.46884 1.10472-.73223 1.76776-.73223h3.33332c.6631 0 1.2989.26339 1.7678.73223.4688.46884.7322 1.10472.7322 1.76777v.83333h2.5c1.3807 0 2.5 1.11929 2.5 2.5v8.33334c0 1.3807-1.1193 2.5-2.5 2.5h-13.33332c-1.38071 0-2.499996-1.1193-2.499996-2.5v-8.33334c0-1.38071 1.119286-2.5 2.499996-2.5h2.5v-.83333c0-.66305.2634-1.29893.73224-1.76777zm.93443 2.6011h5.00005v-.83333c0-.22102-.0878-.43298-.2441-.58926s-.3683-.24408-.5893-.24408h-3.33332c-.22101 0-.43297.0878-.58925.24408s-.24408.36824-.24408.58926zm-4.16667 1.66667c-.46023 0-.83333.37309-.83333.83333v1.66667l15.00005-.00001v-1.66666c0-.46024-.3731-.83333-.8334-.83333zm14.16672 4.16667h-4.6834c.0109.0538.0167.1096.0167.1667v.8888c0 .4891-.174.9734-.5068 1.3432-.3354.3726-.8103.6013-1.3265.6013h-2.00005c-.51626 0-.99113-.2287-1.32652-.6013-.33278-.3698-.50681-.8541-.50681-1.3432v-.8888c0-.0571.00574-.1129.01667-.1667h-4.68334v5c0 .4602.3731.8333.83333.8333h13.33332c.4603 0 .8334-.3731.8334-.8333zm-8.68338 0c.01093.0538.01666.1096.01666.1667v.8888c0 .1004.03668.1813.07898.2283.03968.044.07352.0495.08769.0495h2.00005c.0141 0 .048-.0055.0876-.0495.0423-.047.079-.1279.079-.2283v-.8888c0-.0571.0058-.1129.0167-.1667z"/></svg>