<svg viewBox="0 0 20 20" xmlns="http://www.w3.org/2000/svg"><path d="m10.0007.083374c.4142 0 .75.335786.75.75v1.666666c0 .41421-.3358.75-.75.75-.41426 0-.75005-.33579-.75005-.75v-1.666666c0-.414214.33579-.75.75005-.75zm-7.01394 2.902976c.29289-.29289.76777-.29289 1.06066 0l1.18333 1.18334c.2929.29289.2929.76776 0 1.06066-.29289.29289-.76776.29289-1.06066 0l-1.18333-1.18334c-.29289-.29289-.29289-.76776 0-1.06066zm14.02784 0c.2929.2929.2929.76777 0 1.06066l-1.1833 1.18334c-.2929.29289-.7678.29289-1.0607 0-.2929-.2929-.2929-.76777 0-1.06066l1.1833-1.18334c.2929-.29289.7678-.29289 1.0607 0zm-7.0139 3.59702c-1.88702 0-3.41672 1.5297-3.41672 3.41663 0 1.887 1.5297 3.4167 3.41672 3.4167 1.8869 0 3.4166-1.5297 3.4166-3.4167 0-1.88693-1.5297-3.41663-3.4166-3.41663zm-4.91672 3.41663c0-2.71536 2.20127-4.91663 4.91672-4.91663 2.7154 0 4.9166 2.20127 4.9166 4.91663 0 2.7154-2.2012 4.9167-4.9166 4.9167-2.71545 0-4.91672-2.2013-4.91672-4.9167zm-4.9999956 0c0-.41417.3357866-.74996.7499996-.74996h1.666666c.41421 0 .75.33579.75.74996 0 .4143-.33579.75-.75.75h-1.666666c-.414213 0-.7499996-.3357-.7499996-.75zm16.6667156 0c0-.41417.3357-.74996.75-.74996h1.6666c.4142 0 .75.33579.75.74996 0 .4143-.3358.75-.75.75h-1.6666c-.4143 0-.75-.3357-.75-.75zm-11.51995 4.7697c.2929.2929.2929.7678 0 1.0607l-1.18333 1.1833c-.29289.2929-.76777.2929-1.06066 0s-.29289-.7678 0-1.0607l1.18333-1.1833c.2929-.2929.76777-.2929 1.06066 0zm9.53985 0c.2929-.2929.7678-.2929 1.0607 0l1.1833 1.1833c.2929.2929.2929.7678 0 1.0607s-.7678.2929-1.0607 0l-1.1833-1.1833c-.2929-.2929-.2929-.7678 0-1.0607zm-4.7699 1.9803c.4142 0 .75.3358.75.75v1.6667c0 .4142-.3358.75-.75.75-.41426 0-.75005-.3358-.75005-.75v-1.6667c0-.4142.33579-.75.75005-.75z"/></svg>