<svg viewBox="0 0 20 20" xmlns="http://www.w3.org/2000/svg"><path d="m16.5227 2.5c-.6277 0-1.2051.35792-1.4291.92131-.1021.25661.0232.54734.2799.64937.2566.10203.5473-.02328.6493-.27988.0568-.14278.2371-.2908.4999-.2908h.7084c.331 0 .4962.22634.4962.38551 0 .11853-.0812.26866-.2781.34526l-1.5176.59016c-.5379.2092-.9316.70443-.9316 1.29888v.51655c0 .27615.2239.5.5.5h2.7273c.2761 0 .5-.22385.5-.5 0-.27614-.2239-.5-.5-.5h-2.2273v-.01655c0-.12791.0874-.28652.294-.36687l1.5176-.59017c.5282-.20544.9157-.69217.9157-1.27726 0-.81893-.7269-1.38551-1.4962-1.38551z"/><path d="m3.03033 5.46967c-.29289-.29289-.76777-.29289-1.06066 0s-.29289.76777 0 1.06066l4.96967 4.96967-4.96967 4.9697c-.29289.2929-.29289.7677 0 1.0606s.76777.2929 1.06066 0l4.96967-4.9696 4.9697 4.9696c.2929.2929.7677.2929 1.0606 0s.2929-.7677 0-1.0606l-4.96964-4.9697 4.96964-4.96967c.2929-.29289.2929-.76777 0-1.06066s-.7677-.29289-1.0606 0l-4.9697 4.96963z"/></svg>