<svg viewBox="0 0 20 20" xmlns="http://www.w3.org/2000/svg"><path d="m5.00065 2.41663c-.50626 0-.91667.4104-.91667.91666v13.33331c0 .5063.41041.9167.91667.9167h10.00005c.5062 0 .9166-.4104.9166-.9167v-13.33331c0-.50626-.4104-.91666-.9166-.91666zm-2.41667.91666c0-1.33469 1.08198-2.416664 2.41667-2.416664h10.00005c1.3346 0 2.4166 1.081974 2.4166 2.416664v13.33331c0 1.3347-1.082 2.4167-2.4166 2.4167h-10.00005c-1.33469 0-2.41667-1.082-2.41667-2.4167zm6.66667 11.66671c0-.4143.33579-.75.75005-.75h.0083c.4142 0 .75.3357.75.75 0 .4142-.3358.75-.75.75h-.0083c-.41426 0-.75005-.3358-.75005-.75z"/></svg>