<svg viewBox="0 0 20 20" xmlns="http://www.w3.org/2000/svg"><path d="m18.25 2.5c0-.41421-.3358-.75-.75-.75h-7.82408c-.19895 0-.38974.07904-.5304.21974l-6.72246 6.72422c-.43111.4338-.67306 1.02058-.67306 1.63214 0 .6116.24195 1.1984.67306 1.6322l.00158.0016 5.60957 5.611c.21491.2151.4704.3861.7513.5026.28103.1165.58227.1765.8865.1765s.60549-.06.88649-.1765c.2808-.1164.5359-.287.7507-.502l6.7209-6.7148c.1408-.1407.2199-.3315.2199-.5306zm-1.5.75v6.7653l-6.501 6.4951c-.0757.0758-.1661.1365-.26503.1775-.0989.041-.20491.0621-.31196.0621-.10706 0-.21306-.0211-.31196-.0621-.09891-.041-.18877-.1011-.26445-.1769l-5.60859-5.6101c-.15139-.1526-.23701-.3596-.23701-.5748 0-.2151.08498-.42144.23633-.5741l6.50031-6.502z"/><path d="m12.043 6.54285c0-.82843.6715-1.5 1.5-1.5.8284 0 1.5.67157 1.5 1.5 0 .82842-.6716 1.5-1.5 1.5-.8285 0-1.5-.67158-1.5-1.5z"/></svg>