<svg viewBox="0 0 20 20" xmlns="http://www.w3.org/2000/svg"><path d="m19.755 2.5c0-.41421-.3358-.75-.75-.75h-7.8241c-.1989 0-.3897.07904-.5304.21974l-6.72242 6.72422c-.43111.4338-.67306 1.02058-.67306 1.63214 0 .6116.24195 1.1984.67306 1.6322l.00158.0016 5.60957 5.611c.21491.2151.47037.3861.75127.5026.2811.1165.5823.1765.8865.1765.3043 0 .6055-.06.8865-.1765.2808-.1164.5359-.287.7507-.502l6.7209-6.7148c.1408-.1407.2199-.3315.2199-.5306zm-1.5.75v6.7653l-6.501 6.4951c-.0756.0758-.1661.1365-.265.1775s-.2049.0621-.312.0621c-.107 0-.213-.0211-.3119-.0621s-.1888-.1011-.2645-.1769l-5.60857-5.6101c-.15139-.1526-.23701-.3596-.23701-.5748 0-.2151.08498-.42144.23634-.5741l6.50034-6.502z"/><path d="m8.52845 1.96978c-.29293-.29285-.76781-.29279-1.06066.00014l-6.722465 6.72422c-.431113.43381-.6730594 1.02058-.6730594 1.63216 0 .6116.2419464 1.1984.6730614 1.6322l.001575.0016 5.609868 5.6113c.29285.2929.76773.293 1.06066.0001.29293-.2928.29299-.7677.00014-1.0606l-5.60829-5.6098c-.1514-.1527-.23701-.3596-.23701-.5748 0-.2151.08499-.42151.23639-.57417l6.71993-6.72169c.29285-.29293.29279-.7678-.00014-1.06066z"/><path d="m13.548 6.54285c0-.82843.6716-1.5 1.5-1.5s1.5.67157 1.5 1.5c0 .82842-.6716 1.5-1.5 1.5s-1.5-.67158-1.5-1.5z"/></svg>