<svg viewBox="0 0 20 20" xmlns="http://www.w3.org/2000/svg"><path d="m3.77455.656005c-.411.052-.765.222999-1.097.528995-.33309.29771-.55698.69831-.636 1.138-.058.316-.058 15.041 0 15.357.08.442.292.821.636 1.138.345.318.681.475 1.136.532.333.042 12.13395.042 12.46595 0 .488-.061.846-.241 1.205-.605.345-.35.51-.674.582-1.147.019-.123.026-1.999.021-5.457l-.008-5.27-.072-.227c-.16-.508-.047-.382-2.8-3.132-2.686-2.683995-2.647-2.647995-3.057-2.774995-.1343-.03823-.2714-.066309-.41-.084-.289-.037-7.68195-.034-7.96595.003zm7.94395 1.527995c.099.044.647.575 2.404 2.329 1.251 1.25 2.316 2.33 2.366 2.4l.089.128.009 5.156c.006 3.663-.001 5.188-.023 5.264-.0569.1589-.1735.2895-.325.364-.109.05-.373.052-6.191.052-5.84395 0-6.08195-.002-6.19295-.052-.139-.063-.311-.257-.335-.376-.029-.146-.02-14.859.009-14.937.07202-.14267.18665-.2594.328-.334.108-.049.298-.052 3.924-.052 3.76395 0 3.81195.001 3.93795.058zm-3.32395 4.6c-.205.073-.186.051-1.002 1.192-.368.514-.679.94701-.692.96101-.014.015-.153-.09901-.331-.27301-.362-.353-.492-.431-.718-.429-.255.002-.522.187-.695.484-.04785.08485-.07497.17981-.07914.27713s.01472.19425.05514.28288c.066.14099 1.302 1.39699 1.499 1.52299.195.125.407.14.6.041.077-.04.178-.108.226-.152.104-.097 1.967-2.699 2.067-2.887.05115-.09388.07712-.19941.07537-.30631-.00176-.1069-.03117-.21153-.08537-.30369-.11416-.16791-.27418-.29947-.461-.379-.06967-.03819-.14682-.06074-.22609-.0661-.07926-.00535-.15874.00663-.23291.0351zm2.26195 1.65c-.282.041-.425.13-.533.332-.053.099-.062.161-.062.41401.001.32899.026.40399.188.56199.182.177.182.17701 2.268.16901l1.883-.009.14-.085c.199-.12101.297-.321.298-.61401.0016-.11107-.0085-.22201-.03-.331-.0276-.08386-.0721-.16118-.1308-.22722-.0586-.06603-.1301-.11938-.2102-.15678-.125-.058-.167-.059-1.927-.062-.99-.002-1.837.002-1.884.008zm-2.18195 3.011c-.13867.0346-.26331.1111-.357.219-.056.06-.392.516-.747 1.015-.22009.3125-.44277.6232-.668.932-.014.015-.158-.102-.334-.269-.171-.163-.367-.324-.437-.359-.08673-.0424-.18217-.064-.27871-.0629-.09655.001-.19151.0246-.27729.0689-.256.13-.513.485-.513.71 0 .034.021.124.046.201.041.121.138.231.753.85.765.772.857.841 1.111.841.151 0 .271-.047.437-.174.105-.079 2.05-2.783 2.133-2.965.06221-.161.0675-.3385.015-.503-.055-.13-.288-.35-.456-.429-.167-.08-.307-.104-.427-.075zm2.03595 1.615c-.1551.0403-.2881.1402-.37.278-.061.104-.078.175-.088.359-.02.393.074.601.333.732l.153.078h1.887c1.294-.001 1.921-.011 1.999-.032.0881-.0335.1679-.0858.2338-.1531.066-.0673.1165-.1481.1482-.2369.0417-.2053.0414-.4169-.001-.622-.048-.1501-.1518-.2761-.29-.352l-.119-.064-1.899-.004c-1.044-.003-1.938.005-1.987.017z"/></svg>