<svg viewBox="0 0 20 20" xmlns="http://www.w3.org/2000/svg"><path d="m4.68182 3.75c-.11079 0-.2194.04458-.3013.12773-.08228.08355-.13052.19927-.13052.32227v1.8c0 .41421-.33579.75-.75.75s-.75-.33579-.75-.75v-1.8c0-.51352.20082-1.00826.56179-1.3748.36137-.36693.85394-.5752 1.37003-.5752h10.63638c.516 0 1.0087.20824 1.3701.57526.3608.36647.5617.86115.5617 1.37474v1.8c0 .41421-.3358.75-.75.75s-.75-.33579-.75-.75v-1.8c0-.12294-.0482-.2387-.1306-.32231-.0818-.08308-.1904-.12769-.3012-.12769h-4.4082v7.25c0 .0154-.0005.0307-.0014.0459h1.6803c.4142 0 .75.3358.75.75s-.3358.75-.75.75h-4.8516c-.41421 0-.75-.3358-.75-.75s.33579-.75.75-.75h1.67408c-.00092-.0152-.00138-.0305-.00138-.0459v-7.25z"/><path d="m5.86748 13.4504c.30353.2819.32111.7564.03926 1.0599l-.68683.7397h9.56019l-.6868-.7397c-.2819-.3035-.2643-.778.0392-1.0599.3036-.2818.7781-.2643 1.06.0393l1.8571 2c.2672.2877.2672.7329 0 1.0206l-1.8571 2c-.2819.3036-.7564.3211-1.06.0393-.3035-.2819-.3211-.7564-.0392-1.0599l.6868-.7397h-9.56019l.68683.7397c.28185.3035.26427.778-.03926 1.0599-.30353.2818-.77808.2643-1.05993-.0393l-1.85715-2c-.2672-.2877-.2672-.7329.00001-1.0206l1.85714-2c.28185-.3036.7564-.3211 1.05993-.0393z"/></svg>