<svg viewBox="0 0 20 20" xmlns="http://www.w3.org/2000/svg"><path d="m2.16388 3.81691c.04758-.05203.09696-.06691.13261-.06691zm-1.10702-1.01218c.31637-.346.76059-.55473 1.23963-.55473h8.73281c.479 0 .9233.2087 1.2397.55479.3142.34368.4806.79659.4806 1.25643v1.59184c0 .41422-.3357.75-.75.75-.4142 0-.75-.33578-.75-.75v-1.59184c0-.10306-.038-.19-.0877-.24436-.0475-.05194-.0969-.06686-.1326-.06686h-3.61621v12.2959h1.67579c.41421 0 .75.3358.75.75s-.33579.75-.75.75h-2.42026-.00553-.00554-2.42025c-.41421 0-.75-.3358-.75-.75s.33579-.75.75-.75h1.67579v-12.2959h-3.6166m-.13261.06691c-.04962.05428-.08771.14119-.08771.24431v1.59184c0 .41422-.33578.75-.75.75-.414212 0-.749998-.33578-.749998-.75v-1.59184c0-.45977.166399-.91274.480688-1.25649"/><path d="m2.16388 3.81691c.04758-.05203.09696-.06691.13261-.06691h3.6166v12.2959h-1.67579c-.41421 0-.75.3358-.75.75s.33579.75.75.75h2.42025.00554.00553 2.42026c.41421 0 .75-.3358.75-.75s-.33579-.75-.75-.75h-1.67579v-12.2959h3.61621c.0357 0 .0851.01492.1326.06686.0497.05436.0877.1413.0877.24436v1.59184c0 .41422.3358.75.75.75.4143 0 .75-.33578.75-.75v-1.59184c0-.45984-.1664-.91275-.4806-1.25643-.3164-.34609-.7607-.55479-1.2397-.55479h-8.73281c-.47904 0-.92326.20873-1.23963.55473-.314289.34375-.480688.79672-.480688 1.25649v1.59184c0 .41422.335786.75.749998.75.41422 0 .75-.33578.75-.75v-1.59184c0-.10312.03809-.19003.08771-.24431z"/><path d="m16.9996 2.25c.199 0 .3897.07902.5304.21967l2 2c.2929.29289.2929.76777 0 1.06066s-.7678.29289-1.0607 0l-.7197-.71967v10.37864l.7197-.7196c.2929-.2929.7678-.2929 1.0607 0s.2929.7677 0 1.0606l-2 2c-.2929.2929-.7678.2929-1.0607 0l-2-2c-.2929-.2929-.2929-.7677 0-1.0606s.7678-.2929 1.0607 0l.7196.7196v-10.37864l-.7196.71967c-.2929.29289-.7678.29289-1.0607 0s-.2929-.76777 0-1.06066l2-2c.1407-.14065.3314-.21967.5303-.21967z"/></svg>