<svg viewBox="0 0 20 20" xmlns="http://www.w3.org/2000/svg"><path d="m3.77778 3.25c-.61396 0-1.02778.45527-1.02778.91667v2.58333h3.5v-3.5zm0-1.5c-1.34972 0-2.52778 1.03712-2.52778 2.41667v11.66663c0 1.3796 1.17806 2.4167 2.52778 2.4167h12.44442c1.3497 0 2.5278-1.0371 2.5278-2.4167v-11.66663c0-1.37955-1.1781-2.41667-2.5278-2.41667zm3.97222 1.5v3.5h4.5v-3.5zm6 0v3.5h3.5v-2.58333c0-.4614-.4138-.91667-1.0278-.91667zm3.5 5h-3.5v3.5h3.5zm0 5h-3.5v3.5h2.4722c.614 0 1.0278-.4553 1.0278-.9167zm-5 3.5v-3.5h-4.5v3.5zm-6 0v-3.5h-3.5v2.5833c0 .4614.41382.9167 1.02778.9167zm-3.5-5h3.5v-3.5h-3.5zm5-3.5v3.5h4.5v-3.5z" fill-rule="evenodd"/></svg>