<svg viewBox="0 0 20 20" xmlns="http://www.w3.org/2000/svg"><path d="m3.77778 3.25c-.61396 0-1.02778.45527-1.02778.91667v4.58333h6.5v-5.5zm0-1.5c-1.34972 0-2.52778 1.03712-2.52778 2.41667v11.66663c0 1.3796 1.17806 2.4167 2.52778 2.4167h12.44442c1.3497 0 2.5278-1.0371 2.5278-2.4167v-11.66663c0-1.37955-1.1781-2.41667-2.5278-2.41667zm6.97222 1.5v5.5h6.5v-4.58333c0-.4614-.4138-.91667-1.0278-.91667zm6.5 7h-6.5v6.5h5.4722c.614 0 1.0278-.4553 1.0278-.9167zm-8 6.5v-6.5h-6.5v5.5833c0 .4614.41382.9167 1.02778.9167z" fill-rule="evenodd"/></svg>