<svg viewBox="0 0 20 20" xmlns="http://www.w3.org/2000/svg"><path d="m3.77778 3.25c-.61396 0-1.02778.45527-1.02778.91667v2.58333h3.5v-3.25c0-.08766.01504-.17181.04268-.25zm3.92954 0c.02764.07819.04268.16234.04268.25v3.25h9.5v-2.58333c0-.4614-.4138-.91667-1.0278-.91667zm11.04268.91667c0-1.37955-1.1781-2.41667-2.5278-2.41667h-12.44442c-1.34972 0-2.52778 1.03712-2.52778 2.41667v11.66663c0 1.3796 1.17806 2.4167 2.52778 2.4167h12.44442c1.3497 0 2.5278-1.0371 2.5278-2.4167zm-1.5 4.08333h-9.5v3.5h9.5zm0 5h-9.5v3.5h8.4722c.614 0 1.0278-.4553 1.0278-.9167zm-11 3.5v-3.5h-3.5v2.5833c0 .4614.41382.9167 1.02778.9167zm-3.5-5h3.5v-3.5h-3.5z" fill-rule="evenodd"/></svg>