<svg viewBox="0 0 20 20" xmlns="http://www.w3.org/2000/svg"><path d="m5.16667 1.66661h-2.5c-.44203 0-.86595.1756-1.17851.48816-.31257.31256-.48816.73648-.48816 1.17851v5.83333c0 .44202.17559.86599.48816 1.17849.31256.3126.73648.4882 1.17851.4882h2.5"/><path d="m5.16667 10.8333h-2.5c-.44203 0-.86595-.1756-1.17851-.4882-.31257-.3125-.48816-.73647-.48816-1.17849v-5.83333c0-.44203.17559-.86595.48816-1.17851.31256-.31256.73648-.48816 1.17851-.48816h2.5z"/><path d="m6.16717 1.66661c-.00026 2.33335-.00038 6.2244 0 9.16669z"/><path d="m12.0005 12.4999v3.3334c0 .663-.2634 1.2989-.7322 1.7677-.4689.4689-1.1048.7323-1.76779.7323l-3.33334-7.5c-.00038-2.94229-.00026-6.83334 0-9.16669h9.40003c.4019-.00454.792.13633 1.0982.39666.3063.26033.5082.62259.5684 1.02001l1.15 7.50002c.0363.2388.0202.4827-.0472.7148-.0673.232-.1843.4466-.3429.6289-.1585.1823-.3548.328-.5752.4269-.2204.099-.4597.1488-.7013.146z"/></svg>