<svg viewBox="0 0 20 20" xmlns="http://www.w3.org/2000/svg"><path d="m5.16667 18.3334h-2.5c-.44203 0-.86595-.1756-1.17851-.4881-.31257-.3126-.48816-.7365-.48816-1.1786v-5.8333c0-.442.17559-.86594.48816-1.1785.31256-.31256.73648-.48815 1.17851-.48815h2.5"/><path d="m5.16667 9.16675h-2.5c-.44203 0-.86595.17559-1.17851.48815-.31257.31256-.48816.7365-.48816 1.1785v5.8333c0 .4421.17559.866.48816 1.1786.31256.3125.73648.4881 1.17851.4881h2.5c0-4.3333 0-6.8333 0-9.16665z"/><path d="m6.16717 18.3334c-.00026-2.3333-.00038-6.2244 0-9.16665z"/><path d="m12.0005 7.50008v-3.33333c0-.66304-.2634-1.29893-.7322-1.76777-.4689-.46884-1.1048-.73223-1.76779-.73223l-3.33334 7.5c-.00038 2.94225-.00026 6.83335 0 9.16665h9.40003c.4019.0046.792-.1363 1.0982-.3966.3063-.2604.5082-.6226.5684-1.0201l1.15-7.49995c.0363-.23887.0202-.48277-.0472-.71479-.0673-.23203-.1843-.44663-.3429-.62895-.1585-.18232-.3548-.32799-.5752-.42691-.2204-.09893-.4597-.14876-.7013-.14602z"/></svg>