<svg viewBox="0 0 20 20" xmlns="http://www.w3.org/2000/svg"><path d="m8.48066 1.36208c.12037-.27084.38896-.445393.68536-.445393.86198 0 1.68858.342413 2.29808.951903s.9519 1.43614.9519 2.2981v2.58333h3.9628c.3488-.00328.6941.06896 1.0123.21177.3196.14345.6042.35467.8341.61902.2299.26436.3995.57554.4972.91198s.121.69008.0685 1.03644l-1.15 7.49987c-.0001.0002 0-.0002 0 0-.0875.5761-.3803 1.1017-.8242 1.479-.443.3765-1.0067.5807-1.5879.5753h-11.89612c-.64094 0-1.25563-.2547-1.70884-.7079s-.707824-1.0679-.707824-1.7088v-5.8333c0-.641.254614-1.25568.707824-1.70889s1.0679-.70782 1.70884-.70782h2.0126zm-3.39798 8.55461h-1.75c-.24311 0-.47627.09661-.64818.26851s-.26848.405-.26848.6482v5.8333c0 .2431.09657.4763.26848.6482s.40507.2685.64818.2685h1.75zm1.5 7.66671h8.65852c.221.0025.4356-.075.604-.2182.1685-.1431.2795-.3424.3126-.561l1.15-7.50006c0 .00011.0001-.00012 0 0 .0199-.13127.0111-.26563-.0259-.39314-.0371-.12761-.1014-.24564-.1886-.34592-.0872-.10027-.1952-.18039-.3164-.2348s-.2529-.08181-.3857-.08031l-.0085.0001-4.7167-.00005c-.4142 0-.75-.33579-.75-.75v-3.33333c0-.46413-.1844-.90925-.5125-1.23744-.2174-.21733-.48599-.37159-.77743-.45101l-3.04339 6.84761z"/></svg>