<svg viewBox="0 0 20 20" xmlns="http://www.w3.org/2000/svg"><path d="m17.1896 2.6998c-.2185-.18754-.4982-.28833-.7861-.28323l-.0133.00023-1.475-.00012v7.66672h1.4883c.2879.005.5676-.09563.7861-.28316.2072-.1779.3457-.4221.3923-.69028v-5.71988c-.0466-.26819-.1851-.51239-.3923-.69028zm-3.7744 7.9744v-8.25752h-8.65845c-.22107-.0025-.43559.07494-.60404.21812s-.27948.34242-.31263.561l-.00018.00122-1.14983 7.49888c-.00003.0002.00002-.0002 0 0-.01985.1312-.01104.2657.02597.3931.03705.1276.1014.2457.18859.346.0872.1002.19515.1803.31638.2348.12124.0544.25285.0818.38572.0803l.0085-.0001h4.71666c.41422 0 .75.3358.75.75v3.3334c0 .4641.18438.9092.51257 1.2374.21733.2173.48594.3716.77734.451zm1.2374.9092-3.1353 7.0546c-.1204.2708-.389.4454-.6854.4454-.86196 0-1.68861-.3425-2.2981-.952-.6095-.6094-.95191-1.4361-.95191-2.298v-2.5834h-3.96277c-.34874.0033-.69408-.0689-1.0123-.2118-.31961-.1434-.60422-.3546-.8341-.619-.22987-.2643-.39953-.5755-.4972-.912-.09768-.3364-.12104-.69-.06847-1.0364l1.14999-7.4999c-.00003.00022.00003-.00022 0 0 .08751-.576.38027-1.10167.8242-1.47901.44292-.37648 1.00666-.580664 1.58783-.575207h11.61503c.6529-.009796 1.2869.219537 1.7825.644917.4974.42694.8207 1.02164.9085 1.67122.0045.03332.0068.06691.0068.10053v5.83333c0 .03363-.0023.06721-.0068.10054-.0878.64957-.4111 1.24428-.9085 1.67118-.4956.4254-1.1296.6547-1.7825.645z"/></svg>