<svg viewBox="0 0 20 20" xmlns="http://www.w3.org/2000/svg"><path d="m1.16602 5.11877c0-1.14683.9297-2.07653 2.07653-2.07653h13.51405c1.1467 0 2.0766.92966 2.0766 2.07653v2.4404c0 .33864-.227.63528-.5538.72388-.7564.20503-1.3117.89711-1.3117 1.71694 0 .81981.5553 1.51191 1.3117 1.71691.3268.0886.5538.3853.5538.7239v2.4404c0 1.1469-.9299 2.0766-2.0766 2.0766h-13.51405c-1.14682 0-2.07653-.9297-2.07653-2.0766v-2.4349c0-.341.23006-.6391.55995-.7255.76367-.2 1.3262-.8957 1.3262-1.72081 0-.82514-.56253-1.52079-1.3262-1.72083-.32989-.08641-.55995-.3845-.55995-.72552zm12.38168 10.33903v-1.4264c0-.4142-.3358-.75-.75-.75s-.75.3358-.75.75v1.4264h-8.80515c-.31842 0-.57653-.2582-.57653-.5766v-1.9123c1.11422-.5235 1.88615-1.6554 1.88615-2.96891 0-1.31355-.77193-2.4454-1.88615-2.9689v-1.91232c0-.31841.25812-.57653.57653-.57653h8.80515v1.4367c0 .41422.3358.75.75.75s.75-.33578.75-.75v-1.4367h3.2089c.3184 0 .5766.25816.5766.57653v1.92214c-1.1031.52772-1.8655 1.65365-1.8655 2.95908 0 1.30541.7624 2.43131 1.8655 2.95911v1.9221c0 .3184-.2582.5766-.5766.5766zm-.75-7.29598c.4142 0 .75.33579.75.75v2.17638c0 .4142-.3358.75-.75.75s-.75-.3358-.75-.75v-2.17638c0-.41421.3358-.75.75-.75z" fill-rule="evenodd"/></svg>