<svg viewBox="0 0 20 20" xmlns="http://www.w3.org/2000/svg"><path d="m9.99935 2.41669c-4.18816 0-7.58333 3.39517-7.58333 7.58331 0 4.1882 3.39517 7.5834 7.58333 7.5834 4.18815 0 7.58335-3.3952 7.58335-7.5834 0-4.18814-3.3952-7.58331-7.58335-7.58331zm-9.083334 7.58331c0-5.01657 4.066744-9.083313 9.083334-9.083313 5.01655 0 9.08335 4.066743 9.08335 9.083313 0 5.0166-4.0668 9.0834-9.08335 9.0834-5.01659 0-9.083334-4.0668-9.083334-9.0834zm9.083334-5.74998c.41425 0 .74995.33579.74995.75v4.53648l2.9188 1.4594c.3705.1852.5206.6357.3354 1.0062s-.6357.5206-1.0062.3354l-3.33336-1.6667c-.25409-.127-.41459-.3867-.41459-.6708v-4.99998c0-.41421.33578-.75.75-.75z"/></svg>