<svg viewBox="0 0 20 20" xmlns="http://www.w3.org/2000/svg"><path d="m10.0001 1.4917c.199-.00009.3899.07894.5306.21967l4.7165 4.71649c0-.00006.0001.00006 0 0 1.0376 1.03702 1.7446 2.35864 2.0312 3.79734.2865 1.4389.1399 2.9304-.4213 4.2859s-1.5118 2.5141-2.7316 3.3293c-1.2197.8151-2.6539 1.2502-4.1209 1.2502-1.46712 0-2.90125-.4351-4.12102-1.2502-1.21977-.8152-2.17038-1.9738-2.73159-3.3293s-.7078-2.847-.42123-4.2859c.28653-1.4386.99325-2.75997 2.03076-3.79696-.00013.00013.00013-.00012 0 0l4.70807-4.7164c.14061-.14086.33144-.22005.53051-.22014zm.0008 1.81113-4.17804 4.1854c-.82785.8273-1.39238 1.88219-1.621 3.02997-.22861 1.1479-.11166 2.3377.33604 3.4191.44771 1.0813 1.20606 2.0056 2.17913 2.6559.97308.6503 2.11716.9974 3.28757.9974 1.1703 0 2.3144-.3471 3.2875-.9974s1.7314-1.5746 2.1791-2.6559c.4477-1.0814.5647-2.2712.3361-3.4191-.2287-1.14778-.7925-2.20202-1.6204-3.02933z"/></svg>