<svg viewBox="0 0 20 20" xmlns="http://www.w3.org/2000/svg"><path d="m8.33171 2.41626c-.24312 0-.47628.09658-.64818.26849-.17191.1719-.26849.40506-.26849.64818v.91707h5.16666v-.91707c0-.24312-.0966-.47628-.2685-.64818-.1719-.17191-.405-.26849-.6482-.26849zm5.74999 1.83374v-.91707c0-.64094-.2546-1.25563-.7078-1.70885-.4532-.45321-1.0679-.70782-1.7089-.70782h-3.33329c-.64094 0-1.25563.25461-1.70885.70782-.45321.45322-.70782 1.06791-.70782 1.70885v.91707h-1.72506c-.00828-.00027-.01659-.00041-.02494-.00041s-.01666.00014-.02494.00041h-1.6401c-.41421 0-.75.33579-.75.75s.33579.75.75.75h.91504v10.9163c0 .6409.25461 1.2556.70782 1.7088.45322.4532 1.06791.7078 1.70885.7078h8.33329c.641 0 1.2557-.2546 1.7089-.7078s.7078-1.0679.7078-1.7088v-10.9163h.9183c.4142 0 .75-.33579.75-.75s-.3358-.75-.75-.75h-1.6434c-.0082-.00027-.0165-.00041-.0249-.00041-.0083 0-.0167.00014-.0249.00041zm1 1.5h-10.16666v10.9163c0 .2431.09658.4762.26848.6481.17191.172.40507.2685.64819.2685h8.33329c.2432 0 .4763-.0965.6482-.2685.1719-.1719.2685-.405.2685-.6481zm-6.74918 2.66626c.41421 0 .75.33579.75.75v5.00004c0 .4142-.33579.75-.75.75s-.75-.3358-.75-.75v-5.00004c0-.41421.33579-.75.75-.75zm3.33248 0c.4143 0 .75.33579.75.75v5.00004c0 .4142-.3357.75-.75.75-.4142 0-.75-.3358-.75-.75v-5.00004c0-.41421.3358-.75.75-.75z" fill-rule="evenodd"/></svg>