<svg viewBox="0 0 20 20" xmlns="http://www.w3.org/2000/svg"><path d="m.5 4.73218c0-1.18676.96206-2.14881 2.14881-2.14881h9.03119c.9367 0 1.7334.59929 2.0276 1.43535h1.9546c.8212 0 1.5705.46793 1.9309 1.20577l1.8463 3.7801c.1168.23917.1775.50183.1775.76801v.13452c.0009.01527.0014.03067.0014.04618 0 .0155-.0005.0309-.0014.04617v3.73963c0 1.1868-.962 2.1488-2.1488 2.1488h-.2182c-.0337.2012-.0902.3983-.1686.5876-.1358.3279-.3349.6259-.5859.8768-.2509.251-.5489.4501-.8768.5859s-.6794.2057-1.0343.2057-.7064-.0699-1.0343-.2057-.6258-.3349-.8768-.5859c-.251-.2509-.4501-.5489-.5859-.8768-.0442-.1066-.0813-.2157-.1114-.3265h-3.64742c-.12244.4511-.36098.867-.69731 1.2033-.50686.5069-1.19431.7916-1.91112.7916-.71682 0-1.40427-.2847-1.91113-.7916-.33633-.3363-.57487-.7522-.6973-1.2033h-.46281c-1.18674 0-2.14881-.9621-2.14881-2.1488zm2.63602 9.91682c.12835-.4186.35767-.8037.6729-1.1189.50686-.5069 1.19432-.7916 1.91113-.7916s1.40426.2847 1.91112.7916c.31523.3152.54456.7003.6729 1.1189h3.69623c.0755-.2464.1861-.4812.3285-.697v-9.21982c0-.35833-.2904-.64881-.6488-.64881h-9.03119c-.35833 0-.64881.29048-.64881.64881v9.26802c0 .3583.29048.6488.64881.6488zm10.44018.1362c.0621-.055.1149-.1201.156-.1928.0005-.0006.0011-.0011.0016-.0017.2256-.2255.5315-.3522.8505-.3522s.6249.1267.8505.3522c.2255.2256.3522.5315.3522.8505 0 .1579-.0311.3143-.0915.4603-.0605.1459-.149.2785-.2607.3902s-.2443.2002-.3902.2607c-.146.0604-.3024.0915-.4603.0915s-.3143-.0311-.4603-.0915c-.1459-.0605-.2785-.149-.3902-.2607-.1116-.1117-.2002-.2443-.2607-.3902-.0604-.146-.0915-.3024-.0915-.4603 0-.2347.0685-.4623.1946-.656zm.2526-1.939v-2.1429h4.2881v3.0358c0 .3584-.2905.6488-.6488.6488h-.3947c-.1344-.3174-.3295-.6093-.578-.8578-.5068-.5069-1.1943-.7916-1.9111-.7916-.258 0-.5121.0368-.7555.1077zm4.0383-3.6429-1.6218-3.32052c-.1088-.22276-.335-.36406-.5831-.36406h-1.8334v3.68458zm-12.14705 5.0352c-.31899 0-.62491.1267-.85047.3522-.22556.2256-.35227.5315-.35227.8505s.12671.6249.35227.8505c.22556.2255.53148.3522.85047.3522.31898 0 .6249-.1267.85046-.3522.22556-.2256.35227-.5315.35227-.8505s-.12671-.6249-.35227-.8505c-.22556-.2255-.53148-.3522-.85046-.3522z" fill-rule="evenodd"/></svg>