<svg viewBox="0 0 20 20" xmlns="http://www.w3.org/2000/svg"><path d="m8.40299 1.19788c-.23011 0-.41666.18654-.41666.41666v.79861c0 .41722-.08218.83036-.24184 1.21582-.15967.38546-.39369.7357-.68871 1.03072s-.64526.52904-1.03072.68871c-.38546.15966-.79859.24184-1.21582.24184-.23011 0-.41666.18655-.41666.41666v2.79514c0 .23012.18655.41667.41666.41667h1.97917v5.97219c0 .9578.38046 1.8763 1.05767 2.5535.33532.3353.73341.6013 1.17153.7828.43812.1814.90769.2748 1.38189.2748h3.9931c.2301 0 .4166-.1865.4166-.4166v-3.5938c0-.2301-.1865-.4166-.4166-.4166h-1.5972c-.3131 0-.6134-.1244-.8348-.3458s-.3458-.5217-.3458-.8348v-3.97569h2.7778c.2301 0 .4166-.18655.4166-.41667v-3.19444c0-.23012-.1865-.41667-.4166-.41667h-2.7778v-3.57639c0-.23012-.1865-.41666-.4167-.41666z"/></svg>