<svg viewBox="0 0 20 20" xmlns="http://www.w3.org/2000/svg"><path d="m7.98633 1.61454c0-.23012.18655-.41666.41666-.41666h2.79511c.2302 0 .4167.18654.4167.41666v3.57639h2.7778c.2301 0 .4166.18655.4166.41667v3.19444c0 .23012-.1865.41667-.4166.41667h-2.7778v3.97569c0 .3131.1244.6134.3458.8348s.5217.3458.8348.3458h1.5972c.2301 0 .4166.1865.4166.4166v3.5938c0 .2301-.1865.4166-.4166.4166h-3.9931c-.4742 0-.94377-.0934-1.38189-.2748-.43812-.1815-.83621-.4475-1.17153-.7828-.67721-.6772-1.05767-1.5957-1.05767-2.5535v-5.97219h-1.97917c-.23011 0-.41666-.18655-.41666-.41667v-2.79514c0-.23011.18655-.41666.41666-.41666.41723 0 .83036-.08218 1.21582-.24184.38546-.15967.7357-.39369 1.03072-.68871s.52904-.64526.68871-1.03072c.15966-.38546.24184-.7986.24184-1.21582zm.83333.41667v.38194c0 .52666-.10373 1.04816-.30527 1.53472-.20155.48657-.49695.92867-.86935 1.30108-.3724.3724-.81451.6678-1.30108.86935-.35774.14818-.73437.24349-1.11805.28357v1.98351h1.97917c.23012 0 .41666.18654.41666.41666v6.38886c0 .7367.29266 1.4433.8136 1.9642.25794.258.56416.4626.90117.6022.33702.1396.69819.2114 1.06299.2114h3.5764v-2.7604h-1.1805c-.5342 0-1.0464-.2122-1.4241-.5899-.3777-.3776-.5898-.8899-.5898-1.424v-4.39236c0-.23012.1865-.41666.4166-.41666h2.7778v-2.36112h-2.7778c-.2301 0-.4166-.18654-.4166-.41666v-3.57639z"/></svg>