<svg viewBox="0 0 20 20" xmlns="http://www.w3.org/2000/svg"><path d="m10.0007 19.1666c5.0626 0 9.1666-4.104 9.1666-9.16662 0-5.06261-4.104-9.166667-9.1666-9.166667-5.06266 0-9.166716 4.104057-9.166716 9.166667 0 5.06262 4.104056 9.16662 9.166716 9.16662zm5.7952-13.50128c.1319-.07951.2966.03765.2452.18282-.2209.62406-.5809 1.19195-1.0549 1.65949.0297.15545.0449.31332.0454.47159 0 6.26988-5.75477 9.13918-10.73823 6.85098-.15952-.0733-.10069-.3145.07446-.3261 1.16904-.0774 2.30112-.4645 3.27741-1.1272-4.40706-1.9586-3.32795-6.02741-2.9456-7.11441.04298-.1222.20013-.13751.27964-.03524.55126.70906 1.25415 1.28766 2.05858 1.69256.8922.44908 1.88161.67053 2.88011.64464v-.56819c-.00699-.5214.14633-1.03236.43923-1.46379.2928-.43143.7111-.76251 1.1983-.94845s1.0197-.21778 1.5256-.09121c.5058.12657.9606.40545 1.3028.79891.4955-.14922.9698-.35979 1.412-.6264z"/></svg>