<svg viewBox="0 0 20 20" xmlns="http://www.w3.org/2000/svg"><path d="m18.9295 3.26351c.0985-.25911-.1964-.47099-.4361-.33176-.6119.35548-1.2641.63869-1.9435.84327-.5019-.57708-1.1689-.98609-1.9108-1.17173s-1.523-.13894-2.2375.13377c-.7145.27272-1.328.75829-1.7576 1.39106-.4295.63276-.65435 1.38218-.6441 2.1469v.83333c-1.46447.03797-2.91561-.28682-4.22416-.94546-1.15054-.5791-2.15945-1.40049-2.95861-2.4053-.14515-.18249-.42903-.15029-.50393.07052-.58509 1.72487-1.98702 7.52059 4.35336 10.33859-1.36702.9279-2.94229 1.4873-4.57417 1.6349-.31469.0285-.41815.4654-.12871.5921 7.25897 3.1783 15.53622-1.0371 15.53622-10.14368-.0008-.23212-.0231-.46367-.0667-.69167.66-.65082 1.1692-1.43424 1.4963-2.29484z"/></svg>