<svg viewBox="0 0 20 20" xmlns="http://www.w3.org/2000/svg"><path d="m3.73579 3.92144c1.71396-1.55818 3.94715-2.42156 6.26351-2.42156 2.3164 0 4.5496.86338 6.2635 2.42156 1.714 1.55818 2.7856 3.69926 3.0057 6.00517.0207.21669-.051.43209-.1974.59319-.1465.1611-.3541.253-.5718.253h-7.7273v4.6364c0 .4099.1629.803.4527 1.0929.2898.2898.6829.4526 1.0928.4526s.8029-.1628 1.0928-.4526c.2898-.2899.4526-.683.4526-1.0929 0-.4267.346-.7727.7728-.7727.4267 0 .7727.346.7727.7727 0 .8198-.3256 1.606-.9053 2.1857-.5797.5796-1.3659.9053-2.1856.9053-.8198 0-1.606-.3257-2.1856-.9053-.57969-.5797-.90533-1.3659-.90533-2.1857v-4.6364h-7.72727c-.21771 0-.42533-.0919-.571777-.253-.14645-.1611-.218148-.3765-.197461-.59319.220105-2.30591 1.291768-4.44699 3.005728-6.00517zm13.86611 5.30586c-.3325-1.59644-1.1614-3.05565-2.3787-4.16232-1.4295-1.29955-3.292-2.01963-5.2239-2.01963-1.93189 0-3.79442.72008-5.22391 2.01963-1.2173 1.10667-2.04614 2.56588-2.37874 4.16232z"/></svg>