<svg viewBox="0 0 20 20" xmlns="http://www.w3.org/2000/svg"><path d="m6.42381 1.60803c.35457 0 .642.28744.642.64201v9.53846c0 1.621 1.31398 2.9349 2.93479 2.9349 1.6209 0 2.9349-1.3139 2.9349-2.9349v-9.53846c0-.35457.2874-.64201.642-.64201.3545 0 .642.28744.642.64201v9.53846c0 2.3301-1.8889 4.2189-4.2189 4.2189-2.32997 0-4.2188-1.8888-4.2188-4.2189v-9.53846c0-.35457.28744-.64201.64201-.64201zm-3.62303 16.14197c0-.3545.28744-.642.642-.642h13.11502c.3546 0 .642.2875.642.642 0 .3546-.2874.642-.642.642h-13.11502c-.35456 0-.642-.2874-.642-.642z"/></svg>