<svg viewBox="0 0 20 20" xmlns="http://www.w3.org/2000/svg"><path d="m4.33836 8.58161-2.04574 2.04579-.01015.0103c-.91079.943-1.414767 2.206-1.403375 3.517s.537235 2.565 1.464275 3.4921c.92704.927 2.18111 1.4529 3.49209 1.4643 1.31098.0113 2.57399-.4926 3.517-1.4034l.01033-.0102 1.42501-1.425c.3254-.3254.3254-.853 0-1.1785-.3254-.3254-.85308-.3254-1.17852 0l-1.41961 1.4196c-.62814.6042-1.46803.9384-2.33973.9309-.87399-.0076-1.71003-.3582-2.32806-.9762-.61802-.6181-.96859-1.4541-.97618-2.3281-.00758-.8717.32663-1.7116.93083-2.3397l2.04034-2.04038z"/><path d="m14.1631.888861c-1.311-.011392-2.574.492579-3.517 1.403369l-.0086.00844-1.43337 1.425c-.32638.32448-.32792.85212-.00343 1.1785.32448.32639.8521.32793 1.1785.00344l1.4288-1.42051c.6283-.6047 1.4685-.93921 2.3406-.93164.874.0076 1.71.35816 2.3281.97619.618.61803.9685 1.45407.9761 2.32806.0076.8717-.3266 1.71159-.9308 2.33973l-2.0403 2.04026 1.1786 1.1785 2.0456-2.04564.0102-.01033c.9108-.94301 1.4147-2.20602 1.4033-3.51701-.0113-1.31098-.5372-2.56504-1.4642-3.49208-.9271-.92704-2.1811-1.452887-3.4921-1.464279z"/><path d="m2.46902 2.46963c.29289-.29289.76777-.29289 1.06066 0l13.00002 12.99997c.2929.2929.2929.7678 0 1.0607s-.7678.2929-1.0607 0l-12.99998-13.00001c-.29289-.29289-.29289-.76777 0-1.06066z"/></svg>