<svg viewBox="0 0 20 20" xmlns="http://www.w3.org/2000/svg"><path d="m9.27164.977951c-.67569.101889-1.32274.343479-1.89988.709359-.57713.36587-1.07168.848-1.45212 1.41564-.30532.46334-.53392.97288-.677 1.509-.133.562-.138.635-.154 2.248l-.015 1.564-.679.014c-.749.014-.878.036-1.25.214-.24947.11255-.47492.27213-.664.47-.36015.34291-.60093.79222-.687 1.28205-.066.378-.066 6.324 0 6.702.085.488.313.913.687 1.282.312.309.619.49 1.03.609l.234.068h12.50996l.234-.068c.3917-.1073.7474-.3176 1.03-.609.374-.369.602-.794.687-1.282.066-.378.066-6.324 0-6.702-.086-.48983-.3268-.93914-.687-1.28205-.189-.19787-.4145-.35745-.664-.47-.469-.224-.014-.206-5.423-.215l-4.85196-.008v-1.417c0-1.131.01-1.474.046-1.701.11052-.70195.43644-1.3522.93269-1.86081s1.13829-.85044 1.83731-.97819c.40036-.061.80766-.061 1.20796 0 1.292.242 2.346 1.204 2.683 2.448.153.566.236.704.48.797.292.112.81-.034.972-.275.223-.33-.032-1.325-.555-2.171-.3761-.61249-.8817-1.13523-1.4813-1.53152-.5997-.3963-1.2788-.65655-1.9897-.762479-.4786-.056677-.96236-.056342-1.44096.001zm6.96296 9.044049c.2117.1042.3753.2857.457.507.056.146.058.264.058 3.226s-.002 3.08-.058 3.226c-.0817.2212-.2453.4027-.457.507l-.185.092h-12.09996l-.185-.092c-.21165-.1043-.37522-.2858-.457-.507-.056-.146-.058-.264-.058-3.226s.002-3.08.058-3.226c.08178-.2213.24535-.4028.457-.507l.185-.09205h12.09996z"/></svg>