<svg viewBox="0 0 20 20" xmlns="http://www.w3.org/2000/svg"><path d="m14.9115 2.30398c-1.595.23-2.905 1.27-3.429 2.723-.188.523-.192.562-.213 2.023l-.02 1.367-4.30003.016c-4.803.019-4.395-.002-4.887.255-.62.324-1.112001.955-1.246001 1.59502-.073.348-.073 6.586 0 6.934.139.665.645001 1.295 1.300001 1.619.494.244.045.23 6.883.23 6.83803 0 6.38903.014 6.88303-.23.655-.324 1.161-.954 1.3-1.619.073-.348.073-6.586 0-6.934-.134-.64002-.626-1.27102-1.246-1.59502-.443-.231-.451-.232-1.887-.253l-1.3-.018.001-1.2c0-1.277.009-1.37.171-1.779.13-.33.345-.633.665-.936.232-.22.35-.301.625-.434.505-.243.701-.284 1.355-.284.483-.001.58.009.8.077.5592.17759 1.0556.51221 1.43.964.201.252.336.528.447.912.135.469.228.593.502.667.192.051.537-.013.733-.138.258-.163.321-.373.237-.783-.112-.541-.364-1.074-.75-1.583-.623-.821-1.663-1.421-2.741-1.581-.4356-.05677-.8763-.0618-1.313-.015zm.236 7.658c.186.06302.501.38802.558.57402.065.216.065 6.212 0 6.428-.061.201-.374.514-.576.575-.217.066-12.04303.066-12.26003 0-.187-.057-.512-.372-.574-.558-.06-.179-.085-5.947-.027-6.291.02814-.1785.10879-.3446.23167-.4771.12289-.1325.28244-.22543.45833-.26692.29-.062 12.00203-.047 12.18903.016z"/></svg>