<svg viewBox="0 0 20 20" xmlns="http://www.w3.org/2000/svg"><path d="m9.99935 2.41669c-4.18816 0-7.58333 3.39517-7.58333 7.58331 0 4.1882 3.39517 7.5834 7.58333 7.5834 4.18815 0 7.58335-3.3952 7.58335-7.5834 0-4.18814-3.3952-7.58331-7.58335-7.58331zm-9.083334 7.58331c0-5.01657 4.066744-9.083313 9.083334-9.083313 5.01655 0 9.08335 4.066743 9.08335 9.083313 0 5.0166-4.0668 9.0834-9.08335 9.0834-5.01659 0-9.083334-4.0668-9.083334-9.0834zm9.083334-4.08331c.19895 0 .38965.07901.53035.21967l3.3333 3.33333c.2929.29289.2929.76781 0 1.06061-.2929.2929-.7678.2929-1.0606 0l-2.0531-2.05295v4.85605c0 .4142-.3357.75-.74995.75-.41422 0-.75-.3358-.75-.75v-4.85605l-2.053 2.05295c-.2929.2929-.76777.2929-1.06066 0-.2929-.2928-.2929-.76772 0-1.06061l3.33333-3.33333c.14065-.14066.33142-.21967.53033-.21967z"/></svg>