<svg viewBox="0 0 20 20" xmlns="http://www.w3.org/2000/svg"><path d="m10 .083374c.4142 0 .75.335786.75.75v2.583336h3.4167c.4142 0 .75.33578.75.75 0 .41421-.3358.75-.75.75h-3.4167v4.33333h1.3333c.9725 0 1.9051.38631 2.5928 1.07396.6876.6876 1.0739 1.6202 1.0739 2.5927s-.3863 1.9051-1.0739 2.5927c-.6877.6877-1.6203 1.074-2.5928 1.074h-1.3333v2.5833c0 .4142-.3358.75-.75.75-.41421 0-.75-.3358-.75-.75v-2.5833h-4.25c-.41421 0-.75-.3358-.75-.75s.33579-.75.75-.75h4.25v-4.3334h-1.33333c-.97246 0-1.90509-.3863-2.59273-1.0739-.68763-.68763-1.07394-1.62027-1.07394-2.59273s.38631-1.90509 1.07394-2.59272c.68764-.68764 1.62027-1.07394 2.59273-1.07394h1.33333v-2.583336c0-.414214.33579-.75.75-.75zm-.75 4.833336h-1.33333c-.57464 0-1.12574.22827-1.53207.6346s-.6346.95743-.6346 1.53206c0 .57464.22827 1.12574.6346 1.53207s.95743.6346 1.53207.6346h1.33333zm1.5 5.83329v4.3334h1.3333c.5747 0 1.1258-.2283 1.5321-.6346.4063-.4064.6346-.9575.6346-1.5321s-.2283-1.1257-.6346-1.5321c-.4063-.4063-.9574-.6346-1.5321-.6346z"/></svg>