<svg viewBox="0 0 20 20" xmlns="http://www.w3.org/2000/svg"><path d="m9.74994 2.25c-1.65685 0-3 1.34315-3 3s1.34315 3 3 3c1.65686 0 2.99996-1.34315 2.99996-3s-1.3431-3-2.99996-3zm-4.5 3c0-2.48528 2.01472-4.5 4.5-4.5 2.48526 0 4.49996 2.01472 4.49996 4.5s-2.0147 4.5-4.49996 4.5c-2.48528 0-4.5-2.01472-4.5-4.5zm.78853 6.7745c-.48597-.263-.91548-.242-1.343.0529-1.88155 1.2978-2.84809 3.0367-2.94416 5.2501-.01266.2917.06287.376.08461.3969.03314.0319.15429.1159.49808.116 1.78175.0003 3.56345.0003 5.34525.0002h2.07146c.69989 0 1.39979 0 2.09959.0001 1.7952.0002 3.5901.0004 5.3851-.0007.2639-.0002.3789-.0741.4219-.1158.0363-.0352.0995-.1216.0921-.3407-.0708-2.0917-.9451-3.7738-2.6491-5.1081-.3417-.2676-.6371-.3825-.9015-.4057-.2618-.0229-.5681.0374-.9454.2503-1.0458.5902-2.1868.8509-3.35356.8752-1.39227.029-2.67507-.3288-3.86137-.9707zm-2.19469-1.1819c.91735-.6327 1.95409-.6538 2.90855-.1374.98604.5336 2.01418.8133 3.1163.7903.96127-.02 1.85157-.2326 2.64757-.6818.5828-.3289 1.1896-.493 1.8138-.4382.6216.0545 1.1851.3196 1.695.7189 2.0382 1.5958 3.1371 3.6848 3.2235 6.2384.0187.5514-.147 1.0807-.5473 1.4686-.3937.3815-.9232.5382-1.4648.5386-1.7956.0011-3.5913.0009-5.3867.0007-.6997-.0001-1.3994-.0001-2.09899-.0001-.69041 0-1.38084 0-2.07128 0-1.78185.0001-3.5638.0001-5.34571-.0002-.55781-.0001-1.12124-.1342-1.537939-.5352-.42811-.412-.567689-.9754-.543061-1.5428.116942-2.6942 1.33175-4.8614 3.59106-6.4198z"/></svg>