<svg viewBox="0 0 20 20" xmlns="http://www.w3.org/2000/svg"><path d="m7.05936 2.61898c-.551.057-1.075.326-1.382.71-.179.223-.259.403-.937 2.088-.334.832-.628 1.522-.652 1.534-.22808.0662-.45782.12655-.689.181-.857.211-1.683.46-1.827.551-.19.12-.256.239-.267.482-.009.199.055.434 1.252 4.61902.935 3.267 1.283 4.444 1.345 4.545.05516.0864.12982.1587.218.211l.134.075h11.58004l.142-.083c.0871-.0521.1608-.1241.215-.21.047-.08.544-1.77 1.336-4.545 1.008-3.53002 1.262-4.45302 1.262-4.59202.0025-.1091-.0264-.21663-.0833-.30974-.0569-.0931-.1395-.16784-.2377-.21526-.225-.114-1.638-.514-2.439-.691-.069-.015-.138-.166-.716-1.555-.352-.847-.671-1.607-.708-1.689-.1247-.2535-.3011-.47801-.518-.659-.2433-.17977-.5146-.31797-.803-.409-.115-.029-.855-.039-3.135-.043-1.03004-.00512-2.06006-.00345-3.09004.005zm5.95504 1.537c.0625.02857.1202.0667.171.113.045.051 1.015 2.324 1 2.343-.003.004-.2-.019-.438-.052-1.2271-.16743-2.4646-.24764-3.703-.24-1.35704 0-2.52504.076-3.70304.24-.14754.02477-.29651.04013-.446.046-.022-.022.893-2.273.949-2.338.0505-.04595.10785-.08374.17-.112.114-.052.269-.055 3.00004-.055 2.731 0 2.886.003 3 .055zm-2.085 3.665c1.65.06 3.871.337 4.108.512.1316.08415.2905.11458.444.085.1-.014.288.022.861.165.403.101.742.192.751.201.01.01-.452 1.66402-1.026 3.67502l-1.045 3.656-9.95804.015-1.045-3.662c-.575-2.015-1.036-3.67202-1.025-3.68302s.349-.102.751-.203c.575-.144.759-.179.86-.164.15407.0299.31373-.00053.446-.085.225-.166 2.505-.458 3.984-.511.63087-.03384 1.26314-.03418 1.89404-.001zm-1.16304 1.586c-.08242.02287-.15912.06283-.2251.11727-.06599.05444-.11978.12215-.1579.19873-.072.145-.074.165-.074.81402v.666l-.667.013c-.737.014-.853.039-1.024.223-.23.245-.212.882.03 1.095.17.149.231.16.956.176l.69.015.015.705c.012.58.024.721.065.795.124.226.325.323.67104.324.361 0 .575-.118.691-.384.015-.033.034-.371.042-.75l.016-.69.69-.015c.666-.014.695-.018.824-.09.0773-.0448.1455-.1039.201-.174.09-.134.141-.396.116-.597-.038-.304-.138-.453-.373-.559-.123-.055-.212-.063-.806-.074l-.667-.013v-.634c0-.35-.014-.68502-.032-.74702-.0555-.15653-.1646-.28833-.308-.372-.105-.054-.52404-.081-.67304-.043z"/></svg>