<svg viewBox="0 0 20 20" xmlns="http://www.w3.org/2000/svg"><path d="m.837891 4.02637h3.080599c.10119 5.14929 2.37223 7.33043 4.17113 7.78013v-7.78013h2.90068v4.44098c1.7764-.19111 3.6427-2.21486 4.2723-4.44098h2.9007c-.2373 1.1545-.7103 2.24756-1.3893 3.21101-.679.96339-1.5494 1.77632-2.557 2.38802 1.1249.5585 2.1186 1.3493 2.9151 2.3203.7966.9711 1.378 2.1001 1.7058 3.3125h-3.193c-.2942-1.0532-.893-1.9959-1.7211-2.71-.828-.714-1.8486-1.1676-2.9335-1.3038v4.0138h-.3485c-6.14992 0-9.657749-4.2162-9.803909-11.23183z"/></svg>