<svg viewBox="0 0 20 20" xmlns="http://www.w3.org/2000/svg"><path d="m9.49091 3.49072c.25985.12489.42511.38767.42511.67597v11.66671c0 .2883-.16526.551-.42511.6759s-.56829.0898-.79342-.0903l-3.96123-3.169h-3.07024c-.41422 0-.750004-.3358-.750004-.75v-4.99997c0-.41422.335784-.75.750004-.75h3.07024l3.96123-3.16899c.22513-.1801.53357-.21521.79342-.09032zm-1.07489 2.23644-2.94815 2.35852c-.13298.10639-.29822.16435-.46852.16435h-2.58333v3.49997h2.58333c.1703 0 .33554.058.46852.1644l2.94815 2.3585z"/></svg>