<svg viewBox="0 0 20 20" xmlns="http://www.w3.org/2000/svg"><path d="m15.36 3.57793c.2929-.29285.7678-.29278 1.0606.00016 1.7029 1.70337 2.6595 4.01334 2.6595 6.42191 0 2.4086-.9566 4.7185-2.6595 6.4219-.2928.293-.7677.293-1.0606.0002-.293-.2929-.293-.7677-.0002-1.0607 1.4217-1.4221 2.2203-3.3506 2.2203-5.3614 0-2.01082-.7986-3.93933-2.2203-5.36141-.2928-.29294-.2928-.76781.0002-1.06066zm-5.86909-.08723c.25985.12489.42511.38767.42511.67598v11.66662c0 .2883-.16526.5511-.42511.676s-.56829.0898-.79342-.0903l-3.96123-3.169h-3.07024c-.41422 0-.750004-.3358-.750004-.75v-4.99999c0-.41421.335784-.75.750004-.75h3.07024l3.96123-3.16899c.22513-.1801.53357-.21521.79342-.09032zm-1.07489 2.23645-2.94815 2.35851c-.13298.10639-.29822.16435-.46852.16435h-2.58333v3.49999h2.58333c.1703 0 .33554.058.46852.1644l2.94815 2.3585zm4.00228.79244c.293-.29284.7678-.29277 1.0607.00016.9217.92202 1.4395 2.17236 1.4395 3.47609 0 1.30376-.5178 2.55406-1.4395 3.47606-.2929.293-.7677.293-1.0607.0002-.2929-.2929-.293-.7677-.0001-1.0607.6405-.6407 1.0003-1.5096 1.0003-2.41556 0-.90598-.3598-1.77487-1.0003-2.41559-.2929-.29293-.2928-.76781.0001-1.06066z"/></svg>