<svg viewBox="0 0 20 20" xmlns="http://www.w3.org/2000/svg"><path d="m8.81404 1.97518c.36193-.20376.77026-.31081 1.18561-.31081s.82365.10705 1.18565.31081c.3619.20377.6652.49738.8806.8525l.0022.00357 7.0645 11.79365c.211.3654.3225.7798.3237 1.2018.0012.4219-.1081.8369-.3171 1.2035s-.5103.6721-.874.8861c-.3636.214-.777.329-1.199.3336l-.0082.0001h-14.12493c-.42195-.0047-.83533-.1197-1.19901-.3337-.36369-.214-.66501-.5195-.87397-.8861-.208964-.3666-.318293-.7816-.317112-1.2035.001182-.422.112834-.8363.323847-1.2018l.00601-.0104 7.060555-11.78682c.21541-.35512.51872-.64873.88065-.8525zm1.18561 1.18919c-.15754 0-.31243.0406-.44971.11789-.13677.07701-.25147.18783-.33312.32185-.00031.00051-.00061.00101-.00092.00152l-7.05265 11.77387c-.07838.1375-.11983.293-.12028.4514-.00045.16.04102.3174.12029.4565.07926.139.19355.2549.3315.3361.13695.0806.29248.1241.45132.1265h14.10712c.1589-.0024.3144-.0459.4513-.1265.138-.0812.2523-.1971.3315-.3361.0793-.1391.1208-.2965.1203-.4565-.0004-.1584-.0419-.3139-.1202-.4514l-7.0527-11.77387c-.0003-.00051-.0006-.00101-.0009-.00152-.0817-.13402-.1964-.24484-.3331-.32185-.1373-.07729-.2922-.11789-.44975-.11789zm0 3.58562c.41425 0 .75005.33578.75005.75v3.33331c0 .4142-.3358.75-.75005.75-.41421 0-.75-.3358-.75-.75v-3.33331c0-.41422.33579-.75.75-.75zm-.75 7.41671c0-.4143.33579-.75.75-.75h.00835c.4142 0 .75.3357.75.75 0 .4142-.3358.75-.75.75h-.00835c-.41421 0-.75-.3358-.75-.75z"/></svg>