<svg viewBox="0 0 20 20" xmlns="http://www.w3.org/2000/svg"><path d="m8.91041 13.0106c-.11548.1155-.27206.1804-.43537.1806v-1.2327c.16331.0001.31989.0651.43537.1805.11558.1156.18052.2724.18052.4358 0 .1635-.06493.3203-.18052.4358z"/><path d="m8.03924 13.0106c.11548.1155.2725.1804.4358.1806v-1.2327c-.1633.0001-.32032.0651-.4358.1805-.11558.1156-.18052.2724-.18052.4358 0 .1635.06494.3203.18052.4358z"/><path d="m7.38167 14.1956c-.15282.1528-.36002.2388-.57611.239-.2161-.0002-.42416-.0862-.57698-.239-.15303-.153-.239-.3606-.239-.577s.08597-.4239.239-.577c.15282-.1528.36001-.2387.57611-.239.21609.0003.42416.0862.57698.239.15302.1531.23899.3606.23899.577s-.08597.424-.23899.577z"/><path d="m13.5096 2.88348c.7522-.15382 1.5315-.10859 2.2608.13121.7294.2398 1.3835.66587 1.8976 1.23604.5142.57018.8705 1.26471 1.0339 2.01488.1633.75017.128 1.52999-.1026 2.26231-.0691.2195-.303.34142-.5225.27232s-.3415-.30305-.2724-.52255c.187-.59393.2157-1.22638.0832-1.83479-.1325-.6084-.4215-1.17168-.8385-1.63411-.4169-.46243-.9474-.80797-1.5389-1.00246-.5915-.19448-1.2236-.23117-1.8336-.10642-.2255.04611-.4456-.09928-.4917-.32474-.0461-.22545.0993-.44559.3247-.49169zm-5.23558 1.76486c.39876-.04794.79818-.00299 1.14096.20265.3964.23765.63602.53808.73722.88602.0969.33316.0503.65571-.0125.90986-.0317.12852-.0707.25116-.1039.35502l-.0022.00693c-.029.09047-.05227.16322-.06954.22771.04964-.00885.10864-.0215.17824-.03847.1344-.03281.286-.07604.4592-.12544.014-.00398.028-.00799.0423-.01205.1874-.05342.3949-.11199.6105-.16434.4269-.1037.9137-.19044 1.3871-.16117.4805.02972.9711.1811 1.3645.57451.2663.26626.3925.55972.4026.86415.0095.28514-.0853.53604-.1672.71881-.0284.0635-.0607.12998-.0882.18668-.0112.02302-.0216.04443-.0307.06338-.0298.06256-.05.10858-.0632.14512.02.01378.046.03062.0794.05074.0788.04742.1752.09923.2935.16248l.0183.0098c.2263.12091.5126.27394.7887.46762.5699.39965 1.1665 1.02345 1.1665 2.01825 0 .9709-.7016 2.2767-2.0075 3.3203-1.3273 1.0606-3.3171 1.888-5.99597 1.888-.02276 0-.04559-.0001-.0685-.0003-.01975.0002-.03951.0003-.05928.0003-.22771 0-.45486-.0114-.67996-.0341-1.2676-.1045-2.66648-.4518-3.83057-1.0725-1.41773-.7559-2.56655-1.968-2.56655-3.7024 0-.8737.4012-1.8543.97803-2.78541.5833-.94158 1.37617-1.88067 2.22663-2.68209.84861-.79967 1.77221-1.47891 2.6242-1.8858.42589-.20338.84973-.34639 1.24789-.39426zm.059 11.72296c-.21416-.0018-.43521-.0118-.66062-.0302-.37919-.0385-.75016-.1133-1.10339-.2226-.53862-.1666-1.02181-.4091-1.42393-.7094-.40207-.3004-.71241-.6505-.92072-1.0261-.20784-.3748-.31143-.7698-.31143-1.1638 0-.3939.10359-.7889.31143-1.1637.20831-.3756.51865-.7258.92072-1.0261.40212-.3004.88531-.5428 1.42393-.7094.53847-.1666 1.11819-.2531 1.70534-.2531s1.16687.0865 1.70534.2531c.53861.1666 1.02181.409 1.42391.7094.4021.3003.7124.6505.9207 1.0261.2079.3748.3115.7698.3115 1.1637 0 .394-.1036.789-.3115 1.1638-.2083.3756-.5186.7257-.9207 1.0261-.4021.3003-.8853.5428-1.42391.7094-.52053.161-1.0796.2472-1.64667.2528zm4.20338-.8678c.2022-.2225.3758-.4622.5167-.7164.2724-.4912.416-1.0245.416-1.5679s-.1436-1.0766-.416-1.5678c-.2719-.4904-.6655-.9272-1.1508-1.2897-.4852-.36241-1.0555-.64577-1.6763-.83784-.62094-.19212-1.28386-.29029-1.95165-.29029s-1.33071.09817-1.95165.29029c-.62079.19207-1.19106.47543-1.67632.83784-.4853.3625-.87887.7993-1.1508 1.2897-.27241.4912-.41599 1.0244-.41599 1.5678s.14358 1.0767.41599 1.5679c.05525.0996.11553.197.18057.2921-1.0057-.6611-1.64555-1.5523-1.64555-2.6833 0-.6445.30726-1.4654.85311-2.3465.53937-.87072 1.28337-1.75465 2.08973-2.51452.80822-.76161 1.66137-1.38191 2.41182-1.74029.37533-.17925.70913-.28532.98824-.31887.27846-.03349.4759.00774.61284.08992.24968.14968.33325.29257.36567.40408.03673.12629.02755.27941-.02133.47748-.02408.09758-.05483.19519-.0886.30075-.00201.00626-.00403.01259-.00608.01898-.0305.09523-.06486.20248-.08979.30422-.0442.18037-.11688.55159.15921.82767.17682.17683.41158.19121.54924.18696.15424-.00476.32424-.03885.48524-.07815.1508-.03682.3179-.08448.4864-.13255l.0459-.01308c.1874-.05342.3808-.10791.5787-.15598.4-.09716.7907-.16076 1.139-.13922.3412.0211.6164.12168.8268.33202.133.13304.1566.23141.1589.30257.003.09045-.027.19894-.0949.35058-.023.05151-.0455.09773-.0702.14856-.0127.02607-.0259.05336-.0402.08319-.0377.079-.0812.1742-.1124.27254-.0309.09774-.0589.22623-.0423.3679.0179.15346.0851.29531.2011.41129.087.08704.1958.15899.2923.21705.1003.0604.2162.1224.3302.1833l.0042.0023c.2343.1252.4827.2581.7172.4225.4691.329.8117.7335.8117 1.336 0 .6262-.5019 1.7163-1.6945 2.6692-.3798.3036-.8262.5897-1.3414.8377zm-2.59987-8.11863.00022.00308zm4.97487-1.24006c-.1618-.0793-.3397-.12051-.5199-.12046-.2301.00006-.4167-.18644-.4167-.41656-.0001-.23012.1864-.41671.4165-.41677.3074-.00008.6108.07021.8868.20549s.5174.33195.7057.57494c.1883.243.3184.52587.3805.82694.062.30107.0543.61235-.0225.90999-.0575.22281-.2848.3568-.5076.29927s-.3568-.28479-.2993-.50761c.0451-.17447.0496-.35695.0132-.53344s-.1127-.34231-.223-.48475c-.1104-.14245-.2519-.25774-.4137-.33704zm-8.99664 5.16199c.531-.4423 1.23734-.6813 1.96136-.6813s1.43037.239 1.96137.6813c.53321.4442.85191 1.0648.85191 1.7319 0 .6672-.3187 1.2877-.85191 1.7319-.531.4424-1.23735.6813-1.96137.6813s-1.43036-.2389-1.96136-.6813c-.53323-.4442-.85193-1.0647-.85193-1.7319 0-.6671.3187-1.2877.85193-1.7319zm1.96136.1521c-.54723 0-1.06007.1817-1.42798.4882-.36569.3046-.55198.6997-.55198 1.0916s.18629.787.55198 1.0917c.36791.3064.88075.4882 1.42798.4882.54724 0 1.06008-.1818 1.42799-.4882.36569-.3047.55198-.6998.55198-1.0917s-.18629-.787-.55198-1.0916c-.36791-.3065-.88075-.4882-1.42799-.4882z" fill-rule="evenodd"/></svg>