<svg viewBox="0 0 20 20" xmlns="http://www.w3.org/2000/svg"><path d="m13.0298 2.09608c-2.17.253-4.05795.459-4.19495.46-.145 0-.31.02-.39.046-.078.026-1.37001.186-2.93001.363-.98596.10805-1.97099.22438-2.955.349-.26544.05823-.5073.19476-.69431.39193-.18702.19717-.31057.44592-.35469.71407-.04.258-.041 10.30502 0 10.62002.068.531.467.997.964 1.126.088.023 1.44201.238 3.01001.477 1.568.24 2.93099.45 3.02999.466.099.017 2.07996.321 4.40196.677 3.95.604 4.234.643 4.414.615.105-.017.245-.05.312-.073.346-.123.648-.434.796-.821l.066-.172.009-7.14c.006-4.86002-.002-7.21602-.023-7.37902-.092-.697-.655-1.196-1.335-1.182-.1.002-1.956.21-4.126.462zm3.975 6.869h-7.43996l-.015-4.961.157-.019c.90996-.113 7.08896-.82 7.18596-.822l.127-.003zm-8.95495.015-5.05501-.015-.015-4.207.442-.051 2.45301-.286c1.10599-.129 2.04699-.236 2.092-.238l.083-.003zm0 4.00502c0 2.009-.00801 2.535-.037 2.534-.021-.001-1.159-.174-2.528-.384l-2.49001-.383-.008-2.114c-.007-.717-.00466-1.4341.007-2.151.011-.029.546-.037 2.535-.037h2.52101zm8.96995 3.922-.097-.018c-.108-.02-7.33896-1.129-7.35996-1.129-.022 0-.014-5.269.007-5.29.011-.011 1.68896-.017 3.72796-.013l3.707.008z"/></svg>