<svg viewBox="0 0 20 20" xmlns="http://www.w3.org/2000/svg"><path d="m12.6668.785045c-1.879.282995-3.43901 1.389995-4.29601 3.047995-.39233.74772-.60689 1.57585-.627 2.42-.03671.63349.04155 1.26839.231 1.874l.07.24401-3.484 3.48895c-3.214 3.221-3.491 3.507-3.586004 3.707-.171.36-.217.597-.2 1.033.027.686.165.943.892004 1.659.85.839 1.146.993 1.9.989.345-.001.454-.015.633-.078.451-.158.505-.206 2.978-2.652 1.16078-1.1482 2.32278-2.2952 3.48601-3.441l1.126-1.106.247.064c.8005.1957 1.6319.2304 2.446.102 1.0208-.1774 1.9747-.6278 2.7604-1.3033s1.374-1.55096 1.7026-2.53365c.228-.68401.269-.95801.268-1.81701-.001-.885-.041-1.154-.233-1.543-.207-.421-.626-.782-.959-.828-.329-.045-.333-.041-1.905 1.524-.789.785-1.476 1.443-1.528 1.462-.1401.04597-.2917.04315-.43-.008-.111-.04899-1.13-.955-1.239-1.101-.0495-.06626-.0829-.14315-.0975-.22457-.0145-.08141-.0099-.1651.0135-.24443.032-.118.234-.335 1.48-1.587 1.416-1.422 1.444-1.453 1.479-1.621.094-.448-.313-1.07-.885-1.350995-.403-.199-1.517-.286-2.243-.176zm1.2 1.471995c0 .013-.493.52-1.094 1.125-.957.963-1.109 1.131-1.214 1.335-.1579.29257-.2355.62172-.225.954.001.493.111.849.379 1.225.175.245 1.432 1.35101 1.691 1.48701.3039.16226.6434.24648.988.24509.3445-.0014.6834-.08837.986-.2531.206-.10799.383-.268 1.294-1.17l1.055-1.044.023.10601c.057.261-.075 1.15199-.238 1.60699-.52 1.45001-1.687 2.45996-3.212 2.78096-.202.043-.432.06-.8.06-.589 0-.876-.048-1.433-.24-.395-.136-.587-.15-.784-.058-.089.043-1.126 1.046-3.16601 3.064-4.247 4.202-4.256 4.211-4.361 4.25-.143.054-.361.042-.473-.026-.154-.095-.913-.836-.972-.949-.062-.12-.068-.381-.011-.493.022-.044 1.665-1.707 3.65-3.696 1.986-1.99 3.634-3.66495 3.663-3.72395.092-.183.068-.41801-.08-.79701-.242-.621-.282-.841-.282-1.579 0-.564.01-.68999.075-.94999.15348-.6736.47281-1.29818.92901-1.81701.6369-.74205 1.5104-1.2415 2.473-1.414.266-.049 1.139-.07 1.139-.029z"/></svg>