<svg viewBox="0 0 20 20" xmlns="http://www.w3.org/2000/svg"><path d="m13.9796 1.58337c-.1508 0-.2899.0815-.3635.21309l-5.59032 9.98264c-.06912.1234-.07089.2735-.0047.3985l3.59372 6.7882c.0722.1364.2139.2217.3683.2217h3.5937c.1462 0 .2816-.0765.357-.2017s.0796-.2807.0113-.4099l-3.4876-6.5876 5.4794-9.78467c.0723-.12904.0707-.2867-.0041-.41428-.0748-.12759-.2116-.20598-.3594-.20598z"/><path d="m2.79926 5.17712c-.15147 0-.291.0822-.36443.21468-.07343.13249-.06918.29438.0111.42282l1.86315 2.98104-2.66834 4.57434c-.07517.1288-.07571.2881-.0014.4174.07431.1294.21212.2092.36131.2092h3.19445c.14819 0 .28523-.0787.3599-.2068l2.79514-4.79162c.07798-.13367.07545-.29955-.00657-.43078l-1.99653-3.19444c-.07614-.12183-.20967-.19584-.35333-.19584z"/></svg>