<svg viewBox="0 0 20 20" xmlns="http://www.w3.org/2000/svg"><path d="m13.6161 1.79646c.0736-.13159.2127-.21309.3635-.21309h3.5938c.1478 0 .2846.07839.3594.20598.0748.12758.0764.28524.0041.41428l-5.4794 9.78467 3.4876 6.5876c.0683.1292.0641.2847-.0113.4099s-.2108.2017-.357.2017h-3.5937c-.1544 0-.2961-.0853-.3683-.2217l-3.59372-6.7882c-.06619-.125-.06442-.2751.0047-.3985zm.6077.62025-5.36006 9.57159 3.37016 6.3659h2.6509l-3.27-6.1766c-.0662-.125-.0644-.2751.0047-.3985l5.243-9.36239zm-11.78897 2.97509c.07343-.13248.21296-.21468.36443-.21468h3.19445c.14366 0 .27719.07401.35333.19584l1.99653 3.19444c.08202.13123.08455.29711.00657.43078l-2.79514 4.79162c-.07467.1281-.21171.2068-.3599.2068h-3.19445c-.14919 0-.287-.0798-.36131-.2092-.07431-.1293-.07377-.2886.0014-.4174l2.66834-4.57434-1.86315-2.98104c-.08028-.12844-.08453-.29033-.0111-.42282zm1.1162.61866 1.59809 2.55694c.08202.13123.08455.29711.00658.43078l-2.42962 4.16502h2.22969l2.54775-4.36754-1.74075-2.7852z"/></svg>