<svg viewBox="0 0 20 20" xmlns="http://www.w3.org/2000/svg"><path d="m9.99906 2.58337c.00007 0 .00011 0 .00011.75l-.00001.75-.06307.0001-.18255.00064c-.15827.00075-.38632.00223-.66457.00521-.55682.00596-1.31327.01786-2.11335.04164-.80128.02381-1.64031.05936-2.36407.11215-.74014.05398-1.29774.12224-1.58004.19674-.26325.07546-.50215.21861-.69287.41522-.18666.19244-.32073.42946-.38954.6883-.25092 1.40078-.37363 2.82154-.3666 4.24463l.00004.00842c-.00898 1.42948.11292 2.85678.36424 4.26398.07595.2464.2116.4704.39509.652.191.189.42741.3257.68649.397.28127.0748.84027.1434 1.58319.1976.72376.0528 1.56279.0883 2.36407.1121.80008.0238 1.55653.0357 2.11335.0417.27825.0029.5063.0044.66457.0052l.18255.0006.06224.0001.00084.75c0 .75-.00004.75-.00011.75l-.06628-.0001-.18628-.0007c-.16087-.0007-.39194-.0022-.67358-.0052-.56298-.006-1.32944-.0181-2.14186-.0422-.81122-.0241-1.67428-.0605-2.42863-.1155-.73338-.0535-1.42762-.1285-1.86369-.2451l-.00417-.0011c-.50874-.1392-.97297-.4073-1.34785-.7783-.374881-.371-.647735-.8324-.792198-1.3397-.006779-.0238-.012376-.0479-.01677-.0723-.272315-1.5097-.4046287-3.0413-.3952556-4.5753-.0072659-1.52254.1250366-3.04254.3952506-4.54093.002966-.01645.00648-.03279.010538-.049.131038-.52353.397912-1.00321.773665-1.39058.37576-.38738.84709-.66874 1.36638-.81566l.01039-.00293c.43607-.11663 1.13033-.19153 1.86371-.24502.75436-.05502 1.61741-.09135 2.42863-.11546.81242-.02414 1.57888-.03619 2.14186-.04221.28164-.00302.51271-.00452.67358-.00528l.18628-.00066zm6.96774 12.52683c-.2823.0745-.8399.1428-1.58.1968-.7238.0528-1.5628.0883-2.3641.1121-.8.0238-1.5565.0357-2.1133.0417-.2783.0029-.5063.0044-.6646.0052l-.1825.0006-.0623.0001-.00083.75c0 .75-.00004.75-.00011.75l.06654-.0001.1862-.0007c.1609-.0007.392-.0022.6736-.0052.563-.006 1.3295-.0181 2.1419-.0422.8112-.0241 1.6743-.0605 2.4286-.1155.7334-.0535 1.4276-.1285 1.8637-.2451l.0104-.0029c.5193-.1469.9906-.4282 1.3664-.8156s.6426-.8671.7737-1.3906c.004-.0162.0075-.0326.0105-.049.2682-1.4873.4005-2.9958.3952-4.50704.0095-1.5342-.1229-3.06599-.3952-4.57586-.003-.01643-.0065-.03276-.0105-.04896-.1311-.52353-.3979-1.00321-.7737-1.39059-.3758-.38737-.8471-.66873-1.3664-.81565-.0087-.00246-.0175-.00477-.0262-.00692-.4302-.10503-1.119-.17323-1.8526-.22209-.753-.05015-1.6151-.08329-2.4259-.10529-.8118-.02203-1.5779-.03303-2.1406-.03852-.2815-.00275-.5124-.00413-.6732-.00482l-.1861-.0006-.06634-.00009c.00007 0 .00011 0 .00011.75l-.00001.75.06324.00009.1827.00059c.1584.00068.3866.00204.665.00476.5571.00544 1.314.01632 2.1146.03804.8017.02175 1.6417.05423 2.3668.10252.7331.04882 1.2925.1107 1.5831.17938.2602.07603.4963.2183.6851.41299.1867.19244.3207.42946.3896.68832.2528 1.41139.3756 2.84305.3666 4.27694l-.0001.0074c.0051 1.4123-.1176 2.8222-.3666 4.2123-.0688.2589-.2028.4959-.3895.6883-.1907.1966-.4296.3398-.6929.4152zm-9.2194-8.69179c.23086-.13429.51571-.13568.74787-.00365l4.79163 2.725c.2345.13332.3793.38225.3793.65195 0 .26969-.1448.51859-.3793.65199l-4.79163 2.725c-.23216.132-.51701.1306-.74787-.0037s-.37289-.3812-.37289-.6483v-5.44999c0-.26708.14203-.51401.37289-.6483zm1.12711 1.93762v2.87137l2.52449-1.43569z"/></svg>