<svg viewBox="0 0 20 20" xmlns="http://www.w3.org/2000/svg"><path d="m8.875 11.2273v-2.87133l2.5245 1.43568z"/><path d="m9.99906 16.9667-.06628-.0001-.18628-.0007c-.16087-.0007-.39194-.0022-.67358-.0052-.56297-.006-1.32944-.0181-2.14186-.0422-.81122-.0241-1.67428-.0605-2.42863-.1155-.73338-.0535-1.42762-.1285-1.86369-.2451l-.00417-.0011c-.50874-.1392-.97297-.4073-1.34785-.7783-.374882-.371-.647735-.8324-.792198-1.3397-.006779-.0238-.012376-.0479-.01677-.0723-.272315-1.5097-.4046287-3.0413-.3952556-4.5753-.0072659-1.52253.1250376-3.04254.3952506-4.54093.002966-.01645.00648-.03279.010538-.049.131038-.52353.397912-1.00321.773665-1.39058.37576-.38738.84709-.66874 1.36638-.81566l.01039-.00293c.43607-.11663 1.13033-.19153 1.86371-.24502.75435-.05502 1.61741-.09135 2.42863-.11546.81242-.02414 1.57889-.03619 2.14186-.04221.28164-.00302.51271-.00452.67358-.00528l.18628-.00066.06628-.0001.06634.00009.1861.0006c.1608.00069.3917.00207.6732.00482.5627.00549 1.3288.01649 2.1406.03852.8108.022 1.6729.05514 2.4259.10529.7336.04886 1.4224.11706 1.8526.22209.0088.00215.0175.00446.0262.00692.5193.14692.9906.42828 1.3664.81565.3758.38738.6426.86706.7737 1.39059.004.0162.0075.03253.0105.04897.2723 1.5098.4046 3.04152.3953 4.57565l-.0001-.00355-.75.0027.75.00471.0001-.00386c.0052 1.51124-.1271 3.01994-.3953 4.50724-.003.0164-.0065.0328-.0105.049-.1311.5235-.3979 1.0032-.7737 1.3906s-.8471.6687-1.3664.8156l-.0104.0029c-.4361.1166-1.1303.1916-1.8637.2451-.7543.055-1.6174.0914-2.4286.1155-.8124.0241-1.5789.0362-2.1419.0422-.2816.003-.5127.0045-.6736.0052l-.1862.0007zm-1.5033-10.552c-.23216-.13203-.51702-.13063-.74787.00366-.23086.13429-.37289.38121-.37289.64829v5.45005c0 .267.14203.514.37289.6482.23085.1343.51571.1357.74787.0037l4.79164-2.725c.2345-.1333.3793-.3823.3793-.65195 0-.26969-.1448-.51862-.3793-.65195z"/></svg>